<svg xmlns="http://www.w3.org/2000/svg" width="373.688" height="55.557" viewBox="0 0 373.688 55.557">
  <g id="progress_bar_-3" data-name="progress bar -3" transform="translate(-234.662 -12.28)">
    <g id="Path_45" data-name="Path 45" transform="translate(-828.078 -448.985)">
      <path id="Path_470" data-name="Path 470" d="M1430.428,467.266l-329.258.211-32.43,43.346,222.824-.8.986,0,105.4-.38Z" fill="none" stroke="#83a3d2" stroke-linecap="round" stroke-linejoin="round" stroke-width="12" opacity="0.2"/>
      <path id="Path_471" data-name="Path 471" d="M1428.833,467.3l-327.663.171-32.43,43.349,329.21-1.187Z" transform="translate(0 0)" fill="none" stroke="#9957e2" stroke-linecap="round" stroke-linejoin="round" stroke-width="8" opacity="0.25"/>
      <path id="Path_472" data-name="Path 472" d="M1429.723,467.4l-328.554.063-32.43,43.356,224.8-.81,104.415-.376Z" transform="translate(0 0.001)" fill="none" stroke="#241435" stroke-linecap="round" stroke-linejoin="round" stroke-width="6" opacity="0.3"/>
      <path id="Path_473" data-name="Path 473" d="M1428.659,467.474l-327.49-.012-32.43,43.36,244.211-.881,85-.306Z" transform="translate(0 0.001)" fill="none" stroke="#241435" stroke-linecap="round" stroke-linejoin="round" stroke-width="5"/>
      <path id="Path_474" data-name="Path 474" d="M1428.666,467.359l-327.5.1-32.43,43.36L1295.507,510l102.443-.369Z" transform="translate(0 0.001)" fill="none" stroke="#4800d1" stroke-linecap="round" stroke-linejoin="round" stroke-width="3"/>
      <path id="Path_475" data-name="Path 475" d="M1428.552,467.527l-327.383-.066-32.43,43.36,214.939-.775h.422l1.8-.007,112.053-.4Z" transform="translate(0 0.001)" fill="none" stroke="#d7a1eb" stroke-linecap="round" stroke-linejoin="round" stroke-width="1.25"/>
      <path id="Path_476" data-name="Path 476" d="M1428.691,467.465l-327.521,0-32.43,43.36,329.21-1.187Z" transform="translate(0 0.001)" fill="none" stroke="#9b59e6" stroke-linecap="round" stroke-linejoin="round" stroke-width="0.5"/>
    </g>
    <g id="Group_1996" data-name="Group 1996" transform="translate(263.002 27.529)">
      <path id="Path_46" data-name="Path 46" d="M7335.208,3021.7h11.1l18.777-23.607h-10.661Z" transform="translate(-7332.208 -2997.92)" fill="#d7a8ff"/>
      <path id="Path_47" data-name="Path 47" d="M7335.208,3021.7h11.1l18.777-23.607h-10.661Z" transform="translate(-7310.479 -2998.093)" fill="#d7a8ff"/>
      <path id="Path_48" data-name="Path 48" d="M7335.208,3021.7h11.1l18.777-23.607h-10.661Z" transform="translate(-7289.561 -2998.093)" fill="#d7a8ff"/>
      <g id="Group_82" data-name="Group 82" transform="translate(52.874 0)">
        <path id="Path_49" data-name="Path 49" d="M7335.208,3021.7h11.1l18.777-23.607h-10.661Z" transform="translate(-7320.208 -2998.092)" fill="#83679b"/>
        <path id="Path_50" data-name="Path 50" d="M7335.208,3021.7h11.1l18.777-23.607h-10.661Z" transform="translate(-7299.12 -2998.092)" fill="#83679b"/>
        <path id="Path_51" data-name="Path 51" d="M7335.208,3021.7h11.1l18.777-23.607h-10.661Z" transform="translate(-7278.881 -2997.919)" fill="#83679b"/>
        <path id="Path_52" data-name="Path 52" d="M7335.208,3021.7h11.1l18.777-23.607h-10.661Z" transform="translate(-7257.657 -2998.092)" fill="#83679b"/>
        <path id="Path_53" data-name="Path 53" d="M7335.208,3021.7h11.1l18.777-23.607h-10.661Z" transform="translate(-7237.015 -2998.092)" fill="#83679b"/>
        <path id="Path_54" data-name="Path 54" d="M7335.208,3021.7h11.1l18.777-23.607h-10.661Z" transform="translate(-7216.374 -2997.919)" fill="#83679b"/>
        <path id="Path_55" data-name="Path 55" d="M7335.208,3021.7h11.1l18.777-23.607h-10.661Z" transform="translate(-7195.149 -2997.919)" fill="#83679b"/>
        <path id="Path_56" data-name="Path 56" d="M7335.209,3018.934h9.582L7361,2998.093h-9.2Z" transform="translate(-7171.668 -2996.537)" fill="#83679b" stroke="#83679b" stroke-width="2"/>
        <path id="Path_57" data-name="Path 57" d="M7335.209,3018.934h9.582L7361,2998.093h-9.2Z" transform="translate(-7151.208 -2996.537)" fill="#83679b" stroke="#83679b" stroke-width="2"/>
        <path id="Path_58" data-name="Path 58" d="M7335.209,3018.934h9.582L7361,2998.093h-9.2Z" transform="translate(-7127.46 -2996.71)" fill="#83679b" stroke="#83679b" stroke-width="2"/>
        <path id="Path_59" data-name="Path 59" d="M7335.209,3018.934h9.582L7361,2998.093h-9.2Z" transform="translate(-7103.95 -2996.537)" fill="#83679b" stroke="#83679b" stroke-width="2"/>
      </g>
    </g>
  </g>
</svg>
