<svg xmlns="http://www.w3.org/2000/svg" xmlns:xlink="http://www.w3.org/1999/xlink" width="83.671" height="83.675" viewBox="0 0 83.671 83.675"><defs><linearGradient id="a" x1="0.12" y1="0.194" x2="0.941" y2="0.812" gradientUnits="objectBoundingBox"><stop offset="0" stop-color="#1d00b7"/><stop offset="1" stop-color="#d800ae"/></linearGradient><filter id="b" x="0" y="0" width="83.671" height="83.675" filterUnits="userSpaceOnUse"><feOffset dy="3" input="SourceAlpha"/><feGaussianBlur stdDeviation="3" result="c"/><feFlood flood-opacity="0.161"/><feComposite operator="in" in2="c"/><feComposite in="SourceGraphic"/></filter><clipPath id="d"><path d="M2077.944,2134.547a1.3,1.3,0,0,1-.917-.352,1.22,1.22,0,0,1-.387-.91v-9.139l-3.666,5.55a1.169,1.169,0,0,1-1,.5h-.022a1.212,1.212,0,0,1-.948-.478l-.043-.06-3.638-5.541v9.169a1.242,1.242,0,0,1-1.224,1.262h-.038a1.2,1.2,0,0,1-.9-.378,1.261,1.261,0,0,1-.34-.884v-13.138a1.249,1.249,0,0,1,.352-.875,1.266,1.266,0,0,1,1.477-.264,1.184,1.184,0,0,1,.527.429l4.844,7.265,4.9-7.289a1.3,1.3,0,0,1,1.82-.279,1.28,1.28,0,0,1,.133.111h0a1.245,1.245,0,0,1,.363.9v13.138a1.224,1.224,0,0,1-.387.912A1.281,1.281,0,0,1,2077.944,2134.547Z" transform="translate(-2064.815 -2118.877)" fill="#e4e4e4"/></clipPath><clipPath id="e"><path d="M2092.062,2134.545a1.265,1.265,0,0,1-.922-.364,1.242,1.242,0,0,1-.363-.9v-11.938h-3.6a1.264,1.264,0,0,1-.885-.34,1.2,1.2,0,0,1-.377-.9,1.184,1.184,0,0,1,.378-.882,1.264,1.264,0,0,1,.884-.34h9.773a1.267,1.267,0,0,1,.884.339h0a1.2,1.2,0,0,1,.377.9,1.169,1.169,0,0,1-.4.905,1.291,1.291,0,0,1-.869.316h-3.6v11.939a1.223,1.223,0,0,1-.388.911A1.278,1.278,0,0,1,2092.062,2134.545Z" transform="translate(-2085.912 -2118.882)" fill="#e4e4e4"/></clipPath></defs><g transform="translate(9 6)"><g transform="translate(0 0)"><g transform="matrix(1, 0, 0, 1, -9, -6)" filter="url(#b)"><path d="M2060.239,2109.421a1.337,1.337,0,0,1-1.542-1.1,1.179,1.179,0,0,1-.009-.342,1.344,1.344,0,0,1,1.105-1.2l38.643-6.476a32.848,32.848,0,0,0-53.349-.425l15.906-2.666a1.431,1.431,0,1,1,.481,2.822l-18.485,3.1a32.692,32.692,0,0,0-4.079,12.962c-.1,1.109-.153,2.214-.148,3.324a1.1,1.1,0,0,1,.063.237,1.3,1.3,0,0,1-.046.653,32.651,32.651,0,0,0,4.591,15.674l39.242-6.573a1.35,1.35,0,0,1,1.542,1.1,1.139,1.139,0,0,1,.011.343,1.338,1.338,0,0,1-1.106,1.2l-38.089,6.384a32.794,32.794,0,0,0,52.843.539l-13.937,2.333a1.365,1.365,0,0,1-.376.015,1.43,1.43,0,0,1-.1-2.835l16.584-2.78a32.774,32.774,0,0,0,0-32.949Zm11.552-14.046a1.708,1.708,0,1,1-1.865,1.537A1.708,1.708,0,0,1,2071.792,2095.375Zm1.153,47.537a1.708,1.708,0,1,1,1.865-1.537A1.708,1.708,0,0,1,2072.945,2142.912Z" transform="translate(-2029.76 -2080.4)" fill="url(#a)"/></g></g><g transform="translate(20.842 25.981)"><path d="M2077.944,2134.547a1.3,1.3,0,0,1-.917-.352,1.22,1.22,0,0,1-.387-.91v-9.139l-3.666,5.55a1.169,1.169,0,0,1-1,.5h-.022a1.212,1.212,0,0,1-.948-.478l-.043-.06-3.638-5.541v9.169a1.242,1.242,0,0,1-1.224,1.262h-.038a1.2,1.2,0,0,1-.9-.378,1.261,1.261,0,0,1-.34-.884v-13.138a1.249,1.249,0,0,1,.352-.875,1.266,1.266,0,0,1,1.477-.264,1.184,1.184,0,0,1,.527.429l4.844,7.265,4.9-7.289a1.3,1.3,0,0,1,1.82-.279,1.28,1.28,0,0,1,.133.111h0a1.245,1.245,0,0,1,.363.9v13.138a1.224,1.224,0,0,1-.387.912A1.281,1.281,0,0,1,2077.944,2134.547Z" transform="translate(-2064.815 -2118.877)" fill="#e4e4e4"/><g clip-path="url(#d)"><g transform="translate(-35.465 -42.302)"><rect width="101.817" height="93.893" fill="#e4e4e4"/></g></g></g><g transform="translate(37.72 25.985)"><path d="M2092.062,2134.545a1.265,1.265,0,0,1-.922-.364,1.242,1.242,0,0,1-.363-.9v-11.938h-3.6a1.264,1.264,0,0,1-.885-.34,1.2,1.2,0,0,1-.377-.9,1.184,1.184,0,0,1,.378-.882,1.264,1.264,0,0,1,.884-.34h9.773a1.267,1.267,0,0,1,.884.339h0a1.2,1.2,0,0,1,.377.9,1.169,1.169,0,0,1-.4.905,1.291,1.291,0,0,1-.869.316h-3.6v11.939a1.223,1.223,0,0,1-.388.911A1.278,1.278,0,0,1,2092.062,2134.545Z" transform="translate(-2085.912 -2118.882)" fill="#e4e4e4"/><g clip-path="url(#e)"><g transform="translate(-51.685 -40.35)"><rect width="101.817" height="93.893" fill="#e4e4e4"/></g></g></g></g></svg>