<svg xmlns="http://www.w3.org/2000/svg" width="22.496" height="19.993" viewBox="0 0 22.496 19.993"><path d="M15.724,3.253l3.523,3.523a.382.382,0,0,1,0,.539l-8.53,8.53-3.624.4a.76.76,0,0,1-.84-.84l.4-3.624,8.53-8.53A.382.382,0,0,1,15.724,3.253Zm6.327-.894L20.145.452a1.527,1.527,0,0,0-2.156,0L16.607,1.835a.382.382,0,0,0,0,.539L20.129,5.9a.382.382,0,0,0,.539,0l1.383-1.383a1.528,1.528,0,0,0,0-2.156ZM15,13.524V17.5H2.5V5h8.975a.48.48,0,0,0,.332-.137L13.369,3.3a.469.469,0,0,0-.332-.8H1.875A1.875,1.875,0,0,0,0,4.377V18.125A1.875,1.875,0,0,0,1.875,20H15.622A1.875,1.875,0,0,0,17.5,18.125V11.962a.47.47,0,0,0-.8-.332l-1.562,1.562A.48.48,0,0,0,15,13.524Z" transform="translate(0 -0.007)" fill="#3b018c" opacity="0.65"/></svg>