<svg xmlns="http://www.w3.org/2000/svg" width="202" height="191" viewBox="0 0 202 191"><g transform="translate(-476 -160)"><rect width="202" height="191" rx="95.5" transform="translate(476 160)" fill="#f5f9ff"/><g transform="translate(548.646 223.798)"><g transform="translate(-0.001 34.897)"><path d="M135.02,234.667a28.387,28.387,0,0,0-28.354,28.354,2.181,2.181,0,1,0,4.362,0,23.992,23.992,0,0,1,47.984,0,2.181,2.181,0,1,0,4.362,0A28.387,28.387,0,0,0,135.02,234.667Z" transform="translate(-106.666 -234.667)" fill="#3b018c"/></g><g transform="translate(13.086 0)"><path d="M185.934,64A15.268,15.268,0,1,0,201.2,79.268,15.284,15.284,0,0,0,185.934,64Zm0,26.173a10.905,10.905,0,1,1,10.905-10.905A10.921,10.921,0,0,1,185.934,90.173Z" transform="translate(-170.666 -64)" fill="#3b018c"/></g></g><g transform="translate(520 199)" fill="none" stroke="#3b018c" stroke-width="3"><rect width="114" height="114" rx="57" stroke="none"/><rect x="1.5" y="1.5" width="111" height="111" rx="55.5" fill="none"/></g></g></svg>