<svg xmlns="http://www.w3.org/2000/svg" xmlns:xlink="http://www.w3.org/1999/xlink" width="603.698" height="263.033" viewBox="0 0 603.698 263.033"><defs><linearGradient id="a" x1="0.935" y1="0.363" x2="-0.032" y2="0.559" gradientUnits="objectBoundingBox"><stop offset="0" stop-color="#60b0e2"/><stop offset="1" stop-color="#916eb0"/></linearGradient><linearGradient id="b" x1="0.389" y1="0.968" x2="0.754" y2="-0.026" xlink:href="#a"/></defs><g transform="translate(-777.018 -279.746)"><g transform="translate(870.885 279.746)"><g transform="translate(11.648 0.728)"><path d="M1457.152,561.978h-5.445a6.758,6.758,0,0,0-6.758,6.758v10.949a6.758,6.758,0,0,1-6.758,6.758h-33.174a6.758,6.758,0,0,1-6.758-6.758V568.736a6.758,6.758,0,0,0-6.758-6.758h-60.492a6.758,6.758,0,0,1-6.758-6.758V533.5a6.755,6.755,0,0,1,1.2-3.841l57.34-83.017a6.757,6.757,0,0,1,5.56-2.917h33.184a6.758,6.758,0,0,1,5.627,10.5l-39.859,59.94a6.758,6.758,0,1,0,12.385,3.742v-8.3a6.757,6.757,0,0,1,6.758-6.758h31.746a6.758,6.758,0,0,1,6.758,6.758v8.3a6.758,6.758,0,0,0,6.758,6.758h5.445a6.758,6.758,0,0,1,6.758,6.758V555.22A6.758,6.758,0,0,1,1457.152,561.978Z" transform="translate(-1324.253 -440.466)" fill="#f0f0f0" fill-rule="evenodd"/><path d="M1868.257,572.668q-14.579-8.868-22.835-25.688t-8.257-40.062q0-23.243,8.257-40.062t22.835-25.688q14.573-8.87,33.539-8.869t33.536,8.869q14.576,8.868,22.835,25.688t8.257,40.062q0,23.243-8.257,40.062t-22.835,25.688q-14.579,8.87-33.536,8.869t-33.539-8.869Zm49.847-65.75h0q0-36.086-16.308-36.086t-16.311,36.086q0,36.086,16.311,36.086T1918.1,506.918Z" transform="translate(-1690.782 -432.298)" fill="#f0f0f0" fill-rule="evenodd"/><path d="M2460.117,561.978h-5.445a6.758,6.758,0,0,0-6.759,6.758v10.949a6.758,6.758,0,0,1-6.758,6.758h-33.173a6.758,6.758,0,0,1-6.758-6.758V568.736a6.758,6.758,0,0,0-6.759-6.758h-60.49a6.758,6.758,0,0,1-6.758-6.758V533.5a6.757,6.757,0,0,1,1.2-3.841l57.339-83.017a6.757,6.757,0,0,1,5.56-2.917H2424.5a6.758,6.758,0,0,1,5.627,10.5l-39.859,59.94a6.758,6.758,0,1,0,12.385,3.742v-8.3a6.758,6.758,0,0,1,6.758-6.758h31.746a6.757,6.757,0,0,1,6.758,6.758v8.3a6.758,6.758,0,0,0,6.759,6.758h5.445a6.758,6.758,0,0,1,6.758,6.758V555.22A6.758,6.758,0,0,1,2460.117,561.978Z" transform="translate(-2040.977 -440.466)" fill="#f0f0f0" fill-rule="evenodd"/></g><path d="M1416.339,559.427h-5.445a6.758,6.758,0,0,0-6.758,6.758v10.949a6.758,6.758,0,0,1-6.758,6.758H1364.2a6.758,6.758,0,0,1-6.758-6.758V566.185a6.758,6.758,0,0,0-6.758-6.758H1290.2a6.758,6.758,0,0,1-6.758-6.758V530.952a6.758,6.758,0,0,1,1.2-3.841l57.34-83.018a6.758,6.758,0,0,1,5.56-2.917h33.184a6.758,6.758,0,0,1,5.627,10.5l-39.859,59.94a6.758,6.758,0,1,0,12.385,3.742v-8.3a6.758,6.758,0,0,1,6.758-6.758h31.746a6.758,6.758,0,0,1,6.758,6.758v8.3a6.758,6.758,0,0,0,6.758,6.758h5.445a6.758,6.758,0,0,1,6.758,6.758v23.795A6.758,6.758,0,0,1,1416.339,559.427Z" transform="translate(-1283.439 -437.915)" fill="#feab5d" fill-rule="evenodd"/><path d="M1827.443,570.116q-14.579-8.868-22.835-25.688t-8.257-40.062q0-23.243,8.257-40.062t22.835-25.688q14.573-8.87,33.539-8.87t33.536,8.87q14.576,8.868,22.835,25.688t8.257,40.062q0,23.243-8.257,40.062t-22.835,25.688q-14.579,8.87-33.536,8.87t-33.539-8.87Zm49.847-65.75h0q0-36.086-16.309-36.086t-16.311,36.086q0,36.086,16.311,36.086T1877.291,504.366Z" transform="translate(-1649.968 -429.746)" fill="#feab5d" fill-rule="evenodd"/><path d="M2419.3,559.427h-5.446a6.758,6.758,0,0,0-6.758,6.758v10.949a6.758,6.758,0,0,1-6.758,6.758H2367.17a6.758,6.758,0,0,1-6.758-6.758V566.185a6.758,6.758,0,0,0-6.758-6.758h-60.49a6.758,6.758,0,0,1-6.758-6.758V530.952a6.758,6.758,0,0,1,1.2-3.841l57.339-83.017a6.758,6.758,0,0,1,5.561-2.918h33.184a6.758,6.758,0,0,1,5.627,10.5l-39.859,59.94a6.758,6.758,0,1,0,12.385,3.742v-8.3a6.758,6.758,0,0,1,6.758-6.758h31.746a6.758,6.758,0,0,1,6.758,6.758v8.3a6.758,6.758,0,0,0,6.758,6.758h5.446a6.758,6.758,0,0,1,6.758,6.758v23.795A6.758,6.758,0,0,1,2419.3,559.427Z" transform="translate(-2000.163 -437.915)" fill="#feab5d" fill-rule="evenodd"/></g><g transform="translate(777.018 362.716)"><path d="M756.886,848.1c16.93,0,30.933-5.431,42.45-16.39,13.776-13.108,21.749-31.74,29.461-49.76,8.716-20.368,16.973-46.8,32.008-51.618a20.951,20.951,0,0,1,18.419,2.183c25.368,15.787,34.958,85.837,35.052,86.47l8.573-1.275c-.409-2.747-10.311-74.671-39.046-92.553a29.532,29.532,0,0,0-25.641-3.079c-18.8,6.02-27.817,34.224-37.333,56.462-14.788,34.556-30.076,70.292-83.3,58.612l-25.746-8.33a4.332,4.332,0,1,0-2.665,8.244l26.339,8.5A99.443,99.443,0,0,0,756.886,848.1Z" transform="translate(-706.121 -727.676)" fill="#442f86" fill-rule="evenodd"/><path d="M1526.688,1162.009l-9.223-44.719a30.8,30.8,0,0,1,59.958-14l11.318,43.373Z" transform="translate(-1329.462 -998.777)" fill-rule="evenodd" fill="url(#a)"/><path d="M1559.411,1378.571c.991,4.115,15.862,4.062,33.215-.118s30.616-10.9,29.625-15.019-15.862-4.062-33.215.118S1558.42,1374.456,1559.411,1378.571Z" transform="translate(-1362.165 -1214.155)" fill="#9186dd" fill-rule="evenodd"/><path d="M1721.649,1381.065c-.249,1.389,2.233,3,5.544,3.591s6.2-.049,6.448-1.438-2.233-3-5.544-3.591S1721.9,1379.677,1721.649,1381.065Z" transform="translate(-1486.934 -1228.782)" fill="#442f86" fill-rule="evenodd"/><path d="M1627.03,1410.079c-.249,1.389,2.233,3,5.545,3.591s6.2-.049,6.448-1.438-2.233-3-5.545-3.591S1627.279,1408.691,1627.03,1410.079Z" transform="translate(-1414.183 -1251.091)" fill="#442f86" fill-rule="evenodd"/><path d="M1679.743,1109.244s13.381,4.865,17.638,18.854,7.906,31.93,7.906,31.93l-12.164.3Z" transform="translate(-1454.726 -1021.059)" fill="#bbd1f5" fill-rule="evenodd"/><path d="M1607.258,1040.66l-6.462,11.289,8.514-1.977Z" transform="translate(-1394.025 -968.325)" fill="#442f86" fill-rule="evenodd"/><g transform="translate(285.552 15.755)"><g transform="translate(80.452)"><path d="M2527.473,840.614l-3.446,7.661c-.6-.269-14.827-6.87-27.89-30.12-3.777-6.722-9.568-14.584-15.712-13.859-4.409.521-16.1,6.782-29.39,53.566-14.5,51.021-45.5,84.357-92.15,99.083-30.192,9.53-67.531-10.812-69.105-11.683l4.064-7.352c.469.258,35.825,19.447,62.512,11.024,43.787-13.822,72.922-45.235,86.6-93.368,10.94-38.507,22.875-58.006,36.486-59.613,8.624-1.019,16.706,5.068,24.021,18.086,11.725,20.867,23.891,26.52,24.013,26.575Zm-233.63,97.3h0l-2.03,3.677,2.032-3.676Z" transform="translate(-2289.779 -795.844)" fill="#442f86" fill-rule="evenodd"/></g><g transform="translate(0 110.714)"><path d="M1948.234,1275.677l22.128,16.035a4.135,4.135,0,0,1-4.853,6.7l-22.128-16.035a4.135,4.135,0,1,1,4.853-6.7Z" transform="translate(-1941.672 -1274.89)" fill="#442f86" fill-rule="evenodd"/></g><g transform="translate(17.07 86.151)"><path d="M2022.1,1169.395l22.128,16.035a4.135,4.135,0,0,1-4.853,6.7l-22.128-16.035a4.135,4.135,0,0,1,4.853-6.7Z" transform="translate(-2015.533 -1168.608)" fill="#442f86" fill-rule="evenodd"/></g><path d="M2333.235,1429.448,2319.5,1431.5l3.8-7.658,12.984,5.116Z" transform="translate(-2232.179 -1278.7)" fill="#442f86" fill-rule="evenodd"/><path d="M1977.347,1203.932l38.282,24.886a30.795,30.795,0,0,0,34.884-50.733l-36.265-26.347Z" transform="translate(-1969.102 -1069.487)" fill-rule="evenodd" fill="url(#b)"/><path d="M2032.887,1345.787l8.813-11.926,45.214,32.568a28,28,0,0,1-23.313-.666C2051.125,1359.7,2032.887,1345.787,2032.887,1345.787Z" transform="translate(-2011.806 -1209.518)" fill="#bbd1f5" fill-rule="evenodd"/></g></g></g></svg>