<svg xmlns="http://www.w3.org/2000/svg" width="44.493" height="44.493" viewBox="0 0 44.493 44.493"><g transform="translate(-937.324 -1000.378)"><g transform="translate(-19 -10.764)"><g transform="translate(952.949 1007.767)"><path d="M10.584,15.024a2.072,2.072,0,0,0,0,2.92l10.236,10.2a2.062,2.062,0,0,0,2.845.064L33.751,18.158a2.061,2.061,0,1,0-2.909-2.92l-8.663,8.535L13.5,15.013A2.063,2.063,0,0,0,10.584,15.024Z" transform="translate(3.443 5.752)" fill="#1c105d"/><path d="M3.375,25.622A22.247,22.247,0,1,0,25.622,3.375,22.243,22.243,0,0,0,3.375,25.622ZM38.927,12.316a18.816,18.816,0,1,1-26.61,26.61,18.816,18.816,0,1,1,26.61-26.61Z" transform="translate(0 0)" fill="#1c105d"/></g></g></g></svg>