<svg xmlns="http://www.w3.org/2000/svg" xmlns:xlink="http://www.w3.org/1999/xlink" width="268.782" height="166.852" viewBox="0 0 268.782 166.852"><defs><linearGradient id="a" x1="0.789" y1="0.898" x2="0.154" y2="0.124" gradientUnits="objectBoundingBox"><stop offset="0" stop-color="#3b018c"/><stop offset="1" stop-color="#ac3eb4"/></linearGradient><linearGradient id="b" x1="0.806" y1="0.893" x2="0.137" y2="0.156" gradientUnits="objectBoundingBox"><stop offset="0" stop-color="#3e0c88"/><stop offset="1" stop-color="#8f36a9"/></linearGradient><linearGradient id="c" x1="0.833" y1="0.863" x2="0.196" y2="0.139" gradientUnits="objectBoundingBox"><stop offset="0" stop-color="#491794"/><stop offset="1" stop-color="#882fae"/></linearGradient></defs><g transform="translate(-22.084 -659.633)"><g transform="translate(-333.172 299.252)"><path d="M443.109,406.8v2.9h-.876v-2.9l-3.357-5.493h.947l2.878,4.712,2.879-4.712h.887Z" fill="#fdffeb"/><path d="M446.315,406.553a3.209,3.209,0,1,1,3.215,3.214A3.1,3.1,0,0,1,446.315,406.553Zm5.553,0a2.347,2.347,0,1,0-2.338,2.458A2.3,2.3,0,0,0,451.868,406.553Z" fill="#fdffeb"/><path d="M460.159,403.4v6.309h-.815v-1.151a2.511,2.511,0,0,1-2.267,1.211,2.443,2.443,0,0,1-2.662-2.71V403.4h.851v3.575a1.765,1.765,0,0,0,1.9,2.026,2.052,2.052,0,0,0,2.147-2.291V403.4Z" fill="#fdffeb"/><path d="M464.819,408.987l.384-.672a3.806,3.806,0,0,0,2.242.708c1.2,0,1.691-.408,1.691-1.031,0-1.643-4.09-.348-4.09-2.843,0-1.031.888-1.8,2.495-1.8a4.274,4.274,0,0,1,2.231.587l-.372.683a3.229,3.229,0,0,0-1.859-.539c-1.139,0-1.643.443-1.643,1.043,0,1.7,4.09.42,4.09,2.843,0,1.092-.96,1.8-2.6,1.8A4.21,4.21,0,0,1,464.819,408.987Z" fill="#fdffeb"/><path d="M477.055,406.816h-5.277a2.335,2.335,0,0,0,2.483,2.195,2.486,2.486,0,0,0,1.93-.827l.48.551a3.334,3.334,0,0,1-5.744-2.182,3.038,3.038,0,0,1,3.082-3.2,3.005,3.005,0,0,1,3.058,3.2C477.067,406.624,477.055,406.721,477.055,406.816Zm-5.277-.635h4.474a2.242,2.242,0,0,0-4.474,0Z" fill="#fdffeb"/><path d="M484.3,406.816h-5.277a2.335,2.335,0,0,0,2.483,2.195,2.486,2.486,0,0,0,1.93-.827l.48.551a3.334,3.334,0,0,1-5.744-2.182,3.037,3.037,0,0,1,3.082-3.2,3.005,3.005,0,0,1,3.058,3.2C484.315,406.624,484.3,406.721,484.3,406.816Zm-5.277-.635H483.5a2.242,2.242,0,0,0-4.474,0Z" fill="#fdffeb"/><path d="M496.469,406.049v3.658h-.852v-3.574c0-1.331-.672-2.015-1.811-2.015A2.027,2.027,0,0,0,491.7,406.4v3.311h-.851v-3.574c0-1.331-.672-2.015-1.823-2.015a2.033,2.033,0,0,0-2.111,2.278v3.311h-.851V403.4h.815v1.152a2.548,2.548,0,0,1,2.314-1.2,2.267,2.267,0,0,1,2.244,1.331,2.743,2.743,0,0,1,2.494-1.331A2.381,2.381,0,0,1,496.469,406.049Z" fill="#fdffeb"/><path d="M504.308,406.816H499.03a2.335,2.335,0,0,0,2.483,2.195,2.49,2.49,0,0,0,1.931-.827l.48.551a3.335,3.335,0,0,1-5.745-2.182,3.038,3.038,0,0,1,3.082-3.2,3.005,3.005,0,0,1,3.058,3.2C504.319,406.624,504.308,406.721,504.308,406.816Zm-5.278-.635H503.5a2.242,2.242,0,0,0-4.474,0Z" fill="#fdffeb"/><path d="M511.819,400.808v8.9H511v-1.248a2.733,2.733,0,0,1-2.435,1.308,3.209,3.209,0,0,1,0-6.416,2.754,2.754,0,0,1,2.4,1.247v-3.79Zm-.839,5.745a2.348,2.348,0,1,0-2.338,2.458A2.307,2.307,0,0,0,510.98,406.553Z" fill="#fdffeb"/><path d="M520.664,409.323a2.028,2.028,0,0,1-1.331.444,1.672,1.672,0,0,1-1.848-1.835v-3.814h-1.127v-.72h1.127v-1.379h.852V403.4h1.919v.72h-1.919v3.766a1.011,1.011,0,0,0,1.092,1.151,1.409,1.409,0,0,0,.935-.324Z" fill="#fdffeb"/><path d="M521.351,406.553a3.208,3.208,0,1,1,3.213,3.214A3.1,3.1,0,0,1,521.351,406.553Zm5.552,0a2.347,2.347,0,1,0-2.339,2.458A2.3,2.3,0,0,0,526.9,406.553Z" fill="#fdffeb"/><path d="M532.019,406.553a3.1,3.1,0,0,1,3.25-3.2,2.756,2.756,0,0,1,2.47,1.247l-.635.431a2.147,2.147,0,0,0-1.835-.935,2.46,2.46,0,0,0,0,4.917,2.134,2.134,0,0,0,1.835-.923l.635.432a2.782,2.782,0,0,1-2.47,1.247A3.114,3.114,0,0,1,532.019,406.553Z" fill="#fdffeb"/><path d="M544.172,405.8v3.91h-.817v-.983a2.367,2.367,0,0,1-2.17,1.043c-1.427,0-2.3-.744-2.3-1.835,0-.972.624-1.787,2.435-1.787h2v-.384c0-1.079-.612-1.667-1.787-1.667a3.21,3.21,0,0,0-2.1.744l-.384-.636a4,4,0,0,1,2.567-.851A2.241,2.241,0,0,1,544.172,405.8Zm-.852,2.015V406.78h-1.979c-1.224,0-1.619.48-1.619,1.128,0,.732.588,1.187,1.6,1.187A2.018,2.018,0,0,0,543.32,407.812Z" fill="#fdffeb"/><path d="M549.668,403.351v.827c-.071,0-.144-.012-.2-.012a2.04,2.04,0,0,0-2.123,2.326v3.215h-.852V403.4h.816v1.236A2.377,2.377,0,0,1,549.668,403.351Z" fill="#fdffeb"/><path d="M556.639,406.816h-5.278a2.335,2.335,0,0,0,2.483,2.195,2.486,2.486,0,0,0,1.93-.827l.481.551a3.335,3.335,0,0,1-5.745-2.182,3.038,3.038,0,0,1,3.082-3.2,3.005,3.005,0,0,1,3.058,3.2C556.65,406.624,556.639,406.721,556.639,406.816Zm-5.278-.635h4.474a2.242,2.242,0,0,0-4.474,0Z" fill="#fdffeb"/><path d="M559.365,402.654v.744h1.943v.72h-1.919v5.589h-.852v-5.589H557.41v-.72h1.127v-.779a1.737,1.737,0,0,1,1.907-1.871,2,2,0,0,1,1.259.4l-.287.635a1.443,1.443,0,0,0-.936-.311C559.749,401.468,559.365,401.875,559.365,402.654Z" fill="#fdffeb"/><path d="M568.146,403.4v6.309h-.816v-1.151a2.51,2.51,0,0,1-2.267,1.211,2.444,2.444,0,0,1-2.663-2.71V403.4h.852v3.575A1.766,1.766,0,0,0,565.147,409a2.051,2.051,0,0,0,2.147-2.291V403.4Z" fill="#fdffeb"/><path d="M570.537,400.808h.852v8.9h-.852Z" fill="#fdffeb"/><path d="M573.765,400.808h.851v8.9h-.851Z" fill="#fdffeb"/><path d="M582.293,403.4l-3.154,7.064c-.528,1.235-1.2,1.632-2.1,1.632a2.162,2.162,0,0,1-1.535-.576l.4-.636a1.579,1.579,0,0,0,1.152.48c.563,0,.947-.264,1.307-1.055l.276-.613-2.819-6.3h.888l2.375,5.362,2.374-5.362Z" fill="#fdffeb"/><path d="M586,406.553a3.1,3.1,0,0,1,3.25-3.2,2.757,2.757,0,0,1,2.471,1.247l-.636.431a2.147,2.147,0,0,0-1.835-.935,2.46,2.46,0,0,0,0,4.917,2.134,2.134,0,0,0,1.835-.923l.636.432a2.783,2.783,0,0,1-2.471,1.247A3.114,3.114,0,0,1,586,406.553Z" fill="#fdffeb"/><path d="M592.652,406.553a3.208,3.208,0,1,1,3.214,3.214A3.1,3.1,0,0,1,592.652,406.553Zm5.553,0a2.347,2.347,0,1,0-2.339,2.458A2.3,2.3,0,0,0,598.205,406.553Z" fill="#fdffeb"/><path d="M606.617,406.049v3.658h-.851v-3.574a1.762,1.762,0,0,0-1.9-2.015,2.068,2.068,0,0,0-2.207,2.278v3.311h-.851V403.4h.815v1.164a2.651,2.651,0,0,1,2.4-1.211A2.414,2.414,0,0,1,606.617,406.049Z" fill="#fdffeb"/><path d="M608.469,406.085h3.142v.743h-3.142Z" fill="#fdffeb"/><path d="M429.565,423.387l.384-.671a3.816,3.816,0,0,0,2.243.707c1.2,0,1.691-.407,1.691-1.031,0-1.644-4.09-.348-4.09-2.843,0-1.031.888-1.8,2.495-1.8a4.283,4.283,0,0,1,2.231.588l-.372.683a3.24,3.24,0,0,0-1.859-.54c-1.14,0-1.643.445-1.643,1.044,0,1.7,4.089.42,4.089,2.842,0,1.092-.959,1.8-2.6,1.8A4.214,4.214,0,0,1,429.565,423.387Z" fill="#fdffeb"/><path d="M436.117,415.808a.614.614,0,0,1,.624-.6.6.6,0,0,1,.623.587.624.624,0,0,1-1.247.013Zm.192,1.99h.852v6.308h-.852Z" fill="#fdffeb"/><path d="M445.294,415.208v8.9h-.816v-1.247a2.733,2.733,0,0,1-2.435,1.308,3.209,3.209,0,0,1,0-6.417,2.755,2.755,0,0,1,2.4,1.247v-3.789Zm-.84,5.744a2.347,2.347,0,1,0-2.338,2.459A2.307,2.307,0,0,0,444.454,420.952Z" fill="#fdffeb"/><path d="M453.166,421.216h-5.277a2.334,2.334,0,0,0,2.482,2.2,2.488,2.488,0,0,0,1.931-.827l.48.551a3.335,3.335,0,0,1-5.745-2.183,3.038,3.038,0,0,1,3.082-3.2,3.007,3.007,0,0,1,3.059,3.2C453.178,421.024,453.166,421.12,453.166,421.216Zm-5.277-.635h4.473a2.241,2.241,0,0,0-4.473,0Z" fill="#fdffeb"/><path d="M458.1,417.75v.828c-.072,0-.144-.013-.2-.013a2.042,2.042,0,0,0-2.123,2.328v3.213h-.851V417.8h.815v1.235A2.381,2.381,0,0,1,458.1,417.75Z" fill="#fdffeb"/><path d="M467.638,420.2v3.909h-.815v-.983a2.369,2.369,0,0,1-2.171,1.044c-1.427,0-2.3-.744-2.3-1.835,0-.972.624-1.787,2.435-1.787h2v-.384c0-1.08-.612-1.667-1.787-1.667a3.212,3.212,0,0,0-2.1.743l-.384-.635a4.005,4.005,0,0,1,2.567-.852A2.24,2.24,0,0,1,467.638,420.2Zm-.851,2.015v-1.031h-1.979c-1.224,0-1.62.479-1.62,1.127,0,.731.588,1.187,1.6,1.187A2.019,2.019,0,0,0,466.787,422.212Z" fill="#fdffeb"/><path d="M469.957,415.208h.852v8.9h-.852Z" fill="#fdffeb"/><path d="M473.185,415.208h.852v8.9h-.852Z" fill="#fdffeb"/><path d="M485.949,420.952a3.055,3.055,0,0,1-3.142,3.215,2.756,2.756,0,0,1-2.4-1.248v3.515h-.851V417.8h.815v1.248a2.749,2.749,0,0,1,2.435-1.3A3.052,3.052,0,0,1,485.949,420.952Zm-.851,0a2.353,2.353,0,1,0-2.351,2.459A2.323,2.323,0,0,0,485.1,420.952Z" fill="#fdffeb"/><path d="M487.057,420.952a3.209,3.209,0,1,1,3.215,3.215A3.1,3.1,0,0,1,487.057,420.952Zm5.552,0a2.347,2.347,0,1,0-2.337,2.459A2.3,2.3,0,0,0,492.609,420.952Z" fill="#fdffeb"/><path d="M494.341,423.387l.384-.671a3.816,3.816,0,0,0,2.243.707c1.2,0,1.69-.407,1.69-1.031,0-1.644-4.09-.348-4.09-2.843,0-1.031.888-1.8,2.495-1.8a4.28,4.28,0,0,1,2.231.588l-.371.683a3.243,3.243,0,0,0-1.86-.54c-1.139,0-1.643.445-1.643,1.044,0,1.7,4.09.42,4.09,2.842,0,1.092-.959,1.8-2.6,1.8A4.21,4.21,0,0,1,494.341,423.387Z" fill="#fdffeb"/><path d="M500.209,423.387l.384-.671a3.816,3.816,0,0,0,2.243.707c1.2,0,1.69-.407,1.69-1.031,0-1.644-4.089-.348-4.089-2.843,0-1.031.887-1.8,2.495-1.8a4.279,4.279,0,0,1,2.23.588l-.371.683a3.242,3.242,0,0,0-1.859-.54c-1.14,0-1.644.445-1.644,1.044,0,1.7,4.09.42,4.09,2.842,0,1.092-.959,1.8-2.6,1.8A4.213,4.213,0,0,1,500.209,423.387Z" fill="#fdffeb"/><path d="M506.761,415.808a.614.614,0,0,1,.624-.6.606.606,0,0,1,.624.587.624.624,0,0,1-1.248.013Zm.192,1.99h.852v6.308h-.852Z" fill="#fdffeb"/><path d="M516.573,420.952a3.062,3.062,0,0,1-3.142,3.215A2.734,2.734,0,0,1,511,422.859v1.247h-.815v-8.9h.851V419a2.756,2.756,0,0,1,2.4-1.247A3.052,3.052,0,0,1,516.573,420.952Zm-.851,0a2.353,2.353,0,1,0-2.351,2.459A2.317,2.317,0,0,0,515.722,420.952Z" fill="#fdffeb"/><path d="M518.316,415.208h.852v8.9h-.852Z" fill="#fdffeb"/><path d="M527.037,421.216H521.76a2.334,2.334,0,0,0,2.482,2.2,2.488,2.488,0,0,0,1.931-.827l.48.551a3.335,3.335,0,0,1-5.745-2.183,3.038,3.038,0,0,1,3.082-3.2,3.007,3.007,0,0,1,3.059,3.2C527.049,421.024,527.037,421.12,527.037,421.216Zm-5.277-.635h4.473a2.241,2.241,0,0,0-4.473,0Z" fill="#fdffeb"/><path d="M531.3,420.952a3.208,3.208,0,1,1,3.214,3.215A3.1,3.1,0,0,1,531.3,420.952Zm5.553,0a2.348,2.348,0,1,0-2.339,2.459A2.3,2.3,0,0,0,536.853,420.952Z" fill="#fdffeb"/><path d="M545.853,420.952a3.056,3.056,0,0,1-3.143,3.215,2.752,2.752,0,0,1-2.4-1.248v3.515h-.852V417.8h.815v1.248a2.749,2.749,0,0,1,2.435-1.3A3.053,3.053,0,0,1,545.853,420.952Zm-.852,0a2.353,2.353,0,1,0-2.351,2.459A2.323,2.323,0,0,0,545,420.952Z" fill="#fdffeb"/><path d="M550.918,423.723a2.034,2.034,0,0,1-1.331.444,1.672,1.672,0,0,1-1.848-1.835v-3.814h-1.127v-.72h1.127v-1.379h.852V417.8h1.919v.72h-1.919v3.765a1.011,1.011,0,0,0,1.092,1.152,1.409,1.409,0,0,0,.935-.324Z" fill="#fdffeb"/><path d="M552.275,415.808a.615.615,0,0,1,.624-.6.6.6,0,0,1,.624.587.624.624,0,0,1-1.248.013Zm.193,1.99h.851v6.308h-.851Z" fill="#fdffeb"/><path d="M555.06,420.952a3.208,3.208,0,1,1,3.213,3.215A3.1,3.1,0,0,1,555.06,420.952Zm5.552,0a2.347,2.347,0,1,0-2.339,2.459A2.3,2.3,0,0,0,560.612,420.952Z" fill="#fdffeb"/><path d="M569.024,420.448v3.658h-.851v-3.574a1.761,1.761,0,0,0-1.895-2.014,2.068,2.068,0,0,0-2.207,2.279v3.309h-.851V417.8h.815v1.164a2.652,2.652,0,0,1,2.4-1.212A2.415,2.415,0,0,1,569.024,420.448Z" fill="#fdffeb"/><path d="M570.468,423.387l.384-.671a3.814,3.814,0,0,0,2.243.707c1.2,0,1.691-.407,1.691-1.031,0-1.644-4.09-.348-4.09-2.843,0-1.031.887-1.8,2.494-1.8a4.281,4.281,0,0,1,2.231.588l-.371.683a3.243,3.243,0,0,0-1.86-.54c-1.139,0-1.642.445-1.642,1.044,0,1.7,4.09.42,4.09,2.842,0,1.092-.96,1.8-2.6,1.8A4.211,4.211,0,0,1,570.468,423.387Z" fill="#fdffeb"/><path d="M586.748,420.952a3.063,3.063,0,0,1-3.143,3.215,2.733,2.733,0,0,1-2.434-1.308v1.247h-.816v-8.9h.852V419a2.755,2.755,0,0,1,2.4-1.247A3.053,3.053,0,0,1,586.748,420.952Zm-.851,0a2.353,2.353,0,1,0-2.351,2.459A2.317,2.317,0,0,0,585.9,420.952Z" fill="#fdffeb"/><path d="M593.984,421.216h-5.277a2.336,2.336,0,0,0,2.482,2.2,2.487,2.487,0,0,0,1.931-.827l.481.551a3.336,3.336,0,0,1-5.746-2.183,3.039,3.039,0,0,1,3.083-3.2,3.006,3.006,0,0,1,3.058,3.2C594,421.024,593.984,421.12,593.984,421.216Zm-5.277-.635h4.474a2.241,2.241,0,0,0-4.474,0Z" fill="#fdffeb"/><path d="M596.711,417.055v.743h1.942v.72h-1.919v5.588h-.851v-5.588h-1.127v-.72h1.127v-.779a1.738,1.738,0,0,1,1.907-1.872,2,2,0,0,1,1.259.4l-.287.636a1.449,1.449,0,0,0-.936-.312C597.095,415.867,596.711,416.275,596.711,417.055Z" fill="#fdffeb"/><path d="M599.063,420.952a3.209,3.209,0,1,1,3.214,3.215A3.1,3.1,0,0,1,599.063,420.952Zm5.553,0a2.347,2.347,0,1,0-2.339,2.459A2.3,2.3,0,0,0,604.616,420.952Z" fill="#fdffeb"/><path d="M610.4,417.75v.828c-.071,0-.143-.013-.2-.013a2.042,2.042,0,0,0-2.123,2.328v3.213h-.851V417.8h.815v1.235A2.379,2.379,0,0,1,610.4,417.75Z" fill="#fdffeb"/><path d="M617.372,421.216h-5.277a2.335,2.335,0,0,0,2.482,2.2,2.488,2.488,0,0,0,1.931-.827l.48.551a3.335,3.335,0,0,1-5.745-2.183,3.038,3.038,0,0,1,3.082-3.2,3.006,3.006,0,0,1,3.059,3.2C617.384,421.024,617.372,421.12,617.372,421.216Zm-5.277-.635h4.473a2.241,2.241,0,0,0-4.473,0Z" fill="#fdffeb"/><path d="M424.911,434.849v3.658h-.852v-3.574c0-1.331-.671-2.015-1.811-2.015a2.028,2.028,0,0,0-2.111,2.279v3.31h-.851v-3.574c0-1.331-.672-2.015-1.823-2.015a2.033,2.033,0,0,0-2.111,2.279v3.31H414.5V432.2h.815v1.152a2.553,2.553,0,0,1,2.315-1.2,2.269,2.269,0,0,1,2.243,1.331,2.747,2.747,0,0,1,2.494-1.331A2.382,2.382,0,0,1,424.911,434.849Z" fill="#fdffeb"/><path d="M431.994,434.6v3.909h-.816v-.984a2.368,2.368,0,0,1-2.171,1.044c-1.427,0-2.3-.744-2.3-1.835,0-.971.623-1.787,2.434-1.787h2v-.383c0-1.081-.612-1.667-1.787-1.667a3.214,3.214,0,0,0-2.1.743l-.383-.636a4,4,0,0,1,2.566-.852A2.242,2.242,0,0,1,431.994,434.6Zm-.852,2.014v-1.031h-1.979c-1.223,0-1.619.48-1.619,1.127,0,.731.588,1.188,1.6,1.188A2.019,2.019,0,0,0,431.142,436.612Z" fill="#fdffeb"/><path d="M436.651,435.341l-1.487,1.367v1.8h-.851v-8.9h.851v6.033l3.766-3.443h1.055l-2.7,2.579,2.95,3.73h-1.043Z" fill="#fdffeb"/><path d="M441.237,430.208a.615.615,0,0,1,.623-.6.6.6,0,0,1,.624.587.624.624,0,0,1-1.247.013Zm.192,1.99h.851v6.309h-.851Z" fill="#fdffeb"/><path d="M450.461,434.849v3.658h-.852v-3.574a1.761,1.761,0,0,0-1.9-2.015,2.068,2.068,0,0,0-2.206,2.279v3.31h-.852V432.2h.816v1.164a2.651,2.651,0,0,1,2.4-1.212A2.416,2.416,0,0,1,450.461,434.849Z" fill="#fdffeb"/><path d="M458.646,432.2v5.541c0,2.171-1.068,3.155-3.155,3.155a4.4,4.4,0,0,1-2.938-.972l.431-.648a3.756,3.756,0,0,0,2.483.864c1.6,0,2.327-.732,2.327-2.29v-.8a2.839,2.839,0,0,1-2.459,1.224,3.061,3.061,0,1,1,0-6.118,2.847,2.847,0,0,1,2.495,1.26V432.2Zm-.828,3a2.394,2.394,0,1,0-2.4,2.315A2.255,2.255,0,0,0,457.818,435.2Z" fill="#fdffeb"/><path d="M468.942,434.6v3.909h-.816v-.984a2.366,2.366,0,0,1-2.17,1.044c-1.428,0-2.3-.744-2.3-1.835,0-.971.623-1.787,2.434-1.787h2v-.383c0-1.081-.611-1.667-1.787-1.667a3.209,3.209,0,0,0-2.1.743l-.384-.636a4,4,0,0,1,2.566-.852A2.241,2.241,0,0,1,468.942,434.6Zm-.852,2.014v-1.031h-1.979c-1.223,0-1.619.48-1.619,1.127,0,.731.588,1.188,1.6,1.188A2.019,2.019,0,0,0,468.09,436.612Z" fill="#fdffeb"/><path d="M480.161,429.608v8.9h-.815V437.26a2.735,2.735,0,0,1-2.435,1.307,3.209,3.209,0,0,1,0-6.417,2.756,2.756,0,0,1,2.4,1.247v-3.789Zm-.84,5.745a2.347,2.347,0,1,0-2.338,2.459A2.306,2.306,0,0,0,479.321,435.353Z" fill="#fdffeb"/><path d="M488.033,435.616h-5.277a2.335,2.335,0,0,0,2.482,2.2,2.493,2.493,0,0,0,1.932-.828l.479.551a3.335,3.335,0,0,1-5.745-2.182,3.039,3.039,0,0,1,3.082-3.2,3.007,3.007,0,0,1,3.059,3.2C488.045,435.425,488.033,435.521,488.033,435.616Zm-5.277-.635h4.474a2.242,2.242,0,0,0-4.474,0Z" fill="#fdffeb"/><path d="M489.152,435.353a3.106,3.106,0,0,1,3.25-3.2,2.755,2.755,0,0,1,2.471,1.247l-.636.433a2.141,2.141,0,0,0-1.835-.935,2.46,2.46,0,0,0,0,4.917,2.133,2.133,0,0,0,1.835-.924l.636.431a2.777,2.777,0,0,1-2.471,1.248A3.116,3.116,0,0,1,489.152,435.353Z" fill="#fdffeb"/><path d="M496.353,430.208a.614.614,0,0,1,.623-.6.606.606,0,0,1,.624.587.624.624,0,0,1-1.247.013Zm.191,1.99h.852v6.309h-.852Z" fill="#fdffeb"/><path d="M498.9,437.787l.383-.671a3.811,3.811,0,0,0,2.243.707c1.2,0,1.691-.407,1.691-1.031,0-1.644-4.09-.348-4.09-2.843,0-1.031.888-1.8,2.495-1.8a4.283,4.283,0,0,1,2.231.588l-.371.684a3.235,3.235,0,0,0-1.86-.54c-1.139,0-1.643.444-1.643,1.044,0,1.7,4.089.42,4.089,2.842,0,1.091-.959,1.8-2.6,1.8A4.21,4.21,0,0,1,498.9,437.787Z" fill="#fdffeb"/><path d="M505.448,430.208a.616.616,0,0,1,.624-.6.6.6,0,0,1,.623.587.624.624,0,0,1-1.247.013Zm.193,1.99h.851v6.309h-.851Z" fill="#fdffeb"/><path d="M508.232,435.353a3.209,3.209,0,1,1,3.215,3.214A3.1,3.1,0,0,1,508.232,435.353Zm5.554,0a2.347,2.347,0,1,0-2.339,2.459A2.3,2.3,0,0,0,513.786,435.353Z" fill="#fdffeb"/><path d="M522.2,434.849v3.658h-.851v-3.574a1.762,1.762,0,0,0-1.9-2.015,2.069,2.069,0,0,0-2.207,2.279v3.31h-.851V432.2h.815v1.164a2.653,2.653,0,0,1,2.4-1.212A2.415,2.415,0,0,1,522.2,434.849Z" fill="#fdffeb"/><path d="M525.248,437.907a1.953,1.953,0,0,1-.168.7l-.5,1.655H524l.407-1.738a.608.608,0,0,1-.431-.613.636.636,0,1,1,1.271,0Z" fill="#fdffeb"/><path d="M534.965,434.6v3.909h-.816v-.984a2.366,2.366,0,0,1-2.17,1.044c-1.427,0-2.3-.744-2.3-1.835,0-.971.624-1.787,2.435-1.787h2v-.383c0-1.081-.612-1.667-1.787-1.667a3.214,3.214,0,0,0-2.1.743l-.384-.636a4,4,0,0,1,2.567-.852A2.241,2.241,0,0,1,534.965,434.6Zm-.851,2.014v-1.031h-1.979c-1.224,0-1.619.48-1.619,1.127,0,.731.588,1.188,1.6,1.188A2.02,2.02,0,0,0,534.114,436.612Z" fill="#fdffeb"/><path d="M543.089,434.849v3.658h-.852v-3.574a1.761,1.761,0,0,0-1.894-2.015,2.068,2.068,0,0,0-2.207,2.279v3.31h-.852V432.2h.816v1.164a2.652,2.652,0,0,1,2.4-1.212A2.416,2.416,0,0,1,543.089,434.849Z" fill="#fdffeb"/><path d="M551.189,429.608v8.9h-.815V437.26a2.735,2.735,0,0,1-2.435,1.307,3.209,3.209,0,0,1,0-6.417,2.757,2.757,0,0,1,2.4,1.247v-3.789Zm-.839,5.745a2.348,2.348,0,1,0-2.339,2.459A2.307,2.307,0,0,0,550.35,435.353Z" fill="#fdffeb"/><path d="M560.034,438.123a2.028,2.028,0,0,1-1.331.444,1.672,1.672,0,0,1-1.848-1.835v-3.814h-1.126v-.72h1.126v-1.379h.852V432.2h1.919v.72h-1.919v3.766a1.01,1.01,0,0,0,1.092,1.151,1.407,1.407,0,0,0,.935-.323Z" fill="#fdffeb"/><path d="M567.389,434.849v3.658h-.852v-3.574a1.761,1.761,0,0,0-1.894-2.015,2.068,2.068,0,0,0-2.207,2.279v3.31h-.852v-8.9h.852V433.3a2.663,2.663,0,0,1,2.362-1.152A2.416,2.416,0,0,1,567.389,434.849Z" fill="#fdffeb"/><path d="M574.469,434.6v3.909h-.816v-.984a2.367,2.367,0,0,1-2.171,1.044c-1.426,0-2.3-.744-2.3-1.835,0-.971.624-1.787,2.435-1.787h2v-.383c0-1.081-.612-1.667-1.787-1.667a3.219,3.219,0,0,0-2.1.743l-.383-.636a4,4,0,0,1,2.567-.852A2.241,2.241,0,0,1,574.469,434.6Zm-.851,2.014v-1.031h-1.979c-1.224,0-1.619.48-1.619,1.127,0,.731.587,1.188,1.595,1.188A2.02,2.02,0,0,0,573.618,436.612Z" fill="#fdffeb"/><path d="M580.11,438.123a2.026,2.026,0,0,1-1.331.444,1.671,1.671,0,0,1-1.847-1.835v-3.814H575.8v-.72h1.127v-1.379h.851V432.2H579.7v.72h-1.919v3.766a1.01,1.01,0,0,0,1.092,1.151,1.411,1.411,0,0,0,.936-.323Z" fill="#fdffeb"/><path d="M594.063,432.2l-2.387,6.309h-.8l-1.991-5.169-1.99,5.169h-.8l-2.375-6.309h.815l1.98,5.362,2.026-5.362h.732l2.015,5.362,2-5.362Z" fill="#fdffeb"/><path d="M595.159,430.208a.616.616,0,0,1,.624-.6.6.6,0,0,1,.624.587.624.624,0,0,1-1.248.013Zm.193,1.99h.851v6.309h-.851Z" fill="#fdffeb"/><path d="M598.579,429.608h.852v8.9h-.852Z" fill="#fdffeb"/><path d="M601.807,429.608h.851v8.9h-.851Z" fill="#fdffeb"/><path d="M404.917,449v3.91H404.1v-.983a2.371,2.371,0,0,1-2.171,1.043c-1.428,0-2.3-.743-2.3-1.835,0-.972.623-1.787,2.435-1.787h2v-.384c0-1.079-.611-1.667-1.787-1.667a3.21,3.21,0,0,0-2.1.744l-.384-.636a4,4,0,0,1,2.566-.851A2.24,2.24,0,0,1,404.917,449Zm-.852,2.015V449.98h-1.979c-1.223,0-1.619.48-1.619,1.128,0,.732.588,1.187,1.6,1.187A2.016,2.016,0,0,0,404.065,451.012Z" fill="#fdffeb"/><path d="M407.236,444.008h.851v8.9h-.851Z" fill="#fdffeb"/><path d="M419.723,446.6l-2.387,6.308h-.8l-1.99-5.169-1.991,5.169h-.8l-2.375-6.308h.816l1.979,5.361,2.027-5.361h.731l2.015,5.361,2-5.361Z" fill="#fdffeb"/><path d="M425.581,449v3.91h-.815v-.983a2.371,2.371,0,0,1-2.171,1.043c-1.428,0-2.3-.743-2.3-1.835,0-.972.624-1.787,2.435-1.787h2v-.384c0-1.079-.612-1.667-1.788-1.667a3.21,3.21,0,0,0-2.1.744l-.384-.636a4,4,0,0,1,2.566-.851A2.24,2.24,0,0,1,425.581,449Zm-.851,2.015V449.98h-1.979c-1.224,0-1.62.48-1.62,1.128,0,.732.588,1.187,1.6,1.187A2.018,2.018,0,0,0,424.73,451.012Z" fill="#fdffeb"/><path d="M433.081,446.6l-3.155,7.063c-.527,1.235-1.2,1.632-2.1,1.632a2.16,2.16,0,0,1-1.536-.576l.4-.636a1.573,1.573,0,0,0,1.152.481c.563,0,.947-.265,1.307-1.056l.276-.612-2.818-6.3h.887l2.375,5.361,2.374-5.361Z" fill="#fdffeb"/><path d="M433.336,452.188l.384-.672a3.816,3.816,0,0,0,2.243.708c1.2,0,1.691-.409,1.691-1.032,0-1.643-4.09-.348-4.09-2.842,0-1.032.888-1.8,2.495-1.8a4.274,4.274,0,0,1,2.231.587l-.372.683a3.239,3.239,0,0,0-1.859-.539c-1.14,0-1.643.444-1.643,1.043,0,1.7,4.089.42,4.089,2.843,0,1.092-.959,1.8-2.6,1.8A4.22,4.22,0,0,1,433.336,452.188Z" fill="#fdffeb"/><path d="M442.349,452.188l.383-.672a3.816,3.816,0,0,0,2.243.708c1.2,0,1.691-.409,1.691-1.032,0-1.643-4.09-.348-4.09-2.842,0-1.032.888-1.8,2.5-1.8a4.274,4.274,0,0,1,2.231.587l-.372.683a3.239,3.239,0,0,0-1.859-.539c-1.139,0-1.643.444-1.643,1.043,0,1.7,4.09.42,4.09,2.843,0,1.092-.96,1.8-2.6,1.8A4.217,4.217,0,0,1,442.349,452.188Z" fill="#fdffeb"/><path d="M452.414,452.523a2.024,2.024,0,0,1-1.331.444,1.671,1.671,0,0,1-1.847-1.835v-3.814h-1.127V446.6h1.127v-1.38h.851v1.38h1.919v.719h-1.919v3.766a1.01,1.01,0,0,0,1.092,1.151,1.405,1.405,0,0,0,.935-.324Z" fill="#fdffeb"/><path d="M457.143,446.551v.827c-.073,0-.144-.012-.205-.012a2.04,2.04,0,0,0-2.122,2.326v3.215h-.852V446.6h.816v1.235A2.378,2.378,0,0,1,457.143,446.551Z" fill="#fdffeb"/><path d="M457.985,449.753a3.208,3.208,0,1,1,3.214,3.214A3.1,3.1,0,0,1,457.985,449.753Zm5.553,0a2.348,2.348,0,1,0-2.339,2.458A2.3,2.3,0,0,0,463.538,449.753Z" fill="#fdffeb"/><path d="M471.949,449.249v3.658H471.1v-3.574a1.762,1.762,0,0,0-1.895-2.015A2.068,2.068,0,0,0,467,449.6v3.31h-.851V446.6h.815v1.163a2.65,2.65,0,0,1,2.4-1.211A2.414,2.414,0,0,1,471.949,449.249Z" fill="#fdffeb"/><path d="M480.133,446.6v5.541c0,2.171-1.068,3.154-3.154,3.154a4.395,4.395,0,0,1-2.938-.972l.431-.647a3.759,3.759,0,0,0,2.483.863c1.6,0,2.326-.731,2.326-2.291v-.8a2.836,2.836,0,0,1-2.459,1.224,3.06,3.06,0,1,1,0-6.116,2.845,2.845,0,0,1,2.495,1.259V446.6Zm-.827,3a2.394,2.394,0,1,0-2.4,2.314A2.256,2.256,0,0,0,479.306,449.6Z" fill="#fdffeb"/><path d="M482.524,444.008h.852v8.9h-.852Z" fill="#fdffeb"/><path d="M491.053,446.6l-3.155,7.063c-.527,1.235-1.2,1.632-2.1,1.632a2.156,2.156,0,0,1-1.535-.576l.4-.636a1.572,1.572,0,0,0,1.152.481c.563,0,.947-.265,1.306-1.056l.277-.612-2.819-6.3h.887l2.375,5.361,2.375-5.361Z" fill="#fdffeb"/><path d="M498.578,446.551v.827c-.072,0-.143-.012-.2-.012a2.04,2.04,0,0,0-2.122,2.326v3.215H495.4V446.6h.816v1.235A2.377,2.377,0,0,1,498.578,446.551Z" fill="#fdffeb"/><path d="M505.549,450.017h-5.277a2.335,2.335,0,0,0,2.483,2.194,2.487,2.487,0,0,0,1.931-.827l.479.552a3.335,3.335,0,0,1-5.744-2.183,3.038,3.038,0,0,1,3.082-3.2,3.006,3.006,0,0,1,3.059,3.2C505.562,449.824,505.549,449.921,505.549,450.017Zm-5.277-.636h4.474a2.242,2.242,0,0,0-4.474,0Z" fill="#fdffeb"/><path d="M513.062,444.008v8.9h-.816v-1.248a2.732,2.732,0,0,1-2.434,1.308,3.209,3.209,0,0,1,0-6.416,2.755,2.755,0,0,1,2.4,1.247v-3.79Zm-.84,5.745a2.348,2.348,0,1,0-2.339,2.458A2.307,2.307,0,0,0,512.222,449.753Z" fill="#fdffeb"/><path d="M521.125,446.6v6.308h-.815v-1.151a2.51,2.51,0,0,1-2.267,1.211,2.444,2.444,0,0,1-2.663-2.71V446.6h.851v3.574a1.766,1.766,0,0,0,1.9,2.026,2.051,2.051,0,0,0,2.146-2.291V446.6Z" fill="#fdffeb"/><path d="M522.881,449.753a3.1,3.1,0,0,1,3.25-3.2A2.758,2.758,0,0,1,528.6,447.8l-.636.431a2.147,2.147,0,0,0-1.835-.935,2.46,2.46,0,0,0,0,4.917,2.134,2.134,0,0,0,1.835-.923l.636.432a2.783,2.783,0,0,1-2.471,1.247A3.115,3.115,0,0,1,522.881,449.753Z" fill="#fdffeb"/><path d="M535.658,450.017h-5.277a2.334,2.334,0,0,0,2.482,2.194,2.485,2.485,0,0,0,1.931-.827l.48.552a3.336,3.336,0,0,1-5.745-2.183,3.038,3.038,0,0,1,3.082-3.2,3.005,3.005,0,0,1,3.059,3.2C535.67,449.824,535.658,449.921,535.658,450.017Zm-5.277-.636h4.474a2.242,2.242,0,0,0-4.474,0Z" fill="#fdffeb"/><path d="M543.879,452.523a2.028,2.028,0,0,1-1.331.444,1.672,1.672,0,0,1-1.848-1.835v-3.814h-1.127V446.6H540.7v-1.38h.852v1.38h1.919v.719h-1.919v3.766a1.01,1.01,0,0,0,1.092,1.151,1.409,1.409,0,0,0,.935-.324Z" fill="#fdffeb"/><path d="M551.233,449.249v3.658h-.851v-3.574a1.761,1.761,0,0,0-1.9-2.015,2.068,2.068,0,0,0-2.207,2.279v3.31h-.851v-8.9h.851V447.7a2.667,2.667,0,0,1,2.363-1.151A2.414,2.414,0,0,1,551.233,449.249Z" fill="#fdffeb"/><path d="M559.07,450.017h-5.277a2.335,2.335,0,0,0,2.482,2.194,2.484,2.484,0,0,0,1.931-.827l.481.552a3.336,3.336,0,0,1-5.746-2.183,3.038,3.038,0,0,1,3.082-3.2,3.005,3.005,0,0,1,3.059,3.2C559.082,449.824,559.07,449.921,559.07,450.017Zm-5.277-.636h4.474a2.242,2.242,0,0,0-4.474,0Z" fill="#fdffeb"/><path d="M563.333,449.753a3.1,3.1,0,0,1,3.25-3.2,2.758,2.758,0,0,1,2.471,1.247l-.636.431a2.147,2.147,0,0,0-1.835-.935,2.46,2.46,0,0,0,0,4.917,2.134,2.134,0,0,0,1.835-.923l.636.432a2.783,2.783,0,0,1-2.471,1.247A3.115,3.115,0,0,1,563.333,449.753Z" fill="#fdffeb"/><path d="M576.433,449.249v3.658h-.852v-3.574a1.761,1.761,0,0,0-1.894-2.015,2.068,2.068,0,0,0-2.207,2.279v3.31h-.852v-8.9h.852V447.7a2.664,2.664,0,0,1,2.362-1.151A2.415,2.415,0,0,1,576.433,449.249Z" fill="#fdffeb"/><path d="M583.514,449v3.91H582.7v-.983a2.37,2.37,0,0,1-2.171,1.043c-1.426,0-2.3-.743-2.3-1.835,0-.972.624-1.787,2.435-1.787h2v-.384c0-1.079-.612-1.667-1.787-1.667a3.215,3.215,0,0,0-2.1.744l-.383-.636a4,4,0,0,1,2.567-.851A2.241,2.241,0,0,1,583.514,449Zm-.852,2.015V449.98h-1.979c-1.224,0-1.62.48-1.62,1.128,0,.732.588,1.187,1.6,1.187A2.018,2.018,0,0,0,582.662,451.012Z" fill="#fdffeb"/><path d="M591.637,449.249v3.658h-.852v-3.574a1.761,1.761,0,0,0-1.894-2.015,2.068,2.068,0,0,0-2.207,2.279v3.31h-.852V446.6h.815v1.163a2.653,2.653,0,0,1,2.4-1.211A2.415,2.415,0,0,1,591.637,449.249Z" fill="#fdffeb"/><path d="M593.345,449.753a3.1,3.1,0,0,1,3.25-3.2,2.755,2.755,0,0,1,2.47,1.247l-.635.431a2.147,2.147,0,0,0-1.835-.935,2.46,2.46,0,0,0,0,4.917,2.134,2.134,0,0,0,1.835-.923l.635.432a2.781,2.781,0,0,1-2.47,1.247A3.115,3.115,0,0,1,593.345,449.753Z" fill="#fdffeb"/><path d="M606.121,450.017h-5.277a2.334,2.334,0,0,0,2.482,2.194,2.485,2.485,0,0,0,1.931-.827l.48.552a3.336,3.336,0,0,1-5.745-2.183,3.038,3.038,0,0,1,3.082-3.2,3.005,3.005,0,0,1,3.059,3.2C606.133,449.824,606.121,449.921,606.121,450.017Zm-5.277-.636h4.473a2.241,2.241,0,0,0-4.473,0Z" fill="#fdffeb"/><path d="M607,452.188l.384-.672a3.816,3.816,0,0,0,2.243.708c1.2,0,1.691-.409,1.691-1.032,0-1.643-4.089-.348-4.089-2.842,0-1.032.886-1.8,2.494-1.8a4.27,4.27,0,0,1,2.23.587l-.371.683a3.24,3.24,0,0,0-1.859-.539c-1.14,0-1.643.444-1.643,1.043,0,1.7,4.09.42,4.09,2.843,0,1.092-.96,1.8-2.6,1.8A4.219,4.219,0,0,1,607,452.188Z" fill="#fdffeb"/><path d="M399.52,464.152a3.209,3.209,0,1,1,3.214,3.215A3.1,3.1,0,0,1,399.52,464.152Zm5.553,0a2.348,2.348,0,1,0-2.339,2.459A2.3,2.3,0,0,0,405.073,464.152Z" fill="#fdffeb"/><path d="M408.651,460.255V461h1.943v.72h-1.919v5.589h-.852v-5.589H406.7V461h1.127v-.779a1.738,1.738,0,0,1,1.907-1.871,2,2,0,0,1,1.26.4l-.288.636a1.448,1.448,0,0,0-.935-.312C409.035,459.067,408.651,459.476,408.651,460.255Z" fill="#fdffeb"/><path d="M420.732,461v5.541c0,2.171-1.067,3.154-3.154,3.154a4.4,4.4,0,0,1-2.938-.971l.431-.648a3.756,3.756,0,0,0,2.483.864c1.6,0,2.327-.732,2.327-2.291v-.8a2.84,2.84,0,0,1-2.459,1.223,3.06,3.06,0,1,1,0-6.117,2.847,2.847,0,0,1,2.495,1.26V461Zm-.827,3a2.394,2.394,0,1,0-2.4,2.315A2.256,2.256,0,0,0,419.9,464Z" fill="#fdffeb"/><path d="M428.616,464.416h-5.277a2.336,2.336,0,0,0,2.483,2.2,2.49,2.49,0,0,0,1.931-.827l.479.551a3.334,3.334,0,0,1-5.744-2.183,3.038,3.038,0,0,1,3.082-3.2,3.006,3.006,0,0,1,3.058,3.2C428.628,464.225,428.616,464.32,428.616,464.416Zm-5.277-.635h4.474a2.242,2.242,0,0,0-4.474,0Z" fill="#fdffeb"/><path d="M433.693,466.923a2.024,2.024,0,0,1-1.331.444,1.671,1.671,0,0,1-1.847-1.835v-3.814h-1.127V461h1.127v-1.379h.852V461h1.919v.72h-1.919v3.765a1.01,1.01,0,0,0,1.092,1.152,1.414,1.414,0,0,0,.935-.323Z" fill="#fdffeb"/><path d="M438.4,466.923a2.024,2.024,0,0,1-1.331.444,1.671,1.671,0,0,1-1.847-1.835v-3.814h-1.127V461h1.127v-1.379h.852V461h1.919v.72h-1.919v3.765a1.01,1.01,0,0,0,1.092,1.152,1.414,1.414,0,0,0,.935-.323Z" fill="#fdffeb"/><path d="M439.756,459.008a.615.615,0,0,1,.623-.6.6.6,0,0,1,.624.587.624.624,0,0,1-1.247.013Zm.192,1.99h.851v6.309h-.851Z" fill="#fdffeb"/><path d="M448.98,463.648v3.659h-.851v-3.575a1.761,1.761,0,0,0-1.895-2.014A2.069,2.069,0,0,0,444.027,464v3.31h-.851V461h.815v1.164a2.653,2.653,0,0,1,2.4-1.212A2.415,2.415,0,0,1,448.98,463.648Z" fill="#fdffeb"/><path d="M457.165,461v5.541c0,2.171-1.068,3.154-3.155,3.154a4.4,4.4,0,0,1-2.938-.971l.431-.648a3.756,3.756,0,0,0,2.483.864c1.6,0,2.327-.732,2.327-2.291v-.8a2.84,2.84,0,0,1-2.459,1.223,3.06,3.06,0,1,1,0-6.117,2.847,2.847,0,0,1,2.495,1.26V461Zm-.828,3a2.394,2.394,0,1,0-2.4,2.315A2.256,2.256,0,0,0,456.337,464Z" fill="#fdffeb"/><path d="M466.022,466.923a2.029,2.029,0,0,1-1.332.444,1.671,1.671,0,0,1-1.847-1.835v-3.814h-1.127V461h1.127v-1.379h.852V461h1.919v.72H463.7v3.765a1.01,1.01,0,0,0,1.092,1.152,1.414,1.414,0,0,0,.935-.323Z" fill="#fdffeb"/><path d="M466.708,464.152a3.209,3.209,0,1,1,3.214,3.215A3.1,3.1,0,0,1,466.708,464.152Zm5.553,0a2.348,2.348,0,1,0-2.339,2.459A2.3,2.3,0,0,0,472.261,464.152Z" fill="#fdffeb"/><path d="M481.334,466.923a2.029,2.029,0,0,1-1.332.444,1.671,1.671,0,0,1-1.847-1.835v-3.814h-1.127V461h1.127v-1.379h.852V461h1.919v.72h-1.919v3.765a1.01,1.01,0,0,0,1.092,1.152,1.409,1.409,0,0,0,.934-.323Z" fill="#fdffeb"/><path d="M488.688,463.648v3.659h-.851v-3.575a1.761,1.761,0,0,0-1.9-2.014A2.069,2.069,0,0,0,483.735,464v3.31h-.851v-8.9h.851V462.1a2.666,2.666,0,0,1,2.363-1.152A2.415,2.415,0,0,1,488.688,463.648Z" fill="#fdffeb"/><path d="M496.524,464.416h-5.276a2.336,2.336,0,0,0,2.482,2.2,2.487,2.487,0,0,0,1.931-.827l.48.551a3.334,3.334,0,0,1-5.744-2.183,3.037,3.037,0,0,1,3.082-3.2,3.006,3.006,0,0,1,3.058,3.2C496.537,464.225,496.524,464.32,496.524,464.416Zm-5.276-.635h4.474a2.242,2.242,0,0,0-4.474,0Z" fill="#fdffeb"/><path d="M510.683,461l-2.387,6.309h-.8l-1.991-5.169-1.99,5.169h-.8L500.332,461h.815l1.98,5.361L505.153,461h.732l2.015,5.361,2-5.361Z" fill="#fdffeb"/><path d="M515.15,460.95v.828c-.071,0-.143-.012-.2-.012a2.041,2.041,0,0,0-2.123,2.327v3.214h-.851V461h.815v1.235A2.381,2.381,0,0,1,515.15,460.95Z" fill="#fdffeb"/><path d="M515.992,464.152a3.208,3.208,0,1,1,3.214,3.215A3.1,3.1,0,0,1,515.992,464.152Zm5.553,0a2.348,2.348,0,1,0-2.339,2.459A2.3,2.3,0,0,0,521.545,464.152Z" fill="#fdffeb"/><path d="M529.957,463.648v3.659H529.1v-3.575a1.76,1.76,0,0,0-1.894-2.014A2.068,2.068,0,0,0,525,464v3.31h-.852V461h.816v1.164a2.652,2.652,0,0,1,2.4-1.212A2.415,2.415,0,0,1,529.957,463.648Z" fill="#fdffeb"/><path d="M538.142,461v5.541c0,2.171-1.068,3.154-3.155,3.154a4.4,4.4,0,0,1-2.938-.971l.431-.648a3.756,3.756,0,0,0,2.483.864c1.6,0,2.327-.732,2.327-2.291v-.8a2.841,2.841,0,0,1-2.459,1.223,3.06,3.06,0,1,1,0-6.117,2.847,2.847,0,0,1,2.495,1.26V461Zm-.829,3a2.394,2.394,0,1,0-2.4,2.315A2.255,2.255,0,0,0,537.313,464Z" fill="#fdffeb"/><path d="M546.854,460.95v.828c-.072,0-.144-.012-.2-.012a2.041,2.041,0,0,0-2.123,2.327v3.214h-.851V461h.815v1.235A2.381,2.381,0,0,1,546.854,460.95Z" fill="#fdffeb"/><path d="M553.824,464.416h-5.277a2.335,2.335,0,0,0,2.482,2.2,2.489,2.489,0,0,0,1.931-.827l.48.551a3.335,3.335,0,0,1-5.745-2.183,3.038,3.038,0,0,1,3.082-3.2,3.007,3.007,0,0,1,3.059,3.2C553.836,464.225,553.824,464.32,553.824,464.416Zm-5.277-.635h4.474a2.242,2.242,0,0,0-4.474,0Z" fill="#fdffeb"/><path d="M554.7,466.587l.384-.671a3.809,3.809,0,0,0,2.243.707c1.2,0,1.692-.407,1.692-1.031,0-1.644-4.09-.348-4.09-2.843,0-1.031.886-1.8,2.494-1.8a4.279,4.279,0,0,1,2.23.588l-.371.684a3.234,3.234,0,0,0-1.859-.54c-1.14,0-1.643.444-1.643,1.044,0,1.7,4.09.42,4.09,2.841,0,1.092-.96,1.8-2.6,1.8A4.216,4.216,0,0,1,554.7,466.587Z" fill="#fdffeb"/><path d="M567.132,461v6.309h-.816v-1.152a2.507,2.507,0,0,1-2.266,1.212,2.443,2.443,0,0,1-2.663-2.711V461h.851v3.574a1.767,1.767,0,0,0,1.9,2.028,2.051,2.051,0,0,0,2.146-2.291V461Z" fill="#fdffeb"/><path d="M569.523,458.408h.852v8.9h-.852Z" fill="#fdffeb"/><path d="M576.1,466.923a2.028,2.028,0,0,1-1.331.444,1.672,1.672,0,0,1-1.848-1.835v-3.814h-1.127V461h1.127v-1.379h.852V461h1.918v.72h-1.918v3.765a1.01,1.01,0,0,0,1.091,1.152,1.414,1.414,0,0,0,.936-.323Z" fill="#fdffeb"/><path d="M577.384,466.743a.612.612,0,0,1,.636-.611.6.6,0,0,1,.623.611.619.619,0,0,1-.623.624A.629.629,0,0,1,577.384,466.743Zm.132-7.832h1.006l-.179,5.877h-.659Z" fill="#fdffeb"/><path d="M584.091,458.911h.888v8.4h-.888Z" fill="#fdffeb"/><path d="M590.857,466.923a2.024,2.024,0,0,1-1.331.444,1.671,1.671,0,0,1-1.847-1.835v-3.814h-1.127V461h1.127v-1.379h.851V461h1.919v.72H588.53v3.765a1.01,1.01,0,0,0,1.092,1.152,1.416,1.416,0,0,0,.936-.323Z" fill="#fdffeb"/><path d="M595.358,459.008a.616.616,0,0,1,.624-.6.6.6,0,0,1,.624.587.624.624,0,0,1-1.248.013Zm.193,1.99h.851v6.309h-.851Z" fill="#fdffeb"/><path d="M597.9,466.587l.384-.671a3.811,3.811,0,0,0,2.243.707c1.2,0,1.692-.407,1.692-1.031,0-1.644-4.09-.348-4.09-2.843,0-1.031.887-1.8,2.494-1.8a4.279,4.279,0,0,1,2.23.588l-.371.684a3.233,3.233,0,0,0-1.859-.54c-1.14,0-1.643.444-1.643,1.044,0,1.7,4.09.42,4.09,2.841,0,1.092-.96,1.8-2.6,1.8A4.216,4.216,0,0,1,597.9,466.587Z" fill="#fdffeb"/><path d="M404.917,477.8v3.91H404.1v-.983a2.371,2.371,0,0,1-2.171,1.043c-1.428,0-2.3-.744-2.3-1.835,0-.972.623-1.787,2.435-1.787h2v-.384c0-1.079-.611-1.667-1.787-1.667a3.21,3.21,0,0,0-2.1.744l-.384-.636a4,4,0,0,1,2.566-.851A2.24,2.24,0,0,1,404.917,477.8Zm-.852,2.015V478.78h-1.979c-1.223,0-1.619.48-1.619,1.128,0,.732.588,1.187,1.6,1.187A2.016,2.016,0,0,0,404.065,479.812Z" fill="#fdffeb"/><path d="M407.236,472.808h.851v8.9h-.851Z" fill="#fdffeb"/><path d="M419.723,475.4l-2.387,6.309h-.8l-1.99-5.169-1.991,5.169h-.8l-2.375-6.309h.816l1.979,5.362,2.027-5.362h.731l2.015,5.362,2-5.362Z" fill="#fdffeb"/><path d="M425.581,477.8v3.91h-.815v-.983a2.371,2.371,0,0,1-2.171,1.043c-1.428,0-2.3-.744-2.3-1.835,0-.972.624-1.787,2.435-1.787h2v-.384c0-1.079-.612-1.667-1.788-1.667a3.21,3.21,0,0,0-2.1.744l-.384-.636a4,4,0,0,1,2.566-.851A2.24,2.24,0,0,1,425.581,477.8Zm-.851,2.015V478.78h-1.979c-1.224,0-1.62.48-1.62,1.128,0,.732.588,1.187,1.6,1.187A2.018,2.018,0,0,0,424.73,479.812Z" fill="#fdffeb"/><path d="M433.081,475.4l-3.155,7.064c-.527,1.235-1.2,1.632-2.1,1.632a2.164,2.164,0,0,1-1.536-.576l.4-.636a1.576,1.576,0,0,0,1.152.48c.563,0,.947-.264,1.307-1.055l.276-.613-2.818-6.3h.887l2.375,5.362,2.374-5.362Z" fill="#fdffeb"/><path d="M433.336,480.987l.384-.672a3.809,3.809,0,0,0,2.243.708c1.2,0,1.691-.408,1.691-1.031,0-1.643-4.09-.348-4.09-2.843,0-1.031.888-1.8,2.495-1.8a4.274,4.274,0,0,1,2.231.587l-.372.683a3.231,3.231,0,0,0-1.859-.539c-1.14,0-1.643.443-1.643,1.043,0,1.7,4.089.42,4.089,2.843,0,1.092-.959,1.8-2.6,1.8A4.214,4.214,0,0,1,433.336,480.987Z" fill="#fdffeb"/><path d="M446.546,481.323a2.026,2.026,0,0,1-1.331.444,1.671,1.671,0,0,1-1.847-1.835v-3.814h-1.127v-.72h1.127v-1.379h.851V475.4h1.919v.72h-1.919v3.766a1.011,1.011,0,0,0,1.092,1.151,1.407,1.407,0,0,0,.935-.324Z" fill="#fdffeb"/><path d="M453.361,478.816h-5.277a2.335,2.335,0,0,0,2.482,2.195,2.49,2.49,0,0,0,1.932-.827l.479.551a3.335,3.335,0,0,1-5.745-2.182,3.038,3.038,0,0,1,3.082-3.2,3.005,3.005,0,0,1,3.059,3.2C453.373,478.624,453.361,478.721,453.361,478.816Zm-5.277-.635h4.474a2.242,2.242,0,0,0-4.474,0Z" fill="#fdffeb"/><path d="M465.526,478.049v3.658h-.851v-3.574c0-1.331-.672-2.015-1.811-2.015a2.027,2.027,0,0,0-2.111,2.278v3.311H459.9v-3.574c0-1.331-.671-2.015-1.822-2.015a2.033,2.033,0,0,0-2.111,2.278v3.311h-.852V475.4h.816v1.152a2.55,2.55,0,0,1,2.314-1.2,2.265,2.265,0,0,1,2.243,1.331,2.746,2.746,0,0,1,2.495-1.331A2.38,2.38,0,0,1,465.526,478.049Z" fill="#fdffeb"/><path d="M474.24,478.553a3.055,3.055,0,0,1-3.142,3.214,2.755,2.755,0,0,1-2.4-1.247v3.513h-.852V475.4h.816v1.248a2.745,2.745,0,0,1,2.434-1.295A3.051,3.051,0,0,1,474.24,478.553Zm-.851,0a2.353,2.353,0,1,0-2.351,2.458A2.323,2.323,0,0,0,473.389,478.553Z" fill="#fdffeb"/><path d="M479.306,481.323a2.028,2.028,0,0,1-1.331.444,1.672,1.672,0,0,1-1.848-1.835v-3.814H475v-.72h1.126v-1.379h.852V475.4H478.9v.72h-1.918v3.766a1.01,1.01,0,0,0,1.091,1.151,1.41,1.41,0,0,0,.936-.324Z" fill="#fdffeb"/><path d="M480.664,473.407a.614.614,0,0,1,.623-.6.6.6,0,0,1,.624.588.624.624,0,0,1-1.247.011Zm.191,1.991h.852v6.309h-.852Z" fill="#fdffeb"/><path d="M489.889,478.049v3.658h-.852v-3.574a1.762,1.762,0,0,0-1.895-2.015,2.067,2.067,0,0,0-2.206,2.278v3.311h-.852V475.4h.815v1.164a2.65,2.65,0,0,1,2.4-1.211A2.414,2.414,0,0,1,489.889,478.049Z" fill="#fdffeb"/><path d="M498.072,475.4v5.541c0,2.171-1.067,3.155-3.154,3.155a4.4,4.4,0,0,1-2.938-.972l.431-.647a3.761,3.761,0,0,0,2.484.863c1.594,0,2.326-.732,2.326-2.291v-.8a2.839,2.839,0,0,1-2.459,1.224,3.06,3.06,0,1,1,0-6.116,2.847,2.847,0,0,1,2.495,1.258V475.4Zm-.827,3a2.394,2.394,0,1,0-2.4,2.315A2.255,2.255,0,0,0,497.245,478.4Z" fill="#fdffeb"/><path d="M506.93,481.323a2.028,2.028,0,0,1-1.331.444,1.672,1.672,0,0,1-1.848-1.835v-3.814h-1.127v-.72h1.127v-1.379h.852V475.4h1.919v.72H504.6v3.766a1.01,1.01,0,0,0,1.091,1.151,1.41,1.41,0,0,0,.936-.324Z" fill="#fdffeb"/><path d="M507.615,478.553a3.209,3.209,0,1,1,3.215,3.214A3.1,3.1,0,0,1,507.615,478.553Zm5.554,0a2.347,2.347,0,1,0-2.339,2.458A2.3,2.3,0,0,0,513.169,478.553Z" fill="#fdffeb"/><path d="M524.761,475.4v5.541c0,2.171-1.068,3.155-3.155,3.155a4.4,4.4,0,0,1-2.938-.972l.432-.647a3.756,3.756,0,0,0,2.482.863c1.6,0,2.327-.732,2.327-2.291v-.8a2.84,2.84,0,0,1-2.459,1.224,3.06,3.06,0,1,1,0-6.116,2.848,2.848,0,0,1,2.495,1.258V475.4Zm-.828,3a2.394,2.394,0,1,0-2.4,2.315A2.255,2.255,0,0,0,523.933,478.4Z" fill="#fdffeb"/><path d="M526.516,478.553a3.208,3.208,0,1,1,3.214,3.214A3.1,3.1,0,0,1,526.516,478.553Zm5.552,0a2.347,2.347,0,1,0-2.338,2.458A2.3,2.3,0,0,0,532.068,478.553Z" fill="#fdffeb"/><path d="M538.791,474.654v.744h1.942v.72h-1.919v5.589h-.851v-5.589h-1.127v-.72h1.127v-.779a1.737,1.737,0,0,1,1.907-1.871,2,2,0,0,1,1.259.4l-.287.635a1.443,1.443,0,0,0-.936-.311C539.175,473.468,538.791,473.875,538.791,474.654Z" fill="#fdffeb"/><path d="M541.144,478.553a3.208,3.208,0,1,1,3.213,3.214A3.1,3.1,0,0,1,541.144,478.553Zm5.552,0a2.347,2.347,0,1,0-2.339,2.458A2.3,2.3,0,0,0,546.7,478.553Z" fill="#fdffeb"/><path d="M552.481,475.351v.827c-.071,0-.143-.012-.2-.012a2.04,2.04,0,0,0-2.123,2.326v3.215H549.3V475.4h.815v1.236A2.378,2.378,0,0,1,552.481,475.351Z" fill="#fdffeb"/><path d="M560.581,481.323a2.028,2.028,0,0,1-1.331.444,1.672,1.672,0,0,1-1.848-1.835v-3.814h-1.127v-.72H557.4v-1.379h.852V475.4h1.919v.72h-1.919v3.766a1.01,1.01,0,0,0,1.092,1.151,1.409,1.409,0,0,0,.935-.324Z" fill="#fdffeb"/><path d="M567.936,478.049v3.658h-.852v-3.574a1.761,1.761,0,0,0-1.895-2.015,2.068,2.068,0,0,0-2.207,2.278v3.311h-.851v-8.9h.851V476.5a2.667,2.667,0,0,1,2.363-1.151A2.414,2.414,0,0,1,567.936,478.049Z" fill="#fdffeb"/><path d="M575.772,478.816h-5.277a2.335,2.335,0,0,0,2.483,2.195,2.486,2.486,0,0,0,1.93-.827l.481.551a3.335,3.335,0,0,1-5.745-2.182,3.038,3.038,0,0,1,3.082-3.2,3.005,3.005,0,0,1,3.058,3.2C575.784,478.624,575.772,478.721,575.772,478.816Zm-5.277-.635h4.474a2.242,2.242,0,0,0-4.474,0Z" fill="#fdffeb"/><path d="M582.722,472.748a1.994,1.994,0,0,1,1.258.4l-.287.635a1.442,1.442,0,0,0-.935-.311c-.732,0-1.115.407-1.115,1.186v.744h1.942v.72h-1.919v5.589h-.852v-5.589h-1.126v-.72h1.126v-.779A1.737,1.737,0,0,1,582.722,472.748Zm4.029.648a.624.624,0,1,1-.623-.588A.6.6,0,0,1,586.751,473.4Zm-1.055,2h.852v6.309H585.7Z" fill="#fdffeb"/><path d="M592.1,475.351v.827c-.072,0-.144-.012-.2-.012a2.04,2.04,0,0,0-2.123,2.326v3.215h-.851V475.4h.815v1.236A2.378,2.378,0,0,1,592.1,475.351Z" fill="#fdffeb"/><path d="M592.814,480.987l.384-.672a3.812,3.812,0,0,0,2.243.708c1.2,0,1.692-.408,1.692-1.031,0-1.643-4.09-.348-4.09-2.843,0-1.031.887-1.8,2.494-1.8a4.274,4.274,0,0,1,2.231.587l-.371.683a3.234,3.234,0,0,0-1.86-.539c-1.14,0-1.642.443-1.642,1.043,0,1.7,4.089.42,4.089,2.843,0,1.092-.96,1.8-2.6,1.8A4.216,4.216,0,0,1,592.814,480.987Z" fill="#fdffeb"/><path d="M602.881,481.323a2.028,2.028,0,0,1-1.331.444,1.672,1.672,0,0,1-1.848-1.835v-3.814h-1.127v-.72H599.7v-1.379h.852V475.4h1.919v.72h-1.919v3.766a1.01,1.01,0,0,0,1.092,1.151,1.409,1.409,0,0,0,.935-.324Z" fill="#fdffeb"/><path d="M405.96,492.448v3.658h-.851v-3.574a1.761,1.761,0,0,0-1.9-2.014,2.068,2.068,0,0,0-2.207,2.279v3.309h-.851v-8.9h.851V490.9a2.667,2.667,0,0,1,2.363-1.151A2.415,2.415,0,0,1,405.96,492.448Z" fill="#fdffeb"/><path d="M413.041,492.2v3.909h-.815v-.983a2.369,2.369,0,0,1-2.171,1.044c-1.428,0-2.3-.744-2.3-1.835,0-.972.624-1.787,2.435-1.787h2v-.384c0-1.08-.611-1.667-1.787-1.667a3.209,3.209,0,0,0-2.1.743l-.384-.635a4,4,0,0,1,2.566-.852A2.241,2.241,0,0,1,413.041,492.2Zm-.852,2.015v-1.031H410.21c-1.223,0-1.619.479-1.619,1.127,0,.731.588,1.187,1.6,1.187A2.017,2.017,0,0,0,412.189,494.212Z" fill="#fdffeb"/><path d="M415.36,487.208h.851v8.9h-.851Z" fill="#fdffeb"/><path d="M419.559,489.055v.743H421.5v.72h-1.919v5.588h-.852v-5.588h-1.126v-.72h1.126v-.779a1.739,1.739,0,0,1,1.908-1.872,2,2,0,0,1,1.259.4l-.288.636a1.448,1.448,0,0,0-.935-.312C419.943,487.867,419.559,488.275,419.559,489.055Z" fill="#fdffeb"/><path d="M432.035,489.8l-2.387,6.308h-.8l-1.99-5.168-1.991,5.168h-.8l-2.374-6.308h.815l1.979,5.361,2.027-5.361h.731l2.015,5.361,2-5.361Z" fill="#fdffeb"/><path d="M437.893,492.2v3.909h-.815v-.983a2.369,2.369,0,0,1-2.171,1.044c-1.427,0-2.3-.744-2.3-1.835,0-.972.624-1.787,2.435-1.787h2v-.384c0-1.08-.612-1.667-1.788-1.667a3.209,3.209,0,0,0-2.1.743l-.384-.635a4,4,0,0,1,2.566-.852A2.241,2.241,0,0,1,437.893,492.2Zm-.851,2.015v-1.031h-1.979c-1.224,0-1.62.479-1.62,1.127,0,.731.588,1.187,1.6,1.187A2.019,2.019,0,0,0,437.042,494.212Z" fill="#fdffeb"/><path d="M445.393,489.8l-3.155,7.064c-.527,1.236-1.2,1.631-2.1,1.631a2.155,2.155,0,0,1-1.535-.575l.395-.636a1.576,1.576,0,0,0,1.151.48c.564,0,.948-.264,1.308-1.056l.276-.611-2.818-6.3h.887l2.375,5.361,2.374-5.361Z" fill="#fdffeb"/><path d="M448.864,495.387l.384-.671a3.814,3.814,0,0,0,2.243.707c1.2,0,1.691-.407,1.691-1.031,0-1.644-4.09-.348-4.09-2.843,0-1.031.888-1.8,2.494-1.8a4.28,4.28,0,0,1,2.231.588l-.372.683a3.238,3.238,0,0,0-1.859-.54c-1.139,0-1.643.445-1.643,1.044,0,1.7,4.09.42,4.09,2.842,0,1.092-.959,1.8-2.6,1.8A4.214,4.214,0,0,1,448.864,495.387Z" fill="#fdffeb"/><path d="M461.1,493.216h-5.277a2.334,2.334,0,0,0,2.482,2.2,2.488,2.488,0,0,0,1.931-.827l.48.551a3.335,3.335,0,0,1-5.745-2.183,3.038,3.038,0,0,1,3.082-3.2,3.007,3.007,0,0,1,3.059,3.2C461.113,493.024,461.1,493.12,461.1,493.216Zm-5.277-.635H460.3a2.241,2.241,0,0,0-4.473,0Z" fill="#fdffeb"/><path d="M468.661,492.448v3.658h-.852v-3.574a1.761,1.761,0,0,0-1.895-2.014,2.068,2.068,0,0,0-2.206,2.279v3.309h-.852V489.8h.815v1.164a2.652,2.652,0,0,1,2.4-1.212A2.415,2.415,0,0,1,468.661,492.448Z" fill="#fdffeb"/><path d="M470.105,495.387l.383-.671a3.816,3.816,0,0,0,2.243.707c1.2,0,1.691-.407,1.691-1.031,0-1.644-4.09-.348-4.09-2.843,0-1.031.888-1.8,2.495-1.8a4.283,4.283,0,0,1,2.231.588l-.372.683a3.24,3.24,0,0,0-1.859-.54c-1.139,0-1.643.445-1.643,1.044,0,1.7,4.089.42,4.089,2.842,0,1.092-.959,1.8-2.6,1.8A4.208,4.208,0,0,1,470.105,495.387Z" fill="#fdffeb"/><path d="M476.656,487.808a.614.614,0,0,1,.623-.6.6.6,0,0,1,.624.587.624.624,0,0,1-1.247.013Zm.192,1.99h.851v6.308h-.851Z" fill="#fdffeb"/><path d="M486.469,492.952a3.063,3.063,0,0,1-3.143,3.215,2.73,2.73,0,0,1-2.434-1.308v1.247h-.816v-8.9h.852V491a2.754,2.754,0,0,1,2.4-1.247A3.053,3.053,0,0,1,486.469,492.952Zm-.852,0a2.353,2.353,0,1,0-2.351,2.459A2.316,2.316,0,0,0,485.617,492.952Z" fill="#fdffeb"/><path d="M488.212,487.208h.851v8.9h-.851Z" fill="#fdffeb"/><path d="M496.933,493.216h-5.278a2.336,2.336,0,0,0,2.483,2.2,2.49,2.49,0,0,0,1.931-.827l.48.551a3.335,3.335,0,0,1-5.745-2.183,3.038,3.038,0,0,1,3.082-3.2,3.006,3.006,0,0,1,3.058,3.2C496.944,493.024,496.933,493.12,496.933,493.216Zm-5.278-.635h4.474a2.241,2.241,0,0,0-4.474,0Z" fill="#fdffeb"/><path d="M501.2,492.952a3.208,3.208,0,1,1,3.214,3.215A3.1,3.1,0,0,1,501.2,492.952Zm5.553,0a2.347,2.347,0,1,0-2.339,2.459A2.3,2.3,0,0,0,506.749,492.952Z" fill="#fdffeb"/><path d="M515.748,492.952a3.056,3.056,0,0,1-3.143,3.215,2.753,2.753,0,0,1-2.4-1.248v3.515h-.852V489.8h.816v1.248a2.748,2.748,0,0,1,2.434-1.3A3.053,3.053,0,0,1,515.748,492.952Zm-.851,0a2.353,2.353,0,1,0-2.351,2.459A2.323,2.323,0,0,0,514.9,492.952Z" fill="#fdffeb"/><path d="M520.814,495.723a2.03,2.03,0,0,1-1.331.444,1.671,1.671,0,0,1-1.847-1.835v-3.814h-1.127v-.72h1.127v-1.379h.851V489.8h1.919v.72h-1.919v3.765a1.011,1.011,0,0,0,1.092,1.152,1.412,1.412,0,0,0,.936-.324Z" fill="#fdffeb"/><path d="M522.171,487.808a.614.614,0,0,1,.624-.6.6.6,0,0,1,.624.587.624.624,0,0,1-1.248.013Zm.192,1.99h.852v6.308h-.852Z" fill="#fdffeb"/><path d="M524.956,492.952a3.208,3.208,0,1,1,3.214,3.215A3.1,3.1,0,0,1,524.956,492.952Zm5.553,0a2.348,2.348,0,1,0-2.339,2.459A2.3,2.3,0,0,0,530.509,492.952Z" fill="#fdffeb"/><path d="M538.92,492.448v3.658h-.852v-3.574a1.76,1.76,0,0,0-1.894-2.014,2.068,2.068,0,0,0-2.207,2.279v3.309h-.852V489.8h.816v1.164a2.65,2.65,0,0,1,2.4-1.212A2.415,2.415,0,0,1,538.92,492.448Z" fill="#fdffeb"/><path d="M547.705,495.723a2.033,2.033,0,0,1-1.331.444,1.672,1.672,0,0,1-1.848-1.835v-3.814H543.4v-.72h1.127v-1.379h.852V489.8H547.3v.72h-1.919v3.765a1.011,1.011,0,0,0,1.092,1.152,1.409,1.409,0,0,0,.935-.324Z" fill="#fdffeb"/><path d="M555.061,492.448v3.658h-.852v-3.574a1.761,1.761,0,0,0-1.895-2.014,2.068,2.068,0,0,0-2.207,2.279v3.309h-.851v-8.9h.851V490.9a2.667,2.667,0,0,1,2.363-1.151A2.415,2.415,0,0,1,555.061,492.448Z" fill="#fdffeb"/><path d="M562.141,492.2v3.909h-.817v-.983a2.368,2.368,0,0,1-2.171,1.044c-1.426,0-2.3-.744-2.3-1.835,0-.972.624-1.787,2.435-1.787h2v-.384c0-1.08-.612-1.667-1.787-1.667a3.215,3.215,0,0,0-2.1.743l-.383-.635a4,4,0,0,1,2.567-.852A2.241,2.241,0,0,1,562.141,492.2Zm-.852,2.015v-1.031H559.31c-1.224,0-1.62.479-1.62,1.127,0,.731.588,1.187,1.6,1.187A2.019,2.019,0,0,0,561.289,494.212Z" fill="#fdffeb"/><path d="M567.781,495.723a2.033,2.033,0,0,1-1.331.444,1.671,1.671,0,0,1-1.847-1.835v-3.814h-1.127v-.72H564.6v-1.379h.851V489.8h1.919v.72h-1.919v3.765a1.011,1.011,0,0,0,1.092,1.152,1.407,1.407,0,0,0,.935-.324Z" fill="#fdffeb"/><path d="M575.8,495.723a2.033,2.033,0,0,1-1.331.444,1.672,1.672,0,0,1-1.848-1.835v-3.814h-1.127v-.72h1.127v-1.379h.852V489.8h1.919v.72H573.47v3.765a1.011,1.011,0,0,0,1.092,1.152,1.409,1.409,0,0,0,.935-.324Z" fill="#fdffeb"/><path d="M583.032,489.8v6.308h-.815v-1.151a2.51,2.51,0,0,1-2.267,1.212,2.444,2.444,0,0,1-2.663-2.711V489.8h.852v3.574a1.765,1.765,0,0,0,1.9,2.027,2.051,2.051,0,0,0,2.147-2.291V489.8Z" fill="#fdffeb"/><path d="M588.6,489.75v.828c-.072,0-.144-.013-.2-.013a2.042,2.042,0,0,0-2.123,2.328v3.213h-.851V489.8h.815v1.235A2.38,2.38,0,0,1,588.6,489.75Z" fill="#fdffeb"/><path d="M595.943,492.448v3.658h-.851v-3.574a1.761,1.761,0,0,0-1.895-2.014,2.068,2.068,0,0,0-2.207,2.279v3.309h-.851V489.8h.815v1.164a2.652,2.652,0,0,1,2.4-1.212A2.415,2.415,0,0,1,595.943,492.448Z" fill="#fdffeb"/><path d="M597.387,495.387l.384-.671a3.814,3.814,0,0,0,2.243.707c1.2,0,1.691-.407,1.691-1.031,0-1.644-4.09-.348-4.09-2.843,0-1.031.887-1.8,2.494-1.8a4.281,4.281,0,0,1,2.231.588l-.371.683a3.243,3.243,0,0,0-1.86-.54c-1.139,0-1.642.445-1.642,1.044,0,1.7,4.09.42,4.09,2.842,0,1.092-.96,1.8-2.6,1.8A4.21,4.21,0,0,1,597.387,495.387Z" fill="#fdffeb"/><path d="M612.959,489.8v6.308h-.815v-1.151a2.509,2.509,0,0,1-2.267,1.212,2.444,2.444,0,0,1-2.663-2.711V489.8h.851v3.574a1.766,1.766,0,0,0,1.9,2.027,2.051,2.051,0,0,0,2.146-2.291V489.8Z" fill="#fdffeb"/><path d="M621.743,492.952a3.056,3.056,0,0,1-3.142,3.215,2.755,2.755,0,0,1-2.4-1.248v3.515h-.851V489.8h.815v1.248a2.749,2.749,0,0,1,2.435-1.3A3.053,3.053,0,0,1,621.743,492.952Zm-.851,0a2.353,2.353,0,1,0-2.351,2.459A2.323,2.323,0,0,0,620.892,492.952Z" fill="#fdffeb"/><path d="M624.038,495.507a1.949,1.949,0,0,1-.168.7l-.5,1.655h-.575l.407-1.738a.607.607,0,0,1-.431-.612.636.636,0,1,1,1.271,0Z" fill="#fdffeb"/><path d="M404.917,506.6v3.909H404.1v-.984a2.369,2.369,0,0,1-2.171,1.044c-1.428,0-2.3-.744-2.3-1.835,0-.971.623-1.787,2.435-1.787h2v-.383c0-1.081-.611-1.667-1.787-1.667a3.209,3.209,0,0,0-2.1.743L399.8,505a4,4,0,0,1,2.566-.852A2.241,2.241,0,0,1,404.917,506.6Zm-.852,2.014v-1.031h-1.979c-1.223,0-1.619.48-1.619,1.127,0,.731.588,1.188,1.6,1.188A2.018,2.018,0,0,0,404.065,508.612Z" fill="#fdffeb"/><path d="M413.041,506.849v3.658h-.852v-3.574a1.762,1.762,0,0,0-1.895-2.015,2.069,2.069,0,0,0-2.207,2.279v3.31h-.851V504.2h.815v1.164a2.653,2.653,0,0,1,2.4-1.212A2.416,2.416,0,0,1,413.041,506.849Z" fill="#fdffeb"/><path d="M421.141,501.608v8.9h-.816V509.26a2.734,2.734,0,0,1-2.435,1.307,3.209,3.209,0,0,1,0-6.417,2.758,2.758,0,0,1,2.4,1.247v-3.789Zm-.84,5.745a2.348,2.348,0,1,0-2.339,2.459A2.307,2.307,0,0,0,420.3,507.353Z" fill="#fdffeb"/><path d="M426.472,502.208a.615.615,0,0,1,.623-.6.6.6,0,0,1,.624.587.624.624,0,0,1-1.247.013Zm.192,1.99h.851v6.309h-.851Z" fill="#fdffeb"/><path d="M433.214,510.123a2.029,2.029,0,0,1-1.332.444,1.671,1.671,0,0,1-1.847-1.835v-3.814h-1.127v-.72h1.127v-1.379h.852V504.2h1.919v.72h-1.919v3.766a1.01,1.01,0,0,0,1.092,1.151,1.408,1.408,0,0,0,.935-.323Z" fill="#fdffeb"/><path d="M447.167,504.2l-2.387,6.309h-.8l-1.991-5.169-1.99,5.169h-.8l-2.375-6.309h.816l1.979,5.362,2.027-5.362h.731l2.015,5.362,2-5.362Z" fill="#fdffeb"/><path d="M453.025,506.6v3.909h-.816v-.984a2.367,2.367,0,0,1-2.17,1.044c-1.428,0-2.3-.744-2.3-1.835,0-.971.623-1.787,2.434-1.787h2v-.383c0-1.081-.611-1.667-1.787-1.667a3.209,3.209,0,0,0-2.1.743L447.9,505a4,4,0,0,1,2.566-.852A2.241,2.241,0,0,1,453.025,506.6Zm-.852,2.014v-1.031h-1.979c-1.223,0-1.619.48-1.619,1.127,0,.731.588,1.188,1.6,1.188A2.019,2.019,0,0,0,452.173,508.612Z" fill="#fdffeb"/><path d="M454.468,509.787l.384-.671a3.807,3.807,0,0,0,2.243.707c1.2,0,1.691-.407,1.691-1.031,0-1.644-4.09-.348-4.09-2.843,0-1.031.888-1.8,2.494-1.8a4.28,4.28,0,0,1,2.231.588l-.371.684a3.235,3.235,0,0,0-1.86-.54c-1.139,0-1.643.444-1.643,1.044,0,1.7,4.09.42,4.09,2.842,0,1.091-.959,1.8-2.6,1.8A4.214,4.214,0,0,1,454.468,509.787Z" fill="#fdffeb"/><path d="M470.2,504.2v5.541c0,2.171-1.068,3.155-3.155,3.155a4.4,4.4,0,0,1-2.938-.972l.432-.648a3.752,3.752,0,0,0,2.483.864c1.594,0,2.326-.732,2.326-2.29v-.8a2.839,2.839,0,0,1-2.459,1.224,3.061,3.061,0,1,1,0-6.118,2.846,2.846,0,0,1,2.5,1.26V504.2Zm-.828,3a2.394,2.394,0,1,0-2.4,2.315A2.255,2.255,0,0,0,469.369,507.2Z" fill="#fdffeb"/><path d="M475.766,504.15v.829c-.072,0-.144-.013-.2-.013a2.041,2.041,0,0,0-2.123,2.327v3.214h-.851V504.2h.815v1.236A2.381,2.381,0,0,1,475.766,504.15Z" fill="#fdffeb"/><path d="M482.736,507.616H477.46a2.335,2.335,0,0,0,2.482,2.2,2.488,2.488,0,0,0,1.931-.828l.48.551a3.335,3.335,0,0,1-5.745-2.182,3.038,3.038,0,0,1,3.082-3.2,3.007,3.007,0,0,1,3.059,3.2C482.749,507.425,482.736,507.521,482.736,507.616Zm-5.276-.635h4.474a2.242,2.242,0,0,0-4.474,0Z" fill="#fdffeb"/><path d="M489.073,506.6v3.909h-.815v-.984a2.369,2.369,0,0,1-2.171,1.044c-1.428,0-2.3-.744-2.3-1.835,0-.971.623-1.787,2.435-1.787h2v-.383c0-1.081-.613-1.667-1.787-1.667a3.212,3.212,0,0,0-2.1.743l-.384-.636a4,4,0,0,1,2.567-.852A2.241,2.241,0,0,1,489.073,506.6Zm-.851,2.014v-1.031h-1.98c-1.222,0-1.619.48-1.619,1.127,0,.731.588,1.188,1.6,1.188A2.02,2.02,0,0,0,488.222,508.612Z" fill="#fdffeb"/><path d="M494.714,510.123a2.028,2.028,0,0,1-1.331.444,1.671,1.671,0,0,1-1.848-1.835v-3.814h-1.127v-.72h1.127v-1.379h.852V504.2h1.919v.72h-1.919v3.766a1.01,1.01,0,0,0,1.092,1.151,1.408,1.408,0,0,0,.935-.323Z" fill="#fdffeb"/><path d="M502.73,510.123a2.025,2.025,0,0,1-1.332.444,1.67,1.67,0,0,1-1.846-1.835v-3.814h-1.127v-.72h1.127v-1.379h.851V504.2h1.919v.72H500.4v3.766a1.01,1.01,0,0,0,1.092,1.151,1.406,1.406,0,0,0,.935-.323Z" fill="#fdffeb"/><path d="M503.417,507.353a3.208,3.208,0,1,1,3.214,3.214A3.1,3.1,0,0,1,503.417,507.353Zm5.553,0a2.348,2.348,0,1,0-2.339,2.459A2.3,2.3,0,0,0,508.97,507.353Z" fill="#fdffeb"/><path d="M513.845,509.787l.384-.671a3.807,3.807,0,0,0,2.243.707c1.2,0,1.691-.407,1.691-1.031,0-1.644-4.09-.348-4.09-2.843,0-1.031.887-1.8,2.494-1.8a4.28,4.28,0,0,1,2.231.588l-.371.684a3.235,3.235,0,0,0-1.86-.54c-1.139,0-1.642.444-1.642,1.044,0,1.7,4.09.42,4.09,2.842,0,1.091-.96,1.8-2.6,1.8A4.211,4.211,0,0,1,513.845,509.787Z" fill="#fdffeb"/><path d="M526.082,507.616H520.8a2.335,2.335,0,0,0,2.482,2.2,2.489,2.489,0,0,0,1.931-.828l.48.551a3.335,3.335,0,0,1-5.745-2.182,3.039,3.039,0,0,1,3.082-3.2,3.007,3.007,0,0,1,3.059,3.2C526.094,507.425,526.082,507.521,526.082,507.616Zm-5.277-.635h4.473a2.241,2.241,0,0,0-4.473,0Z" fill="#fdffeb"/><path d="M533.33,507.616h-5.277a2.335,2.335,0,0,0,2.482,2.2,2.489,2.489,0,0,0,1.931-.828l.48.551a3.335,3.335,0,0,1-5.745-2.182,3.039,3.039,0,0,1,3.082-3.2,3.007,3.007,0,0,1,3.059,3.2C533.342,507.425,533.33,507.521,533.33,507.616Zm-5.277-.635h4.473a2.241,2.241,0,0,0-4.473,0Z" fill="#fdffeb"/><path d="M543.529,504.2l-3.154,7.065c-.527,1.235-1.2,1.631-2.1,1.631a2.157,2.157,0,0,1-1.535-.576l.4-.635a1.579,1.579,0,0,0,1.151.479c.564,0,.947-.264,1.308-1.056l.275-.611-2.818-6.3h.887l2.375,5.362,2.374-5.362Z" fill="#fdffeb"/><path d="M543.916,507.353a3.208,3.208,0,1,1,3.214,3.214A3.1,3.1,0,0,1,543.916,507.353Zm5.553,0a2.348,2.348,0,1,0-2.339,2.459A2.3,2.3,0,0,0,549.469,507.353Z" fill="#fdffeb"/><path d="M557.761,504.2v6.309h-.816v-1.152a2.508,2.508,0,0,1-2.266,1.212,2.443,2.443,0,0,1-2.663-2.711V504.2h.851v3.574a1.766,1.766,0,0,0,1.9,2.028,2.051,2.051,0,0,0,2.146-2.291V504.2Z" fill="#fdffeb"/><path d="M572.555,504.2l-2.387,6.309h-.8l-1.991-5.169-1.99,5.169h-.8L562.2,504.2h.816L565,509.56l2.026-5.362h.732l2.015,5.362,2-5.362Z" fill="#fdffeb"/><path d="M579.157,507.616H573.88a2.335,2.335,0,0,0,2.482,2.2,2.489,2.489,0,0,0,1.931-.828l.48.551a3.335,3.335,0,0,1-5.745-2.182,3.039,3.039,0,0,1,3.082-3.2,3.007,3.007,0,0,1,3.059,3.2C579.169,507.425,579.157,507.521,579.157,507.616Zm-5.277-.635h4.474a2.242,2.242,0,0,0-4.474,0Z" fill="#fdffeb"/><path d="M584.09,504.15v.829c-.071,0-.144-.013-.2-.013a2.041,2.041,0,0,0-2.123,2.327v3.214h-.852V504.2h.816v1.236A2.379,2.379,0,0,1,584.09,504.15Z" fill="#fdffeb"/><path d="M591.062,507.616h-5.278a2.336,2.336,0,0,0,2.483,2.2,2.487,2.487,0,0,0,1.93-.828l.481.551a3.335,3.335,0,0,1-5.745-2.182,3.038,3.038,0,0,1,3.082-3.2,3.007,3.007,0,0,1,3.058,3.2C591.073,507.425,591.062,507.521,591.062,507.616Zm-5.278-.635h4.474a2.242,2.242,0,0,0-4.474,0Z" fill="#fdffeb"/><path d="M600.721,506.6v3.909h-.816v-.984a2.367,2.367,0,0,1-2.171,1.044c-1.426,0-2.3-.744-2.3-1.835,0-.971.624-1.787,2.435-1.787h2v-.383c0-1.081-.612-1.667-1.787-1.667a3.219,3.219,0,0,0-2.1.743L595.6,505a4,4,0,0,1,2.567-.852A2.241,2.241,0,0,1,600.721,506.6Zm-.851,2.014v-1.031h-1.979c-1.224,0-1.619.48-1.619,1.127,0,.731.587,1.188,1.6,1.188A2.02,2.02,0,0,0,599.87,508.612Z" fill="#fdffeb"/><path d="M609.433,507.353a3.062,3.062,0,0,1-3.143,3.214,2.735,2.735,0,0,1-2.435-1.307v1.247h-.815v-8.9h.852V505.4a2.754,2.754,0,0,1,2.4-1.247A3.053,3.053,0,0,1,609.433,507.353Zm-.852,0a2.353,2.353,0,1,0-2.351,2.459A2.316,2.316,0,0,0,608.581,507.353Z" fill="#fdffeb"/><path d="M611.176,501.608h.851v8.9h-.851Z" fill="#fdffeb"/><path d="M619.9,507.616h-5.278a2.336,2.336,0,0,0,2.483,2.2,2.487,2.487,0,0,0,1.93-.828l.481.551a3.335,3.335,0,0,1-5.745-2.182,3.038,3.038,0,0,1,3.082-3.2,3.007,3.007,0,0,1,3.058,3.2C619.908,507.425,619.9,507.521,619.9,507.616Zm-5.278-.635h4.474a2.242,2.242,0,0,0-4.474,0Z" fill="#fdffeb"/><path d="M403.478,524.523a2.028,2.028,0,0,1-1.331.444,1.672,1.672,0,0,1-1.848-1.835v-3.814h-1.127V518.6H400.3v-1.38h.852v1.38h1.919v.719h-1.919v3.766a1.01,1.01,0,0,0,1.092,1.151,1.409,1.409,0,0,0,.935-.324Z" fill="#fdffeb"/><path d="M404.164,521.753a3.209,3.209,0,1,1,3.214,3.214A3.1,3.1,0,0,1,404.164,521.753Zm5.553,0a2.348,2.348,0,1,0-2.339,2.458A2.3,2.3,0,0,0,409.717,521.753Z" fill="#fdffeb"/><path d="M418.646,518.551v.827c-.072,0-.144-.012-.2-.012a2.04,2.04,0,0,0-2.123,2.326v3.215h-.851V518.6h.815v1.235A2.378,2.378,0,0,1,418.646,518.551Z" fill="#fdffeb"/><path d="M425.617,522.017H420.34a2.334,2.334,0,0,0,2.482,2.194,2.485,2.485,0,0,0,1.931-.827l.48.552a3.336,3.336,0,0,1-5.745-2.183,3.038,3.038,0,0,1,3.082-3.2,3.005,3.005,0,0,1,3.059,3.2C425.629,521.824,425.617,521.921,425.617,522.017Zm-5.277-.636h4.473a2.241,2.241,0,0,0-4.473,0Z" fill="#fdffeb"/><path d="M426.5,524.188l.383-.672a3.816,3.816,0,0,0,2.243.708c1.2,0,1.691-.409,1.691-1.032,0-1.643-4.09-.348-4.09-2.842,0-1.032.888-1.8,2.495-1.8a4.274,4.274,0,0,1,2.231.587l-.372.683a3.239,3.239,0,0,0-1.859-.539c-1.139,0-1.643.444-1.643,1.043,0,1.7,4.09.42,4.09,2.843,0,1.092-.96,1.8-2.6,1.8A4.217,4.217,0,0,1,426.5,524.188Z" fill="#fdffeb"/><path d="M433.048,516.607a.615.615,0,0,1,.624-.6.6.6,0,0,1,.623.588.624.624,0,0,1-1.247.011Zm.192,1.992h.852v6.308h-.852Z" fill="#fdffeb"/><path d="M435.593,524.188l.384-.672a3.813,3.813,0,0,0,2.242.708c1.2,0,1.691-.409,1.691-1.032,0-1.643-4.09-.348-4.09-2.842,0-1.032.888-1.8,2.495-1.8a4.273,4.273,0,0,1,2.231.587l-.372.683a3.237,3.237,0,0,0-1.859-.539c-1.139,0-1.643.444-1.643,1.043,0,1.7,4.09.42,4.09,2.843,0,1.092-.96,1.8-2.6,1.8A4.217,4.217,0,0,1,435.593,524.188Z" fill="#fdffeb"/><path d="M445.658,524.523a2.024,2.024,0,0,1-1.331.444,1.671,1.671,0,0,1-1.847-1.835v-3.814h-1.127V518.6h1.127v-1.38h.852v1.38h1.919v.719h-1.919v3.766a1.01,1.01,0,0,0,1.091,1.151,1.405,1.405,0,0,0,.935-.324Z" fill="#fdffeb"/><path d="M453.675,524.523a2.029,2.029,0,0,1-1.332.444,1.671,1.671,0,0,1-1.847-1.835v-3.814h-1.127V518.6H450.5v-1.38h.852v1.38h1.919v.719h-1.919v3.766a1.01,1.01,0,0,0,1.091,1.151,1.41,1.41,0,0,0,.936-.324Z" fill="#fdffeb"/><path d="M461.029,521.249v3.658h-.851v-3.574a1.762,1.762,0,0,0-1.9-2.015,2.068,2.068,0,0,0-2.207,2.279v3.31h-.851v-8.9h.851V519.7a2.667,2.667,0,0,1,2.362-1.151A2.414,2.414,0,0,1,461.029,521.249Z" fill="#fdffeb"/><path d="M468.11,521v3.91h-.816v-.983a2.368,2.368,0,0,1-2.17,1.043c-1.428,0-2.3-.743-2.3-1.835,0-.972.623-1.787,2.434-1.787h2v-.384c0-1.079-.611-1.667-1.787-1.667a3.21,3.21,0,0,0-2.1.744l-.384-.636a4,4,0,0,1,2.566-.851A2.24,2.24,0,0,1,468.11,521Zm-.852,2.015V521.98h-1.979c-1.223,0-1.619.48-1.619,1.128,0,.732.588,1.187,1.6,1.187A2.017,2.017,0,0,0,467.258,523.012Z" fill="#fdffeb"/><path d="M473.751,524.523a2.029,2.029,0,0,1-1.332.444,1.671,1.671,0,0,1-1.847-1.835v-3.814h-1.127V518.6h1.127v-1.38h.852v1.38h1.919v.719h-1.919v3.766a1.01,1.01,0,0,0,1.092,1.151,1.409,1.409,0,0,0,.935-.324Z" fill="#fdffeb"/><path d="M481.767,524.523a2.028,2.028,0,0,1-1.331.444,1.672,1.672,0,0,1-1.848-1.835v-3.814h-1.127V518.6h1.127v-1.38h.851v1.38h1.919v.719h-1.919v3.766a1.01,1.01,0,0,0,1.092,1.151,1.41,1.41,0,0,0,.936-.324Z" fill="#fdffeb"/><path d="M488.581,522.017H483.3a2.334,2.334,0,0,0,2.482,2.194,2.485,2.485,0,0,0,1.931-.827l.479.552a3.335,3.335,0,0,1-5.744-2.183,3.038,3.038,0,0,1,3.082-3.2,3.005,3.005,0,0,1,3.059,3.2C488.594,521.824,488.581,521.921,488.581,522.017Zm-5.276-.636h4.473a2.241,2.241,0,0,0-4.473,0Z" fill="#fdffeb"/><path d="M500.747,521.249v3.658H499.9v-3.574c0-1.331-.672-2.015-1.812-2.015a2.027,2.027,0,0,0-2.11,2.279v3.31h-.852v-3.574c0-1.331-.672-2.015-1.823-2.015a2.033,2.033,0,0,0-2.111,2.279v3.31h-.851V518.6h.815v1.151a2.55,2.55,0,0,1,2.315-1.2,2.266,2.266,0,0,1,2.243,1.331,2.743,2.743,0,0,1,2.494-1.331A2.381,2.381,0,0,1,500.747,521.249Z" fill="#fdffeb"/><path d="M509.461,521.753a3.055,3.055,0,0,1-3.143,3.214,2.756,2.756,0,0,1-2.4-1.247v3.513h-.852V518.6h.816v1.247a2.745,2.745,0,0,1,2.434-1.295A3.052,3.052,0,0,1,509.461,521.753Zm-.852,0a2.353,2.353,0,1,0-2.35,2.458A2.323,2.323,0,0,0,508.609,521.753Z" fill="#fdffeb"/><path d="M514.527,524.523a2.026,2.026,0,0,1-1.331.444,1.671,1.671,0,0,1-1.847-1.835v-3.814h-1.127V518.6h1.127v-1.38h.851v1.38h1.919v.719H512.2v3.766a1.01,1.01,0,0,0,1.092,1.151,1.412,1.412,0,0,0,.936-.324Z" fill="#fdffeb"/><path d="M520.838,521v3.91h-.816v-.983a2.367,2.367,0,0,1-2.17,1.043c-1.427,0-2.3-.743-2.3-1.835,0-.972.624-1.787,2.435-1.787h2v-.384c0-1.079-.612-1.667-1.787-1.667a3.214,3.214,0,0,0-2.1.744l-.384-.636a4,4,0,0,1,2.567-.851A2.24,2.24,0,0,1,520.838,521Zm-.851,2.015V521.98h-1.979c-1.224,0-1.619.48-1.619,1.128,0,.732.588,1.187,1.6,1.187A2.018,2.018,0,0,0,519.987,523.012Z" fill="#fdffeb"/><path d="M526.48,524.523a2.029,2.029,0,0,1-1.332.444,1.671,1.671,0,0,1-1.847-1.835v-3.814h-1.127V518.6H523.3v-1.38h.851v1.38h1.919v.719h-1.919v3.766a1.011,1.011,0,0,0,1.092,1.151,1.412,1.412,0,0,0,.936-.324Z" fill="#fdffeb"/><path d="M527.837,516.607a.615.615,0,0,1,.624-.6.6.6,0,0,1,.624.588.624.624,0,0,1-1.248.011Zm.192,1.992h.852v6.308h-.852Z" fill="#fdffeb"/><path d="M530.621,521.753a3.208,3.208,0,1,1,3.214,3.214A3.1,3.1,0,0,1,530.621,521.753Zm5.553,0a2.348,2.348,0,1,0-2.339,2.458A2.3,2.3,0,0,0,536.174,521.753Z" fill="#fdffeb"/><path d="M544.586,521.249v3.658h-.852v-3.574a1.761,1.761,0,0,0-1.894-2.015,2.068,2.068,0,0,0-2.207,2.279v3.31h-.852V518.6h.816v1.163a2.65,2.65,0,0,1,2.4-1.211A2.415,2.415,0,0,1,544.586,521.249Z" fill="#fdffeb"/><path d="M546.354,524.308a.636.636,0,0,1,.635-.649.646.646,0,0,1,.648.649.655.655,0,0,1-.648.659A.645.645,0,0,1,546.354,524.308Z" fill="#fdffeb"/></g><g transform="translate(104.972 730.004) rotate(180)"><g transform="translate(12.516)" fill="url(#a)"><path d="M 35.18596267700195 69.37203979492188 C 30.57044219970703 69.37203979492188 26.0935230255127 68.46830749511719 21.87955284118652 66.68594360351562 C 17.8088321685791 64.96417236328125 14.15274238586426 62.49908828735352 11.01284313201904 59.35918807983398 C 7.872932910919189 56.21928024291992 5.407862663269043 52.56317901611328 3.686092615127563 48.49245071411133 C 1.903732657432556 44.27848052978516 1.00000262260437 39.80154037475586 1.00000262260437 35.18601989746094 C 1.00000262260437 30.57049942016602 1.903732657432556 26.09355926513672 3.686092615127563 21.87958908081055 C 5.407862663269043 17.80886077880859 7.872932910919189 14.15275955200195 11.01284313201904 11.01284980773926 C 14.15274238586426 7.872950077056885 17.8088321685791 5.407869815826416 21.87955284118652 3.686100006103516 C 26.0935230255127 1.903729915618896 30.57044219970703 0.9999998807907104 35.18596267700195 0.9999998807907104 C 39.80148315429688 0.9999998807907104 44.27840423583984 1.903729915618896 48.49238204956055 3.686100006103516 C 52.56310272216797 5.407869815826416 56.21919250488281 7.872950077056885 59.35909271240234 11.01284980773926 C 62.49899291992188 14.15275955200195 64.96406555175781 17.80886077880859 66.68582916259766 21.87958908081055 C 68.46819305419922 26.09355926513672 69.37192535400391 30.57049942016602 69.37192535400391 35.18601989746094 C 69.37192535400391 39.80154037475586 68.46819305419922 44.27848052978516 66.68582916259766 48.49245071411133 C 64.96406555175781 52.56317901611328 62.49899291992188 56.21928024291992 59.35909271240234 59.35918807983398 C 56.21919250488281 62.49908828735352 52.56310272216797 64.96417236328125 48.49238204956055 66.68594360351562 C 44.27840423583984 68.46830749511719 39.80148315429688 69.37203979492188 35.18596267700195 69.37203979492188 Z" stroke="none"/><path d="M 35.18596267700195 68.37203979492188 C 39.66691970825195 68.37203979492188 44.01278305053711 67.49488830566406 48.10282897949219 65.76493835449219 C 52.05435180664062 64.09358978271484 55.60359573364258 61.70047378540039 58.65198516845703 58.6520881652832 C 61.70037460327148 55.60368728637695 64.09348297119141 52.0544319152832 65.76483154296875 48.10290908813477 C 67.49477386474609 44.01285171508789 68.37193298339844 39.66698837280273 68.37193298339844 35.18601989746094 C 68.37193298339844 30.70505332946777 67.49477386474609 26.35918617248535 65.76483154296875 22.26913070678711 C 64.09348297119141 18.31760787963867 61.70037460327148 14.76835346221924 58.65198516845703 11.7199535369873 C 55.60359573364258 8.671564102172852 52.05435180664062 6.278453350067139 48.10282897949219 4.607097625732422 C 44.01278305053711 2.877153158187866 39.66691970825195 1.999997615814209 35.18596267700195 1.999997615814209 C 30.70500755310059 1.999997615814209 26.35915184020996 2.877153158187866 22.26910781860352 4.607097625732422 C 18.31758499145508 6.278453350067139 14.76832962036133 8.671564102172852 11.71994018554688 11.7199535369873 C 8.671551704406738 14.76835346221924 6.278451442718506 18.31760787963867 4.607096195220947 22.26914215087891 C 2.877151489257812 26.35918617248535 1.999996066093445 30.70505332946777 1.999996066093445 35.18601989746094 C 1.999996066093445 39.66698837280273 2.877151489257812 44.01285171508789 4.607096195220947 48.10289764404297 C 6.278451442718506 52.0544319152832 8.671551704406738 55.60368728637695 11.71994018554688 58.6520881652832 C 14.76832962036133 61.70047378540039 18.31758499145508 64.09358978271484 22.26910781860352 65.76493835449219 C 26.35915184020996 67.49488830566406 30.70500755310059 68.37203979492188 35.18596267700195 68.37203979492188 M 35.18596267700195 70.37203979492188 C 15.7532958984375 70.37203979492188 -3.989664492110023e-06 54.61872100830078 -3.989664492110023e-06 35.18601989746094 C -3.989664492110023e-06 15.75331974029541 15.7532958984375 -2.324761226191185e-06 35.18596267700195 -2.324761226191185e-06 C 54.6186408996582 -2.324761226191185e-06 70.37193298339844 15.75331974029541 70.37193298339844 35.18601989746094 C 70.37193298339844 54.61872100830078 54.6186408996582 70.37203979492188 35.18596267700195 70.37203979492188 Z" stroke="none" fill="#a800b0"/></g><g transform="translate(27.87 13.822)"><path d="M23.5,13.332c.134-.125.251-.229.361-.339l6.434-6.431c1.9-1.9,3.784-3.8,5.692-5.685a2.876,2.876,0,1,1,3.973,4.155Q34,11,28.022,16.964a2.782,2.782,0,0,1-.5.329A15.125,15.125,0,1,1,23.5,13.332ZM19.719,8.6a2.5,2.5,0,1,1,2.534-2.463A2.514,2.514,0,0,1,19.719,8.6Zm15.1,20.867c.483-.326.875-1.193,1.562-.512s-.176,1.077-.5,1.556c.322.484,1.184.88.505,1.564s-1.074-.194-1.566-.5c-.477.321-.87,1.192-1.555.5s.187-1.078.506-1.564c-.319-.48-1.138-.815-.517-1.569C33.577,28.549,33.96,28.689,34.817,29.469ZM10.038,5.744a.717.717,0,1,1-.707.753A.742.742,0,0,1,10.038,5.744ZM32.326,36.6a.7.7,0,1,1,.674.718A.687.687,0,0,1,32.326,36.6Z" fill="#fffcd6"/><path d="M23.5,13.332a15.039,15.039,0,1,0,4.027,3.961,2.782,2.782,0,0,0,.5-.329Q34,11,39.959,5.032A2.876,2.876,0,1,0,35.986.877c-1.908,1.884-3.8,3.789-5.692,5.685l-6.434,6.431C23.751,13.1,23.634,13.206,23.5,13.332Zm5.2,12.534A13.635,13.635,0,1,1,15.09,12.221,13.619,13.619,0,0,1,28.7,25.865Zm3.845-19.44c1.524-1.547,3.039-3.125,4.6-4.653a1.354,1.354,0,0,1,1.941.121,1.393,1.393,0,0,1-.023,1.99c-1.485,1.512-3,3-4.5,4.492-.019.018-.061.012-.045.01ZM33.36,9.4l-3.838,3.848-1.89-1.893,3.853-3.835Zm-8.649,4.829,1.754-1.761,1.99,2L26.71,16.231c-.323-.347-.633-.7-.964-1.032S25.059,14.556,24.712,14.234Z" fill="#fffcd6"/><path d="M2.494,5A2.5,2.5,0,1,0,0,2.491,2.494,2.494,0,0,0,2.494,5ZM3.581,2.491A1.072,1.072,0,0,1,2.528,3.58a1.078,1.078,0,0,1-.02-2.156A1.072,1.072,0,0,1,3.581,2.491Z" transform="translate(17.224 3.6)" fill="#fffcd6"/><path d="M1.81.766C.952-.014.569-.153.244.242-.377,1,.443,1.33.761,1.811.442,2.3-.428,2.689.255,3.374s1.077-.184,1.554-.5c.493.311.88,1.2,1.566.5s-.183-1.08-.505-1.564c.326-.479,1.188-.876.5-1.556S2.293.44,1.81.766Z" transform="translate(33.008 28.703)" fill="#fffcd6"/><path d="M.708,0A.739.739,0,0,0,0,.753a.74.74,0,0,0,.728.681A.741.741,0,0,0,1.436.68.742.742,0,0,0,.708,0Z" transform="translate(9.33 5.744)" fill="#fffcd6"/><path d="M0,.689a.684.684,0,0,0,.674.718A.684.684,0,0,0,1.4.747.69.69,0,0,0,.705,0,.687.687,0,0,0,0,.689Z" transform="translate(32.326 35.915)" fill="#fffcd6"/><path d="M17.345,4.362q0-1.657,0-3.313c0-.73-.23-1.057-.726-1.049-.478.008-.692.323-.695,1.023,0,.175,0,.351,0,.526,0,1.876.019,3.752-.006,5.627A6.461,6.461,0,0,1,3,7.3c-.013-.806.011-1.613-.01-2.419A2.608,2.608,0,0,0,1.017,2.331a.709.709,0,0,0-.976.431.67.67,0,0,0,.483.907,1.38,1.38,0,0,1,1.03,1.552,13.932,13.932,0,0,0,.285,4.022A7.932,7.932,0,0,0,9.8,15.018a7.855,7.855,0,0,0,7.466-6.874,34.365,34.365,0,0,0,.022-3.782Z" transform="translate(5.577 20.327)" fill="#fffcd6"/><path d="M7.728,5.387c0-1.349,0-2.7,0-4.048,0-.614-.275-.961-.733-.956s-.715.351-.716.971c0,2.646,0,5.292-.008,7.938a1.046,1.046,0,0,1-.164.682.9.9,0,0,1-.729.231.855.855,0,0,1-.49-.58,9.06,9.06,0,0,1-.038-1.468,11.772,11.772,0,0,0-.367-3.747A7.794,7.794,0,0,0,1.306.227C.8-.107.354-.069.113.318S.011,1.074.5,1.41A6.4,6.4,0,0,1,3.417,6.928c.009.859-.006,1.717,0,2.576A2.148,2.148,0,0,0,5.548,11.71,2.176,2.176,0,0,0,7.727,9.54c0-.035,0-.07,0-.105Q7.728,7.411,7.728,5.387Z" transform="translate(9.463 17.899)" fill="#fffcd6"/><path d="M3.2,6.59a17.421,17.421,0,0,0,.225,2.238A4.994,4.994,0,0,0,8.872,12.6a5.049,5.049,0,0,0,4.423-4.729c.018-.619-.186-.925-.641-.962-.476-.039-.738.251-.8.885a3.588,3.588,0,0,1-3.691,3.4A3.626,3.626,0,0,1,4.679,7.456,21.335,21.335,0,0,0,4.55,4.211,5.275,5.275,0,0,0,1.167.105C.646-.116.213.021.057.425c-.165.427.031.779.57,1.012A4.09,4.09,0,0,1,3.254,5.323c.016.42,0,.841,0,1.261Z" transform="translate(6.748 19.846)" fill="#fffcd6"/><path d="M1.436,3.125c0-.77.007-1.539,0-2.309A.728.728,0,0,0,.737,0,.717.717,0,0,0,.01.792q-.02,2.361,0,4.723a.683.683,0,0,0,.752.752.688.688,0,0,0,.671-.779C1.438,4.7,1.436,3.913,1.436,3.125Z" transform="translate(18.613 19.561)" fill="#fffcd6"/><path d="M0,0" transform="translate(29.532 12.472)" fill="none" stroke="#707070" stroke-width="1"/><g transform="translate(2.878 13.636)"><path d="M0,12.222A12.205,12.205,0,1,0,12.188,0,12.162,12.162,0,0,0,0,12.222Zm1.42-.02A10.77,10.77,0,1,1,12.172,22.988,10.77,10.77,0,0,1,1.42,12.2Z" fill="#fffcd6"/></g><g transform="translate(1.433 0.732)"><path d="M2.131,1.068A1.072,1.072,0,0,0,1.058,0,1.09,1.09,0,0,0,0,1.089,1.09,1.09,0,0,0,1.079,2.156,1.072,1.072,0,0,0,2.131,1.068Z" transform="translate(17.24 4.29)" fill="#8f2eaa"/><g transform="translate(0 0)"><path d="M27.271,13.645A13.635,13.635,0,1,0,13.626,27.271,13.6,13.6,0,0,0,27.271,13.645ZM1.445,13.637A12.205,12.205,0,1,1,13.651,25.825,12.2,12.2,0,0,1,1.445,13.637Z" transform="translate(0 11.488)" fill="url(#b)"/><path d="M0,10.752A10.77,10.77,0,1,0,10.775,0,10.791,10.791,0,0,0,0,10.752ZM18.624,9.6h-.055a34.358,34.358,0,0,1-.022,3.782,7.89,7.89,0,0,1-15.429,1.1,13.941,13.941,0,0,1-.285-4.022A1.38,1.38,0,0,0,1.8,8.911.67.67,0,0,1,1.319,8,.71.71,0,0,1,2.3,7.572a2.608,2.608,0,0,1,1.971,2.551c.021.806,0,1.613.01,2.419A6.461,6.461,0,0,0,17.2,12.417c.025-1.875.006-3.751.006-5.627,0-.175,0-.351,0-.526,0-.7.217-1.015.695-1.023.5-.008.725.319.726,1.049Q18.626,7.946,18.624,9.6ZM12.892,8.2v4.048c0,.035,0,.07,0,.105a2.176,2.176,0,0,1-2.178,2.17,2.148,2.148,0,0,1-2.128-2.206c-.01-.859,0-1.717,0-2.576A6.4,6.4,0,0,0,5.665,4.222c-.489-.336-.623-.715-.388-1.092s.689-.426,1.193-.091A7.794,7.794,0,0,1,9.646,7.224a11.773,11.773,0,0,1,.367,3.747,9.056,9.056,0,0,0,.038,1.467.855.855,0,0,0,.49.58.9.9,0,0,0,.729-.231,1.045,1.045,0,0,0,.164-.682c.011-2.646.005-5.292.008-7.938,0-.621.261-.966.716-.971s.731.342.733.956C12.9,5.5,12.893,6.85,12.892,8.2ZM5.649,11.35l.057-.005c0-.421.013-.841,0-1.261A4.09,4.09,0,0,0,3.076,6.2c-.539-.233-.735-.585-.57-1.012.156-.4.59-.541,1.111-.32A5.275,5.275,0,0,1,7,8.971a21.332,21.332,0,0,1,.129,3.245,3.626,3.626,0,0,0,3.484,3.741,3.588,3.588,0,0,0,3.691-3.4c.062-.634.323-.924.8-.885.455.037.658.343.641.962a5.049,5.049,0,0,1-4.423,4.729,4.994,4.994,0,0,1-5.448-3.773A17.408,17.408,0,0,1,5.649,11.35ZM15.751,7.6c0,.787,0,1.574,0,2.361a.714.714,0,1,1-1.423.028q-.025-2.361,0-4.723a.717.717,0,0,1,.726-.792.728.728,0,0,1,.7.816C15.758,6.061,15.752,6.831,15.751,7.6Z" transform="translate(2.865 14.354)" fill="url(#c)"/><path d="M0,0H17.643a1.476,1.476,0,0,1,1.476,1.476v0a1.476,1.476,0,0,1-1.476,1.476H0a0,0,0,0,1,0,0V0A0,0,0,0,1,0,0Z" transform="translate(23.077 13.519) rotate(-45)" fill="#623b9c"/></g></g></g></g><g transform="translate(102.99 669.846)"><path d="M11.89,17.012h3.056L9.319,4.417H6.443L.836,17.011H3.819l1.114-2.7h5.842ZM5.868,12.1l2-4.822,2,4.822ZM21.941,7.187a5.29,5.29,0,0,0-.948.083,4.506,4.506,0,0,0-.862.245,3.927,3.927,0,0,0-.757.4,3.6,3.6,0,0,0-.634.549V7.331H16.061v9.682h2.805V12.226a3.583,3.583,0,0,1,.173-1.159,2.177,2.177,0,0,1,.481-.814,1.958,1.958,0,0,1,.734-.479,2.643,2.643,0,0,1,.932-.157,2.329,2.329,0,0,1,.83.137,1.548,1.548,0,0,1,.616.419,1.861,1.861,0,0,1,.383.712,3.533,3.533,0,0,1,.132,1.018v5.112h2.806V11.47a5.557,5.557,0,0,0-.306-1.915A3.543,3.543,0,0,0,24.8,8.222a3.437,3.437,0,0,0-1.272-.781A4.762,4.762,0,0,0,21.941,7.187Zm10.452,0a8.794,8.794,0,0,0-1.156.077,8.312,8.312,0,0,0-1.114.225,6.98,6.98,0,0,0-1.022.367,5.275,5.275,0,0,0-.882.5l1.007,1.962a3.587,3.587,0,0,1,.588-.376,4.533,4.533,0,0,1,.685-.283,5.024,5.024,0,0,1,.746-.179,4.881,4.881,0,0,1,.77-.062A3.417,3.417,0,0,1,33,9.547a1.837,1.837,0,0,1,.7.373,1.52,1.52,0,0,1,.413.6,2.229,2.229,0,0,1,.136.807H32.015a7.527,7.527,0,0,0-1.894.212,3.613,3.613,0,0,0-1.29.6,2.368,2.368,0,0,0-.737.916,2.828,2.828,0,0,0-.234,1.174,2.78,2.78,0,0,0,.246,1.165,2.669,2.669,0,0,0,.712.93,3.347,3.347,0,0,0,1.137.616,4.933,4.933,0,0,0,1.521.223,5.28,5.28,0,0,0,.987-.087,3.577,3.577,0,0,0,.825-.257,2.665,2.665,0,0,0,.657-.423,2.413,2.413,0,0,0,.481-.583v1.206h2.627V11.489a5.344,5.344,0,0,0-.313-1.91,3.374,3.374,0,0,0-.911-1.342,3.842,3.842,0,0,0-1.464-.791A6.829,6.829,0,0,0,32.393,7.186Zm-.216,8.083a2.459,2.459,0,0,1-.665-.084,1.5,1.5,0,0,1-.5-.238,1.046,1.046,0,0,1-.312-.369,1.063,1.063,0,0,1-.108-.479,1.124,1.124,0,0,1,.085-.451.889.889,0,0,1,.286-.359,1.454,1.454,0,0,1,.532-.238,3.437,3.437,0,0,1,.824-.086h1.925v.99a1.96,1.96,0,0,1-.328.577,1.882,1.882,0,0,1-.477.41,2.175,2.175,0,0,1-.592.245A2.719,2.719,0,0,1,32.177,15.269Zm7.414,1.747H42.4V3.656H39.591ZM51.924,7.329,49.187,13.9,46.468,7.329h-2.9l4.195,9.76-.036.09a3.325,3.325,0,0,1-.3.553,1.625,1.625,0,0,1-.345.374,1.262,1.262,0,0,1-.42.212,1.842,1.842,0,0,1-.521.067,2.182,2.182,0,0,1-.422-.043,2.486,2.486,0,0,1-.417-.122,2.587,2.587,0,0,1-.394-.193,2.442,2.442,0,0,1-.351-.255l-1.026,2a2.817,2.817,0,0,0,.549.373,4.068,4.068,0,0,0,.667.277,4.969,4.969,0,0,0,1.485.232,4.782,4.782,0,0,0,1.232-.146,3.365,3.365,0,0,0,1.079-.5,3.9,3.9,0,0,0,.927-.936,6.863,6.863,0,0,0,.777-1.463L54.625,7.328Zm9.619,7.241a1.594,1.594,0,0,1-.248.155,1.831,1.831,0,0,1-.279.113,2,2,0,0,1-.3.069,2.06,2.06,0,0,1-.309.023,1.456,1.456,0,0,1-.508-.083,1,1,0,0,1-.379-.245,1.069,1.069,0,0,1-.238-.4,1.7,1.7,0,0,1-.082-.549V9.706h2.414V7.544H59.2V5.185H56.39v2.36H54.9V9.706H56.39v3.981a4.355,4.355,0,0,0,.244,1.516,2.8,2.8,0,0,0,.708,1.087,3,3,0,0,0,1.137.655,4.938,4.938,0,0,0,1.531.219,5.425,5.425,0,0,0,.641-.037,4.64,4.64,0,0,0,.611-.113,3.627,3.627,0,0,0,.557-.191,2.665,2.665,0,0,0,.479-.27ZM65.29,5.976A2.051,2.051,0,0,0,66,5.855a1.622,1.622,0,0,0,.552-.338A1.5,1.5,0,0,0,66.912,5a1.669,1.669,0,0,0,.126-.649,1.455,1.455,0,0,0-.126-.6,1.412,1.412,0,0,0-.356-.48A1.653,1.653,0,0,0,66,2.957a2.163,2.163,0,0,0-.714-.115,2.071,2.071,0,0,0-.714.121,1.65,1.65,0,0,0-.552.332,1.477,1.477,0,0,0-.356.5,1.574,1.574,0,0,0,0,1.235,1.476,1.476,0,0,0,.356.5,1.65,1.65,0,0,0,.552.332A2.071,2.071,0,0,0,65.29,5.976ZM63.885,17.02H66.7V7.327H63.885ZM74,17.165A6.1,6.1,0,0,0,75.434,17a4.823,4.823,0,0,0,1.233-.479,4.05,4.05,0,0,0,.983-.77,3.856,3.856,0,0,0,.689-1.037l-2.181-1.189a2.993,2.993,0,0,1-.437.6,2.342,2.342,0,0,1-.518.414,2.242,2.242,0,0,1-.586.239,2.607,2.607,0,0,1-.64.077,2.732,2.732,0,0,1-1-.181,2.331,2.331,0,0,1-.807-.526,2.408,2.408,0,0,1-.54-.843,3.365,3.365,0,0,1,0-2.268,2.408,2.408,0,0,1,.54-.843,2.331,2.331,0,0,1,.807-.526,2.732,2.732,0,0,1,1-.181,2.542,2.542,0,0,1,.64.079,2.264,2.264,0,0,1,.586.243,2.4,2.4,0,0,1,.518.415,3.039,3.039,0,0,1,.437.6L78.34,9.651A3.865,3.865,0,0,0,77.651,8.6a3.986,3.986,0,0,0-.983-.774,4.778,4.778,0,0,0-1.233-.477A6.165,6.165,0,0,0,74,7.183a6.314,6.314,0,0,0-2.176.37,5.1,5.1,0,0,0-1.711,1.032,4.633,4.633,0,0,0-1.119,1.579,5.24,5.24,0,0,0,0,4.022,4.634,4.634,0,0,0,1.119,1.579A5.1,5.1,0,0,0,71.819,16.8,6.314,6.314,0,0,0,74,17.165Zm9.88-9.983a8.824,8.824,0,0,0-1.158.077,8.339,8.339,0,0,0-1.116.225,7,7,0,0,0-1.025.367,5.289,5.289,0,0,0-.884.5l1.01,1.964a3.6,3.6,0,0,1,.589-.376,4.546,4.546,0,0,1,.687-.284,5.04,5.04,0,0,1,.748-.179,4.9,4.9,0,0,1,.771-.062,3.429,3.429,0,0,1,.988.129,1.842,1.842,0,0,1,.7.374,1.521,1.521,0,0,1,.414.6,2.229,2.229,0,0,1,.136.808H83.5a7.553,7.553,0,0,0-1.9.213,3.623,3.623,0,0,0-1.293.6,2.371,2.371,0,0,0-.739.917,2.828,2.828,0,0,0-.235,1.176,2.781,2.781,0,0,0,.247,1.166,2.673,2.673,0,0,0,.713.931,3.356,3.356,0,0,0,1.139.617,4.95,4.95,0,0,0,1.525.224,5.3,5.3,0,0,0,.99-.087,3.588,3.588,0,0,0,.827-.258,2.671,2.671,0,0,0,.658-.423,2.417,2.417,0,0,0,.482-.584v1.208h2.633V11.489a5.344,5.344,0,0,0-.314-1.913,3.378,3.378,0,0,0-.913-1.343,3.852,3.852,0,0,0-1.467-.792A6.852,6.852,0,0,0,83.875,7.182Zm-.216,8.092a2.467,2.467,0,0,1-.666-.084,1.5,1.5,0,0,1-.5-.238,1.048,1.048,0,0,1-.313-.37,1.063,1.063,0,0,1-.108-.48,1.124,1.124,0,0,1,.085-.451.89.89,0,0,1,.287-.36,1.458,1.458,0,0,1,.533-.238,3.448,3.448,0,0,1,.826-.086h1.93v.991a1.961,1.961,0,0,1-.329.578,1.885,1.885,0,0,1-.478.411,2.181,2.181,0,0,1-.593.245A2.728,2.728,0,0,1,83.659,15.274Zm7.431,1.749H93.9V3.648H91.09Z" transform="translate(0 -0.002)" fill="#fffcd6"/></g></g></svg>