<svg xmlns="http://www.w3.org/2000/svg" xmlns:xlink="http://www.w3.org/1999/xlink" width="271.492" height="190.471" viewBox="0 0 271.492 190.471"><defs><linearGradient id="a" x1="0.789" y1="0.898" x2="0.154" y2="0.124" gradientUnits="objectBoundingBox"><stop offset="0" stop-color="#3b018c"/><stop offset="1" stop-color="#ac3eb4"/></linearGradient></defs><g transform="translate(-357.966 -358.623)"><path d="M441.139,399.8v2.9h-.876v-2.9l-3.358-5.493h.948l2.878,4.712,2.878-4.712h.888Z" fill="#fdffeb"/><path d="M444.345,399.553a3.208,3.208,0,1,1,3.214,3.214A3.1,3.1,0,0,1,444.345,399.553Zm5.552,0a2.347,2.347,0,1,0-2.338,2.458A2.3,2.3,0,0,0,449.9,399.553Z" fill="#fdffeb"/><path d="M458.189,396.4v6.309h-.815v-1.151a2.51,2.51,0,0,1-2.267,1.211,2.443,2.443,0,0,1-2.662-2.71V396.4h.851v3.575a1.766,1.766,0,0,0,1.9,2.026,2.051,2.051,0,0,0,2.147-2.291V396.4Z" fill="#fdffeb"/><path d="M463.758,396.351v.827c-.072,0-.144-.012-.2-.012a2.04,2.04,0,0,0-2.122,2.326v3.215h-.852V396.4h.816v1.236A2.377,2.377,0,0,1,463.758,396.351Z" fill="#fdffeb"/><path d="M467.9,399.553a3.105,3.105,0,0,1,3.25-3.2,2.755,2.755,0,0,1,2.471,1.247l-.636.431a2.144,2.144,0,0,0-1.835-.935,2.46,2.46,0,0,0,0,4.917,2.131,2.131,0,0,0,1.835-.923l.636.432a2.781,2.781,0,0,1-2.471,1.247A3.115,3.115,0,0,1,467.9,399.553Z" fill="#fdffeb"/><path d="M475.2,393.808h.852v8.9H475.2Z" fill="#fdffeb"/><path d="M483.917,399.816H478.64a2.334,2.334,0,0,0,2.482,2.195,2.492,2.492,0,0,0,1.932-.827l.479.551a3.335,3.335,0,0,1-5.745-2.182,3.038,3.038,0,0,1,3.082-3.2,3.005,3.005,0,0,1,3.059,3.2C483.929,399.624,483.917,399.721,483.917,399.816Zm-5.277-.635h4.473a2.241,2.241,0,0,0-4.473,0Z" fill="#fdffeb"/><path d="M490.253,398.8v3.91h-.815v-.983a2.37,2.37,0,0,1-2.171,1.043c-1.427,0-2.3-.744-2.3-1.835,0-.972.624-1.787,2.434-1.787h2v-.384c0-1.079-.611-1.667-1.787-1.667a3.21,3.21,0,0,0-2.1.744l-.384-.636a4,4,0,0,1,2.566-.851A2.24,2.24,0,0,1,490.253,398.8Zm-.852,2.015V399.78h-1.978c-1.224,0-1.619.48-1.619,1.128,0,.732.588,1.187,1.594,1.187A2.017,2.017,0,0,0,489.4,400.812Z" fill="#fdffeb"/><path d="M495.75,396.351v.827c-.072,0-.144-.012-.2-.012a2.04,2.04,0,0,0-2.122,2.326v3.215h-.852V396.4h.816v1.236A2.377,2.377,0,0,1,495.75,396.351Z" fill="#fdffeb"/><path d="M497.288,393.808h.852v8.9h-.852Z" fill="#fdffeb"/><path d="M505.817,396.4l-3.154,7.064c-.527,1.235-1.2,1.632-2.1,1.632a2.164,2.164,0,0,1-1.535-.576l.4-.636a1.572,1.572,0,0,0,1.151.48c.564,0,.947-.264,1.308-1.055l.275-.613-2.818-6.3h.888l2.375,5.362,2.374-5.362Z" fill="#fdffeb"/><path d="M515.921,393.808v8.9H515.1v-1.248a2.731,2.731,0,0,1-2.434,1.308,3.209,3.209,0,0,1,0-6.416,2.754,2.754,0,0,1,2.4,1.247v-3.79Zm-.84,5.745a2.347,2.347,0,1,0-2.339,2.458A2.307,2.307,0,0,0,515.081,399.553Z" fill="#fdffeb"/><path d="M523.793,399.816h-5.277A2.334,2.334,0,0,0,521,402.011a2.489,2.489,0,0,0,1.931-.827l.48.551a3.335,3.335,0,0,1-5.745-2.182,3.038,3.038,0,0,1,3.082-3.2,3.005,3.005,0,0,1,3.059,3.2C523.8,399.624,523.793,399.721,523.793,399.816Zm-5.277-.635h4.473a2.241,2.241,0,0,0-4.473,0Z" fill="#fdffeb"/><path d="M535.958,399.049v3.658h-.852v-3.574c0-1.331-.671-2.015-1.81-2.015a2.027,2.027,0,0,0-2.111,2.278v3.311h-.852v-3.574c0-1.331-.672-2.015-1.823-2.015A2.033,2.033,0,0,0,526.4,399.4v3.311h-.851V396.4h.815v1.152a2.551,2.551,0,0,1,2.315-1.2,2.265,2.265,0,0,1,2.243,1.331,2.746,2.746,0,0,1,2.494-1.331A2.381,2.381,0,0,1,535.958,399.049Z" fill="#fdffeb"/><path d="M537.667,399.553a3.208,3.208,0,1,1,3.214,3.214A3.1,3.1,0,0,1,537.667,399.553Zm5.553,0a2.348,2.348,0,1,0-2.339,2.458A2.3,2.3,0,0,0,543.22,399.553Z" fill="#fdffeb"/><path d="M551.633,399.049v3.658h-.852v-3.574a1.761,1.761,0,0,0-1.894-2.015,2.068,2.068,0,0,0-2.207,2.278v3.311h-.852V396.4h.816v1.164a2.65,2.65,0,0,1,2.4-1.211A2.414,2.414,0,0,1,551.633,399.049Z" fill="#fdffeb"/><path d="M553.075,401.987l.384-.672a3.81,3.81,0,0,0,2.243.708c1.2,0,1.692-.408,1.692-1.031,0-1.643-4.09-.348-4.09-2.843,0-1.031.886-1.8,2.494-1.8a4.27,4.27,0,0,1,2.23.587l-.371.683a3.233,3.233,0,0,0-1.859-.539c-1.14,0-1.643.443-1.643,1.043,0,1.7,4.09.42,4.09,2.843,0,1.092-.96,1.8-2.6,1.8A4.217,4.217,0,0,1,553.075,401.987Z" fill="#fdffeb"/><path d="M563.143,402.323a2.028,2.028,0,0,1-1.331.444,1.672,1.672,0,0,1-1.848-1.835v-3.814h-1.127v-.72h1.127v-1.379h.851V396.4h1.919v.72h-1.919v3.766a1.01,1.01,0,0,0,1.092,1.151,1.41,1.41,0,0,0,.936-.324Z" fill="#fdffeb"/><path d="M567.869,396.351v.827c-.071,0-.143-.012-.2-.012a2.04,2.04,0,0,0-2.123,2.326v3.215h-.852V396.4h.816v1.236A2.377,2.377,0,0,1,567.869,396.351Z" fill="#fdffeb"/><path d="M574.156,398.8v3.91h-.815v-.983a2.37,2.37,0,0,1-2.171,1.043c-1.427,0-2.3-.744-2.3-1.835,0-.972.624-1.787,2.436-1.787h2v-.384c0-1.079-.613-1.667-1.787-1.667a3.217,3.217,0,0,0-2.1.744l-.384-.636a4.005,4.005,0,0,1,2.568-.851A2.24,2.24,0,0,1,574.156,398.8Zm-.85,2.015V399.78h-1.98c-1.223,0-1.619.48-1.619,1.128,0,.732.588,1.187,1.6,1.187A2.018,2.018,0,0,0,573.306,400.812Z" fill="#fdffeb"/><path d="M579.8,402.323a2.028,2.028,0,0,1-1.331.444,1.672,1.672,0,0,1-1.848-1.835v-3.814h-1.127v-.72h1.127v-1.379h.852V396.4h1.919v.72h-1.919v3.766a1.01,1.01,0,0,0,1.092,1.151,1.409,1.409,0,0,0,.935-.324Z" fill="#fdffeb"/><path d="M586.613,399.816h-5.277a2.334,2.334,0,0,0,2.482,2.195,2.487,2.487,0,0,0,1.931-.827l.481.551a3.336,3.336,0,0,1-5.746-2.182,3.038,3.038,0,0,1,3.082-3.2,3.005,3.005,0,0,1,3.059,3.2C586.625,399.624,586.613,399.721,586.613,399.816Zm-5.277-.635h4.474a2.242,2.242,0,0,0-4.474,0Z" fill="#fdffeb"/><path d="M594.125,393.808v8.9h-.815v-1.248a2.734,2.734,0,0,1-2.435,1.308,3.209,3.209,0,0,1,0-6.416,2.753,2.753,0,0,1,2.4,1.247v-3.79Zm-.84,5.745a2.347,2.347,0,1,0-2.339,2.458A2.307,2.307,0,0,0,593.285,399.553Z" fill="#fdffeb"/><path d="M604.408,398.8v3.91h-.815v-.983a2.37,2.37,0,0,1-2.171,1.043c-1.427,0-2.3-.744-2.3-1.835,0-.972.624-1.787,2.436-1.787h2v-.384c0-1.079-.613-1.667-1.787-1.667a3.217,3.217,0,0,0-2.1.744l-.384-.636a4.005,4.005,0,0,1,2.568-.851A2.24,2.24,0,0,1,604.408,398.8Zm-.85,2.015V399.78h-1.98c-1.223,0-1.619.48-1.619,1.128,0,.732.588,1.187,1.6,1.187A2.018,2.018,0,0,0,603.558,400.812Z" fill="#fdffeb"/><path d="M613.12,399.553a3.062,3.062,0,0,1-3.142,3.214,2.734,2.734,0,0,1-2.435-1.308v1.248h-.815v-8.9h.851v3.79a2.753,2.753,0,0,1,2.4-1.247A3.052,3.052,0,0,1,613.12,399.553Zm-.851,0a2.353,2.353,0,1,0-2.351,2.458A2.317,2.317,0,0,0,612.269,399.553Z" fill="#fdffeb"/><path d="M614.671,394.407a.615.615,0,0,1,.624-.6.6.6,0,0,1,.624.588.624.624,0,0,1-1.248.011Zm.192,1.991h.852v6.309h-.852Z" fill="#fdffeb"/><path d="M618.091,393.808h.851v8.9h-.851Z" fill="#fdffeb"/><path d="M621.126,394.407a.615.615,0,0,1,.624-.6.6.6,0,0,1,.624.588.624.624,0,0,1-1.248.011Zm.192,1.991h.852v6.309h-.852Z" fill="#fdffeb"/><path d="M624.078,399.085h3.143v.743h-3.143Z" fill="#fdffeb"/><path d="M437.671,416.723a2.032,2.032,0,0,1-1.331.444,1.671,1.671,0,0,1-1.847-1.835v-3.814h-1.127v-.72h1.127v-1.379h.851V410.8h1.919v.72h-1.919v3.765a1.011,1.011,0,0,0,1.092,1.152,1.407,1.407,0,0,0,.935-.324Z" fill="#fdffeb"/><path d="M444.4,410.8l-3.154,7.064c-.528,1.236-1.2,1.631-2.1,1.631a2.157,2.157,0,0,1-1.535-.575l.4-.636a1.572,1.572,0,0,0,1.151.48c.564,0,.947-.264,1.307-1.056l.276-.611-2.818-6.3h.887l2.375,5.361,2.375-5.361Z" fill="#fdffeb"/><path d="M452.071,416.723a2.034,2.034,0,0,1-1.331.444,1.671,1.671,0,0,1-1.847-1.835v-3.814h-1.127v-.72h1.127v-1.379h.851V410.8h1.919v.72h-1.919v3.765a1.011,1.011,0,0,0,1.092,1.152,1.407,1.407,0,0,0,.935-.324Z" fill="#fdffeb"/><path d="M452.758,413.952a3.208,3.208,0,1,1,3.214,3.215A3.1,3.1,0,0,1,452.758,413.952Zm5.553,0a2.348,2.348,0,1,0-2.339,2.459A2.3,2.3,0,0,0,458.311,413.952Z" fill="#fdffeb"/><path d="M473.32,410.8l-2.386,6.308h-.8l-1.991-5.168-1.991,5.168h-.8L462.97,410.8h.816l1.979,5.361,2.027-5.361h.731l2.015,5.361,2-5.361Z" fill="#fdffeb"/><path d="M473.793,413.952a3.209,3.209,0,1,1,3.215,3.215A3.1,3.1,0,0,1,473.793,413.952Zm5.553,0a2.347,2.347,0,1,0-2.338,2.459A2.3,2.3,0,0,0,479.346,413.952Z" fill="#fdffeb"/><path d="M485.131,410.75v.828c-.072,0-.144-.013-.2-.013a2.04,2.04,0,0,0-2.122,2.328v3.213h-.852V410.8h.816v1.235A2.378,2.378,0,0,1,485.131,410.75Z" fill="#fdffeb"/><path d="M489.007,413.94l-1.486,1.368v1.8h-.852v-8.9h.852v6.032l3.765-3.442h1.056l-2.7,2.579,2.951,3.729H491.55Z" fill="#fdffeb"/><path d="M506.283,410.8l-2.386,6.308h-.8l-1.99-5.168-1.992,5.168h-.8l-2.374-6.308h.815l1.979,5.361,2.027-5.361h.731l2.015,5.361,2-5.361Z" fill="#fdffeb"/><path d="M512.886,414.216h-5.278a2.336,2.336,0,0,0,2.484,2.2,2.486,2.486,0,0,0,1.93-.827l.48.551a3.335,3.335,0,0,1-5.745-2.183,3.038,3.038,0,0,1,3.083-3.2,3.006,3.006,0,0,1,3.057,3.2C512.9,414.024,512.886,414.12,512.886,414.216Zm-5.278-.635h4.474a2.241,2.241,0,0,0-4.474,0Z" fill="#fdffeb"/><path d="M514.641,408.208h.851v8.9h-.851Z" fill="#fdffeb"/><path d="M517.868,408.208h.852v8.9h-.852Z" fill="#fdffeb"/><path d="M533.5,410.8l-2.387,6.308h-.8l-1.992-5.168-1.99,5.168h-.8l-2.375-6.308h.816l1.979,5.361,2.027-5.361h.731l2.016,5.361,2-5.361Z" fill="#fdffeb"/><path d="M534.595,408.808a.614.614,0,0,1,.624-.6.606.606,0,0,1,.624.587.624.624,0,0,1-1.248.013Zm.192,1.99h.852v6.308h-.852Z" fill="#fdffeb"/><path d="M541.337,416.723a2.033,2.033,0,0,1-1.331.444,1.672,1.672,0,0,1-1.848-1.835v-3.814h-1.127v-.72h1.127v-1.379h.852V410.8h1.919v.72H539.01v3.765a1.011,1.011,0,0,0,1.092,1.152,1.409,1.409,0,0,0,.935-.324Z" fill="#fdffeb"/><path d="M548.691,413.448v3.658h-.851v-3.574a1.761,1.761,0,0,0-1.9-2.014,2.068,2.068,0,0,0-2.207,2.279v3.309h-.851v-8.9h.851V411.9a2.667,2.667,0,0,1,2.363-1.151A2.415,2.415,0,0,1,548.691,413.448Z" fill="#fdffeb"/><path d="M553.519,413.952a3.208,3.208,0,1,1,3.213,3.215A3.1,3.1,0,0,1,553.519,413.952Zm5.552,0a2.347,2.347,0,1,0-2.339,2.459A2.3,2.3,0,0,0,559.071,413.952Z" fill="#fdffeb"/><path d="M565,416.723a2.033,2.033,0,0,1-1.331.444,1.672,1.672,0,0,1-1.848-1.835v-3.814H560.7v-.72h1.127v-1.379h.852V410.8h1.919v.72h-1.919v3.765a1.011,1.011,0,0,0,1.092,1.152,1.409,1.409,0,0,0,.935-.324Z" fill="#fdffeb"/><path d="M572.355,413.448v3.658H571.5v-3.574a1.761,1.761,0,0,0-1.9-2.014A2.068,2.068,0,0,0,567.4,413.8v3.309h-.851v-8.9h.851V411.9a2.667,2.667,0,0,1,2.363-1.151A2.415,2.415,0,0,1,572.355,413.448Z" fill="#fdffeb"/><path d="M580.191,414.216h-5.277a2.336,2.336,0,0,0,2.483,2.2,2.486,2.486,0,0,0,1.93-.827l.481.551a3.335,3.335,0,0,1-5.745-2.183,3.038,3.038,0,0,1,3.082-3.2,3.006,3.006,0,0,1,3.058,3.2C580.2,414.024,580.191,414.12,580.191,414.216Zm-5.277-.635h4.474a2.241,2.241,0,0,0-4.474,0Z" fill="#fdffeb"/><path d="M585.124,410.75v.828c-.071,0-.144-.013-.2-.013a2.042,2.042,0,0,0-2.123,2.328v3.213h-.852V410.8h.816v1.235A2.378,2.378,0,0,1,585.124,410.75Z" fill="#fdffeb"/><path d="M585.834,416.387l.384-.671a3.816,3.816,0,0,0,2.243.707c1.2,0,1.691-.407,1.691-1.031,0-1.644-4.089-.348-4.089-2.843,0-1.031.886-1.8,2.494-1.8a4.279,4.279,0,0,1,2.23.588l-.371.683a3.242,3.242,0,0,0-1.859-.54c-1.14,0-1.643.445-1.643,1.044,0,1.7,4.09.42,4.09,2.842,0,1.092-.96,1.8-2.6,1.8A4.213,4.213,0,0,1,585.834,416.387Z" fill="#fdffeb"/><path d="M601.526,413.448v3.658h-.851v-3.574a1.761,1.761,0,0,0-1.895-2.014,2.068,2.068,0,0,0-2.207,2.279v3.309h-.851v-8.9h.851V411.9a2.667,2.667,0,0,1,2.363-1.151A2.415,2.415,0,0,1,601.526,413.448Z" fill="#fdffeb"/><path d="M608.607,413.2v3.909h-.816v-.983a2.368,2.368,0,0,1-2.171,1.044c-1.427,0-2.3-.744-2.3-1.835,0-.972.624-1.787,2.436-1.787h2v-.384c0-1.08-.612-1.667-1.787-1.667a3.213,3.213,0,0,0-2.1.743l-.384-.635a4.008,4.008,0,0,1,2.568-.852A2.24,2.24,0,0,1,608.607,413.2Zm-.851,2.015v-1.031h-1.98c-1.223,0-1.619.479-1.619,1.127,0,.731.588,1.187,1.6,1.187A2.019,2.019,0,0,0,607.756,415.212Z" fill="#fdffeb"/><path d="M610.05,416.387l.384-.671a3.816,3.816,0,0,0,2.243.707c1.2,0,1.691-.407,1.691-1.031,0-1.644-4.09-.348-4.09-2.843,0-1.031.887-1.8,2.494-1.8a4.28,4.28,0,0,1,2.231.588l-.371.683a3.243,3.243,0,0,0-1.86-.54c-1.139,0-1.642.445-1.642,1.044,0,1.7,4.09.42,4.09,2.842,0,1.092-.96,1.8-2.6,1.8A4.211,4.211,0,0,1,610.05,416.387Z" fill="#fdffeb"/><path d="M434.557,427.849v3.658h-.851v-3.574c0-1.331-.672-2.015-1.811-2.015a2.028,2.028,0,0,0-2.111,2.279v3.31h-.852v-3.574c0-1.331-.671-2.015-1.823-2.015A2.033,2.033,0,0,0,425,428.2v3.31h-.852V425.2h.815v1.152a2.554,2.554,0,0,1,2.315-1.2,2.269,2.269,0,0,1,2.243,1.331,2.748,2.748,0,0,1,2.5-1.331A2.381,2.381,0,0,1,434.557,427.849Z" fill="#fdffeb"/><path d="M441.64,427.6v3.909h-.815v-.984a2.369,2.369,0,0,1-2.171,1.044c-1.427,0-2.3-.744-2.3-1.835,0-.971.624-1.787,2.435-1.787h2v-.383c0-1.081-.612-1.667-1.788-1.667a3.209,3.209,0,0,0-2.1.743l-.384-.636a4,4,0,0,1,2.566-.852A2.241,2.241,0,0,1,441.64,427.6Zm-.851,2.014v-1.031H438.81c-1.224,0-1.62.48-1.62,1.127,0,.731.588,1.188,1.6,1.188A2.02,2.02,0,0,0,440.789,429.612Z" fill="#fdffeb"/><path d="M449.74,422.608v8.9h-.816V430.26a2.734,2.734,0,0,1-2.435,1.307,3.209,3.209,0,0,1,0-6.417,2.757,2.757,0,0,1,2.4,1.247v-3.789Zm-.84,5.745a2.348,2.348,0,1,0-2.338,2.459A2.306,2.306,0,0,0,448.9,428.353Z" fill="#fdffeb"/><path d="M457.611,428.616h-5.277a2.336,2.336,0,0,0,2.483,2.2,2.491,2.491,0,0,0,1.931-.828l.48.551a3.335,3.335,0,0,1-5.745-2.182,3.038,3.038,0,0,1,3.082-3.2,3.007,3.007,0,0,1,3.059,3.2C457.624,428.425,457.611,428.521,457.611,428.616Zm-5.277-.635h4.474a2.242,2.242,0,0,0-4.474,0Z" fill="#fdffeb"/><path d="M465.833,431.123a2.029,2.029,0,0,1-1.332.444,1.671,1.671,0,0,1-1.847-1.835v-3.814h-1.127v-.72h1.127v-1.379h.852V425.2h1.919v.72h-1.919v3.766a1.01,1.01,0,0,0,1.092,1.151,1.408,1.408,0,0,0,.935-.323Z" fill="#fdffeb"/><path d="M473.188,427.849v3.658h-.852v-3.574a1.762,1.762,0,0,0-1.895-2.015,2.069,2.069,0,0,0-2.207,2.279v3.31h-.851v-8.9h.851V426.3a2.666,2.666,0,0,1,2.363-1.152A2.416,2.416,0,0,1,473.188,427.849Z" fill="#fdffeb"/><path d="M481.023,428.616h-5.277a2.336,2.336,0,0,0,2.483,2.2,2.491,2.491,0,0,0,1.931-.828l.48.551a3.335,3.335,0,0,1-5.745-2.182,3.038,3.038,0,0,1,3.082-3.2,3.007,3.007,0,0,1,3.058,3.2C481.035,428.425,481.023,428.521,481.023,428.616Zm-5.277-.635h4.474a2.242,2.242,0,0,0-4.474,0Z" fill="#fdffeb"/><path d="M491.224,425.2l-2.807,6.309h-.875l-2.795-6.309h.888L488,430.571l2.387-5.373Z" fill="#fdffeb"/><path d="M497.739,428.616h-5.276a2.335,2.335,0,0,0,2.482,2.2,2.488,2.488,0,0,0,1.931-.828l.479.551a3.334,3.334,0,0,1-5.744-2.182,3.038,3.038,0,0,1,3.082-3.2,3.007,3.007,0,0,1,3.059,3.2C497.752,428.425,497.739,428.521,497.739,428.616Zm-5.276-.635h4.474a2.242,2.242,0,0,0-4.474,0Z" fill="#fdffeb"/><path d="M502.673,425.15v.829c-.072,0-.144-.013-.2-.013a2.04,2.04,0,0,0-2.122,2.327v3.214h-.852V425.2h.816v1.236A2.379,2.379,0,0,1,502.673,425.15Z" fill="#fdffeb"/><path d="M509.788,425.2l-3.155,7.065c-.528,1.235-1.2,1.631-2.1,1.631a2.158,2.158,0,0,1-1.535-.576l.4-.635a1.575,1.575,0,0,0,1.151.479c.563,0,.947-.264,1.307-1.056l.276-.611-2.818-6.3h.886l2.375,5.362,2.375-5.362Z" fill="#fdffeb"/><path d="M520.527,428.353a3.061,3.061,0,0,1-3.142,3.214,2.735,2.735,0,0,1-2.435-1.307v1.247h-.815v-8.9h.851V426.4a2.756,2.756,0,0,1,2.4-1.247A3.052,3.052,0,0,1,520.527,428.353Zm-.851,0a2.353,2.353,0,1,0-2.351,2.459A2.316,2.316,0,0,0,519.676,428.353Z" fill="#fdffeb"/><path d="M527.764,428.616h-5.278a2.336,2.336,0,0,0,2.483,2.2,2.487,2.487,0,0,0,1.93-.828l.481.551a3.335,3.335,0,0,1-5.745-2.182,3.038,3.038,0,0,1,3.082-3.2,3.007,3.007,0,0,1,3.058,3.2C527.775,428.425,527.764,428.521,527.764,428.616Zm-5.278-.635h4.474a2.242,2.242,0,0,0-4.474,0Z" fill="#fdffeb"/><path d="M528.643,430.787l.383-.671a3.812,3.812,0,0,0,2.244.707c1.2,0,1.691-.407,1.691-1.031,0-1.644-4.09-.348-4.09-2.843,0-1.031.887-1.8,2.494-1.8a4.283,4.283,0,0,1,2.231.588l-.371.684a3.235,3.235,0,0,0-1.86-.54c-1.139,0-1.642.444-1.642,1.044,0,1.7,4.09.42,4.09,2.842,0,1.091-.96,1.8-2.6,1.8A4.21,4.21,0,0,1,528.643,430.787Z" fill="#fdffeb"/><path d="M538.709,431.123a2.028,2.028,0,0,1-1.331.444,1.671,1.671,0,0,1-1.848-1.835v-3.814H534.4v-.72h1.127v-1.379h.852V425.2H538.3v.72h-1.919v3.766a1.01,1.01,0,0,0,1.092,1.151,1.408,1.408,0,0,0,.935-.323Z" fill="#fdffeb"/><path d="M542.767,428.353a3.208,3.208,0,1,1,3.213,3.214A3.1,3.1,0,0,1,542.767,428.353Zm5.552,0a2.347,2.347,0,1,0-2.339,2.459A2.3,2.3,0,0,0,548.319,428.353Z" fill="#fdffeb"/><path d="M551.9,424.455v.743h1.943v.72h-1.919v5.589h-.852v-5.589h-1.127v-.72h1.127v-.779a1.738,1.738,0,0,1,1.908-1.871,2,2,0,0,1,1.258.395l-.287.636a1.447,1.447,0,0,0-.935-.311C552.282,423.268,551.9,423.676,551.9,424.455Z" fill="#fdffeb"/><path d="M562.9,427.6v3.909h-.816v-.984a2.368,2.368,0,0,1-2.171,1.044c-1.427,0-2.3-.744-2.3-1.835,0-.971.624-1.787,2.436-1.787h2v-.383c0-1.081-.612-1.667-1.787-1.667a3.213,3.213,0,0,0-2.1.743l-.384-.636a4.008,4.008,0,0,1,2.568-.852A2.241,2.241,0,0,1,562.9,427.6Zm-.851,2.014v-1.031h-1.98c-1.223,0-1.619.48-1.619,1.127,0,.731.588,1.188,1.6,1.188A2.02,2.02,0,0,0,562.049,429.612Z" fill="#fdffeb"/><path d="M567.727,428.353a3.106,3.106,0,0,1,3.25-3.2,2.756,2.756,0,0,1,2.47,1.247l-.635.433a2.144,2.144,0,0,0-1.835-.935,2.46,2.46,0,0,0,0,4.917,2.137,2.137,0,0,0,1.835-.924l.635.431a2.778,2.778,0,0,1-2.47,1.248A3.115,3.115,0,0,1,567.727,428.353Z" fill="#fdffeb"/><path d="M580.827,427.849v3.658h-.851v-3.574a1.762,1.762,0,0,0-1.9-2.015,2.069,2.069,0,0,0-2.207,2.279v3.31h-.852v-8.9h.852V426.3a2.665,2.665,0,0,1,2.362-1.152A2.415,2.415,0,0,1,580.827,427.849Z" fill="#fdffeb"/><path d="M587.908,427.6v3.909h-.816v-.984a2.368,2.368,0,0,1-2.171,1.044c-1.427,0-2.3-.744-2.3-1.835,0-.971.624-1.787,2.436-1.787h2v-.383c0-1.081-.613-1.667-1.787-1.667a3.213,3.213,0,0,0-2.1.743l-.384-.636a4.006,4.006,0,0,1,2.568-.852A2.241,2.241,0,0,1,587.908,427.6Zm-.851,2.014v-1.031h-1.98c-1.223,0-1.619.48-1.619,1.127,0,.731.588,1.188,1.6,1.188A2.02,2.02,0,0,0,587.057,429.612Z" fill="#fdffeb"/><path d="M590.227,422.608h.851v8.9h-.851Z" fill="#fdffeb"/><path d="M593.454,422.608h.852v8.9h-.852Z" fill="#fdffeb"/><path d="M602.175,428.616H596.9a2.336,2.336,0,0,0,2.483,2.2,2.491,2.491,0,0,0,1.931-.828l.48.551a3.335,3.335,0,0,1-5.745-2.182,3.039,3.039,0,0,1,3.082-3.2,3.007,3.007,0,0,1,3.059,3.2C602.187,428.425,602.175,428.521,602.175,428.616Zm-5.278-.635h4.474a2.242,2.242,0,0,0-4.474,0Z" fill="#fdffeb"/><path d="M609.734,427.849v3.658h-.851v-3.574a1.761,1.761,0,0,0-1.9-2.015,2.069,2.069,0,0,0-2.207,2.279v3.31h-.851V425.2h.815v1.164a2.654,2.654,0,0,1,2.4-1.212A2.415,2.415,0,0,1,609.734,427.849Z" fill="#fdffeb"/><path d="M617.918,425.2v5.541c0,2.171-1.067,3.155-3.154,3.155a4.4,4.4,0,0,1-2.939-.972l.432-.648a3.751,3.751,0,0,0,2.482.864c1.6,0,2.327-.732,2.327-2.29v-.8a2.839,2.839,0,0,1-2.459,1.224,3.061,3.061,0,1,1,0-6.118,2.85,2.85,0,0,1,2.5,1.26V425.2Zm-.828,3a2.394,2.394,0,1,0-2.4,2.315A2.255,2.255,0,0,0,617.09,428.2Z" fill="#fdffeb"/><path d="M619.841,427.885h3.142v.744h-3.142Z" fill="#fdffeb"/><path d="M399.964,437.607a.615.615,0,0,1,.623-.6.6.6,0,0,1,.624.588.624.624,0,0,1-1.247.011Zm.192,1.992h.851v6.308h-.851Z" fill="#fdffeb"/><path d="M409.188,442.249v3.658h-.851v-3.574a1.762,1.762,0,0,0-1.9-2.015,2.068,2.068,0,0,0-2.207,2.279v3.31h-.851V439.6h.815v1.163a2.65,2.65,0,0,1,2.4-1.211A2.414,2.414,0,0,1,409.188,442.249Z" fill="#fdffeb"/><path d="M417.373,439.6v5.541c0,2.171-1.068,3.154-3.155,3.154a4.4,4.4,0,0,1-2.938-.972l.431-.647a3.761,3.761,0,0,0,2.483.863c1.6,0,2.327-.731,2.327-2.291v-.8a2.839,2.839,0,0,1-2.459,1.224,3.06,3.06,0,1,1,0-6.116,2.846,2.846,0,0,1,2.495,1.259V439.6Zm-.828,3a2.394,2.394,0,1,0-2.4,2.314A2.255,2.255,0,0,0,416.545,442.6Z" fill="#fdffeb"/><path d="M422.032,445.188l.384-.672a3.814,3.814,0,0,0,2.243.708c1.2,0,1.691-.409,1.691-1.032,0-1.643-4.09-.348-4.09-2.842,0-1.032.887-1.8,2.494-1.8a4.271,4.271,0,0,1,2.231.587l-.372.683a3.236,3.236,0,0,0-1.859-.539c-1.139,0-1.643.444-1.643,1.043,0,1.7,4.09.42,4.09,2.843,0,1.092-.959,1.8-2.6,1.8A4.22,4.22,0,0,1,422.032,445.188Z" fill="#fdffeb"/><path d="M428.584,437.607a.615.615,0,0,1,.624-.6.6.6,0,0,1,.623.588.624.624,0,0,1-1.247.011Zm.192,1.992h.851v6.308h-.851Z" fill="#fdffeb"/><path d="M435.326,445.523a2.028,2.028,0,0,1-1.331.444,1.672,1.672,0,0,1-1.848-1.835v-3.814h-1.126V439.6h1.126v-1.38H433v1.38h1.919v.719H433v3.766a1.01,1.01,0,0,0,1.092,1.151,1.409,1.409,0,0,0,.935-.324Z" fill="#fdffeb"/><path d="M442.561,439.6v6.308h-.816v-1.151a2.51,2.51,0,0,1-2.266,1.211,2.444,2.444,0,0,1-2.663-2.71V439.6h.851v3.574a1.765,1.765,0,0,0,1.9,2.026,2.051,2.051,0,0,0,2.146-2.291V439.6Z" fill="#fdffeb"/><path d="M449.713,442v3.91H448.9v-.983a2.368,2.368,0,0,1-2.17,1.043c-1.428,0-2.3-.743-2.3-1.835,0-.972.623-1.787,2.434-1.787h2v-.384c0-1.079-.611-1.667-1.787-1.667a3.21,3.21,0,0,0-2.1.744l-.384-.636a4,4,0,0,1,2.566-.851A2.24,2.24,0,0,1,449.713,442Zm-.852,2.015V442.98h-1.979c-1.223,0-1.619.48-1.619,1.128,0,.732.588,1.187,1.6,1.187A2.017,2.017,0,0,0,448.861,444.012Z" fill="#fdffeb"/><path d="M455.354,445.523a2.029,2.029,0,0,1-1.332.444,1.671,1.671,0,0,1-1.847-1.835v-3.814h-1.127V439.6h1.127v-1.38h.852v1.38h1.919v.719h-1.919v3.766a1.01,1.01,0,0,0,1.092,1.151,1.409,1.409,0,0,0,.935-.324Z" fill="#fdffeb"/><path d="M456.712,437.607a.615.615,0,0,1,.623-.6.6.6,0,0,1,.624.588.624.624,0,0,1-1.247.011Zm.192,1.992h.851v6.308H456.9Z" fill="#fdffeb"/><path d="M459.5,442.753a3.209,3.209,0,1,1,3.214,3.214A3.1,3.1,0,0,1,459.5,442.753Zm5.553,0a2.348,2.348,0,1,0-2.339,2.458A2.3,2.3,0,0,0,465.049,442.753Z" fill="#fdffeb"/><path d="M473.46,442.249v3.658h-.851v-3.574a1.762,1.762,0,0,0-1.9-2.015,2.068,2.068,0,0,0-2.207,2.279v3.31h-.851V439.6h.815v1.163a2.65,2.65,0,0,1,2.4-1.211A2.414,2.414,0,0,1,473.46,442.249Z" fill="#fdffeb"/><path d="M477.736,442.345h6v.612h-6Z" fill="#fdffeb"/><path d="M493.824,439.6v8.634h-.851V444.72a2.756,2.756,0,0,1-2.4,1.247,3.209,3.209,0,0,1,0-6.416,2.748,2.748,0,0,1,2.435,1.3V439.6Zm-.84,3.154a2.347,2.347,0,1,0-2.337,2.458A2.313,2.313,0,0,0,492.984,442.753Z" fill="#fdffeb"/><path d="M501.888,439.6v6.308h-.816v-1.151a2.509,2.509,0,0,1-2.266,1.211,2.443,2.443,0,0,1-2.662-2.71V439.6h.851v3.574a1.765,1.765,0,0,0,1.9,2.026,2.051,2.051,0,0,0,2.146-2.291V439.6Z" fill="#fdffeb"/><path d="M504.087,437.607a.615.615,0,0,1,.624-.6.6.6,0,0,1,.623.588.624.624,0,0,1-1.247.011Zm.192,1.992h.852v6.308h-.852Z" fill="#fdffeb"/><path d="M510.829,445.523a2.026,2.026,0,0,1-1.331.444,1.672,1.672,0,0,1-1.848-1.835v-3.814h-1.127V439.6h1.127v-1.38h.853v1.38h1.919v.719H508.5v3.766a1.01,1.01,0,0,0,1.091,1.151,1.407,1.407,0,0,0,.935-.324Z" fill="#fdffeb"/><path d="M517.645,443.017h-5.278a2.335,2.335,0,0,0,2.483,2.194,2.483,2.483,0,0,0,1.93-.827l.481.552a3.336,3.336,0,0,1-5.745-2.183,3.038,3.038,0,0,1,3.082-3.2,3.005,3.005,0,0,1,3.058,3.2C517.656,442.824,517.645,442.921,517.645,443.017Zm-5.278-.636h4.474a2.242,2.242,0,0,0-4.474,0Z" fill="#fdffeb"/><path d="M527.3,442v3.91h-.817v-.983a2.369,2.369,0,0,1-2.171,1.043c-1.426,0-2.3-.743-2.3-1.835,0-.972.624-1.787,2.435-1.787h2v-.384c0-1.079-.612-1.667-1.787-1.667a3.215,3.215,0,0,0-2.1.744l-.383-.636a4,4,0,0,1,2.567-.851A2.241,2.241,0,0,1,527.3,442Zm-.852,2.015V442.98h-1.979c-1.224,0-1.619.48-1.619,1.128,0,.732.587,1.187,1.6,1.187A2.018,2.018,0,0,0,526.453,444.012Z" fill="#fdffeb"/><path d="M532.767,437.008h.851v8.9h-.851Z" fill="#fdffeb"/><path d="M540.756,442v3.91h-.817v-.983a2.367,2.367,0,0,1-2.17,1.043c-1.427,0-2.3-.743-2.3-1.835,0-.972.624-1.787,2.435-1.787h2v-.384c0-1.079-.612-1.667-1.787-1.667a3.211,3.211,0,0,0-2.1.744l-.384-.636a4,4,0,0,1,2.567-.851A2.241,2.241,0,0,1,540.756,442Zm-.852,2.015V442.98h-1.979c-1.224,0-1.619.48-1.619,1.128,0,.732.588,1.187,1.595,1.187A2.018,2.018,0,0,0,539.9,444.012Z" fill="#fdffeb"/><path d="M546.252,439.551v.827c-.071,0-.144-.012-.2-.012a2.04,2.04,0,0,0-2.123,2.326v3.215h-.852V439.6h.816v1.235A2.377,2.377,0,0,1,546.252,439.551Z" fill="#fdffeb"/><path d="M553.571,439.6v5.541c0,2.171-1.067,3.154-3.154,3.154a4.4,4.4,0,0,1-2.938-.972l.431-.647a3.761,3.761,0,0,0,2.483.863c1.595,0,2.327-.731,2.327-2.291v-.8a2.841,2.841,0,0,1-2.459,1.224,3.06,3.06,0,1,1,0-6.116,2.847,2.847,0,0,1,2.495,1.259V439.6Zm-.828,3a2.394,2.394,0,1,0-2.4,2.314A2.255,2.255,0,0,0,552.743,442.6Z" fill="#fdffeb"/><path d="M561.455,443.017h-5.277a2.334,2.334,0,0,0,2.482,2.194,2.485,2.485,0,0,0,1.931-.827l.48.552a3.336,3.336,0,0,1-5.745-2.183,3.038,3.038,0,0,1,3.082-3.2,3.005,3.005,0,0,1,3.059,3.2C561.467,442.824,561.455,442.921,561.455,443.017Zm-5.277-.636h4.473a2.241,2.241,0,0,0-4.473,0Z" fill="#fdffeb"/><path d="M572.158,442.249v3.658h-.851v-3.574a1.762,1.762,0,0,0-1.9-2.015,2.068,2.068,0,0,0-2.207,2.279v3.31h-.851V439.6h.815v1.163a2.651,2.651,0,0,1,2.4-1.211A2.414,2.414,0,0,1,572.158,442.249Z" fill="#fdffeb"/><path d="M580.162,439.6v6.308h-.815v-1.151a2.51,2.51,0,0,1-2.267,1.211,2.444,2.444,0,0,1-2.663-2.71V439.6h.852v3.574a1.765,1.765,0,0,0,1.9,2.026,2.051,2.051,0,0,0,2.147-2.291V439.6Z" fill="#fdffeb"/><path d="M592.964,442.249v3.658h-.852v-3.574c0-1.331-.672-2.015-1.81-2.015a2.028,2.028,0,0,0-2.112,2.279v3.31h-.851v-3.574c0-1.331-.672-2.015-1.823-2.015a2.033,2.033,0,0,0-2.111,2.279v3.31h-.851V439.6h.815v1.151a2.551,2.551,0,0,1,2.315-1.2,2.265,2.265,0,0,1,2.243,1.331,2.746,2.746,0,0,1,2.494-1.331A2.381,2.381,0,0,1,592.964,442.249Z" fill="#fdffeb"/><path d="M601.678,442.753a3.063,3.063,0,0,1-3.143,3.214,2.731,2.731,0,0,1-2.434-1.308v1.248h-.816v-8.9h.852v3.79a2.751,2.751,0,0,1,2.4-1.247A3.052,3.052,0,0,1,601.678,442.753Zm-.852,0a2.353,2.353,0,1,0-2.35,2.458A2.316,2.316,0,0,0,600.826,442.753Z" fill="#fdffeb"/><path d="M608.914,443.017h-5.277a2.334,2.334,0,0,0,2.482,2.194,2.485,2.485,0,0,0,1.931-.827l.48.552a3.336,3.336,0,0,1-5.745-2.183,3.038,3.038,0,0,1,3.082-3.2,3.005,3.005,0,0,1,3.059,3.2C608.926,442.824,608.914,442.921,608.914,443.017Zm-5.277-.636h4.473a2.241,2.241,0,0,0-4.473,0Z" fill="#fdffeb"/><path d="M613.847,439.551v.827c-.072,0-.144-.012-.2-.012a2.04,2.04,0,0,0-2.123,2.326v3.215h-.852V439.6h.815v1.235A2.379,2.379,0,0,1,613.847,439.551Z" fill="#fdffeb"/><path d="M617.988,442.753a3.208,3.208,0,1,1,3.214,3.214A3.1,3.1,0,0,1,617.988,442.753Zm5.553,0a2.347,2.347,0,1,0-2.339,2.458A2.3,2.3,0,0,0,623.541,442.753Z" fill="#fdffeb"/><path d="M627.12,438.854v.745h1.943v.719h-1.919v5.589h-.852v-5.589h-1.127V439.6h1.127v-.78a1.737,1.737,0,0,1,1.907-1.871,2,2,0,0,1,1.259.4l-.287.635a1.443,1.443,0,0,0-.936-.311C627.5,437.668,627.12,438.075,627.12,438.854Z" fill="#fdffeb"/><path d="M406.548,457.152a3.055,3.055,0,0,1-3.142,3.215,2.753,2.753,0,0,1-2.4-1.248v3.515h-.851V454h.815v1.248a2.748,2.748,0,0,1,2.435-1.3A3.052,3.052,0,0,1,406.548,457.152Zm-.851,0a2.353,2.353,0,1,0-2.351,2.459A2.323,2.323,0,0,0,405.7,457.152Z" fill="#fdffeb"/><path d="M413.784,457.416h-5.277a2.336,2.336,0,0,0,2.483,2.2,2.49,2.49,0,0,0,1.931-.827l.479.551a3.334,3.334,0,0,1-5.744-2.183,3.038,3.038,0,0,1,3.082-3.2,3.006,3.006,0,0,1,3.058,3.2C413.8,457.225,413.784,457.32,413.784,457.416Zm-5.277-.635h4.474a2.242,2.242,0,0,0-4.474,0Z" fill="#fdffeb"/><path d="M414.9,457.152a3.208,3.208,0,1,1,3.214,3.215A3.1,3.1,0,0,1,414.9,457.152Zm5.553,0a2.348,2.348,0,1,0-2.339,2.459A2.3,2.3,0,0,0,420.457,457.152Z" fill="#fdffeb"/><path d="M429.456,457.152a3.056,3.056,0,0,1-3.143,3.215,2.751,2.751,0,0,1-2.4-1.248v3.515h-.852V454h.816v1.248a2.747,2.747,0,0,1,2.434-1.3A3.053,3.053,0,0,1,429.456,457.152Zm-.851,0a2.353,2.353,0,1,0-2.352,2.459A2.323,2.323,0,0,0,428.605,457.152Z" fill="#fdffeb"/><path d="M431.2,451.408h.852v8.9H431.2Z" fill="#fdffeb"/><path d="M439.92,457.416h-5.277a2.336,2.336,0,0,0,2.483,2.2,2.49,2.49,0,0,0,1.931-.827l.479.551a3.334,3.334,0,0,1-5.744-2.183,3.038,3.038,0,0,1,3.082-3.2,3.006,3.006,0,0,1,3.058,3.2C439.932,457.225,439.92,457.32,439.92,457.416Zm-5.277-.635h4.474a2.242,2.242,0,0,0-4.474,0Z" fill="#fdffeb"/><path d="M444.184,457.152a3.105,3.105,0,0,1,3.25-3.2,2.755,2.755,0,0,1,2.47,1.247l-.635.433a2.144,2.144,0,0,0-1.835-.936,2.46,2.46,0,0,0,0,4.917,2.135,2.135,0,0,0,1.835-.923l.635.431a2.777,2.777,0,0,1-2.47,1.248A3.115,3.115,0,0,1,444.184,457.152Z" fill="#fdffeb"/><path d="M454.753,453.95v.828c-.072,0-.144-.012-.2-.012a2.04,2.04,0,0,0-2.122,2.327v3.214h-.852V454h.816v1.235A2.38,2.38,0,0,1,454.753,453.95Z" fill="#fdffeb"/><path d="M461.041,456.4v3.91h-.816v-.984a2.368,2.368,0,0,1-2.171,1.044c-1.427,0-2.3-.744-2.3-1.835,0-.971.624-1.787,2.435-1.787h2v-.384c0-1.08-.612-1.667-1.787-1.667a3.207,3.207,0,0,0-2.1.744l-.384-.636a4,4,0,0,1,2.567-.852A2.241,2.241,0,0,1,461.041,456.4Zm-.852,2.015v-1.031H458.21c-1.223,0-1.619.479-1.619,1.127,0,.731.588,1.187,1.6,1.187A2.019,2.019,0,0,0,460.189,458.412Z" fill="#fdffeb"/><path d="M473.77,456.648v3.659h-.852v-3.575c0-1.331-.672-2.014-1.811-2.014A2.028,2.028,0,0,0,469,457v3.31h-.851v-3.575c0-1.331-.672-2.014-1.823-2.014A2.033,2.033,0,0,0,464.211,457v3.31h-.852V454h.816v1.151a2.554,2.554,0,0,1,2.314-1.2,2.267,2.267,0,0,1,2.243,1.331,2.748,2.748,0,0,1,2.495-1.331A2.382,2.382,0,0,1,473.77,456.648Z" fill="#fdffeb"/><path d="M486.5,456.648v3.659h-.852v-3.575c0-1.331-.67-2.014-1.81-2.014A2.028,2.028,0,0,0,481.728,457v3.31h-.852v-3.575c0-1.331-.671-2.014-1.822-2.014A2.034,2.034,0,0,0,476.942,457v3.31h-.851V454h.815v1.151a2.557,2.557,0,0,1,2.316-1.2,2.267,2.267,0,0,1,2.242,1.331,2.748,2.748,0,0,1,2.5-1.331A2.381,2.381,0,0,1,486.5,456.648Z" fill="#fdffeb"/><path d="M494.34,457.416h-5.277a2.334,2.334,0,0,0,2.482,2.2,2.492,2.492,0,0,0,1.932-.827l.479.551a3.335,3.335,0,0,1-5.745-2.183,3.038,3.038,0,0,1,3.082-3.2,3.007,3.007,0,0,1,3.059,3.2C494.352,457.225,494.34,457.32,494.34,457.416Zm-5.277-.635h4.473a2.241,2.241,0,0,0-4.473,0Z" fill="#fdffeb"/><path d="M501.852,451.408v8.9h-.816V459.06a2.732,2.732,0,0,1-2.434,1.307,3.209,3.209,0,0,1,0-6.417A2.755,2.755,0,0,1,501,455.2v-3.789Zm-.84,5.744a2.348,2.348,0,1,0-2.338,2.459A2.307,2.307,0,0,0,501.012,457.152Z" fill="#fdffeb"/><path d="M507.183,452.008a.615.615,0,0,1,.624-.6.606.606,0,0,1,.624.587.624.624,0,0,1-1.248.013Zm.192,1.99h.852v6.309h-.852Z" fill="#fdffeb"/><path d="M516.407,456.648v3.659h-.851v-3.575a1.761,1.761,0,0,0-1.9-2.014A2.069,2.069,0,0,0,511.454,457v3.31H510.6V454h.815v1.164a2.653,2.653,0,0,1,2.4-1.212A2.415,2.415,0,0,1,516.407,456.648Z" fill="#fdffeb"/><path d="M522.049,459.923a2.028,2.028,0,0,1-1.331.444,1.672,1.672,0,0,1-1.848-1.835v-3.814h-1.127V454h1.127v-1.379h.852V454h1.919v.72h-1.919v3.765a1.01,1.01,0,0,0,1.091,1.152,1.415,1.415,0,0,0,.936-.323Z" fill="#fdffeb"/><path d="M522.735,457.152a3.208,3.208,0,1,1,3.214,3.215A3.1,3.1,0,0,1,522.735,457.152Zm5.553,0a2.347,2.347,0,1,0-2.339,2.459A2.3,2.3,0,0,0,528.288,457.152Z" fill="#fdffeb"/><path d="M539.8,454v8.636h-.852v-3.515a2.752,2.752,0,0,1-2.4,1.248,3.209,3.209,0,0,1,0-6.417,2.746,2.746,0,0,1,2.434,1.3V454Zm-.84,3.154a2.347,2.347,0,1,0-2.339,2.459A2.313,2.313,0,0,0,538.956,457.152Z" fill="#fdffeb"/><path d="M547.859,454v6.309h-.815v-1.152a2.508,2.508,0,0,1-2.267,1.212,2.444,2.444,0,0,1-2.663-2.711V454h.852v3.574a1.766,1.766,0,0,0,1.9,2.028,2.051,2.051,0,0,0,2.147-2.291V454Z" fill="#fdffeb"/><path d="M550.059,452.008a.615.615,0,0,1,.624-.6.606.606,0,0,1,.624.587.624.624,0,0,1-1.248.013Zm.192,1.99h.852v6.309h-.852Z" fill="#fdffeb"/><path d="M556.8,459.923a2.028,2.028,0,0,1-1.331.444,1.672,1.672,0,0,1-1.848-1.835v-3.814h-1.127V454h1.127v-1.379h.852V454h1.919v.72h-1.919v3.765a1.01,1.01,0,0,0,1.091,1.152,1.414,1.414,0,0,0,.936-.323Z" fill="#fdffeb"/><path d="M563.615,457.416h-5.277a2.335,2.335,0,0,0,2.482,2.2,2.487,2.487,0,0,0,1.931-.827l.48.551a3.335,3.335,0,0,1-5.745-2.183,3.038,3.038,0,0,1,3.082-3.2,3.007,3.007,0,0,1,3.059,3.2C563.627,457.225,563.615,457.32,563.615,457.416Zm-5.277-.635h4.474a2.242,2.242,0,0,0-4.474,0Z" fill="#fdffeb"/><path d="M573.275,456.4v3.91h-.816v-.984a2.368,2.368,0,0,1-2.171,1.044c-1.427,0-2.3-.744-2.3-1.835,0-.971.624-1.787,2.436-1.787h2v-.384c0-1.08-.612-1.667-1.787-1.667a3.208,3.208,0,0,0-2.1.744l-.384-.636a4.008,4.008,0,0,1,2.568-.852A2.241,2.241,0,0,1,573.275,456.4Zm-.851,2.015v-1.031h-1.98c-1.223,0-1.619.479-1.619,1.127,0,.731.588,1.187,1.6,1.187A2.019,2.019,0,0,0,572.424,458.412Z" fill="#fdffeb"/><path d="M577.861,459.587l.384-.671a3.811,3.811,0,0,0,2.243.707c1.2,0,1.692-.407,1.692-1.031,0-1.644-4.09-.348-4.09-2.843,0-1.031.887-1.8,2.494-1.8a4.279,4.279,0,0,1,2.23.588l-.371.684a3.232,3.232,0,0,0-1.859-.54c-1.14,0-1.643.444-1.643,1.044,0,1.7,4.09.42,4.09,2.841,0,1.092-.96,1.8-2.6,1.8A4.216,4.216,0,0,1,577.861,459.587Z" fill="#fdffeb"/><path d="M595.016,456.648v3.659h-.852v-3.575c0-1.331-.672-2.014-1.81-2.014A2.028,2.028,0,0,0,590.242,457v3.31h-.851v-3.575c0-1.331-.672-2.014-1.824-2.014a2.033,2.033,0,0,0-2.11,2.279v3.31H584.6V454h.816v1.151a2.552,2.552,0,0,1,2.314-1.2,2.269,2.269,0,0,1,2.244,1.331,2.748,2.748,0,0,1,2.494-1.331A2.381,2.381,0,0,1,595.016,456.648Z" fill="#fdffeb"/><path d="M602.1,456.4v3.91h-.816v-.984a2.368,2.368,0,0,1-2.171,1.044c-1.426,0-2.3-.744-2.3-1.835,0-.971.624-1.787,2.435-1.787h2v-.384c0-1.08-.612-1.667-1.787-1.667a3.214,3.214,0,0,0-2.1.744l-.383-.636a4,4,0,0,1,2.567-.852A2.241,2.241,0,0,1,602.1,456.4Zm-.851,2.015v-1.031h-1.979c-1.224,0-1.62.479-1.62,1.127,0,.731.588,1.187,1.6,1.187A2.019,2.019,0,0,0,601.247,458.412Z" fill="#fdffeb"/><path d="M604.417,451.408h.852v8.9h-.852Z" fill="#fdffeb"/><path d="M607.645,451.408h.851v8.9h-.851Z" fill="#fdffeb"/><path d="M399.28,473.987l.384-.672a3.807,3.807,0,0,0,2.243.708c1.2,0,1.691-.408,1.691-1.031,0-1.643-4.09-.348-4.09-2.843,0-1.031.888-1.8,2.494-1.8a4.271,4.271,0,0,1,2.231.587l-.372.683a3.229,3.229,0,0,0-1.859-.539c-1.139,0-1.643.443-1.643,1.043,0,1.7,4.09.42,4.09,2.843,0,1.092-.959,1.8-2.6,1.8A4.214,4.214,0,0,1,399.28,473.987Z" fill="#fdffeb"/><path d="M412.416,471.553a3.055,3.055,0,0,1-3.142,3.214,2.755,2.755,0,0,1-2.4-1.247v3.513h-.852V468.4h.815v1.248a2.747,2.747,0,0,1,2.435-1.295A3.051,3.051,0,0,1,412.416,471.553Zm-.851,0a2.353,2.353,0,1,0-2.351,2.458A2.323,2.323,0,0,0,411.565,471.553Z" fill="#fdffeb"/><path d="M418.885,470.8v3.91h-.815v-.983a2.371,2.371,0,0,1-2.171,1.043c-1.427,0-2.3-.744-2.3-1.835,0-.972.624-1.787,2.435-1.787h2v-.384c0-1.079-.612-1.667-1.787-1.667a3.213,3.213,0,0,0-2.1.744l-.384-.636a4,4,0,0,1,2.567-.851A2.24,2.24,0,0,1,418.885,470.8Zm-.851,2.015V471.78h-1.979c-1.223,0-1.619.48-1.619,1.128,0,.732.587,1.187,1.6,1.187A2.018,2.018,0,0,0,418.034,472.812Z" fill="#fdffeb"/><path d="M420.592,471.553a3.1,3.1,0,0,1,3.25-3.2,2.755,2.755,0,0,1,2.471,1.247l-.636.431a2.144,2.144,0,0,0-1.835-.935,2.46,2.46,0,0,0,0,4.917,2.131,2.131,0,0,0,1.835-.923l.636.432a2.781,2.781,0,0,1-2.471,1.247A3.114,3.114,0,0,1,420.592,471.553Z" fill="#fdffeb"/><path d="M433.369,471.816h-5.277a2.334,2.334,0,0,0,2.482,2.195,2.488,2.488,0,0,0,1.931-.827l.48.551a3.335,3.335,0,0,1-5.745-2.182,3.038,3.038,0,0,1,3.082-3.2,3.005,3.005,0,0,1,3.059,3.2C433.381,471.624,433.369,471.721,433.369,471.816Zm-5.277-.635h4.473a2.241,2.241,0,0,0-4.473,0Z" fill="#fdffeb"/><path d="M434.488,471.553a3.1,3.1,0,0,1,3.25-3.2,2.755,2.755,0,0,1,2.471,1.247l-.636.431a2.144,2.144,0,0,0-1.835-.935,2.46,2.46,0,0,0,0,4.917,2.131,2.131,0,0,0,1.835-.923l.636.432a2.781,2.781,0,0,1-2.471,1.247A3.114,3.114,0,0,1,434.488,471.553Z" fill="#fdffeb"/><path d="M445.058,468.351v.827c-.072,0-.144-.012-.2-.012a2.04,2.04,0,0,0-2.123,2.326v3.215h-.851V468.4h.815v1.236A2.379,2.379,0,0,1,445.058,468.351Z" fill="#fdffeb"/><path d="M451.345,470.8v3.91h-.815v-.983a2.371,2.371,0,0,1-2.171,1.043c-1.427,0-2.3-.744-2.3-1.835,0-.972.624-1.787,2.435-1.787h2v-.384c0-1.079-.612-1.667-1.787-1.667a3.213,3.213,0,0,0-2.1.744l-.384-.636a4,4,0,0,1,2.567-.851A2.24,2.24,0,0,1,451.345,470.8Zm-.851,2.015V471.78h-1.979c-1.223,0-1.619.48-1.619,1.128,0,.732.587,1.187,1.6,1.187A2.018,2.018,0,0,0,450.494,472.812Z" fill="#fdffeb"/><path d="M454.635,467.654v.744h1.943v.72h-1.919v5.589h-.851v-5.589h-1.127v-.72h1.127v-.779a1.737,1.737,0,0,1,1.907-1.871,2,2,0,0,1,1.259.4l-.288.635a1.442,1.442,0,0,0-.935-.311C455.019,466.468,454.635,466.875,454.635,467.654Z" fill="#fdffeb"/><path d="M461.054,474.323a2.028,2.028,0,0,1-1.331.444,1.671,1.671,0,0,1-1.847-1.835v-3.814h-1.127v-.72h1.127v-1.379h.851V468.4h1.919v.72h-1.919v3.766a1.011,1.011,0,0,0,1.092,1.151,1.407,1.407,0,0,0,.935-.324Z" fill="#fdffeb"/><path d="M466.719,467.654v.744h1.943v.72h-1.919v5.589h-.851v-5.589h-1.127v-.72h1.127v-.779a1.737,1.737,0,0,1,1.907-1.871,2,2,0,0,1,1.259.4l-.288.635a1.442,1.442,0,0,0-.935-.311C467.1,466.468,466.719,466.875,466.719,467.654Z" fill="#fdffeb"/><path d="M469.072,471.553a3.209,3.209,0,1,1,3.215,3.214A3.1,3.1,0,0,1,469.072,471.553Zm5.553,0a2.347,2.347,0,1,0-2.338,2.458A2.3,2.3,0,0,0,474.625,471.553Z" fill="#fdffeb"/><path d="M480.41,468.351v.827c-.072,0-.144-.012-.2-.012a2.04,2.04,0,0,0-2.123,2.326v3.215h-.852V468.4h.816v1.236A2.378,2.378,0,0,1,480.41,468.351Z" fill="#fdffeb"/><path d="M490.944,468.4v8.635h-.851V473.52a2.756,2.756,0,0,1-2.4,1.247,3.209,3.209,0,0,1,0-6.416,2.748,2.748,0,0,1,2.435,1.295V468.4Zm-.839,3.155a2.348,2.348,0,1,0-2.338,2.458A2.313,2.313,0,0,0,490.105,471.553Z" fill="#fdffeb"/><path d="M499.008,468.4v6.309h-.816v-1.151a2.508,2.508,0,0,1-2.266,1.211,2.443,2.443,0,0,1-2.662-2.71V468.4h.851v3.575a1.766,1.766,0,0,0,1.9,2.026,2.051,2.051,0,0,0,2.146-2.291V468.4Z" fill="#fdffeb"/><path d="M501.207,466.407a.615.615,0,0,1,.624-.6.6.6,0,0,1,.623.588.624.624,0,0,1-1.247.011Zm.192,1.991h.852v6.309H501.4Z" fill="#fdffeb"/><path d="M507.949,474.323a2.028,2.028,0,0,1-1.331.444,1.671,1.671,0,0,1-1.847-1.835v-3.814h-1.127v-.72h1.127v-1.379h.851V468.4h1.919v.72h-1.919v3.766a1.01,1.01,0,0,0,1.092,1.151,1.407,1.407,0,0,0,.935-.324Z" fill="#fdffeb"/><path d="M514.765,471.816h-5.278a2.335,2.335,0,0,0,2.483,2.195,2.486,2.486,0,0,0,1.93-.827l.481.551a3.335,3.335,0,0,1-5.745-2.182,3.038,3.038,0,0,1,3.082-3.2,3.005,3.005,0,0,1,3.058,3.2C514.776,471.624,514.765,471.721,514.765,471.816Zm-5.278-.635h4.474a2.242,2.242,0,0,0-4.474,0Z" fill="#fdffeb"/><path d="M524.424,470.8v3.91h-.816v-.983a2.368,2.368,0,0,1-2.17,1.043c-1.427,0-2.3-.744-2.3-1.835,0-.972.624-1.787,2.435-1.787h2v-.384c0-1.079-.612-1.667-1.787-1.667a3.215,3.215,0,0,0-2.1.744l-.384-.636a4,4,0,0,1,2.567-.851A2.24,2.24,0,0,1,524.424,470.8Zm-.851,2.015V471.78h-1.979c-1.224,0-1.619.48-1.619,1.128,0,.732.588,1.187,1.6,1.187A2.018,2.018,0,0,0,523.573,472.812Z" fill="#fdffeb"/><path d="M529.887,465.808h.851v8.9h-.851Z" fill="#fdffeb"/><path d="M532.479,471.553a3.208,3.208,0,1,1,3.213,3.214A3.1,3.1,0,0,1,532.479,471.553Zm5.552,0a2.347,2.347,0,1,0-2.339,2.458A2.3,2.3,0,0,0,538.031,471.553Z" fill="#fdffeb"/><path d="M546.443,471.049v3.658h-.851v-3.574a1.761,1.761,0,0,0-1.895-2.015,2.068,2.068,0,0,0-2.207,2.278v3.311h-.851V468.4h.815v1.164a2.651,2.651,0,0,1,2.4-1.211A2.414,2.414,0,0,1,546.443,471.049Z" fill="#fdffeb"/><path d="M554.628,468.4v5.541c0,2.171-1.067,3.155-3.154,3.155a4.4,4.4,0,0,1-2.939-.972l.432-.647a3.758,3.758,0,0,0,2.482.863c1.6,0,2.327-.732,2.327-2.291v-.8a2.839,2.839,0,0,1-2.459,1.224,3.06,3.06,0,1,1,0-6.116,2.85,2.85,0,0,1,2.5,1.258V468.4Zm-.828,3a2.394,2.394,0,1,0-2.4,2.315A2.255,2.255,0,0,0,553.8,471.4Z" fill="#fdffeb"/><path d="M563.484,474.323a2.026,2.026,0,0,1-1.331.444,1.671,1.671,0,0,1-1.847-1.835v-3.814h-1.127v-.72h1.127v-1.379h.851V468.4h1.919v.72h-1.919v3.766a1.011,1.011,0,0,0,1.092,1.151,1.412,1.412,0,0,0,.936-.324Z" fill="#fdffeb"/><path d="M564.842,466.407a.615.615,0,0,1,.624-.6.605.605,0,0,1,.624.588.624.624,0,0,1-1.248.011Zm.192,1.991h.852v6.309h-.852Z" fill="#fdffeb"/><path d="M578.672,471.049v3.658h-.852v-3.574c0-1.331-.672-2.015-1.81-2.015A2.027,2.027,0,0,0,573.9,471.4v3.311h-.851v-3.574c0-1.331-.672-2.015-1.823-2.015a2.033,2.033,0,0,0-2.111,2.278v3.311h-.851V468.4h.815v1.152a2.55,2.55,0,0,1,2.315-1.2,2.265,2.265,0,0,1,2.243,1.331,2.746,2.746,0,0,1,2.494-1.331A2.381,2.381,0,0,1,578.672,471.049Z" fill="#fdffeb"/><path d="M586.51,471.816h-5.278a2.335,2.335,0,0,0,2.483,2.195,2.49,2.49,0,0,0,1.931-.827l.48.551a3.335,3.335,0,0,1-5.745-2.182,3.038,3.038,0,0,1,3.082-3.2,3.006,3.006,0,0,1,3.059,3.2C586.522,471.624,586.51,471.721,586.51,471.816Zm-5.278-.635h4.474a2.242,2.242,0,0,0-4.474,0Z" fill="#fdffeb"/><path d="M588,474.144a.612.612,0,0,1,.636-.613.6.6,0,0,1,.623.613.619.619,0,0,1-.623.623A.629.629,0,0,1,588,474.144Zm.132-7.832h1.007l-.18,5.876H588.3Z" fill="#fdffeb"/><path d="M594.708,466.312h.888v8.395h-.888Z" fill="#fdffeb"/><path d="M601.475,474.323a2.028,2.028,0,0,1-1.331.444,1.672,1.672,0,0,1-1.848-1.835v-3.814h-1.127v-.72H598.3v-1.379h.851V468.4h1.919v.72h-1.919v3.766a1.011,1.011,0,0,0,1.092,1.151,1.41,1.41,0,0,0,.936-.324Z" fill="#fdffeb"/><path d="M605.976,466.407a.615.615,0,0,1,.624-.6.605.605,0,0,1,.624.588.624.624,0,0,1-1.248.011Zm.192,1.991h.852v6.309h-.852Z" fill="#fdffeb"/><path d="M608.52,473.987l.383-.672a3.812,3.812,0,0,0,2.244.708c1.2,0,1.691-.408,1.691-1.031,0-1.643-4.09-.348-4.09-2.843,0-1.031.887-1.8,2.494-1.8a4.274,4.274,0,0,1,2.231.587l-.371.683a3.234,3.234,0,0,0-1.86-.539c-1.139,0-1.642.443-1.642,1.043,0,1.7,4.089.42,4.089,2.843,0,1.092-.959,1.8-2.6,1.8A4.21,4.21,0,0,1,608.52,473.987Z" fill="#fdffeb"/><path d="M405.648,486.216h-5.276a2.334,2.334,0,0,0,2.482,2.2,2.488,2.488,0,0,0,1.931-.827l.48.551a3.335,3.335,0,0,1-5.745-2.183,3.038,3.038,0,0,1,3.082-3.2,3.007,3.007,0,0,1,3.059,3.2C405.661,486.024,405.648,486.12,405.648,486.216Zm-5.276-.635h4.473a2.241,2.241,0,0,0-4.473,0Z" fill="#fdffeb"/><path d="M406.528,488.387l.384-.671a3.816,3.816,0,0,0,2.243.707c1.2,0,1.691-.407,1.691-1.031,0-1.644-4.09-.348-4.09-2.843,0-1.031.888-1.8,2.495-1.8a4.279,4.279,0,0,1,2.23.588l-.372.683a3.237,3.237,0,0,0-1.858-.54c-1.14,0-1.644.445-1.644,1.044,0,1.7,4.09.42,4.09,2.842,0,1.092-.959,1.8-2.6,1.8A4.214,4.214,0,0,1,406.528,488.387Z" fill="#fdffeb"/><path d="M412.4,488.387l.383-.671a3.816,3.816,0,0,0,2.243.707c1.2,0,1.691-.407,1.691-1.031,0-1.644-4.09-.348-4.09-2.843,0-1.031.888-1.8,2.495-1.8a4.283,4.283,0,0,1,2.231.588l-.372.683a3.24,3.24,0,0,0-1.859-.54c-1.139,0-1.643.445-1.643,1.044,0,1.7,4.089.42,4.089,2.842,0,1.092-.959,1.8-2.6,1.8A4.208,4.208,0,0,1,412.4,488.387Z" fill="#fdffeb"/><path d="M424.633,486.216h-5.277a2.335,2.335,0,0,0,2.482,2.2,2.491,2.491,0,0,0,1.932-.827l.479.551a3.335,3.335,0,0,1-5.745-2.183,3.038,3.038,0,0,1,3.082-3.2,3.007,3.007,0,0,1,3.059,3.2C424.645,486.024,424.633,486.12,424.633,486.216Zm-5.277-.635h4.474a2.241,2.241,0,0,0-4.474,0Z" fill="#fdffeb"/><path d="M432.193,485.448v3.658h-.852v-3.574a1.761,1.761,0,0,0-1.895-2.014,2.068,2.068,0,0,0-2.206,2.279v3.309h-.852V482.8h.816v1.164a2.649,2.649,0,0,1,2.4-1.212A2.415,2.415,0,0,1,432.193,485.448Z" fill="#fdffeb"/><path d="M437.834,488.723a2.03,2.03,0,0,1-1.331.444,1.671,1.671,0,0,1-1.847-1.835v-3.814h-1.127v-.72h1.127v-1.379h.851V482.8h1.919v.72h-1.919v3.765a1.011,1.011,0,0,0,1.092,1.152,1.407,1.407,0,0,0,.935-.324Z" fill="#fdffeb"/><path d="M439.192,480.808a.614.614,0,0,1,.624-.6.6.6,0,0,1,.623.587.624.624,0,0,1-1.247.013Zm.192,1.99h.852v6.308h-.852Z" fill="#fdffeb"/><path d="M447.374,485.2v3.909h-.816v-.983a2.368,2.368,0,0,1-2.171,1.044c-1.427,0-2.3-.744-2.3-1.835,0-.972.624-1.787,2.435-1.787h2v-.384c0-1.08-.612-1.667-1.787-1.667a3.212,3.212,0,0,0-2.1.743l-.384-.635a4,4,0,0,1,2.567-.852A2.241,2.241,0,0,1,447.374,485.2Zm-.852,2.015v-1.031h-1.979c-1.223,0-1.619.479-1.619,1.127,0,.731.588,1.187,1.6,1.187A2.019,2.019,0,0,0,446.522,487.212Z" fill="#fdffeb"/><path d="M449.692,480.208h.852v8.9h-.852Z" fill="#fdffeb"/><path d="M459.387,488.723a2.034,2.034,0,0,1-1.332.444,1.671,1.671,0,0,1-1.847-1.835v-3.814h-1.127v-.72h1.127v-1.379h.852V482.8h1.919v.72H457.06v3.765a1.01,1.01,0,0,0,1.091,1.152,1.405,1.405,0,0,0,.935-.324Z" fill="#fdffeb"/><path d="M466.741,485.448v3.658h-.851v-3.574a1.761,1.761,0,0,0-1.9-2.014,2.068,2.068,0,0,0-2.207,2.279v3.309h-.851v-8.9h.851V483.9a2.667,2.667,0,0,1,2.362-1.151A2.415,2.415,0,0,1,466.741,485.448Z" fill="#fdffeb"/><path d="M473.822,485.2v3.909h-.816v-.983a2.367,2.367,0,0,1-2.171,1.044c-1.427,0-2.3-.744-2.3-1.835,0-.972.623-1.787,2.434-1.787h2v-.384c0-1.08-.612-1.667-1.787-1.667a3.214,3.214,0,0,0-2.1.743l-.383-.635a4,4,0,0,1,2.566-.852A2.241,2.241,0,0,1,473.822,485.2Zm-.852,2.015v-1.031h-1.979c-1.223,0-1.619.479-1.619,1.127,0,.731.588,1.187,1.6,1.187A2.019,2.019,0,0,0,472.97,487.212Z" fill="#fdffeb"/><path d="M479.463,488.723a2.034,2.034,0,0,1-1.332.444,1.671,1.671,0,0,1-1.847-1.835v-3.814h-1.127v-.72h1.127v-1.379h.852V482.8h1.919v.72h-1.919v3.765a1.011,1.011,0,0,0,1.092,1.152,1.4,1.4,0,0,0,.934-.324Z" fill="#fdffeb"/><path d="M489.649,486.216h-5.277a2.336,2.336,0,0,0,2.483,2.2,2.49,2.49,0,0,0,1.931-.827l.48.551a3.335,3.335,0,0,1-5.745-2.183,3.038,3.038,0,0,1,3.082-3.2,3.006,3.006,0,0,1,3.058,3.2C489.661,486.024,489.649,486.12,489.649,486.216Zm-5.277-.635h4.474a2.241,2.241,0,0,0-4.474,0Z" fill="#fdffeb"/><path d="M496.585,482.8l-2.806,6.308H492.9l-2.794-6.308H491l2.363,5.373,2.387-5.373Z" fill="#fdffeb"/><path d="M503.1,486.216h-5.278a2.336,2.336,0,0,0,2.483,2.2,2.49,2.49,0,0,0,1.931-.827l.48.551a3.335,3.335,0,0,1-5.745-2.183,3.038,3.038,0,0,1,3.082-3.2,3.006,3.006,0,0,1,3.058,3.2C503.113,486.024,503.1,486.12,503.1,486.216Zm-5.278-.635H502.3a2.241,2.241,0,0,0-4.474,0Z" fill="#fdffeb"/><path d="M508.035,482.75v.828c-.072,0-.144-.013-.2-.013a2.042,2.042,0,0,0-2.123,2.328v3.213h-.852V482.8h.816v1.235A2.38,2.38,0,0,1,508.035,482.75Z" fill="#fdffeb"/><path d="M515.149,482.8l-3.154,7.064c-.527,1.236-1.2,1.631-2.1,1.631a2.159,2.159,0,0,1-1.536-.575l.4-.636a1.576,1.576,0,0,0,1.151.48c.564,0,.947-.264,1.308-1.056l.275-.611-2.818-6.3h.888l2.375,5.361,2.374-5.361Z" fill="#fdffeb"/><path d="M515.537,485.952a3.208,3.208,0,1,1,3.214,3.215A3.1,3.1,0,0,1,515.537,485.952Zm5.553,0a2.348,2.348,0,1,0-2.339,2.459A2.3,2.3,0,0,0,521.09,485.952Z" fill="#fdffeb"/><path d="M529.5,485.448v3.658h-.852v-3.574a1.76,1.76,0,0,0-1.894-2.014,2.068,2.068,0,0,0-2.207,2.279v3.309H523.7V482.8h.816v1.164a2.65,2.65,0,0,1,2.4-1.212A2.415,2.415,0,0,1,529.5,485.448Z" fill="#fdffeb"/><path d="M537.338,486.216h-5.277a2.335,2.335,0,0,0,2.482,2.2,2.488,2.488,0,0,0,1.931-.827l.48.551a3.335,3.335,0,0,1-5.745-2.183,3.038,3.038,0,0,1,3.082-3.2,3.007,3.007,0,0,1,3.059,3.2C537.35,486.024,537.338,486.12,537.338,486.216Zm-5.277-.635h4.473a2.241,2.241,0,0,0-4.473,0Z" fill="#fdffeb"/><path d="M542.044,480.808a.614.614,0,0,1,.624-.6.6.6,0,0,1,.624.587.624.624,0,0,1-1.248.013Zm.192,1.99h.852v6.308h-.852Z" fill="#fdffeb"/><path d="M544.588,488.387l.384-.671a3.816,3.816,0,0,0,2.243.707c1.2,0,1.691-.407,1.691-1.031,0-1.644-4.09-.348-4.09-2.843,0-1.031.887-1.8,2.495-1.8a4.279,4.279,0,0,1,2.23.588l-.371.683a3.242,3.242,0,0,0-1.859-.54c-1.14,0-1.643.445-1.643,1.044,0,1.7,4.09.42,4.09,2.842,0,1.092-.96,1.8-2.6,1.8A4.213,4.213,0,0,1,544.588,488.387Z" fill="#fdffeb"/><path d="M559.236,485.2v3.909h-.815v-.983a2.368,2.368,0,0,1-2.171,1.044c-1.427,0-2.3-.744-2.3-1.835,0-.972.624-1.787,2.436-1.787h2v-.384c0-1.08-.613-1.667-1.787-1.667a3.217,3.217,0,0,0-2.1.743l-.384-.635a4.008,4.008,0,0,1,2.568-.852A2.24,2.24,0,0,1,559.236,485.2Zm-.85,2.015v-1.031h-1.98c-1.223,0-1.619.479-1.619,1.127,0,.731.588,1.187,1.6,1.187A2.019,2.019,0,0,0,558.386,487.212Z" fill="#fdffeb"/><path d="M567.948,485.952a3.062,3.062,0,0,1-3.142,3.215,2.734,2.734,0,0,1-2.435-1.308v1.247h-.815v-8.9h.851V484a2.757,2.757,0,0,1,2.4-1.247A3.052,3.052,0,0,1,567.948,485.952Zm-.851,0a2.353,2.353,0,1,0-2.351,2.459A2.317,2.317,0,0,0,567.1,485.952Z" fill="#fdffeb"/><path d="M569.691,480.208h.852v8.9h-.852Z" fill="#fdffeb"/><path d="M578.412,486.216h-5.277a2.334,2.334,0,0,0,2.482,2.2,2.488,2.488,0,0,0,1.931-.827l.48.551a3.335,3.335,0,0,1-5.745-2.183,3.038,3.038,0,0,1,3.082-3.2,3.007,3.007,0,0,1,3.059,3.2C578.424,486.024,578.412,486.12,578.412,486.216Zm-5.277-.635h4.473a2.241,2.241,0,0,0-4.473,0Z" fill="#fdffeb"/><path d="M586.633,488.723a2.033,2.033,0,0,1-1.331.444,1.672,1.672,0,0,1-1.848-1.835v-3.814h-1.127v-.72h1.127v-1.379h.852V482.8h1.919v.72h-1.919v3.765a1.01,1.01,0,0,0,1.091,1.152,1.41,1.41,0,0,0,.936-.324Z" fill="#fdffeb"/><path d="M587.319,485.952a3.208,3.208,0,1,1,3.214,3.215A3.1,3.1,0,0,1,587.319,485.952Zm5.553,0a2.347,2.347,0,1,0-2.339,2.459A2.3,2.3,0,0,0,592.872,485.952Z" fill="#fdffeb"/><path d="M604.464,482.8v5.541c0,2.171-1.067,3.154-3.154,3.154a4.392,4.392,0,0,1-2.939-.972l.432-.647a3.751,3.751,0,0,0,2.482.863c1.6,0,2.327-.731,2.327-2.29v-.8a2.84,2.84,0,0,1-2.459,1.223,3.06,3.06,0,1,1,0-6.117,2.847,2.847,0,0,1,2.495,1.26V482.8Zm-.828,3a2.394,2.394,0,1,0-2.4,2.314A2.256,2.256,0,0,0,603.636,485.8Z" fill="#fdffeb"/><path d="M612.348,486.216H607.07a2.336,2.336,0,0,0,2.483,2.2,2.486,2.486,0,0,0,1.93-.827l.481.551a3.335,3.335,0,0,1-5.745-2.183,3.038,3.038,0,0,1,3.082-3.2,3.006,3.006,0,0,1,3.058,3.2C612.359,486.024,612.348,486.12,612.348,486.216Zm-5.278-.635h4.474a2.241,2.241,0,0,0-4.474,0Z" fill="#fdffeb"/><path d="M617.425,488.723a2.033,2.033,0,0,1-1.331.444,1.672,1.672,0,0,1-1.848-1.835v-3.814h-1.127v-.72h1.127v-1.379h.852V482.8h1.919v.72H615.1v3.765a1.01,1.01,0,0,0,1.091,1.152,1.41,1.41,0,0,0,.936-.324Z" fill="#fdffeb"/><path d="M404.917,499.6v3.909H404.1v-.984a2.369,2.369,0,0,1-2.171,1.044c-1.428,0-2.3-.744-2.3-1.835,0-.971.623-1.787,2.435-1.787h2v-.383c0-1.081-.611-1.667-1.787-1.667a3.209,3.209,0,0,0-2.1.743L399.8,498a4,4,0,0,1,2.566-.852A2.241,2.241,0,0,1,404.917,499.6Zm-.852,2.014v-1.031h-1.979c-1.223,0-1.619.48-1.619,1.127,0,.731.588,1.188,1.6,1.188A2.018,2.018,0,0,0,404.065,501.612Z" fill="#fdffeb"/><path d="M407.236,494.608h.851v8.9h-.851Z" fill="#fdffeb"/><path d="M409.828,500.353a3.209,3.209,0,1,1,3.214,3.214A3.1,3.1,0,0,1,409.828,500.353Zm5.553,0a2.348,2.348,0,1,0-2.339,2.459A2.3,2.3,0,0,0,415.381,500.353Z" fill="#fdffeb"/><path d="M423.792,499.849v3.658h-.851v-3.574a1.762,1.762,0,0,0-1.9-2.015,2.069,2.069,0,0,0-2.207,2.279v3.31h-.851V497.2h.815v1.164a2.653,2.653,0,0,1,2.4-1.212A2.415,2.415,0,0,1,423.792,499.849Z" fill="#fdffeb"/><path d="M431.977,497.2v5.541c0,2.171-1.068,3.155-3.155,3.155a4.4,4.4,0,0,1-2.938-.972l.431-.648a3.756,3.756,0,0,0,2.483.864c1.6,0,2.327-.732,2.327-2.29v-.8a2.839,2.839,0,0,1-2.459,1.224,3.061,3.061,0,1,1,0-6.118,2.847,2.847,0,0,1,2.5,1.26V497.2Zm-.828,3a2.394,2.394,0,1,0-2.4,2.315A2.255,2.255,0,0,0,431.149,500.2Z" fill="#fdffeb"/><path d="M446.771,497.2l-2.387,6.309h-.8l-1.991-5.169-1.99,5.169h-.8L436.42,497.2h.816l1.979,5.362,2.027-5.362h.731l2.015,5.362,2-5.362Z" fill="#fdffeb"/><path d="M453.373,500.616H448.1a2.335,2.335,0,0,0,2.482,2.2,2.489,2.489,0,0,0,1.931-.828l.48.551a3.335,3.335,0,0,1-5.745-2.182,3.038,3.038,0,0,1,3.082-3.2,3.007,3.007,0,0,1,3.059,3.2C453.385,500.425,453.373,500.521,453.373,500.616Zm-5.277-.635h4.473a2.241,2.241,0,0,0-4.473,0Z" fill="#fdffeb"/><path d="M455.128,494.608h.852v8.9h-.852Z" fill="#fdffeb"/><path d="M458.355,494.608h.852v8.9h-.852Z" fill="#fdffeb"/><path d="M473.986,497.2l-2.386,6.309h-.8l-1.991-5.169-1.991,5.169h-.8l-2.375-6.309h.816l1.979,5.362,2.027-5.362h.731l2.015,5.362,2-5.362Z" fill="#fdffeb"/><path d="M475.084,495.208a.614.614,0,0,1,.623-.6.6.6,0,0,1,.623.587.623.623,0,0,1-1.246.013Zm.191,1.99h.852v6.309h-.852Z" fill="#fdffeb"/><path d="M481.826,503.123a2.029,2.029,0,0,1-1.332.444,1.671,1.671,0,0,1-1.847-1.835v-3.814h-1.126v-.72h1.126v-1.379h.852V497.2h1.919v.72H479.5v3.766a1.01,1.01,0,0,0,1.092,1.151,1.4,1.4,0,0,0,.934-.323Z" fill="#fdffeb"/><path d="M489.181,499.849v3.658h-.852v-3.574a1.762,1.762,0,0,0-1.9-2.015,2.068,2.068,0,0,0-2.206,2.279v3.31h-.852v-8.9h.852V498.3a2.663,2.663,0,0,1,2.362-1.152A2.416,2.416,0,0,1,489.181,499.849Z" fill="#fdffeb"/><path d="M500.136,500.616h-5.277a2.336,2.336,0,0,0,2.483,2.2,2.487,2.487,0,0,0,1.93-.828l.48.551a3.334,3.334,0,0,1-5.744-2.182,3.038,3.038,0,0,1,3.082-3.2,3.007,3.007,0,0,1,3.058,3.2C500.148,500.425,500.136,500.521,500.136,500.616Zm-5.277-.635h4.474a2.242,2.242,0,0,0-4.474,0Z" fill="#fdffeb"/><path d="M507.072,497.2l-2.8,6.309h-.876L500.6,497.2h.886l2.364,5.373,2.386-5.373Z" fill="#fdffeb"/><path d="M513.589,500.616h-5.277a2.335,2.335,0,0,0,2.482,2.2,2.489,2.489,0,0,0,1.931-.828l.48.551a3.335,3.335,0,0,1-5.745-2.182,3.039,3.039,0,0,1,3.082-3.2,3.007,3.007,0,0,1,3.059,3.2C513.6,500.425,513.589,500.521,513.589,500.616Zm-5.277-.635h4.473a2.241,2.241,0,0,0-4.473,0Z" fill="#fdffeb"/><path d="M518.522,497.15v.829c-.072,0-.144-.013-.2-.013a2.041,2.041,0,0,0-2.123,2.327v3.214h-.851V497.2h.815v1.236A2.38,2.38,0,0,1,518.522,497.15Z" fill="#fdffeb"/><path d="M525.636,497.2l-3.155,7.065c-.527,1.235-1.2,1.631-2.1,1.631a2.156,2.156,0,0,1-1.535-.576l.395-.635a1.581,1.581,0,0,0,1.152.479c.563,0,.947-.264,1.307-1.056l.276-.611-2.819-6.3h.888l2.375,5.362L524.8,497.2Z" fill="#fdffeb"/><path d="M526.023,500.353a3.208,3.208,0,1,1,3.214,3.214A3.1,3.1,0,0,1,526.023,500.353Zm5.553,0a2.347,2.347,0,1,0-2.339,2.459A2.3,2.3,0,0,0,531.576,500.353Z" fill="#fdffeb"/><path d="M539.988,499.849v3.658h-.851v-3.574a1.762,1.762,0,0,0-1.9-2.015,2.069,2.069,0,0,0-2.207,2.279v3.31h-.851V497.2H535v1.164a2.653,2.653,0,0,1,2.4-1.212A2.415,2.415,0,0,1,539.988,499.849Z" fill="#fdffeb"/><path d="M547.825,500.616h-5.277a2.335,2.335,0,0,0,2.482,2.2,2.489,2.489,0,0,0,1.931-.828l.48.551a3.335,3.335,0,0,1-5.745-2.182,3.039,3.039,0,0,1,3.082-3.2,3.007,3.007,0,0,1,3.059,3.2C547.837,500.425,547.825,500.521,547.825,500.616Zm-5.277-.635h4.474a2.242,2.242,0,0,0-4.474,0Z" fill="#fdffeb"/><path d="M558.217,500.616h-5.278a2.336,2.336,0,0,0,2.483,2.2,2.491,2.491,0,0,0,1.931-.828l.48.551a3.335,3.335,0,0,1-5.745-2.182,3.039,3.039,0,0,1,3.082-3.2,3.007,3.007,0,0,1,3.059,3.2C558.229,500.425,558.217,500.521,558.217,500.616Zm-5.278-.635h4.474a2.242,2.242,0,0,0-4.474,0Z" fill="#fdffeb"/><path d="M559.972,494.608h.851v8.9h-.851Z" fill="#fdffeb"/><path d="M562.323,502.787l.384-.671a3.812,3.812,0,0,0,2.243.707c1.2,0,1.692-.407,1.692-1.031,0-1.644-4.09-.348-4.09-2.843,0-1.031.886-1.8,2.494-1.8a4.279,4.279,0,0,1,2.23.588l-.371.684a3.232,3.232,0,0,0-1.859-.54c-1.14,0-1.643.444-1.643,1.044,0,1.7,4.09.42,4.09,2.842,0,1.091-.96,1.8-2.6,1.8A4.217,4.217,0,0,1,562.323,502.787Z" fill="#fdffeb"/><path d="M574.561,500.616h-5.278a2.336,2.336,0,0,0,2.483,2.2,2.487,2.487,0,0,0,1.93-.828l.481.551a3.335,3.335,0,0,1-5.745-2.182,3.038,3.038,0,0,1,3.082-3.2,3.007,3.007,0,0,1,3.058,3.2C574.572,500.425,574.561,500.521,574.561,500.616Zm-5.278-.635h4.474a2.242,2.242,0,0,0-4.474,0Z" fill="#fdffeb"/><path d="M579.267,495.208a.615.615,0,0,1,.624-.6.606.606,0,0,1,.624.587.624.624,0,0,1-1.248.013Zm.192,1.99h.852v6.309h-.852Z" fill="#fdffeb"/><path d="M588.491,499.849v3.658h-.851v-3.574a1.762,1.762,0,0,0-1.9-2.015,2.069,2.069,0,0,0-2.207,2.279v3.31h-.851V497.2h.815v1.164a2.653,2.653,0,0,1,2.4-1.212A2.415,2.415,0,0,1,588.491,499.849Z" fill="#fdffeb"/><path d="M593.078,502.787l.384-.671a3.809,3.809,0,0,0,2.243.707c1.2,0,1.692-.407,1.692-1.031,0-1.644-4.09-.348-4.09-2.843,0-1.031.886-1.8,2.494-1.8a4.279,4.279,0,0,1,2.23.588l-.371.684a3.234,3.234,0,0,0-1.859-.54c-1.14,0-1.643.444-1.643,1.044,0,1.7,4.09.42,4.09,2.842,0,1.091-.96,1.8-2.6,1.8A4.216,4.216,0,0,1,593.078,502.787Z" fill="#fdffeb"/><path d="M599.63,495.208a.615.615,0,0,1,.624-.6.6.6,0,0,1,.624.587.624.624,0,0,1-1.248.013Zm.192,1.99h.852v6.309h-.852Z" fill="#fdffeb"/><path d="M606.372,503.123a2.028,2.028,0,0,1-1.331.444,1.672,1.672,0,0,1-1.848-1.835v-3.814h-1.127v-.72h1.127v-1.379h.852V497.2h1.919v.72h-1.919v3.766a1.01,1.01,0,0,0,1.092,1.151,1.408,1.408,0,0,0,.935-.323Z" fill="#fdffeb"/><path d="M613.606,497.2v6.309h-.815v-1.152a2.509,2.509,0,0,1-2.267,1.212,2.444,2.444,0,0,1-2.663-2.711V497.2h.852v3.574a1.766,1.766,0,0,0,1.895,2.028,2.051,2.051,0,0,0,2.147-2.291V497.2Z" fill="#fdffeb"/><path d="M620.76,499.6v3.909h-.817v-.984a2.367,2.367,0,0,1-2.171,1.044c-1.426,0-2.3-.744-2.3-1.835,0-.971.624-1.787,2.435-1.787h2v-.383c0-1.081-.612-1.667-1.787-1.667a3.21,3.21,0,0,0-2.1.743l-.384-.636a4,4,0,0,1,2.567-.852A2.242,2.242,0,0,1,620.76,499.6Zm-.852,2.014v-1.031h-1.979c-1.224,0-1.619.48-1.619,1.127,0,.731.587,1.188,1.6,1.188A2.02,2.02,0,0,0,619.908,501.612Z" fill="#fdffeb"/><path d="M622.61,499.885h3.143v.744H622.61Z" fill="#fdffeb"/><path d="M403.478,517.523a2.028,2.028,0,0,1-1.331.444,1.672,1.672,0,0,1-1.848-1.835v-3.814h-1.127V511.6H400.3v-1.38h.852v1.38h1.919v.719h-1.919v3.766a1.01,1.01,0,0,0,1.092,1.151,1.409,1.409,0,0,0,.935-.324Z" fill="#fdffeb"/><path d="M404.836,509.607a.615.615,0,0,1,.623-.6.6.6,0,0,1,.624.588.624.624,0,0,1-1.247.011Zm.192,1.992h.851v6.308h-.851Z" fill="#fdffeb"/><path d="M407.62,514.753a3.209,3.209,0,1,1,3.214,3.214A3.1,3.1,0,0,1,407.62,514.753Zm5.553,0a2.348,2.348,0,1,0-2.339,2.458A2.3,2.3,0,0,0,413.173,514.753Z" fill="#fdffeb"/><path d="M421.584,514.249v3.658h-.851v-3.574a1.762,1.762,0,0,0-1.895-2.015,2.068,2.068,0,0,0-2.207,2.279v3.31h-.851V511.6h.815v1.163a2.65,2.65,0,0,1,2.4-1.211A2.414,2.414,0,0,1,421.584,514.249Z" fill="#fdffeb"/><path d="M423.028,517.188l.384-.672a3.816,3.816,0,0,0,2.243.708c1.2,0,1.691-.409,1.691-1.032,0-1.643-4.09-.348-4.09-2.842,0-1.032.888-1.8,2.495-1.8a4.27,4.27,0,0,1,2.23.587l-.372.683a3.236,3.236,0,0,0-1.858-.539c-1.14,0-1.644.444-1.644,1.043,0,1.7,4.09.42,4.09,2.843,0,1.092-.959,1.8-2.6,1.8A4.22,4.22,0,0,1,423.028,517.188Z" fill="#fdffeb"/><path d="M432.916,509.008h.852v8.9h-.852Z" fill="#fdffeb"/><path d="M435.952,509.607a.615.615,0,0,1,.624-.6.6.6,0,0,1,.623.588.624.624,0,0,1-1.247.011Zm.192,1.992H437v6.308h-.852Z" fill="#fdffeb"/><path d="M441.71,514.74l-1.486,1.368v1.8h-.852v-8.9h.852v6.033l3.765-3.442h1.056l-2.7,2.578,2.951,3.73h-1.044Z" fill="#fdffeb"/><path d="M451.825,515.017h-5.277a2.334,2.334,0,0,0,2.482,2.194,2.485,2.485,0,0,0,1.931-.827l.48.552a3.336,3.336,0,0,1-5.745-2.183,3.038,3.038,0,0,1,3.082-3.2,3.005,3.005,0,0,1,3.059,3.2C451.837,514.824,451.825,514.921,451.825,515.017Zm-5.277-.636h4.474a2.242,2.242,0,0,0-4.474,0Z" fill="#fdffeb"/><path d="M460.046,517.523a2.026,2.026,0,0,1-1.331.444,1.671,1.671,0,0,1-1.847-1.835v-3.814h-1.127V511.6h1.127v-1.38h.851v1.38h1.919v.719h-1.919v3.766a1.01,1.01,0,0,0,1.092,1.151,1.407,1.407,0,0,0,.935-.324Z" fill="#fdffeb"/><path d="M467.4,514.249v3.658h-.852v-3.574a1.761,1.761,0,0,0-1.9-2.015,2.068,2.068,0,0,0-2.206,2.279v3.31H461.6v-8.9h.852V512.7a2.667,2.667,0,0,1,2.362-1.151A2.415,2.415,0,0,1,467.4,514.249Z" fill="#fdffeb"/><path d="M469.528,509.607a.615.615,0,0,1,.624-.6.6.6,0,0,1,.623.588.624.624,0,0,1-1.247.011Zm.192,1.992h.852v6.308h-.852Z" fill="#fdffeb"/><path d="M472.073,517.188l.384-.672a3.813,3.813,0,0,0,2.242.708c1.2,0,1.691-.409,1.691-1.032,0-1.643-4.09-.348-4.09-2.842,0-1.032.888-1.8,2.5-1.8a4.267,4.267,0,0,1,2.23.587l-.371.683a3.237,3.237,0,0,0-1.859-.539c-1.139,0-1.643.444-1.643,1.043,0,1.7,4.089.42,4.089,2.843,0,1.092-.959,1.8-2.6,1.8A4.217,4.217,0,0,1,472.073,517.188Z" fill="#fdffeb"/><path d="M479.548,517.308a1.958,1.958,0,0,1-.168.7l-.5,1.655H478.3l.407-1.739a.606.606,0,0,1-.432-.611.636.636,0,1,1,1.272,0Z" fill="#fdffeb"/><path d="M489.266,514v3.91h-.816v-.983a2.371,2.371,0,0,1-2.171,1.043c-1.427,0-2.3-.743-2.3-1.835,0-.972.623-1.787,2.434-1.787h2v-.384c0-1.079-.612-1.667-1.787-1.667a3.214,3.214,0,0,0-2.1.744l-.383-.636a4,4,0,0,1,2.566-.851A2.241,2.241,0,0,1,489.266,514Zm-.852,2.015V514.98h-1.979c-1.223,0-1.62.48-1.62,1.128,0,.732.588,1.187,1.6,1.187A2.018,2.018,0,0,0,488.414,516.012Z" fill="#fdffeb"/><path d="M497.389,514.249v3.658h-.852v-3.574a1.761,1.761,0,0,0-1.894-2.015,2.068,2.068,0,0,0-2.207,2.279v3.31h-.852V511.6h.815v1.163a2.651,2.651,0,0,1,2.4-1.211A2.415,2.415,0,0,1,497.389,514.249Z" fill="#fdffeb"/><path d="M505.489,509.008v8.9h-.816v-1.248a2.733,2.733,0,0,1-2.435,1.308,3.209,3.209,0,0,1,0-6.416,2.757,2.757,0,0,1,2.4,1.247v-3.79Zm-.84,5.745a2.347,2.347,0,1,0-2.338,2.458A2.307,2.307,0,0,0,504.649,514.753Z" fill="#fdffeb"/><path d="M516.313,511.6l-3.154,7.063c-.527,1.235-1.2,1.632-2.1,1.632a2.16,2.16,0,0,1-1.536-.576l.4-.636a1.572,1.572,0,0,0,1.151.481c.564,0,.948-.265,1.308-1.056l.275-.612-2.818-6.3h.888l2.375,5.361,2.374-5.361Z" fill="#fdffeb"/><path d="M516.7,514.753a3.208,3.208,0,1,1,3.214,3.214A3.1,3.1,0,0,1,516.7,514.753Zm5.553,0a2.348,2.348,0,1,0-2.339,2.458A2.3,2.3,0,0,0,522.253,514.753Z" fill="#fdffeb"/><path d="M530.545,511.6v6.308h-.815v-1.151a2.51,2.51,0,0,1-2.267,1.211,2.444,2.444,0,0,1-2.663-2.71V511.6h.851v3.574a1.766,1.766,0,0,0,1.9,2.026,2.051,2.051,0,0,0,2.146-2.291V511.6Z" fill="#fdffeb"/><path d="M533.668,509.6a2.114,2.114,0,0,1-.156.683L533,511.935h-.575l.42-1.728a.612.612,0,0,1-.444-.611.621.621,0,0,1,.635-.648A.627.627,0,0,1,533.668,509.6Z" fill="#fdffeb"/><path d="M541,511.6l-2.807,6.308h-.875l-2.794-6.308h.887l2.364,5.373,2.385-5.373Z" fill="#fdffeb"/><path d="M547.514,515.017h-5.278a2.335,2.335,0,0,0,2.483,2.194,2.483,2.483,0,0,0,1.93-.827l.481.552a3.336,3.336,0,0,1-5.745-2.183,3.038,3.038,0,0,1,3.082-3.2,3.005,3.005,0,0,1,3.058,3.2C547.525,514.824,547.514,514.921,547.514,515.017Zm-5.278-.636h4.474a2.242,2.242,0,0,0-4.474,0Z" fill="#fdffeb"/><path d="M558.169,509.008v8.9h-.815v-1.248a2.734,2.734,0,0,1-2.435,1.308,3.209,3.209,0,0,1,0-6.416,2.754,2.754,0,0,1,2.4,1.247v-3.79Zm-.84,5.745a2.347,2.347,0,1,0-2.339,2.458A2.307,2.307,0,0,0,557.329,514.753Z" fill="#fdffeb"/><path d="M559.912,514.753a3.208,3.208,0,1,1,3.214,3.214A3.1,3.1,0,0,1,559.912,514.753Zm5.553,0a2.348,2.348,0,1,0-2.339,2.458A2.3,2.3,0,0,0,565.465,514.753Z" fill="#fdffeb"/><path d="M573.877,514.249v3.658h-.852v-3.574a1.761,1.761,0,0,0-1.894-2.015,2.068,2.068,0,0,0-2.207,2.279v3.31h-.852V511.6h.816v1.163a2.65,2.65,0,0,1,2.4-1.211A2.415,2.415,0,0,1,573.877,514.249Z" fill="#fdffeb"/><path d="M581.714,515.017h-5.277a2.334,2.334,0,0,0,2.482,2.194,2.485,2.485,0,0,0,1.931-.827l.48.552a3.336,3.336,0,0,1-5.745-2.183,3.038,3.038,0,0,1,3.082-3.2,3.006,3.006,0,0,1,3.059,3.2C581.726,514.824,581.714,514.921,581.714,515.017Zm-5.277-.636h4.473a2.241,2.241,0,0,0-4.473,0Z" fill="#fdffeb"/><path d="M595.871,511.6l-2.387,6.308h-.8l-1.992-5.169-1.99,5.169h-.8l-2.375-6.308h.815l1.979,5.361,2.027-5.361h.731l2.016,5.361,2-5.361Z" fill="#fdffeb"/><path d="M602.473,515.017H597.2a2.335,2.335,0,0,0,2.483,2.194,2.483,2.483,0,0,0,1.93-.827l.481.552a3.336,3.336,0,0,1-5.745-2.183,3.038,3.038,0,0,1,3.082-3.2,3.005,3.005,0,0,1,3.058,3.2C602.484,514.824,602.473,514.921,602.473,515.017Zm-5.278-.636h4.474a2.242,2.242,0,0,0-4.474,0Z" fill="#fdffeb"/><path d="M604.228,509.008h.851v8.9h-.851Z" fill="#fdffeb"/><path d="M607.455,509.008h.852v8.9h-.852Z" fill="#fdffeb"/><path d="M613.634,509.607a.615.615,0,0,1,.624-.6.605.605,0,0,1,.624.588.624.624,0,0,1-1.248.011Zm.192,1.992h.852v6.308h-.852Z" fill="#fdffeb"/><path d="M622.858,514.249v3.658h-.851v-3.574a1.761,1.761,0,0,0-1.9-2.015,2.068,2.068,0,0,0-2.207,2.279v3.31h-.851V511.6h.815v1.163a2.651,2.651,0,0,1,2.4-1.211A2.414,2.414,0,0,1,622.858,514.249Z" fill="#fdffeb"/><path d="M399.28,531.587l.384-.671a3.807,3.807,0,0,0,2.243.707c1.2,0,1.691-.407,1.691-1.031,0-1.644-4.09-.348-4.09-2.843,0-1.031.888-1.8,2.494-1.8a4.28,4.28,0,0,1,2.231.588l-.372.684a3.23,3.23,0,0,0-1.859-.54c-1.139,0-1.643.444-1.643,1.044,0,1.7,4.09.42,4.09,2.841,0,1.092-.959,1.8-2.6,1.8A4.213,4.213,0,0,1,399.28,531.587Z" fill="#fdffeb"/><path d="M411.829,528.648v3.659h-.852v-3.575a1.761,1.761,0,0,0-1.895-2.014A2.068,2.068,0,0,0,406.876,529v3.31h-.852v-8.9h.852V527.1a2.663,2.663,0,0,1,2.362-1.152A2.415,2.415,0,0,1,411.829,528.648Z" fill="#fdffeb"/><path d="M413.536,529.152a3.209,3.209,0,1,1,3.215,3.215A3.1,3.1,0,0,1,413.536,529.152Zm5.553,0a2.348,2.348,0,1,0-2.338,2.459A2.3,2.3,0,0,0,419.089,529.152Z" fill="#fdffeb"/><path d="M430.774,526l-2.386,6.309h-.8l-1.991-5.169-1.99,5.169h-.8L420.424,526h.816l1.979,5.361L425.246,526h.731l2.015,5.361,2-5.361Z" fill="#fdffeb"/><path d="M431.872,524.008a.614.614,0,0,1,.623-.6.6.6,0,0,1,.624.587.624.624,0,0,1-1.247.013Zm.191,1.99h.852v6.309h-.852Z" fill="#fdffeb"/><path d="M441.1,528.648v3.659h-.852v-3.575a1.761,1.761,0,0,0-1.895-2.014A2.068,2.068,0,0,0,436.144,529v3.31h-.852V526h.815v1.164a2.654,2.654,0,0,1,2.4-1.212A2.415,2.415,0,0,1,441.1,528.648Z" fill="#fdffeb"/><path d="M449.281,526v5.541c0,2.171-1.068,3.154-3.155,3.154a4.4,4.4,0,0,1-2.938-.971l.432-.648a3.752,3.752,0,0,0,2.483.864c1.594,0,2.326-.732,2.326-2.291v-.8a2.84,2.84,0,0,1-2.459,1.223,3.06,3.06,0,1,1,0-6.117,2.846,2.846,0,0,1,2.495,1.26V526Zm-.828,3a2.394,2.394,0,1,0-2.4,2.315A2.256,2.256,0,0,0,448.453,529Z" fill="#fdffeb"/><path d="M460.5,526v6.309h-.816v-1.152a2.509,2.509,0,0,1-2.267,1.212,2.443,2.443,0,0,1-2.662-2.711V526h.851v3.574a1.766,1.766,0,0,0,1.9,2.028,2.051,2.051,0,0,0,2.147-2.291V526Z" fill="#fdffeb"/><path d="M462.016,531.587l.384-.671a3.807,3.807,0,0,0,2.243.707c1.2,0,1.691-.407,1.691-1.031,0-1.644-4.09-.348-4.09-2.843,0-1.031.887-1.8,2.494-1.8a4.283,4.283,0,0,1,2.231.588l-.371.684a3.236,3.236,0,0,0-1.86-.54c-1.139,0-1.643.444-1.643,1.044,0,1.7,4.09.42,4.09,2.841,0,1.092-.959,1.8-2.6,1.8A4.214,4.214,0,0,1,462.016,531.587Z" fill="#fdffeb"/><path d="M477.708,528.648v3.659h-.852v-3.575a1.76,1.76,0,0,0-1.894-2.014A2.069,2.069,0,0,0,472.755,529v3.31H471.9v-8.9h.851V527.1a2.666,2.666,0,0,1,2.363-1.152A2.415,2.415,0,0,1,477.708,528.648Z" fill="#fdffeb"/><path d="M479.416,529.152a3.208,3.208,0,1,1,3.214,3.215A3.1,3.1,0,0,1,479.416,529.152Zm5.553,0a2.348,2.348,0,1,0-2.339,2.459A2.3,2.3,0,0,0,484.969,529.152Z" fill="#fdffeb"/><path d="M496.654,526l-2.386,6.309h-.8l-1.991-5.169-1.991,5.169h-.8L486.3,526h.815l1.98,5.361L491.125,526h.731l2.015,5.361,2-5.361Z" fill="#fdffeb"/><path d="M504.409,531.923a2.028,2.028,0,0,1-1.331.444,1.672,1.672,0,0,1-1.848-1.835v-3.814H500.1V526h1.126v-1.379h.852V526H504v.72h-1.919v3.765a1.01,1.01,0,0,0,1.092,1.152,1.412,1.412,0,0,0,.935-.323Z" fill="#fdffeb"/><path d="M511.764,528.648v3.659h-.852v-3.575a1.76,1.76,0,0,0-1.894-2.014A2.068,2.068,0,0,0,506.811,529v3.31h-.852v-8.9h.852V527.1a2.665,2.665,0,0,1,2.363-1.152A2.415,2.415,0,0,1,511.764,528.648Z" fill="#fdffeb"/><path d="M518.844,528.4v3.91h-.816v-.984a2.367,2.367,0,0,1-2.171,1.044c-1.426,0-2.3-.744-2.3-1.835,0-.971.624-1.787,2.435-1.787h2v-.384c0-1.08-.612-1.667-1.787-1.667a3.214,3.214,0,0,0-2.1.744l-.383-.636a4,4,0,0,1,2.567-.852A2.241,2.241,0,0,1,518.844,528.4Zm-.851,2.015v-1.031h-1.979c-1.224,0-1.619.479-1.619,1.127,0,.731.587,1.187,1.595,1.187A2.019,2.019,0,0,0,517.993,530.412Z" fill="#fdffeb"/><path d="M524.485,531.923a2.026,2.026,0,0,1-1.331.444,1.671,1.671,0,0,1-1.847-1.835v-3.814H520.18V526h1.127v-1.379h.851V526h1.919v.72h-1.919v3.765a1.01,1.01,0,0,0,1.092,1.152,1.416,1.416,0,0,0,.936-.323Z" fill="#fdffeb"/><path d="M528.543,529.152a3.105,3.105,0,0,1,3.25-3.2,2.757,2.757,0,0,1,2.471,1.247l-.636.433a2.145,2.145,0,0,0-1.835-.936,2.46,2.46,0,0,0,0,4.917,2.136,2.136,0,0,0,1.835-.923l.636.431a2.78,2.78,0,0,1-2.471,1.248A3.115,3.115,0,0,1,528.543,529.152Z" fill="#fdffeb"/><path d="M540.7,528.4v3.91h-.815v-.984a2.368,2.368,0,0,1-2.171,1.044c-1.427,0-2.3-.744-2.3-1.835,0-.971.624-1.787,2.436-1.787h2v-.384c0-1.08-.613-1.667-1.787-1.667a3.212,3.212,0,0,0-2.1.744l-.384-.636a4.008,4.008,0,0,1,2.568-.852A2.24,2.24,0,0,1,540.7,528.4Zm-.85,2.015v-1.031h-1.98c-1.223,0-1.619.479-1.619,1.127,0,.731.588,1.187,1.6,1.187A2.019,2.019,0,0,0,539.845,530.412Z" fill="#fdffeb"/><path d="M548.819,528.648v3.659h-.851v-3.575a1.761,1.761,0,0,0-1.9-2.014A2.069,2.069,0,0,0,543.866,529v3.31h-.851V526h.815v1.164a2.654,2.654,0,0,1,2.4-1.212A2.415,2.415,0,0,1,548.819,528.648Z" fill="#fdffeb"/><path d="M560.675,529.152a3.062,3.062,0,0,1-3.143,3.215,2.732,2.732,0,0,1-2.434-1.307v1.247h-.816v-8.9h.852V527.2a2.754,2.754,0,0,1,2.4-1.247A3.053,3.053,0,0,1,560.675,529.152Zm-.852,0a2.353,2.353,0,1,0-2.35,2.459A2.316,2.316,0,0,0,559.823,529.152Z" fill="#fdffeb"/><path d="M567.911,529.416h-5.277a2.335,2.335,0,0,0,2.482,2.2,2.488,2.488,0,0,0,1.931-.827l.48.551a3.335,3.335,0,0,1-5.745-2.183,3.038,3.038,0,0,1,3.082-3.2,3.006,3.006,0,0,1,3.059,3.2C567.923,529.225,567.911,529.32,567.911,529.416Zm-5.277-.635h4.473a2.241,2.241,0,0,0-4.473,0Z" fill="#fdffeb"/><path d="M578.566,523.408v8.9h-.815V531.06a2.735,2.735,0,0,1-2.435,1.307,3.209,3.209,0,0,1,0-6.417,2.757,2.757,0,0,1,2.4,1.247v-3.789Zm-.839,5.744a2.348,2.348,0,1,0-2.339,2.459A2.307,2.307,0,0,0,577.727,529.152Z" fill="#fdffeb"/><path d="M580.31,529.152a3.208,3.208,0,1,1,3.213,3.215A3.1,3.1,0,0,1,580.31,529.152Zm5.552,0a2.347,2.347,0,1,0-2.339,2.459A2.3,2.3,0,0,0,585.862,529.152Z" fill="#fdffeb"/><path d="M594.274,528.648v3.659h-.851v-3.575a1.761,1.761,0,0,0-1.895-2.014A2.069,2.069,0,0,0,589.321,529v3.31h-.851V526h.815v1.164a2.654,2.654,0,0,1,2.4-1.212A2.415,2.415,0,0,1,594.274,528.648Z" fill="#fdffeb"/><path d="M602.111,529.416h-5.277a2.336,2.336,0,0,0,2.482,2.2,2.487,2.487,0,0,0,1.931-.827l.481.551a3.336,3.336,0,0,1-5.746-2.183,3.038,3.038,0,0,1,3.082-3.2,3.006,3.006,0,0,1,3.059,3.2C602.123,529.225,602.111,529.32,602.111,529.416Zm-5.277-.635h4.474a2.242,2.242,0,0,0-4.474,0Z" fill="#fdffeb"/><path d="M405.648,543.816h-5.276a2.334,2.334,0,0,0,2.482,2.2,2.489,2.489,0,0,0,1.931-.827l.48.551a3.335,3.335,0,0,1-5.745-2.182,3.038,3.038,0,0,1,3.082-3.2,3.006,3.006,0,0,1,3.059,3.2C405.661,543.624,405.648,543.721,405.648,543.816Zm-5.276-.635h4.473a2.241,2.241,0,0,0-4.473,0Z" fill="#fdffeb"/><path d="M408.375,539.654v.744h1.943v.72H408.4v5.589h-.852v-5.589H406.42v-.72h1.127v-.779a1.737,1.737,0,0,1,1.908-1.871,2,2,0,0,1,1.259.4l-.288.635a1.442,1.442,0,0,0-.935-.311C408.759,538.468,408.375,538.875,408.375,539.654Z" fill="#fdffeb"/><path d="M412.443,539.654v.744h1.943v.72h-1.919v5.589h-.852v-5.589h-1.127v-.72h1.127v-.779a1.737,1.737,0,0,1,1.907-1.871,2,2,0,0,1,1.26.4l-.288.635a1.442,1.442,0,0,0-.935-.311C412.827,538.468,412.443,538.875,412.443,539.654Z" fill="#fdffeb"/><path d="M420.924,543.816h-5.277a2.335,2.335,0,0,0,2.483,2.2,2.49,2.49,0,0,0,1.931-.827l.48.551a3.335,3.335,0,0,1-5.745-2.182,3.038,3.038,0,0,1,3.082-3.2,3.006,3.006,0,0,1,3.059,3.2C420.937,543.624,420.924,543.721,420.924,543.816Zm-5.277-.635h4.474a2.242,2.242,0,0,0-4.474,0Z" fill="#fdffeb"/><path d="M422.044,543.553a3.1,3.1,0,0,1,3.25-3.2,2.758,2.758,0,0,1,2.471,1.247l-.636.431a2.146,2.146,0,0,0-1.835-.935,2.46,2.46,0,0,0,0,4.917,2.132,2.132,0,0,0,1.835-.923l.636.432a2.783,2.783,0,0,1-2.471,1.247A3.115,3.115,0,0,1,422.044,543.553Z" fill="#fdffeb"/><path d="M432.83,546.323a2.028,2.028,0,0,1-1.331.444,1.672,1.672,0,0,1-1.848-1.835v-3.814h-1.127v-.72h1.127v-1.379h.852V540.4h1.919v.72H430.5v3.766a1.01,1.01,0,0,0,1.092,1.151,1.409,1.409,0,0,0,.935-.324Z" fill="#fdffeb"/><path d="M434.188,538.407a.615.615,0,0,1,.624-.6.6.6,0,0,1,.623.588.624.624,0,0,1-1.247.011Zm.192,1.991h.851v6.309h-.851Z" fill="#fdffeb"/><path d="M442.908,540.4l-2.806,6.309h-.875l-2.795-6.309h.887l2.363,5.373,2.387-5.373Z" fill="#fdffeb"/><path d="M449.424,543.816h-5.277a2.335,2.335,0,0,0,2.483,2.2,2.49,2.49,0,0,0,1.931-.827l.48.551a3.335,3.335,0,0,1-5.745-2.182,3.038,3.038,0,0,1,3.082-3.2,3.006,3.006,0,0,1,3.059,3.2C449.437,543.624,449.424,543.721,449.424,543.816Zm-5.277-.635h4.474a2.242,2.242,0,0,0-4.474,0Z" fill="#fdffeb"/><path d="M451.18,537.808h.851v8.9h-.851Z" fill="#fdffeb"/><path d="M459.709,540.4l-3.155,7.064c-.527,1.235-1.2,1.632-2.1,1.632a2.164,2.164,0,0,1-1.536-.576l.4-.636a1.576,1.576,0,0,0,1.152.48c.563,0,.947-.264,1.307-1.055l.276-.613-2.819-6.3h.888l2.375,5.362,2.374-5.362Z" fill="#fdffeb"/><path d="M459.952,546.107a.634.634,0,0,1,.635-.648.645.645,0,0,1,.648.648.656.656,0,0,1-.648.66A.645.645,0,0,1,459.952,546.107Z" fill="#fdffeb"/><g transform="translate(440.854 428.994) rotate(180)"><g transform="translate(12.516)" fill="url(#a)"><path d="M 35.18596267700195 69.37203979492188 C 30.57044219970703 69.37203979492188 26.0935230255127 68.46830749511719 21.87955284118652 66.68594360351562 C 17.8088321685791 64.96417236328125 14.15274238586426 62.49908828735352 11.01284313201904 59.35918807983398 C 7.872932910919189 56.21928024291992 5.407862663269043 52.56317901611328 3.686092615127563 48.49245071411133 C 1.903732657432556 44.27848052978516 1.00000262260437 39.80154037475586 1.00000262260437 35.18601989746094 C 1.00000262260437 30.57049942016602 1.903732657432556 26.09355926513672 3.686092615127563 21.87958908081055 C 5.407862663269043 17.80886077880859 7.872932910919189 14.15275955200195 11.01284313201904 11.01284980773926 C 14.15274238586426 7.872950077056885 17.8088321685791 5.407869815826416 21.87955284118652 3.686100006103516 C 26.0935230255127 1.903729915618896 30.57044219970703 0.9999998807907104 35.18596267700195 0.9999998807907104 C 39.80148315429688 0.9999998807907104 44.27840423583984 1.903729915618896 48.49238204956055 3.686100006103516 C 52.56310272216797 5.407869815826416 56.21919250488281 7.872950077056885 59.35909271240234 11.01284980773926 C 62.49899291992188 14.15275955200195 64.96406555175781 17.80886077880859 66.68582916259766 21.87958908081055 C 68.46819305419922 26.09355926513672 69.37192535400391 30.57049942016602 69.37192535400391 35.18601989746094 C 69.37192535400391 39.80154037475586 68.46819305419922 44.27848052978516 66.68582916259766 48.49245071411133 C 64.96406555175781 52.56317901611328 62.49899291992188 56.21928024291992 59.35909271240234 59.35918807983398 C 56.21919250488281 62.49908828735352 52.56310272216797 64.96417236328125 48.49238204956055 66.68594360351562 C 44.27840423583984 68.46830749511719 39.80148315429688 69.37203979492188 35.18596267700195 69.37203979492188 Z" stroke="none"/><path d="M 35.18596267700195 68.37203979492188 C 39.66691970825195 68.37203979492188 44.01278305053711 67.49488830566406 48.10282897949219 65.76493835449219 C 52.05435180664062 64.09358978271484 55.60359573364258 61.70047378540039 58.65198516845703 58.6520881652832 C 61.70037460327148 55.60368728637695 64.09348297119141 52.0544319152832 65.76483154296875 48.10290908813477 C 67.49477386474609 44.01285171508789 68.37193298339844 39.66698837280273 68.37193298339844 35.18601989746094 C 68.37193298339844 30.70505332946777 67.49477386474609 26.35918617248535 65.76483154296875 22.26913070678711 C 64.09348297119141 18.31760787963867 61.70037460327148 14.76835346221924 58.65198516845703 11.7199535369873 C 55.60359573364258 8.671564102172852 52.05435180664062 6.278453350067139 48.10282897949219 4.607097625732422 C 44.01278305053711 2.877153158187866 39.66691970825195 1.999997615814209 35.18596267700195 1.999997615814209 C 30.70500755310059 1.999997615814209 26.35915184020996 2.877153158187866 22.26910781860352 4.607097625732422 C 18.31758499145508 6.278453350067139 14.76832962036133 8.671564102172852 11.71994018554688 11.7199535369873 C 8.671551704406738 14.76835346221924 6.278451442718506 18.31760787963867 4.607096195220947 22.26914215087891 C 2.877151489257812 26.35918617248535 1.999996066093445 30.70505332946777 1.999996066093445 35.18601989746094 C 1.999996066093445 39.66698837280273 2.877151489257812 44.01285171508789 4.607096195220947 48.10289764404297 C 6.278451442718506 52.0544319152832 8.671551704406738 55.60368728637695 11.71994018554688 58.6520881652832 C 14.76832962036133 61.70047378540039 18.31758499145508 64.09358978271484 22.26910781860352 65.76493835449219 C 26.35915184020996 67.49488830566406 30.70500755310059 68.37203979492188 35.18596267700195 68.37203979492188 M 35.18596267700195 70.37203979492188 C 15.7532958984375 70.37203979492188 -3.989664492110023e-06 54.61872100830078 -3.989664492110023e-06 35.18601989746094 C -3.989664492110023e-06 15.75331974029541 15.7532958984375 -2.324761226191185e-06 35.18596267700195 -2.324761226191185e-06 C 54.6186408996582 -2.324761226191185e-06 70.37193298339844 15.75331974029541 70.37193298339844 35.18601989746094 C 70.37193298339844 54.61872100830078 54.6186408996582 70.37203979492188 35.18596267700195 70.37203979492188 Z" stroke="none" fill="#a800b0"/></g><g transform="translate(72.068 56.143) rotate(-180)"><g transform="translate(0 14.251)"><path d="M17.451,23.489a.71.71,0,0,0-.439-1.351,13.774,13.774,0,0,1-2.537.634,2.485,2.485,0,0,1-1.721-.248c-1.366-1-9.469-7.8-11.244-9.29l2.9-11.12.873-.336a49.411,49.411,0,0,0,7.591-.219c2.669-.268,3.7-.371,11.513,2.061l4.688,11.025q-.229.152-.458.309c-.291.2-.612.426-.956.673a.709.709,0,1,0,.828,1.151c.284-.2.591-.42.929-.651q.442-.3.888-.59a.712.712,0,0,0,.31-.9l-.655.278.653-.278-5.03-11.83a.71.71,0,0,0-.46-.446l-.212.679.211-.678C16.747-.256,15.649-.146,12.733.147A48.346,48.346,0,0,1,5.248.358.708.708,0,0,0,4.909.4v0L3.624.9a.711.711,0,0,0-.5.506l.688.179-.686-.178L.04,13.254a.712.712,0,0,0,.214.781l.458-.545-.456.545c.029.024,10.076,8.473,11.66,9.635a3.772,3.772,0,0,0,2.727.514A15.069,15.069,0,0,0,17.451,23.489Z" transform="translate(9.289 3.73)" fill="#fffcd6"/><path d="M3.526,1.1A.709.709,0,1,0,2.348.315c-.014.02-4.777,7.038-.7,8.952v0a.709.709,0,0,0,.075.03c1.612.672,2.85-.24,4.2-1.234,1.914-1.409,4.12-3.033,8.148,2.04h0a.723.723,0,0,0,.088.092c.483.494,5.3,5.442,5.844,6.706a1.265,1.265,0,0,1,.073.741,1.126,1.126,0,0,1-.321.6,1.26,1.26,0,0,1-.744.322,3.308,3.308,0,0,1-1.68-.346l-5.526-5.526A.711.711,0,0,0,10.8,13.7l5.6,5.6a.713.713,0,0,0,.216.155v0a4.8,4.8,0,0,0,2.558.526,2.656,2.656,0,0,0,1.561-.706,2.553,2.553,0,0,0,.738-1.354,2.678,2.678,0,0,0-.162-1.569c-.651-1.519-5.739-6.737-6.145-7.152C10.3,3.084,7.509,5.138,5.088,6.921,4.08,7.663,3.155,8.343,2.277,7.991l-.022-.011h0l-.015-.006C-.3,6.757,3.515,1.12,3.526,1.1Z" transform="translate(16.658 4.276)" fill="#fffcd6"/><path d="M1.191.188A.71.71,0,0,0,.229,1.232L5.451,6.053a3.192,3.192,0,0,0,2.074.734A2.742,2.742,0,0,0,8.82,6.481a2.076,2.076,0,0,0,.972-1.1,3.523,3.523,0,0,0-.1-2.4.708.708,0,1,0-1.345.445,2.213,2.213,0,0,1,.118,1.443.685.685,0,0,1-.322.362,1.325,1.325,0,0,1-.622.138,1.719,1.719,0,0,1-1.113-.361Z" transform="translate(24.552 19.881)" fill="#fffcd6"/><path d="M1.207.2A.709.709,0,1,0,.212,1.215L3.861,4.76l.5-.506-.5.508a.709.709,0,0,0,.215.145c.532.285,3.938,1.934,4.317-2.358a.711.711,0,1,0-1.417-.122C6.786,4.569,5.157,3.869,4.786,3.681Z" transform="translate(22.982 23.092)" fill="#fffcd6"/><g transform="translate(0 0)"><path d="M6.392.072l6.2,1.661a2.127,2.127,0,0,1,1.293.995v0A2.124,2.124,0,0,1,14.1,4.346L10.392,18.183A2.126,2.126,0,0,1,9.4,19.476h0a2.124,2.124,0,0,1-1.615.216l-6.2-1.661a2.127,2.127,0,0,1-1.293-.994v0a2.125,2.125,0,0,1-.216-1.615L3.78,1.581A2.126,2.126,0,0,1,4.774.288h0A2.123,2.123,0,0,1,6.392.072Zm5.832,3.034-6.2-1.661a.713.713,0,0,0-.54.07h0a.711.711,0,0,0-.333.432L1.445,15.785a.713.713,0,0,0,.07.54h0a.711.711,0,0,0,.432.333l6.2,1.661a.713.713,0,0,0,.54-.07h0a.712.712,0,0,0,.333-.432L12.727,3.979a.713.713,0,0,0-.07-.54h0A.711.711,0,0,0,12.224,3.106Z" transform="translate(0 0)" fill="#fffcd6"/><path d="M1.979,0A1.979,1.979,0,1,1,.58.58,1.972,1.972,0,0,1,1.979,0Zm.393,1.586a.556.556,0,1,0,.163.393A.554.554,0,0,0,2.372,1.586Z" transform="translate(3.073 12.63)" fill="#fffcd6"/></g><g transform="translate(33.103 0.9)"><path d="M7.723,1.479,1.845,4.053a.72.72,0,0,0-.366.94L7.225,18.116a.72.72,0,0,0,.94.366l5.879-2.574a.719.719,0,0,0,.366-.94L8.664,1.845a.719.719,0,0,0-.94-.366ZM1.278,2.753,7.157.179a2.134,2.134,0,0,1,2.808,1.1L15.71,14.4a2.134,2.134,0,0,1-1.1,2.808L8.732,19.782a2.135,2.135,0,0,1-2.808-1.1L.179,5.561a2.135,2.135,0,0,1,1.1-2.808Z" transform="translate(0 0)" fill="#fffcd6"/><path d="M1.893,1.429a.551.551,0,0,0-.363.218.558.558,0,0,0-.1.416.551.551,0,0,0,.218.363.558.558,0,0,0,.416.1.552.552,0,0,0,.363-.218.559.559,0,0,0,.1-.417A.553.553,0,0,0,2.31,1.53a.558.558,0,0,0-.416-.1ZM.385.808A1.974,1.974,0,1,1,.023,2.275,1.975,1.975,0,0,1,.385.808Z" transform="translate(8.688 12.369)" fill="#fffcd6"/></g></g><path d="M.227,9.459a.594.594,0,0,0,.834-.1L7.649.961A.594.594,0,1,0,6.714.227L.127,8.625A.594.594,0,0,0,.227,9.459Z" transform="translate(27.891 2.504)" fill="#fffcd6"/><path d="M6.875,9.441A.594.594,0,1,0,7.8,8.7L1.059.224a.594.594,0,1,0-.93.74Z" transform="translate(13.327 2.425)" fill="#fffcd6"/><path d="M.227,7.082a.594.594,0,0,0,.834-.1L5.792.961A.594.594,0,1,0,4.857.227L.127,6.248A.594.594,0,0,0,.227,7.082Z" transform="matrix(0.788, -0.616, 0.616, 0.788, 19.945, 6.41)" fill="#fffcd6"/><rect width="1.206" height="1.508" rx="0.603" transform="translate(23.792 0.001)" fill="#fffcd6"/></g></g><g transform="translate(439.008 358.633)"><path d="M7.512,17.233a8.2,8.2,0,0,0,1.57-.146,6.792,6.792,0,0,0,1.4-.431,5.973,5.973,0,0,0,1.216-.7,5.738,5.738,0,0,0,1-.966l-1.87-1.727a4.7,4.7,0,0,1-.674.651,3.971,3.971,0,0,1-.753.467,3.835,3.835,0,0,1-.83.281,4.273,4.273,0,0,1-.906.094,4.409,4.409,0,0,1-1.622-.3,3.687,3.687,0,0,1-2.105-2.1,4.616,4.616,0,0,1,0-3.263,3.687,3.687,0,0,1,2.105-2.1,4.409,4.409,0,0,1,1.622-.3,4.291,4.291,0,0,1,.906.094,3.876,3.876,0,0,1,.83.279,4.016,4.016,0,0,1,.753.462,4.718,4.718,0,0,1,.674.64l1.87-1.727a5.758,5.758,0,0,0-1-.956,6.027,6.027,0,0,0-1.214-.7,6.818,6.818,0,0,0-1.4-.429,8.123,8.123,0,0,0-1.56-.146,7.621,7.621,0,0,0-2.72.484A6.5,6.5,0,0,0,2.646,6.041,6.119,6.119,0,0,0,1.217,8.1a6.9,6.9,0,0,0,0,5.238A6.126,6.126,0,0,0,2.644,15.4,6.488,6.488,0,0,0,4.8,16.749,7.572,7.572,0,0,0,7.512,17.233Zm11.218-.07a6.064,6.064,0,0,0,2.126-.369,5.009,5.009,0,0,0,1.68-1.03,4.644,4.644,0,0,0,1.1-1.577,5.287,5.287,0,0,0,0-4.018,4.644,4.644,0,0,0-1.1-1.577,5.009,5.009,0,0,0-1.68-1.03,6.319,6.319,0,0,0-4.255,0,5.042,5.042,0,0,0-1.685,1.03,4.652,4.652,0,0,0-1.109,1.577,5.253,5.253,0,0,0,0,4.017,4.653,4.653,0,0,0,1.109,1.577,5.043,5.043,0,0,0,1.685,1.03A6.087,6.087,0,0,0,18.73,17.163Zm0-2.3a2.605,2.605,0,0,1-.979-.184,2.272,2.272,0,0,1-.787-.53,2.426,2.426,0,0,1-.524-.843,3.417,3.417,0,0,1,0-2.25,2.425,2.425,0,0,1,.524-.843,2.271,2.271,0,0,1,.787-.529,2.7,2.7,0,0,1,1.956,0,2.242,2.242,0,0,1,.781.529,2.421,2.421,0,0,1,.518.843,3.466,3.466,0,0,1,0,2.25,2.421,2.421,0,0,1-.518.843,2.242,2.242,0,0,1-.781.529A2.584,2.584,0,0,1,18.73,14.859Zm7.176,2.161h2.806V3.664H25.906Zm5.415,0h2.807V3.664H31.321Zm9.322-9.829a8.8,8.8,0,0,0-1.156.077,8.316,8.316,0,0,0-1.114.225,6.983,6.983,0,0,0-1.023.367,5.277,5.277,0,0,0-.883.5l1.008,1.962a3.588,3.588,0,0,1,.588-.376,4.535,4.535,0,0,1,.686-.283,5.027,5.027,0,0,1,.746-.179,4.884,4.884,0,0,1,.77-.062,3.419,3.419,0,0,1,.987.129,1.838,1.838,0,0,1,.7.373,1.52,1.52,0,0,1,.413.6,2.229,2.229,0,0,1,.136.807H40.265a7.531,7.531,0,0,0-1.895.212,3.615,3.615,0,0,0-1.291.6,2.368,2.368,0,0,0-.737.916,2.827,2.827,0,0,0-.235,1.174,2.78,2.78,0,0,0,.246,1.165,2.67,2.67,0,0,0,.712.93,3.348,3.348,0,0,0,1.137.616,4.936,4.936,0,0,0,1.522.223,5.283,5.283,0,0,0,.988-.087,3.579,3.579,0,0,0,.826-.257A2.666,2.666,0,0,0,42.2,16.4a2.413,2.413,0,0,0,.482-.583v1.206H45.3V11.495a5.344,5.344,0,0,0-.313-1.911,3.375,3.375,0,0,0-.911-1.342,3.843,3.843,0,0,0-1.464-.791A6.833,6.833,0,0,0,40.643,7.191Zm-.216,8.084a2.46,2.46,0,0,1-.665-.084,1.5,1.5,0,0,1-.5-.238,1.046,1.046,0,0,1-.312-.369,1.063,1.063,0,0,1-.108-.479,1.124,1.124,0,0,1,.085-.451.889.889,0,0,1,.286-.359,1.454,1.454,0,0,1,.532-.238,3.439,3.439,0,0,1,.824-.086H42.5v.99a1.96,1.96,0,0,1-.329.578,1.882,1.882,0,0,1-.477.41,2.176,2.176,0,0,1-.592.245A2.72,2.72,0,0,1,40.427,15.276ZM53.57,7.191a5.016,5.016,0,0,0-.864.072,3.951,3.951,0,0,0-.777.217,3.394,3.394,0,0,0-1.276.883v-4.7H47.843V17.023h2.683V15.907a3.246,3.246,0,0,0,.589.554,3.377,3.377,0,0,0,.709.394,4.032,4.032,0,0,0,.821.235,5.251,5.251,0,0,0,.924.078,5.146,5.146,0,0,0,1.9-.351,4.5,4.5,0,0,0,1.532-1,4.58,4.58,0,0,0,1.022-1.572,5.913,5.913,0,0,0,0-4.127A4.58,4.58,0,0,0,57,8.543a4.5,4.5,0,0,0-1.532-1A5.146,5.146,0,0,0,53.57,7.191Zm-.486,7.672a2.59,2.59,0,0,1-.978-.184,2.246,2.246,0,0,1-.782-.53A2.423,2.423,0,0,1,50.8,13.3a3.466,3.466,0,0,1,0-2.252,2.422,2.422,0,0,1,.519-.844,2.245,2.245,0,0,1,.782-.53,2.7,2.7,0,0,1,1.956,0,2.246,2.246,0,0,1,.782.53,2.422,2.422,0,0,1,.519.844,3.466,3.466,0,0,1,0,2.252,2.422,2.422,0,0,1-.519.844,2.245,2.245,0,0,1-.782.53A2.59,2.59,0,0,1,53.083,14.863Zm11.8,2.307a6.082,6.082,0,0,0,2.13-.369A5.02,5.02,0,0,0,68.7,15.769,4.649,4.649,0,0,0,69.8,14.191a5.288,5.288,0,0,0,0-4.022A4.649,4.649,0,0,0,68.7,8.59a5.021,5.021,0,0,0-1.683-1.031,6.338,6.338,0,0,0-4.264,0A5.053,5.053,0,0,0,61.061,8.59a4.657,4.657,0,0,0-1.111,1.578,5.253,5.253,0,0,0,0,4.021,4.658,4.658,0,0,0,1.111,1.578A5.054,5.054,0,0,0,62.749,16.8,6.1,6.1,0,0,0,64.882,17.17Zm0-2.306a2.613,2.613,0,0,1-.981-.184,2.276,2.276,0,0,1-.789-.53,2.428,2.428,0,0,1-.525-.844,3.418,3.418,0,0,1,0-2.252,2.428,2.428,0,0,1,.525-.844,2.276,2.276,0,0,1,.789-.53,2.7,2.7,0,0,1,1.96,0,2.247,2.247,0,0,1,.783.53,2.423,2.423,0,0,1,.519.844,3.466,3.466,0,0,1,0,2.252,2.423,2.423,0,0,1-.519.844,2.246,2.246,0,0,1-.783.53A2.592,2.592,0,0,1,64.882,14.864Zm9.876-6.251V7.333H72.073v9.693h2.812V12.45a3.606,3.606,0,0,1,.185-1.205,2.187,2.187,0,0,1,.523-.842,2.135,2.135,0,0,1,.813-.494,3.241,3.241,0,0,1,1.057-.161c.054,0,.106,0,.157,0l.152.008.155.012.167.013V7.189a5.872,5.872,0,0,0-1.056.091,4.321,4.321,0,0,0-.916.27,3.413,3.413,0,0,0-.764.445A3.094,3.094,0,0,0,74.759,8.612Zm8.871-1.424a8.824,8.824,0,0,0-1.158.077,8.339,8.339,0,0,0-1.116.225,7,7,0,0,0-1.025.367,5.288,5.288,0,0,0-.884.5l1.01,1.964a3.594,3.594,0,0,1,.589-.376,4.546,4.546,0,0,1,.687-.284,5.04,5.04,0,0,1,.748-.179,4.9,4.9,0,0,1,.771-.062,3.429,3.429,0,0,1,.988.129,1.842,1.842,0,0,1,.7.374,1.521,1.521,0,0,1,.414.6,2.229,2.229,0,0,1,.136.808H83.251a7.552,7.552,0,0,0-1.9.213,3.623,3.623,0,0,0-1.293.6,2.371,2.371,0,0,0-.739.917,2.828,2.828,0,0,0-.235,1.175,2.781,2.781,0,0,0,.247,1.166,2.672,2.672,0,0,0,.713.931,3.356,3.356,0,0,0,1.139.617,4.949,4.949,0,0,0,1.525.224,5.3,5.3,0,0,0,.99-.087,3.588,3.588,0,0,0,.827-.258,2.671,2.671,0,0,0,.658-.423,2.416,2.416,0,0,0,.482-.584v1.207H88.3V11.5a5.344,5.344,0,0,0-.314-1.912,3.378,3.378,0,0,0-.913-1.343,3.852,3.852,0,0,0-1.467-.792A6.852,6.852,0,0,0,83.629,7.188Zm-.216,8.092a2.467,2.467,0,0,1-.666-.084,1.5,1.5,0,0,1-.5-.238,1.048,1.048,0,0,1-.313-.37,1.063,1.063,0,0,1-.108-.48,1.124,1.124,0,0,1,.085-.451.89.89,0,0,1,.287-.36,1.458,1.458,0,0,1,.533-.238,3.448,3.448,0,0,1,.826-.086h1.93v.991a1.961,1.961,0,0,1-.329.578,1.885,1.885,0,0,1-.478.411,2.181,2.181,0,0,1-.593.245A2.728,2.728,0,0,1,83.413,15.28Zm12.933-.7a1.6,1.6,0,0,1-.249.155,1.836,1.836,0,0,1-.279.113,2.009,2.009,0,0,1-.3.069,2.065,2.065,0,0,1-.31.023,1.459,1.459,0,0,1-.509-.083,1,1,0,0,1-.38-.246,1.07,1.07,0,0,1-.238-.4,1.7,1.7,0,0,1-.082-.55V9.711h2.418V7.548H94V5.187H91.186V7.548h-1.5V9.711h1.5v3.983a4.354,4.354,0,0,0,.244,1.517A2.8,2.8,0,0,0,92.14,16.3a3,3,0,0,0,1.139.655,4.949,4.949,0,0,0,1.533.219,5.438,5.438,0,0,0,.642-.037,4.651,4.651,0,0,0,.612-.113,3.634,3.634,0,0,0,.558-.191,2.669,2.669,0,0,0,.48-.271Zm6.659,2.6a6.1,6.1,0,0,0,2.134-.369,5.029,5.029,0,0,0,1.686-1.032,4.652,4.652,0,0,0,1.107-1.58,5.288,5.288,0,0,0,0-4.025,4.653,4.653,0,0,0-1.107-1.58,5.03,5.03,0,0,0-1.686-1.032,6.353,6.353,0,0,0-4.271,0,5.062,5.062,0,0,0-1.692,1.032,4.661,4.661,0,0,0-1.113,1.58,5.254,5.254,0,0,0,0,4.025,4.662,4.662,0,0,0,1.113,1.58,5.063,5.063,0,0,0,1.692,1.032A6.119,6.119,0,0,0,103.005,17.175Zm0-2.308a2.619,2.619,0,0,1-.983-.184,2.28,2.28,0,0,1-.79-.531,2.429,2.429,0,0,1-.526-.845,3.418,3.418,0,0,1,0-2.254,2.429,2.429,0,0,1,.526-.845,2.28,2.28,0,0,1,.79-.53,2.711,2.711,0,0,1,1.963,0,2.251,2.251,0,0,1,.784.53,2.425,2.425,0,0,1,.52.845,3.466,3.466,0,0,1,0,2.254,2.425,2.425,0,0,1-.52.845,2.25,2.25,0,0,1-.784.53A2.6,2.6,0,0,1,103.005,14.867ZM112.9,8.611V7.33h-2.69v9.7h2.817v-4.58a3.606,3.606,0,0,1,.185-1.206,2.188,2.188,0,0,1,.524-.843,2.139,2.139,0,0,1,.815-.495,3.249,3.249,0,0,1,1.059-.161c.054,0,.106,0,.157,0l.152.008.155.012.167.013v-2.6a5.886,5.886,0,0,0-1.058.091,4.331,4.331,0,0,0-.917.27,3.419,3.419,0,0,0-.765.446A3.1,3.1,0,0,0,112.9,8.611Z" fill="#fffcd6"/></g></g></svg>