<svg xmlns="http://www.w3.org/2000/svg" xmlns:xlink="http://www.w3.org/1999/xlink" width="279.98" height="134.055" viewBox="0 0 279.98 134.055"><defs><linearGradient id="a" x1="0.789" y1="0.898" x2="0.154" y2="0.124" gradientUnits="objectBoundingBox"><stop offset="0" stop-color="#3b018c"/><stop offset="1" stop-color="#ac3eb4"/></linearGradient></defs><g transform="translate(-352.148 -361.438)"><path d="M438.965,403.8v2.9h-.876v-2.9l-3.358-5.493h.948l2.878,4.712,2.879-4.712h.887Z" fill="#fdffeb"/><path d="M442.171,403.553a3.208,3.208,0,1,1,3.214,3.214A3.1,3.1,0,0,1,442.171,403.553Zm5.553,0a2.348,2.348,0,1,0-2.339,2.458A2.3,2.3,0,0,0,447.724,403.553Z" fill="#fdffeb"/><path d="M456.016,400.4v6.309H455.2v-1.151a2.51,2.51,0,0,1-2.266,1.211,2.444,2.444,0,0,1-2.663-2.71V400.4h.852v3.575a1.765,1.765,0,0,0,1.9,2.026,2.051,2.051,0,0,0,2.146-2.291V400.4Z" fill="#fdffeb"/><path d="M461.584,400.351v.827c-.072,0-.144-.012-.2-.012a2.04,2.04,0,0,0-2.122,2.326v3.215h-.852V400.4h.816v1.236A2.377,2.377,0,0,1,461.584,400.351Z" fill="#fdffeb"/><path d="M475.621,400.4l-2.387,6.309h-.8l-1.991-5.169-1.991,5.169h-.8l-2.375-6.309h.815l1.979,5.362,2.027-5.362h.732l2.014,5.362,2-5.362Z" fill="#fdffeb"/><path d="M482.223,403.816h-5.277a2.335,2.335,0,0,0,2.483,2.195,2.486,2.486,0,0,0,1.93-.827l.48.551a3.334,3.334,0,0,1-5.744-2.182,3.037,3.037,0,0,1,3.082-3.2,3.005,3.005,0,0,1,3.058,3.2C482.235,403.624,482.223,403.721,482.223,403.816Zm-5.277-.635h4.474a2.242,2.242,0,0,0-4.474,0Z" fill="#fdffeb"/><path d="M483.979,397.808h.851v8.9h-.851Z" fill="#fdffeb"/><path d="M487.206,397.808h.852v8.9h-.852Z" fill="#fdffeb"/><path d="M499.335,397.808v8.9h-.815v-1.248a2.734,2.734,0,0,1-2.435,1.308,3.209,3.209,0,0,1,0-6.416,2.751,2.751,0,0,1,2.4,1.247v-3.79Zm-.84,5.745a2.347,2.347,0,1,0-2.338,2.458A2.307,2.307,0,0,0,498.495,403.553Z" fill="#fdffeb"/><path d="M507.207,403.816H501.93a2.334,2.334,0,0,0,2.482,2.195,2.492,2.492,0,0,0,1.932-.827l.479.551a3.335,3.335,0,0,1-5.745-2.182,3.038,3.038,0,0,1,3.082-3.2,3.005,3.005,0,0,1,3.059,3.2C507.219,403.624,507.207,403.721,507.207,403.816Zm-5.277-.635H506.4a2.241,2.241,0,0,0-4.473,0Z" fill="#fdffeb"/><path d="M514.144,400.4l-2.807,6.309h-.875l-2.8-6.309h.888l2.363,5.373L513.3,400.4Z" fill="#fdffeb"/><path d="M520.659,403.816h-5.277a2.334,2.334,0,0,0,2.482,2.195,2.488,2.488,0,0,0,1.931-.827l.48.551a3.335,3.335,0,0,1-5.745-2.182,3.038,3.038,0,0,1,3.082-3.2,3.005,3.005,0,0,1,3.059,3.2C520.671,403.624,520.659,403.721,520.659,403.816Zm-5.277-.635h4.473a2.241,2.241,0,0,0-4.473,0Z" fill="#fdffeb"/><path d="M522.414,397.808h.852v8.9h-.852Z" fill="#fdffeb"/><path d="M525.006,403.553a3.208,3.208,0,1,1,3.214,3.214A3.1,3.1,0,0,1,525.006,403.553Zm5.553,0a2.348,2.348,0,1,0-2.339,2.458A2.3,2.3,0,0,0,530.559,403.553Z" fill="#fdffeb"/><path d="M539.559,403.553a3.055,3.055,0,0,1-3.143,3.214,2.754,2.754,0,0,1-2.4-1.247v3.513h-.852V400.4h.815v1.248a2.748,2.748,0,0,1,2.435-1.295A3.052,3.052,0,0,1,539.559,403.553Zm-.852,0a2.353,2.353,0,1,0-2.351,2.458A2.323,2.323,0,0,0,538.707,403.553Z" fill="#fdffeb"/><path d="M546.795,403.816h-5.277A2.334,2.334,0,0,0,544,406.011a2.489,2.489,0,0,0,1.931-.827l.48.551a3.335,3.335,0,0,1-5.745-2.182,3.038,3.038,0,0,1,3.082-3.2,3.006,3.006,0,0,1,3.059,3.2C546.807,403.624,546.795,403.721,546.795,403.816Zm-5.277-.635h4.473a2.241,2.241,0,0,0-4.473,0Z" fill="#fdffeb"/><path d="M554.307,397.808v8.9h-.816v-1.248a2.731,2.731,0,0,1-2.434,1.308,3.209,3.209,0,0,1,0-6.416,2.754,2.754,0,0,1,2.4,1.247v-3.79Zm-.84,5.745a2.348,2.348,0,1,0-2.339,2.458A2.307,2.307,0,0,0,553.467,403.553Z" fill="#fdffeb"/><path d="M559.637,398.407a.615.615,0,0,1,.624-.6.605.605,0,0,1,.624.588.624.624,0,0,1-1.248.011Zm.192,1.991h.852v6.309h-.852Z" fill="#fdffeb"/><path d="M568.861,403.049v3.658h-.851v-3.574a1.762,1.762,0,0,0-1.9-2.015,2.068,2.068,0,0,0-2.207,2.278v3.311h-.851V400.4h.815v1.164a2.651,2.651,0,0,1,2.4-1.211A2.414,2.414,0,0,1,568.861,403.049Z" fill="#fdffeb"/><path d="M574.5,406.323a2.028,2.028,0,0,1-1.331.444,1.672,1.672,0,0,1-1.848-1.835v-3.814H570.2v-.72h1.127v-1.379h.852V400.4h1.919v.72h-1.919v3.766a1.01,1.01,0,0,0,1.092,1.151,1.409,1.409,0,0,0,.935-.324Z" fill="#fdffeb"/><path d="M581.318,403.816h-5.277a2.335,2.335,0,0,0,2.482,2.195,2.487,2.487,0,0,0,1.931-.827l.481.551a3.336,3.336,0,0,1-5.746-2.182,3.039,3.039,0,0,1,3.083-3.2,3.005,3.005,0,0,1,3.058,3.2C581.33,403.624,581.318,403.721,581.318,403.816Zm-5.277-.635h4.474a2.242,2.242,0,0,0-4.474,0Z" fill="#fdffeb"/><path d="M586.251,400.351v.827c-.071,0-.144-.012-.2-.012a2.04,2.04,0,0,0-2.123,2.326v3.215h-.852V400.4h.816v1.236A2.377,2.377,0,0,1,586.251,400.351Z" fill="#fdffeb"/><path d="M594.182,403.553a3.055,3.055,0,0,1-3.143,3.214,2.754,2.754,0,0,1-2.4-1.247v3.513h-.852V400.4h.816v1.248a2.745,2.745,0,0,1,2.434-1.295A3.052,3.052,0,0,1,594.182,403.553Zm-.852,0a2.353,2.353,0,1,0-2.35,2.458A2.323,2.323,0,0,0,593.33,403.553Z" fill="#fdffeb"/><path d="M601.418,403.816h-5.277a2.334,2.334,0,0,0,2.482,2.195,2.489,2.489,0,0,0,1.931-.827l.48.551a3.335,3.335,0,0,1-5.745-2.182,3.038,3.038,0,0,1,3.082-3.2,3.005,3.005,0,0,1,3.059,3.2C601.43,403.624,601.418,403.721,601.418,403.816Zm-5.277-.635h4.473a2.241,2.241,0,0,0-4.473,0Z" fill="#fdffeb"/><path d="M606.351,400.351v.827c-.072,0-.144-.012-.2-.012a2.04,2.04,0,0,0-2.123,2.326v3.215h-.851V400.4h.815v1.236A2.379,2.379,0,0,1,606.351,400.351Z" fill="#fdffeb"/><path d="M607.06,405.987l.383-.672a3.813,3.813,0,0,0,2.244.708c1.2,0,1.691-.408,1.691-1.031,0-1.643-4.09-.348-4.09-2.843,0-1.031.887-1.8,2.494-1.8a4.274,4.274,0,0,1,2.231.587l-.371.683a3.234,3.234,0,0,0-1.86-.539c-1.139,0-1.642.443-1.642,1.043,0,1.7,4.09.42,4.09,2.843,0,1.092-.96,1.8-2.6,1.8A4.211,4.211,0,0,1,607.06,405.987Z" fill="#fdffeb"/><path d="M613.169,403.553a3.208,3.208,0,1,1,3.214,3.214A3.1,3.1,0,0,1,613.169,403.553Zm5.553,0a2.348,2.348,0,1,0-2.339,2.458A2.3,2.3,0,0,0,618.722,403.553Z" fill="#fdffeb"/><path d="M627.133,403.049v3.658h-.852v-3.574a1.761,1.761,0,0,0-1.894-2.015,2.068,2.068,0,0,0-2.207,2.278v3.311h-.852V400.4h.816v1.164a2.65,2.65,0,0,1,2.4-1.211A2.414,2.414,0,0,1,627.133,403.049Z" fill="#fdffeb"/><path d="M628.985,403.085h3.143v.743h-3.143Z" fill="#fdffeb"/><path d="M434.2,417.2v3.909h-.815v-.983a2.369,2.369,0,0,1-2.171,1.044c-1.427,0-2.3-.744-2.3-1.835,0-.972.624-1.787,2.435-1.787h2v-.384c0-1.08-.612-1.667-1.788-1.667a3.209,3.209,0,0,0-2.1.743l-.384-.635a4,4,0,0,1,2.566-.852A2.241,2.241,0,0,1,434.2,417.2Zm-.851,2.015v-1.031h-1.979c-1.224,0-1.62.479-1.62,1.127,0,.731.588,1.187,1.6,1.187A2.019,2.019,0,0,0,433.351,419.212Z" fill="#fdffeb"/><path d="M436.521,412.208h.852v8.9h-.852Z" fill="#fdffeb"/><path d="M442.018,420.387l.383-.671a3.816,3.816,0,0,0,2.243.707c1.2,0,1.691-.407,1.691-1.031,0-1.644-4.09-.348-4.09-2.843,0-1.031.888-1.8,2.495-1.8a4.283,4.283,0,0,1,2.231.588l-.372.683a3.24,3.24,0,0,0-1.859-.54c-1.139,0-1.643.445-1.643,1.044,0,1.7,4.09.42,4.09,2.842,0,1.092-.96,1.8-2.6,1.8A4.21,4.21,0,0,1,442.018,420.387Z" fill="#fdffeb"/><path d="M451.1,417.94l-1.487,1.368v1.8h-.852v-8.9h.852v6.032l3.765-3.442h1.056l-2.7,2.579,2.951,3.729h-1.043Z" fill="#fdffeb"/><path d="M455.685,412.808a.614.614,0,0,1,.624-.6.6.6,0,0,1,.623.587.624.624,0,0,1-1.247.013Zm.192,1.99h.852v6.308h-.852Z" fill="#fdffeb"/><path d="M459.105,412.208h.852v8.9h-.852Z" fill="#fdffeb"/><path d="M462.333,412.208h.852v8.9h-.852Z" fill="#fdffeb"/><path d="M464.686,420.387l.384-.671a3.814,3.814,0,0,0,2.243.707c1.2,0,1.69-.407,1.69-1.031,0-1.644-4.089-.348-4.089-2.843,0-1.031.887-1.8,2.494-1.8a4.283,4.283,0,0,1,2.231.588l-.371.683a3.243,3.243,0,0,0-1.86-.54c-1.139,0-1.643.445-1.643,1.044,0,1.7,4.09.42,4.09,2.842,0,1.092-.959,1.8-2.6,1.8A4.213,4.213,0,0,1,464.686,420.387Z" fill="#fdffeb"/><path d="M479.334,417.2v3.909h-.815v-.983a2.368,2.368,0,0,1-2.171,1.044c-1.427,0-2.3-.744-2.3-1.835,0-.972.624-1.787,2.435-1.787h2v-.384c0-1.08-.611-1.667-1.787-1.667a3.209,3.209,0,0,0-2.1.743l-.384-.635a4,4,0,0,1,2.566-.852A2.241,2.241,0,0,1,479.334,417.2Zm-.852,2.015v-1.031H476.5c-1.224,0-1.619.479-1.619,1.127,0,.731.588,1.187,1.6,1.187A2.017,2.017,0,0,0,478.482,419.212Z" fill="#fdffeb"/><path d="M481.653,412.208h.852v8.9h-.852Z" fill="#fdffeb"/><path d="M484.882,412.208h.851v8.9h-.851Z" fill="#fdffeb"/><path d="M487.474,417.952a3.208,3.208,0,1,1,3.214,3.215A3.1,3.1,0,0,1,487.474,417.952Zm5.552,0a2.347,2.347,0,1,0-2.338,2.459A2.3,2.3,0,0,0,493.026,417.952Z" fill="#fdffeb"/><path d="M504.712,414.8l-2.387,6.308h-.8l-1.991-5.168-1.991,5.168h-.8l-2.374-6.308h.816l1.978,5.361,2.028-5.361h.731l2.015,5.361,2-5.361Z" fill="#fdffeb"/><path d="M511.314,418.216h-5.277a2.336,2.336,0,0,0,2.483,2.2,2.486,2.486,0,0,0,1.93-.827l.481.551a3.335,3.335,0,0,1-5.745-2.183,3.037,3.037,0,0,1,3.082-3.2,3.006,3.006,0,0,1,3.058,3.2C511.326,418.024,511.314,418.12,511.314,418.216Zm-5.277-.635h4.474a2.241,2.241,0,0,0-4.474,0Z" fill="#fdffeb"/><path d="M518.826,412.208v8.9h-.815v-1.247a2.734,2.734,0,0,1-2.435,1.308,3.209,3.209,0,0,1,0-6.417,2.758,2.758,0,0,1,2.4,1.247v-3.789Zm-.84,5.744a2.347,2.347,0,1,0-2.339,2.459A2.307,2.307,0,0,0,517.986,417.952Z" fill="#fdffeb"/><path d="M529.649,414.8l-3.154,7.064c-.527,1.236-1.2,1.631-2.1,1.631a2.159,2.159,0,0,1-1.536-.575l.4-.636a1.576,1.576,0,0,0,1.151.48c.564,0,.947-.264,1.308-1.056l.275-.611-2.818-6.3h.888l2.375,5.361,2.374-5.361Z" fill="#fdffeb"/><path d="M530.037,417.952a3.208,3.208,0,1,1,3.214,3.215A3.1,3.1,0,0,1,530.037,417.952Zm5.553,0a2.348,2.348,0,1,0-2.339,2.459A2.3,2.3,0,0,0,535.59,417.952Z" fill="#fdffeb"/><path d="M543.882,414.8v6.308h-.816v-1.151a2.507,2.507,0,0,1-2.266,1.212,2.443,2.443,0,0,1-2.663-2.711V414.8h.851v3.574a1.766,1.766,0,0,0,1.9,2.027,2.051,2.051,0,0,0,2.146-2.291V414.8Z" fill="#fdffeb"/><path d="M552.739,420.723a2.033,2.033,0,0,1-1.331.444,1.671,1.671,0,0,1-1.847-1.835v-3.814h-1.127v-.72h1.127v-1.379h.851V414.8h1.919v.72h-1.919v3.765a1.011,1.011,0,0,0,1.092,1.152,1.407,1.407,0,0,0,.935-.324Z" fill="#fdffeb"/><path d="M553.425,417.952a3.208,3.208,0,1,1,3.214,3.215A3.1,3.1,0,0,1,553.425,417.952Zm5.553,0a2.348,2.348,0,1,0-2.339,2.459A2.3,2.3,0,0,0,558.978,417.952Z" fill="#fdffeb"/><path d="M564.093,417.952a3.1,3.1,0,0,1,3.25-3.2,2.755,2.755,0,0,1,2.47,1.247l-.635.433a2.145,2.145,0,0,0-1.835-.936,2.46,2.46,0,0,0,0,4.917,2.134,2.134,0,0,0,1.835-.924l.635.432a2.779,2.779,0,0,1-2.47,1.248A3.115,3.115,0,0,1,564.093,417.952Z" fill="#fdffeb"/><path d="M570.741,417.952a3.208,3.208,0,1,1,3.214,3.215A3.1,3.1,0,0,1,570.741,417.952Zm5.553,0a2.347,2.347,0,1,0-2.339,2.459A2.3,2.3,0,0,0,576.294,417.952Z" fill="#fdffeb"/><path d="M589.312,417.448v3.658h-.852v-3.574c0-1.331-.672-2.014-1.811-2.014a2.028,2.028,0,0,0-2.111,2.279v3.309h-.851v-3.574c0-1.331-.672-2.014-1.824-2.014a2.033,2.033,0,0,0-2.11,2.279v3.309H578.9V414.8h.816v1.151a2.552,2.552,0,0,1,2.314-1.2,2.266,2.266,0,0,1,2.243,1.331,2.749,2.749,0,0,1,2.495-1.331A2.382,2.382,0,0,1,589.312,417.448Z" fill="#fdffeb"/><path d="M602.043,417.448v3.658h-.852v-3.574c0-1.331-.671-2.014-1.81-2.014a2.027,2.027,0,0,0-2.111,2.279v3.309h-.852v-3.574c0-1.331-.672-2.014-1.823-2.014a2.033,2.033,0,0,0-2.111,2.279v3.309h-.851V414.8h.815v1.151a2.552,2.552,0,0,1,2.315-1.2,2.266,2.266,0,0,1,2.243,1.331,2.748,2.748,0,0,1,2.494-1.331A2.382,2.382,0,0,1,602.043,417.448Z" fill="#fdffeb"/><path d="M610.049,414.8v6.308h-.816v-1.151a2.506,2.506,0,0,1-2.266,1.212,2.443,2.443,0,0,1-2.663-2.711V414.8h.851v3.574a1.766,1.766,0,0,0,1.9,2.027,2.051,2.051,0,0,0,2.146-2.291V414.8Z" fill="#fdffeb"/><path d="M618.245,417.448v3.658h-.851v-3.574a1.761,1.761,0,0,0-1.895-2.014,2.068,2.068,0,0,0-2.207,2.279v3.309h-.852V414.8h.816v1.164a2.65,2.65,0,0,1,2.4-1.212A2.415,2.415,0,0,1,618.245,417.448Z" fill="#fdffeb"/><path d="M620.372,412.808a.614.614,0,0,1,.624-.6.6.6,0,0,1,.624.587.624.624,0,0,1-1.248.013Zm.192,1.99h.852v6.308h-.852Z" fill="#fdffeb"/><path d="M623.324,417.484h3.143v.745h-3.143Z" fill="#fdffeb"/><path d="M412.865,432.353a3.106,3.106,0,0,1,3.25-3.2,2.755,2.755,0,0,1,2.47,1.247l-.635.433a2.143,2.143,0,0,0-1.835-.935,2.46,2.46,0,0,0,0,4.917,2.136,2.136,0,0,0,1.835-.924l.635.431a2.777,2.777,0,0,1-2.47,1.248A3.115,3.115,0,0,1,412.865,432.353Z" fill="#fdffeb"/><path d="M425.018,431.6v3.909H424.2v-.984a2.368,2.368,0,0,1-2.171,1.044c-1.427,0-2.3-.744-2.3-1.835,0-.971.623-1.787,2.434-1.787h2v-.383c0-1.081-.612-1.667-1.787-1.667a3.212,3.212,0,0,0-2.1.743L419.9,430a4,4,0,0,1,2.566-.852A2.242,2.242,0,0,1,425.018,431.6Zm-.852,2.014v-1.031h-1.979c-1.223,0-1.619.48-1.619,1.127,0,.731.588,1.188,1.6,1.188A2.019,2.019,0,0,0,424.166,433.612Z" fill="#fdffeb"/><path d="M430.658,435.123a2.024,2.024,0,0,1-1.331.444,1.671,1.671,0,0,1-1.847-1.835v-3.814h-1.127v-.72h1.127v-1.379h.852V429.2h1.919v.72h-1.919v3.766a1.009,1.009,0,0,0,1.091,1.151,1.4,1.4,0,0,0,.935-.323Z" fill="#fdffeb"/><path d="M437.473,432.616H432.2a2.336,2.336,0,0,0,2.483,2.2,2.491,2.491,0,0,0,1.931-.828l.479.551a3.334,3.334,0,0,1-5.744-2.182,3.038,3.038,0,0,1,3.082-3.2,3.007,3.007,0,0,1,3.058,3.2C437.485,432.425,437.473,432.521,437.473,432.616Zm-5.277-.635h4.474a2.242,2.242,0,0,0-4.474,0Z" fill="#fdffeb"/><path d="M448.129,429.2v8.636h-.851v-3.515a2.753,2.753,0,0,1-2.4,1.248,3.209,3.209,0,0,1,0-6.417,2.746,2.746,0,0,1,2.434,1.3V429.2Zm-.839,3.155a2.348,2.348,0,1,0-2.339,2.459A2.314,2.314,0,0,0,447.29,432.353Z" fill="#fdffeb"/><path d="M456.193,429.2v6.309h-.816v-1.152a2.508,2.508,0,0,1-2.266,1.212,2.443,2.443,0,0,1-2.663-2.711V429.2h.852v3.574a1.766,1.766,0,0,0,1.9,2.028,2.051,2.051,0,0,0,2.146-2.291V429.2Z" fill="#fdffeb"/><path d="M458.392,427.208a.615.615,0,0,1,.624-.6.6.6,0,0,1,.623.587.624.624,0,0,1-1.247.013Zm.192,1.99h.852v6.309h-.852Z" fill="#fdffeb"/><path d="M461.176,432.353a3.106,3.106,0,0,1,3.25-3.2A2.755,2.755,0,0,1,466.9,430.4l-.636.433a2.142,2.142,0,0,0-1.835-.935,2.46,2.46,0,0,0,0,4.917,2.134,2.134,0,0,0,1.835-.924l.636.431a2.778,2.778,0,0,1-2.471,1.248A3.115,3.115,0,0,1,461.176,432.353Z" fill="#fdffeb"/><path d="M470.811,432.341l-1.487,1.367v1.8h-.852v-8.9h.852v6.033l3.765-3.443h1.056l-2.7,2.579,2.951,3.73h-1.043Z" fill="#fdffeb"/><path d="M475.684,426.608h.851v8.9h-.851Z" fill="#fdffeb"/><path d="M484.213,429.2l-3.154,7.065c-.528,1.235-1.2,1.631-2.1,1.631a2.158,2.158,0,0,1-1.535-.576l.4-.635a1.579,1.579,0,0,0,1.152.479c.563,0,.947-.264,1.307-1.056l.276-.611-2.819-6.3h.888L481,434.56l2.374-5.362Z" fill="#fdffeb"/><path d="M493.321,431.6v3.909h-.815v-.984a2.369,2.369,0,0,1-2.171,1.044c-1.428,0-2.3-.744-2.3-1.835,0-.971.623-1.787,2.435-1.787h2v-.383c0-1.081-.613-1.667-1.787-1.667a3.212,3.212,0,0,0-2.1.743L488.2,430a4.007,4.007,0,0,1,2.567-.852A2.241,2.241,0,0,1,493.321,431.6Zm-.851,2.014v-1.031h-1.98c-1.222,0-1.619.48-1.619,1.127,0,.731.588,1.188,1.6,1.188A2.02,2.02,0,0,0,492.47,433.612Z" fill="#fdffeb"/><path d="M501.444,431.849v3.658h-.851v-3.574a1.762,1.762,0,0,0-1.895-2.015,2.069,2.069,0,0,0-2.207,2.279v3.31h-.851V429.2h.815v1.164a2.654,2.654,0,0,1,2.4-1.212A2.415,2.415,0,0,1,501.444,431.849Z" fill="#fdffeb"/><path d="M509.545,426.608v8.9h-.815V434.26a2.735,2.735,0,0,1-2.436,1.307,3.209,3.209,0,0,1,0-6.417,2.755,2.755,0,0,1,2.4,1.247v-3.789Zm-.84,5.745a2.347,2.347,0,1,0-2.339,2.459A2.307,2.307,0,0,0,508.7,432.353Z" fill="#fdffeb"/><path d="M519.828,431.6v3.909h-.815v-.984a2.368,2.368,0,0,1-2.171,1.044c-1.427,0-2.3-.744-2.3-1.835,0-.971.624-1.787,2.436-1.787h2v-.383c0-1.081-.613-1.667-1.788-1.667a3.214,3.214,0,0,0-2.1.743l-.384-.636a4.005,4.005,0,0,1,2.567-.852A2.241,2.241,0,0,1,519.828,431.6Zm-.85,2.014v-1.031H517c-1.224,0-1.619.48-1.619,1.127,0,.731.588,1.188,1.6,1.188A2.02,2.02,0,0,0,518.978,433.612Z" fill="#fdffeb"/><path d="M521.535,432.353a3.106,3.106,0,0,1,3.25-3.2,2.756,2.756,0,0,1,2.471,1.247l-.636.433a2.143,2.143,0,0,0-1.835-.935,2.46,2.46,0,0,0,0,4.917,2.136,2.136,0,0,0,1.835-.924l.636.431a2.779,2.779,0,0,1-2.471,1.248A3.115,3.115,0,0,1,521.535,432.353Z" fill="#fdffeb"/><path d="M528.184,432.353a3.106,3.106,0,0,1,3.25-3.2,2.756,2.756,0,0,1,2.47,1.247l-.635.433a2.144,2.144,0,0,0-1.835-.935,2.46,2.46,0,0,0,0,4.917,2.137,2.137,0,0,0,1.835-.924l.635.431a2.778,2.778,0,0,1-2.47,1.248A3.115,3.115,0,0,1,528.184,432.353Z" fill="#fdffeb"/><path d="M541.26,429.2v6.309h-.816v-1.152a2.506,2.506,0,0,1-2.266,1.212,2.443,2.443,0,0,1-2.663-2.711V429.2h.851v3.574a1.767,1.767,0,0,0,1.9,2.028,2.051,2.051,0,0,0,2.146-2.291V429.2Z" fill="#fdffeb"/><path d="M546.829,429.15v.829c-.071,0-.143-.013-.2-.013a2.041,2.041,0,0,0-2.123,2.327v3.214h-.852V429.2h.816v1.236A2.379,2.379,0,0,1,546.829,429.15Z" fill="#fdffeb"/><path d="M553.117,431.6v3.909H552.3v-.984a2.368,2.368,0,0,1-2.171,1.044c-1.427,0-2.3-.744-2.3-1.835,0-.971.624-1.787,2.436-1.787h2v-.383c0-1.081-.613-1.667-1.787-1.667a3.213,3.213,0,0,0-2.1.743l-.384-.636a4.006,4.006,0,0,1,2.568-.852A2.241,2.241,0,0,1,553.117,431.6Zm-.851,2.014v-1.031h-1.98c-1.223,0-1.619.48-1.619,1.127,0,.731.588,1.188,1.6,1.188A2.02,2.02,0,0,0,552.266,433.612Z" fill="#fdffeb"/><path d="M558.758,435.123a2.028,2.028,0,0,1-1.331.444,1.671,1.671,0,0,1-1.848-1.835v-3.814h-1.127v-.72h1.127v-1.379h.852V429.2h1.919v.72h-1.919v3.766a1.009,1.009,0,0,0,1.091,1.151,1.409,1.409,0,0,0,.936-.323Z" fill="#fdffeb"/><path d="M565.572,432.616h-5.277a2.335,2.335,0,0,0,2.482,2.2,2.488,2.488,0,0,0,1.931-.828l.48.551a3.335,3.335,0,0,1-5.745-2.182,3.039,3.039,0,0,1,3.082-3.2,3.007,3.007,0,0,1,3.059,3.2C565.584,432.425,565.572,432.521,565.572,432.616Zm-5.277-.635h4.474a2.242,2.242,0,0,0-4.474,0Z" fill="#fdffeb"/><path d="M567.327,426.608h.852v8.9h-.852Z" fill="#fdffeb"/><path d="M575.855,429.2l-3.154,7.065c-.527,1.235-1.2,1.631-2.1,1.631a2.16,2.16,0,0,1-1.536-.576l.4-.635a1.579,1.579,0,0,0,1.151.479c.564,0,.948-.264,1.308-1.056l.275-.611-2.818-6.3h.888l2.375,5.362,2.374-5.362Z" fill="#fdffeb"/><path d="M589.461,429.2l-2.387,6.309h-.8l-1.992-5.169-1.99,5.169h-.8L579.11,429.2h.816l1.979,5.362,2.027-5.362h.731l2.016,5.362,2-5.362Z" fill="#fdffeb"/><path d="M590.558,427.208a.615.615,0,0,1,.624-.6.606.606,0,0,1,.624.587.624.624,0,0,1-1.248.013Zm.192,1.99h.852v6.309h-.852Z" fill="#fdffeb"/><path d="M597.3,435.123a2.028,2.028,0,0,1-1.331.444,1.671,1.671,0,0,1-1.848-1.835v-3.814h-1.127v-.72h1.127v-1.379h.852V429.2h1.919v.72h-1.919v3.766a1.009,1.009,0,0,0,1.091,1.151,1.409,1.409,0,0,0,.936-.323Z" fill="#fdffeb"/><path d="M604.654,431.849v3.658H603.8v-3.574a1.762,1.762,0,0,0-1.895-2.015A2.069,2.069,0,0,0,599.7,432.2v3.31h-.851v-8.9h.851V430.3a2.665,2.665,0,0,1,2.362-1.152A2.415,2.415,0,0,1,604.654,431.849Z" fill="#fdffeb"/><path d="M613.439,435.123a2.024,2.024,0,0,1-1.331.444,1.671,1.671,0,0,1-1.847-1.835v-3.814h-1.127v-.72h1.127v-1.379h.851V429.2h1.919v.72h-1.919v3.766a1.01,1.01,0,0,0,1.092,1.151,1.411,1.411,0,0,0,.936-.323Z" fill="#fdffeb"/><path d="M620.794,431.849v3.658h-.852v-3.574a1.761,1.761,0,0,0-1.894-2.015,2.068,2.068,0,0,0-2.207,2.279v3.31h-.852v-8.9h.852V430.3a2.665,2.665,0,0,1,2.362-1.152A2.416,2.416,0,0,1,620.794,431.849Z" fill="#fdffeb"/><path d="M628.631,432.616h-5.277a2.335,2.335,0,0,0,2.482,2.2,2.489,2.489,0,0,0,1.931-.828l.48.551a3.335,3.335,0,0,1-5.745-2.182,3.039,3.039,0,0,1,3.082-3.2,3.007,3.007,0,0,1,3.059,3.2C628.643,432.425,628.631,432.521,628.631,432.616Zm-5.277-.635h4.473a2.241,2.241,0,0,0-4.473,0Z" fill="#fdffeb"/><path d="M408.415,443.6l-2.387,6.308h-.8l-1.991-5.169-1.99,5.169h-.8l-2.375-6.308h.816l1.979,5.361,2.027-5.361h.731l2.015,5.361,2-5.361Z" fill="#fdffeb"/><path d="M409.512,441.607a.615.615,0,0,1,.623-.6.6.6,0,0,1,.624.588.624.624,0,0,1-1.247.011Zm.192,1.992h.851v6.308H409.7Z" fill="#fdffeb"/><path d="M418.688,441.008v8.9h-.815v-1.248a2.734,2.734,0,0,1-2.435,1.308,3.209,3.209,0,0,1,0-6.416,2.755,2.755,0,0,1,2.4,1.247v-3.79Zm-.839,5.745a2.348,2.348,0,1,0-2.339,2.458A2.307,2.307,0,0,0,417.849,446.753Z" fill="#fdffeb"/><path d="M426.56,447.017h-5.277a2.335,2.335,0,0,0,2.483,2.194,2.487,2.487,0,0,0,1.931-.827l.479.552a3.335,3.335,0,0,1-5.744-2.183,3.038,3.038,0,0,1,3.082-3.2,3.005,3.005,0,0,1,3.058,3.2C426.572,446.824,426.56,446.921,426.56,447.017Zm-5.277-.636h4.474a2.242,2.242,0,0,0-4.474,0Z" fill="#fdffeb"/><path d="M434.638,443.551v.827c-.073,0-.144-.012-.2-.012a2.04,2.04,0,0,0-2.123,2.326v3.215h-.852V443.6h.816v1.235A2.378,2.378,0,0,1,434.638,443.551Z" fill="#fdffeb"/><path d="M440.925,446v3.91h-.816v-.983a2.369,2.369,0,0,1-2.171,1.043c-1.427,0-2.3-.743-2.3-1.835,0-.972.623-1.787,2.434-1.787h2v-.384c0-1.079-.612-1.667-1.787-1.667a3.21,3.21,0,0,0-2.1.744l-.384-.636a4,4,0,0,1,2.566-.851A2.241,2.241,0,0,1,440.925,446Zm-.852,2.015V446.98h-1.979c-1.223,0-1.619.48-1.619,1.128,0,.732.588,1.187,1.6,1.187A2.017,2.017,0,0,0,440.073,448.012Z" fill="#fdffeb"/><path d="M449.048,446.249v3.658H448.2v-3.574a1.762,1.762,0,0,0-1.895-2.015A2.068,2.068,0,0,0,444.1,446.6v3.31h-.851V443.6h.815v1.163a2.65,2.65,0,0,1,2.4-1.211A2.414,2.414,0,0,1,449.048,446.249Z" fill="#fdffeb"/><path d="M457.232,443.6v5.541c0,2.171-1.067,3.154-3.154,3.154a4.4,4.4,0,0,1-2.938-.972l.431-.647a3.761,3.761,0,0,0,2.483.863c1.6,0,2.327-.731,2.327-2.291v-.8a2.839,2.839,0,0,1-2.459,1.224,3.06,3.06,0,1,1,0-6.116,2.846,2.846,0,0,1,2.495,1.259V443.6Zm-.827,3a2.394,2.394,0,1,0-2.4,2.314A2.256,2.256,0,0,0,456.4,446.6Z" fill="#fdffeb"/><path d="M465.116,447.017h-5.277a2.335,2.335,0,0,0,2.483,2.194,2.487,2.487,0,0,0,1.931-.827l.479.552a3.335,3.335,0,0,1-5.744-2.183,3.038,3.038,0,0,1,3.082-3.2,3.005,3.005,0,0,1,3.058,3.2C465.128,446.824,465.116,446.921,465.116,447.017Zm-5.277-.636h4.474a2.242,2.242,0,0,0-4.474,0Z" fill="#fdffeb"/><path d="M469.38,446.753a3.208,3.208,0,1,1,3.214,3.214A3.1,3.1,0,0,1,469.38,446.753Zm5.553,0a2.348,2.348,0,1,0-2.339,2.458A2.3,2.3,0,0,0,474.933,446.753Z" fill="#fdffeb"/><path d="M478.511,442.854v.745h1.942v.719h-1.919v5.589h-.851v-5.589h-1.127V443.6h1.127v-.78a1.737,1.737,0,0,1,1.907-1.871,2,2,0,0,1,1.26.4l-.288.635a1.447,1.447,0,0,0-.936-.311C478.895,441.668,478.511,442.075,478.511,442.854Z" fill="#fdffeb"/><path d="M491.144,446.753A3.055,3.055,0,0,1,488,449.967a2.755,2.755,0,0,1-2.4-1.247v3.513h-.852V443.6h.815v1.247a2.748,2.748,0,0,1,2.435-1.3A3.052,3.052,0,0,1,491.144,446.753Zm-.852,0a2.353,2.353,0,1,0-2.351,2.458A2.323,2.323,0,0,0,490.292,446.753Z" fill="#fdffeb"/><path d="M498.38,447.017H493.1a2.334,2.334,0,0,0,2.482,2.194,2.489,2.489,0,0,0,1.932-.827l.479.552a3.336,3.336,0,0,1-5.745-2.183,3.038,3.038,0,0,1,3.082-3.2,3.006,3.006,0,0,1,3.059,3.2C498.392,446.824,498.38,446.921,498.38,447.017Zm-5.277-.636h4.473a2.241,2.241,0,0,0-4.473,0Z" fill="#fdffeb"/><path d="M499.5,446.753a3.209,3.209,0,1,1,3.215,3.214A3.1,3.1,0,0,1,499.5,446.753Zm5.553,0a2.348,2.348,0,1,0-2.338,2.458A2.3,2.3,0,0,0,505.052,446.753Z" fill="#fdffeb"/><path d="M514.052,446.753a3.055,3.055,0,0,1-3.143,3.214,2.754,2.754,0,0,1-2.4-1.247v3.513h-.852V443.6h.816v1.247a2.745,2.745,0,0,1,2.434-1.3A3.052,3.052,0,0,1,514.052,446.753Zm-.852,0a2.353,2.353,0,1,0-2.35,2.458A2.323,2.323,0,0,0,513.2,446.753Z" fill="#fdffeb"/><path d="M515.795,441.008h.852v8.9h-.852Z" fill="#fdffeb"/><path d="M524.516,447.017h-5.278a2.335,2.335,0,0,0,2.483,2.194,2.483,2.483,0,0,0,1.93-.827l.481.552a3.336,3.336,0,0,1-5.745-2.183,3.038,3.038,0,0,1,3.082-3.2,3.005,3.005,0,0,1,3.058,3.2C524.527,446.824,524.516,446.921,524.516,447.017Zm-5.278-.636h4.474a2.242,2.242,0,0,0-4.474,0Z" fill="#fdffeb"/><path d="M529.474,446.621a10.779,10.779,0,0,1,1.391-5.613h.816a12.2,12.2,0,0,0,0,11.225h-.816A10.837,10.837,0,0,1,529.474,446.621Z" fill="#fdffeb"/><path d="M538.123,446v3.91h-.815v-.983a2.37,2.37,0,0,1-2.171,1.043c-1.427,0-2.3-.743-2.3-1.835,0-.972.624-1.787,2.436-1.787h2v-.384c0-1.079-.612-1.667-1.787-1.667a3.215,3.215,0,0,0-2.1.744L533,444.4a4,4,0,0,1,2.567-.851A2.24,2.24,0,0,1,538.123,446Zm-.851,2.015V446.98h-1.979c-1.224,0-1.619.48-1.619,1.128,0,.732.588,1.187,1.6,1.187A2.016,2.016,0,0,0,537.272,448.012Z" fill="#fdffeb"/><path d="M546.247,446.249v3.658H545.4v-3.574a1.762,1.762,0,0,0-1.9-2.015,2.068,2.068,0,0,0-2.207,2.279v3.31h-.852V443.6h.816v1.163a2.65,2.65,0,0,1,2.4-1.211A2.415,2.415,0,0,1,546.247,446.249Z" fill="#fdffeb"/><path d="M554.348,441.008v8.9h-.816v-1.248a2.731,2.731,0,0,1-2.434,1.308,3.209,3.209,0,0,1,0-6.416,2.752,2.752,0,0,1,2.4,1.247v-3.79Zm-.84,5.745a2.348,2.348,0,1,0-2.339,2.458A2.307,2.307,0,0,0,553.508,446.753Z" fill="#fdffeb"/><path d="M564.631,446v3.91h-.816v-.983a2.368,2.368,0,0,1-2.17,1.043c-1.427,0-2.3-.743-2.3-1.835,0-.972.624-1.787,2.435-1.787h2v-.384c0-1.079-.612-1.667-1.787-1.667a3.215,3.215,0,0,0-2.1.744l-.384-.636a4,4,0,0,1,2.567-.851A2.24,2.24,0,0,1,564.631,446Zm-.851,2.015V446.98H561.8c-1.224,0-1.619.48-1.619,1.128,0,.732.588,1.187,1.595,1.187A2.018,2.018,0,0,0,563.78,448.012Z" fill="#fdffeb"/><path d="M566.95,441.008h.852v8.9h-.852Z" fill="#fdffeb"/><path d="M569.985,441.607a.615.615,0,0,1,.624-.6.6.6,0,0,1,.624.588.624.624,0,0,1-1.248.011Zm.193,1.992h.851v6.308h-.851Z" fill="#fdffeb"/><path d="M578.9,447.017h-5.277a2.335,2.335,0,0,0,2.483,2.194,2.483,2.483,0,0,0,1.93-.827l.481.552a3.336,3.336,0,0,1-5.745-2.183,3.038,3.038,0,0,1,3.082-3.2,3.005,3.005,0,0,1,3.058,3.2C578.91,446.824,578.9,446.921,578.9,447.017Zm-5.277-.636h4.474a2.242,2.242,0,0,0-4.474,0Z" fill="#fdffeb"/><path d="M586.458,446.249v3.658h-.852v-3.574a1.761,1.761,0,0,0-1.894-2.015,2.068,2.068,0,0,0-2.207,2.279v3.31h-.852V443.6h.816v1.163a2.65,2.65,0,0,1,2.4-1.211A2.415,2.415,0,0,1,586.458,446.249Z" fill="#fdffeb"/><path d="M587.9,449.188l.384-.672a3.819,3.819,0,0,0,2.243.708c1.2,0,1.692-.409,1.692-1.032,0-1.643-4.09-.348-4.09-2.842,0-1.032.887-1.8,2.494-1.8a4.276,4.276,0,0,1,2.231.587l-.372.683a3.236,3.236,0,0,0-1.859-.539c-1.14,0-1.643.444-1.643,1.043,0,1.7,4.09.42,4.09,2.843,0,1.092-.96,1.8-2.6,1.8A4.223,4.223,0,0,1,587.9,449.188Z" fill="#fdffeb"/><path d="M594.382,449.344a.612.612,0,0,1,.636-.613.6.6,0,0,1,.623.613.619.619,0,0,1-.623.623A.629.629,0,0,1,594.382,449.344Zm.132-7.832h1.007l-.18,5.877h-.659Z" fill="#fdffeb"/><path d="M597.058,452.233a12.1,12.1,0,0,0,0-11.225h.815a11.927,11.927,0,0,1,0,11.225Z" fill="#fdffeb"/><path d="M610.158,443.6,607,450.662c-.527,1.235-1.2,1.632-2.1,1.632a2.158,2.158,0,0,1-1.535-.576l.4-.636a1.573,1.573,0,0,0,1.151.481c.563,0,.947-.265,1.308-1.056l.275-.612-2.818-6.3h.887l2.375,5.361,2.374-5.361Z" fill="#fdffeb"/><path d="M610.545,446.753a3.208,3.208,0,1,1,3.214,3.214A3.1,3.1,0,0,1,610.545,446.753Zm5.553,0a2.348,2.348,0,1,0-2.339,2.458A2.3,2.3,0,0,0,616.1,446.753Z" fill="#fdffeb"/><path d="M624.39,443.6v6.308h-.816v-1.151a2.51,2.51,0,0,1-2.266,1.211,2.444,2.444,0,0,1-2.663-2.71V443.6h.851v3.574a1.765,1.765,0,0,0,1.9,2.026,2.051,2.051,0,0,0,2.146-2.291V443.6Z" fill="#fdffeb"/><path d="M409.566,460.648v3.659h-.852v-3.575c0-1.331-.671-2.014-1.811-2.014A2.028,2.028,0,0,0,404.792,461v3.31h-.851v-3.575c0-1.331-.671-2.014-1.823-2.014A2.033,2.033,0,0,0,400.007,461v3.31h-.851V458h.815v1.151a2.554,2.554,0,0,1,2.315-1.2,2.269,2.269,0,0,1,2.243,1.331,2.747,2.747,0,0,1,2.494-1.331A2.381,2.381,0,0,1,409.566,460.648Z" fill="#fdffeb"/><path d="M417.4,461.416h-5.277a2.336,2.336,0,0,0,2.483,2.2,2.49,2.49,0,0,0,1.931-.827l.48.551a3.335,3.335,0,0,1-5.745-2.183,3.038,3.038,0,0,1,3.082-3.2,3.007,3.007,0,0,1,3.059,3.2C417.417,461.225,417.4,461.32,417.4,461.416Zm-5.277-.635H416.6a2.242,2.242,0,0,0-4.474,0Z" fill="#fdffeb"/><path d="M422.481,463.923a2.024,2.024,0,0,1-1.331.444,1.671,1.671,0,0,1-1.847-1.835v-3.814h-1.127V458H419.3v-1.379h.852V458h1.919v.72h-1.919v3.765a1.01,1.01,0,0,0,1.092,1.152,1.414,1.414,0,0,0,.935-.323Z" fill="#fdffeb"/><path d="M432.933,455.408v8.9h-.816V463.06a2.734,2.734,0,0,1-2.435,1.307,3.209,3.209,0,0,1,0-6.417,2.758,2.758,0,0,1,2.4,1.247v-3.789Zm-.84,5.744a2.348,2.348,0,1,0-2.339,2.459A2.308,2.308,0,0,0,432.093,461.152Z" fill="#fdffeb"/><path d="M441,458v6.309h-.815v-1.152a2.51,2.51,0,0,1-2.267,1.212,2.444,2.444,0,0,1-2.663-2.711V458h.852v3.574A1.766,1.766,0,0,0,438,463.6a2.052,2.052,0,0,0,2.147-2.291V458Z" fill="#fdffeb"/><path d="M446.565,457.95v.828c-.072,0-.144-.012-.2-.012a2.04,2.04,0,0,0-2.122,2.327v3.214h-.852V458h.816v1.235A2.381,2.381,0,0,1,446.565,457.95Z" fill="#fdffeb"/><path d="M447.912,456.008a.615.615,0,0,1,.623-.6.6.6,0,0,1,.624.587.624.624,0,0,1-1.247.013ZM448.1,458h.851v6.309H448.1Z" fill="#fdffeb"/><path d="M457.136,460.648v3.659h-.851v-3.575a1.761,1.761,0,0,0-1.895-2.014A2.069,2.069,0,0,0,452.183,461v3.31h-.851V458h.815v1.164a2.652,2.652,0,0,1,2.4-1.212A2.415,2.415,0,0,1,457.136,460.648Z" fill="#fdffeb"/><path d="M465.32,458v5.541c0,2.171-1.067,3.154-3.154,3.154a4.4,4.4,0,0,1-2.938-.971l.431-.648a3.754,3.754,0,0,0,2.483.864c1.6,0,2.327-.732,2.327-2.291v-.8a2.84,2.84,0,0,1-2.459,1.223,3.06,3.06,0,1,1,0-6.117,2.845,2.845,0,0,1,2.494,1.26V458Zm-.827,3a2.394,2.394,0,1,0-2.4,2.315A2.256,2.256,0,0,0,464.493,461Z" fill="#fdffeb"/><path d="M474.178,463.923a2.029,2.029,0,0,1-1.332.444A1.671,1.671,0,0,1,471,462.532v-3.814h-1.127V458H471v-1.379h.852V458h1.919v.72h-1.919v3.765a1.01,1.01,0,0,0,1.091,1.152,1.41,1.41,0,0,0,.935-.323Z" fill="#fdffeb"/><path d="M481.532,460.648v3.659h-.851v-3.575a1.762,1.762,0,0,0-1.9-2.014A2.069,2.069,0,0,0,476.579,461v3.31h-.851v-8.9h.851V459.1a2.665,2.665,0,0,1,2.362-1.152A2.415,2.415,0,0,1,481.532,460.648Z" fill="#fdffeb"/><path d="M489.368,461.416h-5.277a2.335,2.335,0,0,0,2.482,2.2,2.492,2.492,0,0,0,1.932-.827l.479.551a3.335,3.335,0,0,1-5.745-2.183,3.038,3.038,0,0,1,3.082-3.2,3.007,3.007,0,0,1,3.059,3.2C489.38,461.225,489.368,461.32,489.368,461.416Zm-5.277-.635h4.473a2.241,2.241,0,0,0-4.473,0Z" fill="#fdffeb"/><path d="M504.678,460.648v3.659h-.852v-3.575c0-1.331-.672-2.014-1.811-2.014A2.028,2.028,0,0,0,499.9,461v3.31h-.851v-3.575c0-1.331-.672-2.014-1.823-2.014A2.033,2.033,0,0,0,495.119,461v3.31h-.851V458h.815v1.151a2.552,2.552,0,0,1,2.314-1.2,2.27,2.27,0,0,1,2.244,1.331,2.745,2.745,0,0,1,2.494-1.331A2.382,2.382,0,0,1,504.678,460.648Z" fill="#fdffeb"/><path d="M506.808,456.008a.614.614,0,0,1,.623-.6.6.6,0,0,1,.624.587.624.624,0,0,1-1.247.013ZM507,458h.852v6.309H507Z" fill="#fdffeb"/><path d="M509.351,463.587l.383-.671a3.812,3.812,0,0,0,2.244.707c1.2,0,1.691-.407,1.691-1.031,0-1.644-4.09-.348-4.09-2.843,0-1.031.887-1.8,2.494-1.8a4.283,4.283,0,0,1,2.231.588l-.371.684a3.235,3.235,0,0,0-1.86-.54c-1.139,0-1.642.444-1.642,1.044,0,1.7,4.09.42,4.09,2.841,0,1.092-.96,1.8-2.6,1.8A4.211,4.211,0,0,1,509.351,463.587Z" fill="#fdffeb"/><path d="M515.219,463.587l.384-.671a3.806,3.806,0,0,0,2.243.707c1.2,0,1.691-.407,1.691-1.031,0-1.644-4.09-.348-4.09-2.843,0-1.031.887-1.8,2.494-1.8a4.28,4.28,0,0,1,2.231.588l-.371.684a3.236,3.236,0,0,0-1.86-.54c-1.139,0-1.642.444-1.642,1.044,0,1.7,4.09.42,4.09,2.841,0,1.092-.96,1.8-2.6,1.8A4.21,4.21,0,0,1,515.219,463.587Z" fill="#fdffeb"/><path d="M521.771,456.008a.615.615,0,0,1,.624-.6.606.606,0,0,1,.624.587.624.624,0,0,1-1.248.013Zm.192,1.99h.851v6.309h-.851Z" fill="#fdffeb"/><path d="M524.555,461.152a3.208,3.208,0,1,1,3.214,3.215A3.1,3.1,0,0,1,524.555,461.152Zm5.552,0a2.347,2.347,0,1,0-2.338,2.459A2.3,2.3,0,0,0,530.107,461.152Z" fill="#fdffeb"/><path d="M538.52,460.648v3.659h-.852v-3.575a1.761,1.761,0,0,0-1.9-2.014A2.069,2.069,0,0,0,533.566,461v3.31h-.851V458h.815v1.164a2.654,2.654,0,0,1,2.4-1.212A2.415,2.415,0,0,1,538.52,460.648Z" fill="#fdffeb"/><path d="M541.57,463.707a1.949,1.949,0,0,1-.168.7l-.5,1.656h-.575l.407-1.739a.607.607,0,0,1-.431-.612.636.636,0,1,1,1.271,0Z" fill="#fdffeb"/><path d="M551.287,460.4v3.91h-.815v-.984a2.368,2.368,0,0,1-2.171,1.044c-1.427,0-2.3-.744-2.3-1.835,0-.971.624-1.787,2.436-1.787h2v-.384c0-1.08-.613-1.667-1.788-1.667a3.209,3.209,0,0,0-2.1.744l-.384-.636a4,4,0,0,1,2.567-.852A2.241,2.241,0,0,1,551.287,460.4Zm-.85,2.015v-1.031h-1.98c-1.224,0-1.619.479-1.619,1.127,0,.731.588,1.187,1.6,1.187A2.019,2.019,0,0,0,550.437,462.412Z" fill="#fdffeb"/><path d="M559.411,460.648v3.659h-.851v-3.575a1.761,1.761,0,0,0-1.9-2.014A2.069,2.069,0,0,0,554.458,461v3.31h-.852V458h.816v1.164a2.653,2.653,0,0,1,2.4-1.212A2.415,2.415,0,0,1,559.411,460.648Z" fill="#fdffeb"/><path d="M567.512,455.408v8.9H566.7V463.06a2.732,2.732,0,0,1-2.434,1.307,3.209,3.209,0,0,1,0-6.417,2.755,2.755,0,0,1,2.4,1.247v-3.789Zm-.84,5.744a2.348,2.348,0,1,0-2.339,2.459A2.307,2.307,0,0,0,566.672,461.152Z" fill="#fdffeb"/><path d="M576.356,463.923a2.024,2.024,0,0,1-1.331.444,1.671,1.671,0,0,1-1.847-1.835v-3.814h-1.127V458h1.127v-1.379h.851V458h1.919v.72h-1.919v3.765a1.01,1.01,0,0,0,1.092,1.152,1.416,1.416,0,0,0,.936-.323Z" fill="#fdffeb"/><path d="M583.711,460.648v3.659h-.852v-3.575a1.76,1.76,0,0,0-1.894-2.014A2.068,2.068,0,0,0,578.758,461v3.31h-.852v-8.9h.852V459.1a2.665,2.665,0,0,1,2.362-1.152A2.415,2.415,0,0,1,583.711,460.648Z" fill="#fdffeb"/><path d="M585.838,456.008a.615.615,0,0,1,.624-.6.6.6,0,0,1,.624.587.624.624,0,0,1-1.248.013Zm.192,1.99h.852v6.309h-.852Z" fill="#fdffeb"/><path d="M588.382,463.587l.384-.671a3.809,3.809,0,0,0,2.243.707c1.2,0,1.691-.407,1.691-1.031,0-1.644-4.09-.348-4.09-2.843,0-1.031.887-1.8,2.495-1.8a4.279,4.279,0,0,1,2.23.588l-.371.684a3.235,3.235,0,0,0-1.859-.54c-1.14,0-1.643.444-1.643,1.044,0,1.7,4.09.42,4.09,2.841,0,1.092-.96,1.8-2.6,1.8A4.211,4.211,0,0,1,588.382,463.587Z" fill="#fdffeb"/><path d="M405,472.4v5.541c0,2.171-1.068,3.155-3.155,3.155a4.4,4.4,0,0,1-2.938-.972l.431-.647a3.761,3.761,0,0,0,2.483.863c1.6,0,2.327-.732,2.327-2.291v-.8a2.839,2.839,0,0,1-2.459,1.224,3.06,3.06,0,1,1,0-6.116,2.847,2.847,0,0,1,2.495,1.258V472.4Zm-.828,3a2.394,2.394,0,1,0-2.4,2.315A2.255,2.255,0,0,0,404.169,475.4Z" fill="#fdffeb"/><path d="M410.566,472.351v.827c-.072,0-.144-.012-.2-.012a2.04,2.04,0,0,0-2.123,2.326v3.215h-.851V472.4h.815v1.236A2.378,2.378,0,0,1,410.566,472.351Z" fill="#fdffeb"/><path d="M417.537,475.816H412.26a2.334,2.334,0,0,0,2.482,2.195,2.488,2.488,0,0,0,1.931-.827l.48.551a3.335,3.335,0,0,1-5.745-2.182,3.038,3.038,0,0,1,3.082-3.2,3.005,3.005,0,0,1,3.059,3.2C417.549,475.624,417.537,475.721,417.537,475.816Zm-5.277-.635h4.473a2.241,2.241,0,0,0-4.473,0Z" fill="#fdffeb"/><path d="M423.873,474.8v3.91h-.815v-.983a2.371,2.371,0,0,1-2.171,1.043c-1.428,0-2.3-.744-2.3-1.835,0-.972.624-1.787,2.435-1.787h2v-.384c0-1.079-.612-1.667-1.788-1.667a3.21,3.21,0,0,0-2.1.744l-.384-.636a4,4,0,0,1,2.566-.851A2.24,2.24,0,0,1,423.873,474.8Zm-.851,2.015V475.78h-1.98c-1.223,0-1.619.48-1.619,1.128,0,.732.588,1.187,1.6,1.187A2.018,2.018,0,0,0,423.022,476.812Z" fill="#fdffeb"/><path d="M429.514,478.323a2.028,2.028,0,0,1-1.331.444,1.672,1.672,0,0,1-1.848-1.835v-3.814h-1.126v-.72h1.126v-1.379h.852V472.4h1.919v.72h-1.919v3.766a1.01,1.01,0,0,0,1.092,1.151,1.409,1.409,0,0,0,.935-.324Z" fill="#fdffeb"/><path d="M431.064,469.808h.852v8.9h-.852Z" fill="#fdffeb"/><path d="M439.593,472.4l-3.155,7.064c-.527,1.235-1.2,1.632-2.1,1.632a2.16,2.16,0,0,1-1.535-.576l.4-.636a1.576,1.576,0,0,0,1.152.48c.564,0,.947-.264,1.307-1.055l.276-.613-2.818-6.3H434l2.375,5.362,2.374-5.362Z" fill="#fdffeb"/><path d="M447.118,472.351v.827c-.072,0-.144-.012-.2-.012a2.04,2.04,0,0,0-2.122,2.326v3.215h-.852V472.4h.815v1.236A2.379,2.379,0,0,1,447.118,472.351Z" fill="#fdffeb"/><path d="M454.089,475.816h-5.277a2.335,2.335,0,0,0,2.482,2.195,2.491,2.491,0,0,0,1.932-.827l.479.551a3.335,3.335,0,0,1-5.745-2.182,3.038,3.038,0,0,1,3.082-3.2,3.005,3.005,0,0,1,3.059,3.2C454.1,475.624,454.089,475.721,454.089,475.816Zm-5.277-.635h4.474a2.242,2.242,0,0,0-4.474,0Z" fill="#fdffeb"/><path d="M461.6,469.808v8.9h-.816v-1.248a2.731,2.731,0,0,1-2.434,1.308,3.209,3.209,0,0,1,0-6.416,2.756,2.756,0,0,1,2.4,1.247v-3.79Zm-.84,5.745a2.347,2.347,0,1,0-2.338,2.458A2.307,2.307,0,0,0,460.761,475.553Z" fill="#fdffeb"/><path d="M469.665,472.4v6.309h-.816v-1.151a2.51,2.51,0,0,1-2.266,1.211,2.444,2.444,0,0,1-2.663-2.71V472.4h.852v3.575A1.765,1.765,0,0,0,466.667,478a2.051,2.051,0,0,0,2.146-2.291V472.4Z" fill="#fdffeb"/><path d="M471.42,475.553a3.1,3.1,0,0,1,3.25-3.2,2.758,2.758,0,0,1,2.471,1.247l-.636.431a2.147,2.147,0,0,0-1.835-.935,2.46,2.46,0,0,0,0,4.917,2.134,2.134,0,0,0,1.835-.923l.636.432a2.783,2.783,0,0,1-2.471,1.247A3.114,3.114,0,0,1,471.42,475.553Z" fill="#fdffeb"/><path d="M484.2,475.816h-5.277a2.334,2.334,0,0,0,2.482,2.195,2.491,2.491,0,0,0,1.932-.827l.48.551a3.336,3.336,0,0,1-5.746-2.182,3.038,3.038,0,0,1,3.082-3.2,3.005,3.005,0,0,1,3.059,3.2C484.208,475.624,484.2,475.721,484.2,475.816Zm-5.277-.635h4.474a2.242,2.242,0,0,0-4.474,0Z" fill="#fdffeb"/><path d="M491.708,469.808v8.9h-.815v-1.248a2.734,2.734,0,0,1-2.435,1.308,3.209,3.209,0,0,1,0-6.416,2.751,2.751,0,0,1,2.4,1.247v-3.79Zm-.84,5.745a2.347,2.347,0,1,0-2.338,2.458A2.307,2.307,0,0,0,490.868,475.553Z" fill="#fdffeb"/><path d="M500.554,478.323a2.029,2.029,0,0,1-1.332.444,1.671,1.671,0,0,1-1.847-1.835v-3.814h-1.127v-.72h1.127v-1.379h.852V472.4h1.919v.72h-1.919v3.766a1.01,1.01,0,0,0,1.091,1.151,1.405,1.405,0,0,0,.935-.324Z" fill="#fdffeb"/><path d="M507.908,475.049v3.658h-.851v-3.574a1.763,1.763,0,0,0-1.9-2.015,2.068,2.068,0,0,0-2.206,2.278v3.311H502.1v-8.9h.851V473.5a2.667,2.667,0,0,1,2.362-1.151A2.414,2.414,0,0,1,507.908,475.049Z" fill="#fdffeb"/><path d="M515.745,475.816h-5.277a2.334,2.334,0,0,0,2.482,2.195,2.488,2.488,0,0,0,1.931-.827l.48.551a3.335,3.335,0,0,1-5.745-2.182,3.038,3.038,0,0,1,3.082-3.2,3.005,3.005,0,0,1,3.059,3.2C515.757,475.624,515.745,475.721,515.745,475.816Zm-5.277-.635h4.473a2.241,2.241,0,0,0-4.473,0Z" fill="#fdffeb"/><path d="M520.008,475.553a3.1,3.1,0,0,1,3.25-3.2,2.758,2.758,0,0,1,2.471,1.247l-.636.431a2.147,2.147,0,0,0-1.835-.935,2.46,2.46,0,0,0,0,4.917,2.134,2.134,0,0,0,1.835-.923l.636.432a2.783,2.783,0,0,1-2.471,1.247A3.114,3.114,0,0,1,520.008,475.553Z" fill="#fdffeb"/><path d="M533.107,475.049v3.658h-.851v-3.574a1.761,1.761,0,0,0-1.895-2.015,2.068,2.068,0,0,0-2.207,2.278v3.311H527.3v-8.9h.851V473.5a2.667,2.667,0,0,1,2.363-1.151A2.414,2.414,0,0,1,533.107,475.049Z" fill="#fdffeb"/><path d="M540.188,474.8v3.91h-.816v-.983a2.37,2.37,0,0,1-2.171,1.043c-1.427,0-2.3-.744-2.3-1.835,0-.972.624-1.787,2.436-1.787h2v-.384c0-1.079-.612-1.667-1.787-1.667a3.217,3.217,0,0,0-2.1.744l-.384-.636a4.007,4.007,0,0,1,2.568-.851A2.24,2.24,0,0,1,540.188,474.8Zm-.851,2.015V475.78h-1.98c-1.223,0-1.619.48-1.619,1.128,0,.732.588,1.187,1.6,1.187A2.018,2.018,0,0,0,539.337,476.812Z" fill="#fdffeb"/><path d="M548.312,475.049v3.658h-.852v-3.574a1.761,1.761,0,0,0-1.9-2.015,2.068,2.068,0,0,0-2.207,2.278v3.311h-.851V472.4h.815v1.164a2.651,2.651,0,0,1,2.4-1.211A2.414,2.414,0,0,1,548.312,475.049Z" fill="#fdffeb"/><path d="M550.02,475.553a3.1,3.1,0,0,1,3.25-3.2,2.756,2.756,0,0,1,2.47,1.247l-.635.431a2.147,2.147,0,0,0-1.835-.935,2.46,2.46,0,0,0,0,4.917,2.134,2.134,0,0,0,1.835-.923l.635.432a2.782,2.782,0,0,1-2.47,1.247A3.114,3.114,0,0,1,550.02,475.553Z" fill="#fdffeb"/><path d="M562.8,475.816H557.52A2.334,2.334,0,0,0,560,478.011a2.488,2.488,0,0,0,1.931-.827l.48.551a3.335,3.335,0,0,1-5.745-2.182,3.038,3.038,0,0,1,3.082-3.2,3.006,3.006,0,0,1,3.059,3.2C562.809,475.624,562.8,475.721,562.8,475.816Zm-5.277-.635h4.473a2.241,2.241,0,0,0-4.473,0Z" fill="#fdffeb"/><path d="M563.676,477.987l.384-.672a3.807,3.807,0,0,0,2.243.708c1.2,0,1.691-.408,1.691-1.031,0-1.643-4.09-.348-4.09-2.843,0-1.031.887-1.8,2.494-1.8a4.271,4.271,0,0,1,2.231.587l-.371.683a3.234,3.234,0,0,0-1.86-.539c-1.139,0-1.642.443-1.642,1.043,0,1.7,4.09.42,4.09,2.843,0,1.092-.96,1.8-2.6,1.8A4.21,4.21,0,0,1,563.676,477.987Z" fill="#fdffeb"/><path d="M572.928,475.553a3.208,3.208,0,1,1,3.214,3.214A3.1,3.1,0,0,1,572.928,475.553Zm5.552,0a2.347,2.347,0,1,0-2.338,2.458A2.3,2.3,0,0,0,578.48,475.553Z" fill="#fdffeb"/><path d="M582.06,471.654v.744H584v.72h-1.919v5.589h-.852v-5.589H580.1v-.72h1.126v-.779a1.737,1.737,0,0,1,1.908-1.871,1.994,1.994,0,0,1,1.258.4l-.287.635a1.442,1.442,0,0,0-.935-.311C582.443,470.468,582.06,470.875,582.06,471.654Z" fill="#fdffeb"/><path d="M591.621,478.323a2.028,2.028,0,0,1-1.331.444,1.672,1.672,0,0,1-1.848-1.835v-3.814h-1.127v-.72h1.127v-1.379h.852V472.4h1.919v.72h-1.919v3.766a1.01,1.01,0,0,0,1.092,1.151,1.409,1.409,0,0,0,.935-.324Z" fill="#fdffeb"/><path d="M598.976,475.049v3.658h-.852v-3.574a1.761,1.761,0,0,0-1.894-2.015,2.068,2.068,0,0,0-2.208,2.278v3.311h-.851v-8.9h.851V473.5a2.667,2.667,0,0,1,2.363-1.151A2.414,2.414,0,0,1,598.976,475.049Z" fill="#fdffeb"/><path d="M606.812,475.816h-5.278a2.335,2.335,0,0,0,2.483,2.195,2.486,2.486,0,0,0,1.93-.827l.481.551a3.335,3.335,0,0,1-5.745-2.182,3.038,3.038,0,0,1,3.082-3.2,3.005,3.005,0,0,1,3.058,3.2C606.823,475.624,606.812,475.721,606.812,475.816Zm-5.278-.635h4.474a2.242,2.242,0,0,0-4.474,0Z" fill="#fdffeb"/><path d="M611.744,472.351v.827c-.071,0-.143-.012-.2-.012a2.04,2.04,0,0,0-2.123,2.326v3.215h-.852V472.4h.816v1.236A2.377,2.377,0,0,1,611.744,472.351Z" fill="#fdffeb"/><path d="M618.716,475.816h-5.278a2.335,2.335,0,0,0,2.483,2.195,2.49,2.49,0,0,0,1.931-.827l.48.551a3.335,3.335,0,0,1-5.745-2.182,3.038,3.038,0,0,1,3.082-3.2,3.006,3.006,0,0,1,3.059,3.2C618.728,475.624,618.716,475.721,618.716,475.816Zm-5.278-.635h4.474a2.242,2.242,0,0,0-4.474,0Z" fill="#fdffeb"/><path d="M405.548,489.952a3.062,3.062,0,0,1-3.142,3.215,2.733,2.733,0,0,1-2.435-1.308v1.247h-.815v-8.9h.851V488a2.757,2.757,0,0,1,2.4-1.247A3.052,3.052,0,0,1,405.548,489.952Zm-.851,0a2.353,2.353,0,1,0-2.351,2.459A2.317,2.317,0,0,0,404.7,489.952Z" fill="#fdffeb"/><path d="M412.784,490.216h-5.277a2.336,2.336,0,0,0,2.483,2.2,2.49,2.49,0,0,0,1.931-.827l.479.551a3.334,3.334,0,0,1-5.744-2.183,3.038,3.038,0,0,1,3.082-3.2,3.006,3.006,0,0,1,3.058,3.2C412.8,490.024,412.784,490.12,412.784,490.216Zm-5.277-.635h4.474a2.241,2.241,0,0,0-4.474,0Z" fill="#fdffeb"/><path d="M414.348,484.808a.614.614,0,0,1,.623-.6.6.6,0,0,1,.624.587.624.624,0,0,1-1.247.013Zm.192,1.99h.851v6.308h-.851Z" fill="#fdffeb"/><path d="M423.572,489.448v3.658h-.851v-3.574a1.761,1.761,0,0,0-1.9-2.014,2.068,2.068,0,0,0-2.207,2.279v3.309h-.851V486.8h.815v1.164a2.65,2.65,0,0,1,2.4-1.212A2.415,2.415,0,0,1,423.572,489.448Z" fill="#fdffeb"/><path d="M431.756,486.8v5.541c0,2.171-1.067,3.154-3.154,3.154a4.391,4.391,0,0,1-2.938-.972l.431-.647a3.753,3.753,0,0,0,2.483.863c1.6,0,2.327-.731,2.327-2.29v-.8a2.84,2.84,0,0,1-2.459,1.223,3.06,3.06,0,1,1,0-6.117,2.845,2.845,0,0,1,2.494,1.26V486.8Zm-.827,3a2.394,2.394,0,1,0-2.4,2.314A2.256,2.256,0,0,0,430.929,489.8Z" fill="#fdffeb"/><path d="M442.053,489.2v3.909h-.816v-.983a2.367,2.367,0,0,1-2.171,1.044c-1.427,0-2.3-.744-2.3-1.835,0-.972.623-1.787,2.434-1.787h2v-.384c0-1.08-.612-1.667-1.787-1.667a3.214,3.214,0,0,0-2.1.743l-.383-.635a4,4,0,0,1,2.566-.852A2.241,2.241,0,0,1,442.053,489.2Zm-.852,2.015v-1.031h-1.979c-1.223,0-1.619.479-1.619,1.127,0,.731.588,1.187,1.6,1.187A2.019,2.019,0,0,0,441.2,491.212Z" fill="#fdffeb"/><path d="M450.176,489.448v3.658h-.851v-3.574a1.761,1.761,0,0,0-1.9-2.014,2.068,2.068,0,0,0-2.207,2.279v3.309h-.851V486.8h.815v1.164a2.65,2.65,0,0,1,2.4-1.212A2.415,2.415,0,0,1,450.176,489.448Z" fill="#fdffeb"/><path d="M457.677,486.8l-3.155,7.064c-.527,1.236-1.2,1.631-2.1,1.631a2.155,2.155,0,0,1-1.535-.575l.395-.636a1.576,1.576,0,0,0,1.152.48c.564,0,.947-.264,1.307-1.056l.276-.611-2.818-6.3h.887l2.375,5.361,2.374-5.361Z" fill="#fdffeb"/><path d="M461.388,489.952a3.1,3.1,0,0,1,3.25-3.2,2.755,2.755,0,0,1,2.47,1.247l-.635.433a2.144,2.144,0,0,0-1.835-.936,2.46,2.46,0,0,0,0,4.917,2.133,2.133,0,0,0,1.835-.924l.635.432a2.779,2.779,0,0,1-2.47,1.248A3.115,3.115,0,0,1,461.388,489.952Z" fill="#fdffeb"/><path d="M468.036,489.952a3.209,3.209,0,1,1,3.215,3.215A3.1,3.1,0,0,1,468.036,489.952Zm5.553,0a2.348,2.348,0,1,0-2.338,2.459A2.3,2.3,0,0,0,473.589,489.952Z" fill="#fdffeb"/><path d="M475.32,492.387l.384-.671a3.813,3.813,0,0,0,2.242.707c1.2,0,1.692-.407,1.692-1.031,0-1.644-4.09-.348-4.09-2.843,0-1.031.888-1.8,2.494-1.8a4.283,4.283,0,0,1,2.231.588l-.372.683a3.238,3.238,0,0,0-1.859-.54c-1.139,0-1.643.445-1.643,1.044,0,1.7,4.09.42,4.09,2.842,0,1.092-.96,1.8-2.6,1.8A4.214,4.214,0,0,1,475.32,492.387Z" fill="#fdffeb"/><path d="M485.386,492.723a2.033,2.033,0,0,1-1.331.444,1.672,1.672,0,0,1-1.848-1.835v-3.814H481.08v-.72h1.127v-1.379h.852V486.8h1.919v.72h-1.919v3.765a1.01,1.01,0,0,0,1.091,1.152,1.41,1.41,0,0,0,.936-.324Z" fill="#fdffeb"/><path d="M486.936,484.208h.851v8.9h-.851Z" fill="#fdffeb"/><path d="M495.465,486.8l-3.154,7.064c-.528,1.236-1.2,1.631-2.1,1.631a2.157,2.157,0,0,1-1.535-.575l.395-.636a1.576,1.576,0,0,0,1.152.48c.563,0,.947-.264,1.307-1.056l.276-.611-2.819-6.3h.888l2.375,5.361,2.374-5.361Z" fill="#fdffeb"/><path d="M510.222,489.448v3.658h-.851v-3.574c0-1.331-.672-2.014-1.811-2.014a2.028,2.028,0,0,0-2.112,2.279v3.309H504.6v-3.574c0-1.331-.671-2.014-1.823-2.014a2.033,2.033,0,0,0-2.111,2.279v3.309h-.851V486.8h.815v1.151a2.553,2.553,0,0,1,2.315-1.2,2.267,2.267,0,0,1,2.243,1.331,2.748,2.748,0,0,1,2.495-1.331A2.381,2.381,0,0,1,510.222,489.448Z" fill="#fdffeb"/><path d="M512.351,484.808a.614.614,0,0,1,.624-.6.606.606,0,0,1,.624.587.624.624,0,0,1-1.248.013Zm.192,1.99h.852v6.308h-.852Z" fill="#fdffeb"/><path d="M514.9,492.387l.383-.671a3.819,3.819,0,0,0,2.244.707c1.2,0,1.691-.407,1.691-1.031,0-1.644-4.09-.348-4.09-2.843,0-1.031.887-1.8,2.494-1.8a4.283,4.283,0,0,1,2.231.588l-.371.683a3.243,3.243,0,0,0-1.86-.54c-1.139,0-1.642.445-1.642,1.044,0,1.7,4.089.42,4.089,2.842,0,1.092-.959,1.8-2.6,1.8A4.21,4.21,0,0,1,514.9,492.387Z" fill="#fdffeb"/><path d="M527.323,486.8v6.308h-.815v-1.151a2.51,2.51,0,0,1-2.267,1.212,2.444,2.444,0,0,1-2.663-2.711V486.8h.852v3.574a1.765,1.765,0,0,0,1.9,2.027,2.051,2.051,0,0,0,2.147-2.291V486.8Z" fill="#fdffeb"/><path d="M535.52,489.448v3.658h-.852v-3.574a1.761,1.761,0,0,0-1.9-2.014,2.068,2.068,0,0,0-2.207,2.279v3.309h-.851V486.8h.815v1.164a2.652,2.652,0,0,1,2.4-1.212A2.415,2.415,0,0,1,535.52,489.448Z" fill="#fdffeb"/><path d="M543.62,484.208v8.9H542.8v-1.247a2.734,2.734,0,0,1-2.435,1.308,3.209,3.209,0,0,1,0-6.417,2.759,2.759,0,0,1,2.4,1.247v-3.789Zm-.84,5.744a2.347,2.347,0,1,0-2.339,2.459A2.307,2.307,0,0,0,542.78,489.952Z" fill="#fdffeb"/><path d="M551.492,490.216h-5.277a2.335,2.335,0,0,0,2.482,2.2,2.488,2.488,0,0,0,1.931-.827l.48.551a3.335,3.335,0,0,1-5.745-2.183,3.038,3.038,0,0,1,3.082-3.2,3.007,3.007,0,0,1,3.059,3.2C551.5,490.024,551.492,490.12,551.492,490.216Zm-5.277-.635h4.473a2.241,2.241,0,0,0-4.473,0Z" fill="#fdffeb"/><path d="M556.425,486.75v.828c-.071,0-.144-.013-.2-.013a2.041,2.041,0,0,0-2.123,2.328v3.213h-.852V486.8h.816v1.235A2.378,2.378,0,0,1,556.425,486.75Z" fill="#fdffeb"/><path d="M557.135,492.387l.384-.671a3.814,3.814,0,0,0,2.243.707c1.2,0,1.691-.407,1.691-1.031,0-1.644-4.09-.348-4.09-2.843,0-1.031.887-1.8,2.494-1.8a4.281,4.281,0,0,1,2.231.588l-.371.683a3.243,3.243,0,0,0-1.86-.54c-1.139,0-1.642.445-1.642,1.044,0,1.7,4.09.42,4.09,2.842,0,1.092-.96,1.8-2.6,1.8A4.21,4.21,0,0,1,557.135,492.387Z" fill="#fdffeb"/><path d="M567.2,492.723a2.033,2.033,0,0,1-1.331.444,1.672,1.672,0,0,1-1.848-1.835v-3.814H562.9v-.72h1.126v-1.379h.852V486.8h1.919v.72h-1.919v3.765a1.011,1.011,0,0,0,1.092,1.152,1.409,1.409,0,0,0,.935-.324Z" fill="#fdffeb"/><path d="M573.512,489.2v3.909H572.7v-.983a2.367,2.367,0,0,1-2.171,1.044c-1.426,0-2.3-.744-2.3-1.835,0-.972.624-1.787,2.435-1.787h2v-.384c0-1.08-.612-1.667-1.787-1.667a3.219,3.219,0,0,0-2.1.743l-.383-.635a4,4,0,0,1,2.567-.852A2.24,2.24,0,0,1,573.512,489.2Zm-.851,2.015v-1.031h-1.979c-1.224,0-1.619.479-1.619,1.127,0,.731.587,1.187,1.6,1.187A2.019,2.019,0,0,0,572.661,491.212Z" fill="#fdffeb"/><path d="M581.636,489.448v3.658h-.852v-3.574a1.76,1.76,0,0,0-1.894-2.014,2.068,2.068,0,0,0-2.207,2.279v3.309h-.852V486.8h.816v1.164a2.65,2.65,0,0,1,2.4-1.212A2.415,2.415,0,0,1,581.636,489.448Z" fill="#fdffeb"/><path d="M589.735,484.208v8.9h-.815v-1.247a2.734,2.734,0,0,1-2.435,1.308,3.209,3.209,0,0,1,0-6.417,2.759,2.759,0,0,1,2.4,1.247v-3.789Zm-.839,5.744a2.348,2.348,0,1,0-2.339,2.459A2.307,2.307,0,0,0,588.9,489.952Z" fill="#fdffeb"/><path d="M591.922,484.808a.614.614,0,0,1,.624-.6.6.6,0,0,1,.624.587.624.624,0,0,1-1.248.013Zm.192,1.99h.852v6.308h-.852Z" fill="#fdffeb"/><path d="M601.147,489.448v3.658h-.852v-3.574a1.761,1.761,0,0,0-1.895-2.014,2.068,2.068,0,0,0-2.207,2.279v3.309h-.851V486.8h.815v1.164a2.652,2.652,0,0,1,2.4-1.212A2.415,2.415,0,0,1,601.147,489.448Z" fill="#fdffeb"/><path d="M609.331,486.8v5.541c0,2.171-1.067,3.154-3.154,3.154a4.392,4.392,0,0,1-2.939-.972l.432-.647a3.755,3.755,0,0,0,2.482.863c1.6,0,2.328-.731,2.328-2.29v-.8a2.843,2.843,0,0,1-2.459,1.223,3.06,3.06,0,1,1,0-6.117,2.849,2.849,0,0,1,2.495,1.26V486.8Zm-.828,3a2.394,2.394,0,1,0-2.4,2.314A2.255,2.255,0,0,0,608.5,489.8Z" fill="#fdffeb"/><path d="M610.846,492.387l.384-.671a3.814,3.814,0,0,0,2.243.707c1.2,0,1.691-.407,1.691-1.031,0-1.644-4.09-.348-4.09-2.843,0-1.031.887-1.8,2.494-1.8a4.281,4.281,0,0,1,2.231.588l-.371.683a3.243,3.243,0,0,0-1.86-.54c-1.139,0-1.642.445-1.642,1.044,0,1.7,4.09.42,4.09,2.842,0,1.092-.96,1.8-2.6,1.8A4.21,4.21,0,0,1,610.846,492.387Z" fill="#fdffeb"/><path d="M617.038,492.507a.635.635,0,0,1,.636-.648.644.644,0,0,1,.647.648.655.655,0,0,1-.647.66A.646.646,0,0,1,617.038,492.507Z" fill="#fdffeb"/><g transform="translate(435.036 431.813) rotate(180)"><g transform="translate(12.516)" fill="url(#a)"><path d="M 35.18596267700195 69.37203979492188 C 30.57044219970703 69.37203979492188 26.0935230255127 68.46830749511719 21.87955284118652 66.68594360351562 C 17.8088321685791 64.96417236328125 14.15274238586426 62.49908828735352 11.01284313201904 59.35918807983398 C 7.872932910919189 56.21928024291992 5.407862663269043 52.56317901611328 3.686092615127563 48.49245071411133 C 1.903732657432556 44.27848052978516 1.00000262260437 39.80154037475586 1.00000262260437 35.18601989746094 C 1.00000262260437 30.57049942016602 1.903732657432556 26.09355926513672 3.686092615127563 21.87958908081055 C 5.407862663269043 17.80886077880859 7.872932910919189 14.15275955200195 11.01284313201904 11.01284980773926 C 14.15274238586426 7.872950077056885 17.8088321685791 5.407869815826416 21.87955284118652 3.686100006103516 C 26.0935230255127 1.903729915618896 30.57044219970703 0.9999998807907104 35.18596267700195 0.9999998807907104 C 39.80148315429688 0.9999998807907104 44.27840423583984 1.903729915618896 48.49238204956055 3.686100006103516 C 52.56310272216797 5.407869815826416 56.21919250488281 7.872950077056885 59.35909271240234 11.01284980773926 C 62.49899291992188 14.15275955200195 64.96406555175781 17.80886077880859 66.68582916259766 21.87958908081055 C 68.46819305419922 26.09355926513672 69.37192535400391 30.57049942016602 69.37192535400391 35.18601989746094 C 69.37192535400391 39.80154037475586 68.46819305419922 44.27848052978516 66.68582916259766 48.49245071411133 C 64.96406555175781 52.56317901611328 62.49899291992188 56.21928024291992 59.35909271240234 59.35918807983398 C 56.21919250488281 62.49908828735352 52.56310272216797 64.96417236328125 48.49238204956055 66.68594360351562 C 44.27840423583984 68.46830749511719 39.80148315429688 69.37203979492188 35.18596267700195 69.37203979492188 Z" stroke="none"/><path d="M 35.18596267700195 68.37203979492188 C 39.66691970825195 68.37203979492188 44.01278305053711 67.49488830566406 48.10282897949219 65.76493835449219 C 52.05435180664062 64.09358978271484 55.60359573364258 61.70047378540039 58.65198516845703 58.6520881652832 C 61.70037460327148 55.60368728637695 64.09348297119141 52.0544319152832 65.76483154296875 48.10290908813477 C 67.49477386474609 44.01285171508789 68.37193298339844 39.66698837280273 68.37193298339844 35.18601989746094 C 68.37193298339844 30.70505332946777 67.49477386474609 26.35918617248535 65.76483154296875 22.26913070678711 C 64.09348297119141 18.31760787963867 61.70037460327148 14.76835346221924 58.65198516845703 11.7199535369873 C 55.60359573364258 8.671564102172852 52.05435180664062 6.278453350067139 48.10282897949219 4.607097625732422 C 44.01278305053711 2.877153158187866 39.66691970825195 1.999997615814209 35.18596267700195 1.999997615814209 C 30.70500755310059 1.999997615814209 26.35915184020996 2.877153158187866 22.26910781860352 4.607097625732422 C 18.31758499145508 6.278453350067139 14.76832962036133 8.671564102172852 11.71994018554688 11.7199535369873 C 8.671551704406738 14.76835346221924 6.278451442718506 18.31760787963867 4.607096195220947 22.26914215087891 C 2.877151489257812 26.35918617248535 1.999996066093445 30.70505332946777 1.999996066093445 35.18601989746094 C 1.999996066093445 39.66698837280273 2.877151489257812 44.01285171508789 4.607096195220947 48.10289764404297 C 6.278451442718506 52.0544319152832 8.671551704406738 55.60368728637695 11.71994018554688 58.6520881652832 C 14.76832962036133 61.70047378540039 18.31758499145508 64.09358978271484 22.26910781860352 65.76493835449219 C 26.35915184020996 67.49488830566406 30.70500755310059 68.37203979492188 35.18596267700195 68.37203979492188 M 35.18596267700195 70.37203979492188 C 15.7532958984375 70.37203979492188 -3.989664492110023e-06 54.61872100830078 -3.989664492110023e-06 35.18601989746094 C -3.989664492110023e-06 15.75331974029541 15.7532958984375 -2.324761226191185e-06 35.18596267700195 -2.324761226191185e-06 C 54.6186408996582 -2.324761226191185e-06 70.37193298339844 15.75331974029541 70.37193298339844 35.18601989746094 C 70.37193298339844 54.61872100830078 54.6186408996582 70.37203979492188 35.18596267700195 70.37203979492188 Z" stroke="none" fill="#a800b0"/></g><g transform="translate(26.721 14.125)"><g transform="translate(6.289 0)"><g transform="translate(0)"><path d="M2.726,1.3,1.49,3.036a.821.821,0,1,1-1.338-.95L1.387.346a.821.821,0,0,1,1.338.95Z" transform="translate(0)" fill="#fffcd6"/></g></g><g transform="translate(0)"><g transform="translate(0)"><path d="M18.483.989,17.139,7.4a12.087,12.087,0,0,1-5.112,7.588L9.156,16.917a2.888,2.888,0,0,1-3.661-.374v9.889a2.748,2.748,0,0,1-4.467,2.143A2.734,2.734,0,0,1,0,26.433V13.707A7.95,7.95,0,0,1,1.475,9.081L2.939,7.019a.821.821,0,0,1,1.338.95L2.814,10.031a6.317,6.317,0,0,0-1.172,3.676V26.433a1.106,1.106,0,0,0,2.212,0v-10.1a5.735,5.735,0,0,1,1.479-3.85c.041-.049.083-.1.127-.145.545-.578,1.186-1.258,1.789-1.9l.845-.9L8.1,9.535,9.37,8.186a.821.821,0,1,1,1.2,1.124L8.493,11.515l-1.882,2-.014.016a1.385,1.385,0,0,0,.027,1.815,1.241,1.241,0,0,0,1.616.206l2.871-1.93a10.454,10.454,0,0,0,4.421-6.563L16.877.652a.821.821,0,1,1,1.606.337Z" fill="#fffcd6"/></g></g><g transform="translate(4.586 4.131)"><g transform="translate(0)"><path d="M1.494,1.3,1.489,1.3A.821.821,0,1,1,.153.351L.158.344A.821.821,0,1,1,1.494,1.3Z" transform="translate(0)" fill="#fffcd6"/></g></g><g transform="translate(23.52 0)"><g transform="translate(0)"><path d="M17.473,28.576a2.747,2.747,0,0,1-4.467-2.143V16.543a2.888,2.888,0,0,1-3.661.374l-2.871-1.93A12.086,12.086,0,0,1,1.362,7.4L.018.989A.821.821,0,1,1,1.624.652L2.969,7.061A10.454,10.454,0,0,0,7.39,13.624l2.871,1.93a1.241,1.241,0,0,0,1.616-.206,1.385,1.385,0,0,0,.029-1.813l-.016-.017L7.935,9.31a.821.821,0,1,1,1.2-1.124c.011.012,3.365,3.578,3.91,4.155.044.047.086.1.127.145a5.735,5.735,0,0,1,1.479,3.85v10.1a1.106,1.106,0,1,0,2.212,0V13.707a6.317,6.317,0,0,0-1.172-3.676L9.487,1.3a.821.821,0,1,1,1.338-.95l6.2,8.735A7.95,7.95,0,0,1,18.5,13.707V26.433A2.735,2.735,0,0,1,17.473,28.576Z" transform="translate(0)" fill="#fffcd6"/></g></g><g transform="translate(7.665 16.114)"><g transform="translate(0 0)"><path d="M23.741,10.178l-1.46.349v.262a3.671,3.671,0,0,1,1.571,3.01v1.9A3.67,3.67,0,0,1,17.8,18.488a4.792,4.792,0,0,1-8.882-.007A3.67,3.67,0,0,1,2.85,15.7V13.8a3.671,3.671,0,0,1,1.571-3.01v-.262l-1.46-.349A3.845,3.845,0,0,1,0,6.426V4.893a.821.821,0,0,1,.821-.821H4.592c-.006-.1-.01-.2-.01-.3V.821A.821.821,0,0,1,5.4,0h4.933a.821.821,0,1,1,0,1.641H9.488v1.7a.821.821,0,0,1-1.641,0v-1.7H6.224v2.13A3.4,3.4,0,0,0,8.838,7.087l2.252.54L12.6,4.2a.821.821,0,0,1,.751-.49h0a.821.821,0,0,1,.751.49l1.506,3.424,2.245-.536A3.4,3.4,0,0,0,20.468,3.77V1.641H18.845v1.7a.821.821,0,0,1-1.641,0v-1.7h-.93a.821.821,0,0,1,0-1.641h5.016a.821.821,0,0,1,.821.821V3.77c0,.1,0,.2-.01.3h3.782a.821.821,0,0,1,.821.821V6.426A3.845,3.845,0,0,1,23.741,10.178Zm-3.562,7.551a2.034,2.034,0,0,0,2.027-1.9H21.065a5.982,5.982,0,0,0-2.752.671A2.034,2.034,0,0,0,20.179,17.728Zm-2.032-3.81c0,.04,0,.08,0,.12v.731a7.624,7.624,0,0,1,2.915-.58h1.145V13.8a2.032,2.032,0,1,0-4.064,0ZM10.2,16.682h0a3.153,3.153,0,0,0,6.265.5l-1.382.812a.821.821,0,0,1-1.045-.181,3.536,3.536,0,0,0-2.717-1.268H10.2ZM6.523,17.728A2.035,2.035,0,0,0,8.389,16.5a5.982,5.982,0,0,0-2.752-.671H4.5A2.034,2.034,0,0,0,6.523,17.728ZM4.491,14.189H5.637a7.624,7.624,0,0,1,2.918.581V13.8a2.032,2.032,0,0,0-4.064,0ZM8.456,8.683A5.033,5.033,0,0,1,4.968,5.714H1.641v.712a2.209,2.209,0,0,0,1.7,2.155l2.09.5a.821.821,0,0,1,.63.8v.276a3.562,3.562,0,0,1,.918,0V9.92c0-.012,0-.024,0-.037a.822.822,0,0,1,.667-.808l1.224-.293Zm2.289,1.274a3.851,3.851,0,0,1-.657.222l-1.466.351v.256a3.7,3.7,0,0,1,.711.65,4.832,4.832,0,0,1,1.412-1.415ZM14.31,8.751l-.96-2.184-.963,2.19v.586a4.81,4.81,0,0,1,1.923,0Zm-.953,2.134A3.156,3.156,0,0,0,10.2,14.038V14.9h1.122a5.171,5.171,0,0,1,3.487,1.347l1.693-.994v-1.34A3.156,3.156,0,0,0,13.356,10.885Zm2.595-.931v.056a4.83,4.83,0,0,1,1.424,1.419,3.7,3.7,0,0,1,.705-.643V10.53l-1.466-.351A3.864,3.864,0,0,1,15.951,9.955Zm9.11-4.241H21.723a5.032,5.032,0,0,1-3.49,2.968l-.412.1,1.231.295a.822.822,0,0,1,.671.808c0,.006,0,.013,0,.019v.252a3.562,3.562,0,0,1,.918,0V9.879a.821.821,0,0,1,.63-.8l2.09-.5a2.209,2.209,0,0,0,1.7-2.155Z" transform="translate(0 0)" fill="#fffcd6"/></g></g><g transform="translate(20.19 16.114)"><path d="M1.4,1.4A.821.821,0,0,1,0,.821.821.821,0,0,1,1.4.24.821.821,0,0,1,1.4,1.4Z" fill="#fffcd6"/></g><g transform="translate(20.189 39.152)"><g transform="translate(0 0)"><path d="M.821,2.87A.821.821,0,0,1,0,2.049V.821a.821.821,0,1,1,1.641,0V2.049A.821.821,0,0,1,.821,2.87Z" transform="translate(0 0)" fill="#fffcd6"/></g></g><g transform="translate(15.725 37.943)"><g transform="translate(0 0)"><path d="M2.262,1.4l-.861.86A.821.821,0,1,1,.241,1.1L1.1.24A.821.821,0,1,1,2.262,1.4Z" transform="translate(0 0)" fill="#fffcd6"/></g></g><g transform="translate(23.78 37.927)"><g transform="translate(0)"><path d="M2.255,2.257a.821.821,0,0,1-1.161,0L.24,1.4A.821.821,0,1,1,1.4.241l.854.855A.821.821,0,0,1,2.255,2.257Z" transform="translate(0)" fill="#fffcd6"/></g></g></g></g><g transform="translate(435.896 361.438)"><path d="M1.491,17.019H4.4V4.426H1.491ZM13.066,7.2a5.288,5.288,0,0,0-.947.083,4.5,4.5,0,0,0-.861.245,3.925,3.925,0,0,0-.757.4,3.594,3.594,0,0,0-.634.549V7.34H7.188v9.679h2.8V12.234a3.583,3.583,0,0,1,.173-1.159,2.177,2.177,0,0,1,.481-.813,1.957,1.957,0,0,1,.734-.479,2.641,2.641,0,0,1,.931-.157,2.328,2.328,0,0,1,.829.137,1.547,1.547,0,0,1,.615.419,1.861,1.861,0,0,1,.383.712,3.533,3.533,0,0,1,.132,1.018v5.11h2.8V11.478a5.557,5.557,0,0,0-.305-1.914,3.542,3.542,0,0,0-.843-1.334,3.436,3.436,0,0,0-1.271-.78A4.759,4.759,0,0,0,13.066,7.2ZM25.1,14.574a1.591,1.591,0,0,1-.248.155,1.828,1.828,0,0,1-.278.113,2,2,0,0,1-.3.069,2.056,2.056,0,0,1-.309.023,1.452,1.452,0,0,1-.507-.083,1,1,0,0,1-.379-.245,1.068,1.068,0,0,1-.237-.4,1.7,1.7,0,0,1-.082-.549V9.715h2.41V7.555h-2.41V5.2H19.953V7.555H18.46v2.16h1.493v3.977a4.354,4.354,0,0,0,.244,1.515,2.8,2.8,0,0,0,.707,1.086,2.992,2.992,0,0,0,1.136.654,4.927,4.927,0,0,0,1.528.219,5.413,5.413,0,0,0,.64-.037,4.63,4.63,0,0,0,.61-.113,3.62,3.62,0,0,0,.556-.191,2.66,2.66,0,0,0,.478-.27Zm11.515-2.357a5.555,5.555,0,0,0-.387-2.1,4.534,4.534,0,0,0-1.066-1.581,4.674,4.674,0,0,0-1.6-1,5.856,5.856,0,0,0-4.038.025A4.925,4.925,0,0,0,27.885,8.6,4.706,4.706,0,0,0,26.8,10.179a5.144,5.144,0,0,0-.392,2,5.069,5.069,0,0,0,.392,1.994,4.57,4.57,0,0,0,1.114,1.579,5.1,5.1,0,0,0,1.742,1.039,6.712,6.712,0,0,0,2.275.374,7.252,7.252,0,0,0,1.234-.1,5.487,5.487,0,0,0,1.08-.3,4.5,4.5,0,0,0,.922-.49,4.176,4.176,0,0,0,.758-.678l-1.494-1.62a3.72,3.72,0,0,1-.516.412,3.059,3.059,0,0,1-.563.292,3.211,3.211,0,0,1-.631.174,4.227,4.227,0,0,1-.719.058,3.7,3.7,0,0,1-1.017-.134,2.7,2.7,0,0,1-.82-.386,2.284,2.284,0,0,1-.594-.612,2.437,2.437,0,0,1-.339-.813h7.323c0-.059.01-.122.016-.186s.012-.132.018-.2.011-.132.014-.195S36.611,12.271,36.611,12.217Zm-5.02-2.9a2.635,2.635,0,0,1,.875.143A2.2,2.2,0,0,1,33.688,10.5a2.614,2.614,0,0,1,.278.831H29.2a2.621,2.621,0,0,1,.278-.839,2.185,2.185,0,0,1,.514-.635,2.221,2.221,0,0,1,.716-.4A2.726,2.726,0,0,1,31.591,9.318Zm9.574-.7V7.338H38.483v9.686h2.808V12.451a3.605,3.605,0,0,1,.184-1.2A2.186,2.186,0,0,1,42,10.405a2.132,2.132,0,0,1,.812-.494,3.234,3.234,0,0,1,1.055-.161c.054,0,.106,0,.157,0l.152.008.155.012.167.013V7.193a5.859,5.859,0,0,0-1.055.091,4.312,4.312,0,0,0-.914.27A3.407,3.407,0,0,0,41.763,8,3.091,3.091,0,0,0,41.165,8.616Zm10.73-1.423a5.25,5.25,0,0,0-.924.078,4.031,4.031,0,0,0-.821.235,3.376,3.376,0,0,0-.709.394,3.245,3.245,0,0,0-.589.554V7.337H46.169V20.518h2.809V16a3.395,3.395,0,0,0,1.276.883,3.951,3.951,0,0,0,.777.217,5.016,5.016,0,0,0,.864.072,5.146,5.146,0,0,0,1.9-.351,4.5,4.5,0,0,0,1.532-1,4.579,4.579,0,0,0,1.022-1.572,5.913,5.913,0,0,0,0-4.127,4.58,4.58,0,0,0-1.022-1.572,4.5,4.5,0,0,0-1.532-1A5.146,5.146,0,0,0,51.895,7.193Zm-.486,7.672a2.59,2.59,0,0,1-.978-.184,2.245,2.245,0,0,1-.782-.53,2.423,2.423,0,0,1-.519-.844,3.466,3.466,0,0,1,0-2.252,2.422,2.422,0,0,1,.519-.844,2.245,2.245,0,0,1,.782-.53,2.695,2.695,0,0,1,1.956,0,2.245,2.245,0,0,1,.782.53,2.422,2.422,0,0,1,.519.844,3.466,3.466,0,0,1,0,2.252,2.422,2.422,0,0,1-.519.844,2.245,2.245,0,0,1-.782.53A2.589,2.589,0,0,1,51.409,14.865ZM68.09,12.218a5.555,5.555,0,0,0-.388-2.1,4.537,4.537,0,0,0-1.067-1.582,4.68,4.68,0,0,0-1.6-1,5.868,5.868,0,0,0-4.044.025A4.932,4.932,0,0,0,59.352,8.6a4.709,4.709,0,0,0-1.085,1.579,5.144,5.144,0,0,0-.392,2,5.069,5.069,0,0,0,.393,2,4.574,4.574,0,0,0,1.116,1.58,5.105,5.105,0,0,0,1.744,1.04,6.726,6.726,0,0,0,2.278.375,7.267,7.267,0,0,0,1.236-.1,5.5,5.5,0,0,0,1.082-.3,4.5,4.5,0,0,0,.923-.49,4.18,4.18,0,0,0,.759-.678l-1.5-1.621a3.724,3.724,0,0,1-.517.412,3.064,3.064,0,0,1-.564.292,3.217,3.217,0,0,1-.632.174,4.236,4.236,0,0,1-.72.058,3.706,3.706,0,0,1-1.019-.134,2.7,2.7,0,0,1-.821-.386,2.287,2.287,0,0,1-.595-.612,2.438,2.438,0,0,1-.34-.813h7.333c0-.059.01-.122.016-.187s.012-.132.018-.2.011-.132.014-.2S68.09,12.272,68.09,12.218Zm-5.027-2.9a2.64,2.64,0,0,1,.876.143A2.2,2.2,0,0,1,65.163,10.5a2.614,2.614,0,0,1,.278.832H60.667a2.622,2.622,0,0,1,.278-.84,2.187,2.187,0,0,1,.515-.635,2.224,2.224,0,0,1,.717-.4A2.731,2.731,0,0,1,63.063,9.318Zm9.587-.7V7.335H69.964v9.693h2.812V12.452a3.606,3.606,0,0,1,.185-1.205,2.187,2.187,0,0,1,.523-.842,2.135,2.135,0,0,1,.813-.494,3.24,3.24,0,0,1,1.057-.161c.054,0,.106,0,.157,0l.152.008.155.012.167.013V7.191a5.871,5.871,0,0,0-1.056.091,4.321,4.321,0,0,0-.916.27A3.413,3.413,0,0,0,73.249,8,3.094,3.094,0,0,0,72.65,8.615Zm8.311,8.559a7.682,7.682,0,0,0,1.94-.228,4.5,4.5,0,0,0,1.438-.637,2.853,2.853,0,0,0,.894-.975,2.575,2.575,0,0,0,.307-1.242,2.313,2.313,0,0,0-.916-1.984,4.92,4.92,0,0,0-2.015-.764c-.733-.142-1.465-.216-2.014-.359s-.916-.353-.916-.768a.637.637,0,0,1,.1-.354.891.891,0,0,1,.324-.286,1.932,1.932,0,0,1,.561-.191,4.237,4.237,0,0,1,.814-.07,6.128,6.128,0,0,1,.675.037,5.625,5.625,0,0,1,.7.121,5.431,5.431,0,0,1,.709.222,5.568,5.568,0,0,1,.716.341l.938-2a4.75,4.75,0,0,0-.784-.36,7.466,7.466,0,0,0-.927-.266,9.535,9.535,0,0,0-2.022-.221,7.252,7.252,0,0,0-1.9.232,4.347,4.347,0,0,0-1.411.647,2.875,2.875,0,0,0-.88.992,2.692,2.692,0,0,0-.3,1.265,2.354,2.354,0,0,0,.916,2.011,4.809,4.809,0,0,0,2.014.766c.732.139,1.465.206,2.014.337s.916.328.916.724a.689.689,0,0,1-.1.366.787.787,0,0,1-.309.278,1.849,1.849,0,0,1-.553.177,4.784,4.784,0,0,1-.827.062,6.338,6.338,0,0,1-.907-.068,7.154,7.154,0,0,1-.9-.191,6.652,6.652,0,0,1-.84-.3,5.005,5.005,0,0,1-.725-.382l-.937,2.018a4.717,4.717,0,0,0,.806.414,7.812,7.812,0,0,0,1.017.332,9.7,9.7,0,0,0,1.156.22A9.61,9.61,0,0,0,80.961,17.174Zm10.929,0a6.092,6.092,0,0,0,2.133-.369,5.027,5.027,0,0,0,1.685-1.032A4.651,4.651,0,0,0,96.814,14.2a5.288,5.288,0,0,0,0-4.024,4.652,4.652,0,0,0-1.107-1.58,5.027,5.027,0,0,0-1.685-1.032,6.349,6.349,0,0,0-4.269,0,5.06,5.06,0,0,0-1.691,1.032,4.66,4.66,0,0,0-1.112,1.579,5.254,5.254,0,0,0,0,4.024,4.66,4.66,0,0,0,1.112,1.579,5.06,5.06,0,0,0,1.691,1.032A6.115,6.115,0,0,0,91.89,17.176Zm0-2.307a2.617,2.617,0,0,1-.983-.184,2.279,2.279,0,0,1-.79-.53,2.429,2.429,0,0,1-.526-.845,3.418,3.418,0,0,1,0-2.254,2.429,2.429,0,0,1,.526-.845,2.279,2.279,0,0,1,.79-.53,2.709,2.709,0,0,1,1.962,0,2.249,2.249,0,0,1,.784.53,2.424,2.424,0,0,1,.52.845,3.466,3.466,0,0,1,0,2.254,2.424,2.424,0,0,1-.52.845,2.249,2.249,0,0,1-.784.53A2.6,2.6,0,0,1,91.89,14.868Zm13.1-7.679a5.319,5.319,0,0,0-.951.083,4.529,4.529,0,0,0-.865.246,3.944,3.944,0,0,0-.76.4,3.607,3.607,0,0,0-.636.55V7.333H99.089v9.7H101.9v-4.8a3.583,3.583,0,0,1,.173-1.161,2.18,2.18,0,0,1,.483-.815,1.965,1.965,0,0,1,.737-.48,2.656,2.656,0,0,1,.935-.157,2.341,2.341,0,0,1,.833.137,1.553,1.553,0,0,1,.618.419,1.864,1.864,0,0,1,.384.714,3.534,3.534,0,0,1,.132,1.02v5.121h2.816V11.48a5.558,5.558,0,0,0-.307-1.918,3.548,3.548,0,0,0-.846-1.337,3.451,3.451,0,0,0-1.276-.782A4.787,4.787,0,0,0,104.99,7.189Zm10.489,0a8.841,8.841,0,0,0-1.16.077,8.354,8.354,0,0,0-1.118.225,7.013,7.013,0,0,0-1.026.367,5.3,5.3,0,0,0-.886.5l1.011,1.966a3.6,3.6,0,0,1,.59-.377,4.553,4.553,0,0,1,.688-.284,5.05,5.05,0,0,1,.749-.179,4.908,4.908,0,0,1,.773-.062,3.436,3.436,0,0,1,.99.129,1.845,1.845,0,0,1,.7.374,1.523,1.523,0,0,1,.414.6,2.229,2.229,0,0,1,.137.808H115.1a7.568,7.568,0,0,0-1.9.213,3.63,3.63,0,0,0-1.295.6,2.373,2.373,0,0,0-.74.918,2.828,2.828,0,0,0-.235,1.176,2.781,2.781,0,0,0,.247,1.167,2.675,2.675,0,0,0,.714.932,3.361,3.361,0,0,0,1.141.617,4.959,4.959,0,0,0,1.527.224,5.309,5.309,0,0,0,.991-.087,3.6,3.6,0,0,0,.828-.258,2.675,2.675,0,0,0,.659-.423,2.418,2.418,0,0,0,.483-.584v1.208h2.637V11.5a5.345,5.345,0,0,0-.314-1.914,3.38,3.38,0,0,0-.914-1.344,3.858,3.858,0,0,0-1.469-.793A6.865,6.865,0,0,0,115.48,7.188Zm-.217,8.1a2.472,2.472,0,0,1-.667-.084,1.5,1.5,0,0,1-.5-.238,1.048,1.048,0,0,1-.313-.37,1.063,1.063,0,0,1-.109-.48,1.124,1.124,0,0,1,.085-.451.891.891,0,0,1,.287-.36,1.46,1.46,0,0,1,.534-.238,3.455,3.455,0,0,1,.827-.086h1.932v.992a1.962,1.962,0,0,1-.33.578,1.887,1.887,0,0,1-.479.411,2.185,2.185,0,0,1-.594.245A2.733,2.733,0,0,1,115.263,15.285Zm7.441,1.75h2.818V3.652H122.7Z" fill="#fffcd6"/></g></g></svg>