<svg width="142" height="68" viewBox="0 0 142 68" fill="none" xmlns="http://www.w3.org/2000/svg">
<rect opacity="0.51" width="142" height="68" rx="16" fill="#50347D"/>
<path d="M45.784 14.062C44.552 13.488 43.614 13.208 42.83 13.208C41.57 13.208 40.856 13.684 40.856 14.538C40.856 14.888 40.954 15.154 41.15 15.308C41.374 15.504 41.822 15.658 42.494 15.784L43.292 15.938H43.278C45.378 16.344 46.358 17.338 46.358 19.074C46.358 21.118 45 22.196 42.382 22.196C41.444 22.196 40.31 21.958 39.064 21.496V18.794C40.352 19.522 41.444 19.9 42.382 19.9C43.082 19.9 43.6 19.76 43.978 19.494C44.314 19.256 44.468 19.046 44.468 18.836C44.468 18.654 44.342 18.458 44.118 18.234C43.866 18.024 43.376 17.828 42.802 17.702L42.004 17.548C39.946 17.156 39.022 16.26 39.022 14.65C39.022 12.76 40.45 11.612 42.676 11.612C43.614 11.612 44.65 11.808 45.784 12.186V14.062ZM48.4009 22L48.6669 11.556H50.3609L50.2909 16.736L52.3349 14.342H54.4909L51.6069 17.912C51.9289 18.234 52.2789 18.556 52.6289 18.906C52.9929 19.256 53.3569 19.62 53.7349 19.97C54.0989 20.32 54.4629 20.67 54.8269 21.02C55.1909 21.37 55.5269 21.692 55.8349 22H52.6569L50.3329 19.144L50.5009 22H48.4009ZM57.8895 22L57.9595 14.342H59.5135L59.5695 22H57.8895ZM57.8755 13.558L57.9595 11.556H59.4995L59.5835 13.558H57.8755ZM61.6353 22L61.7753 11.556H63.3993V20.04H64.1833V22H61.6353ZM66.2427 22L66.3827 11.556H68.0067V20.04H68.7907V22H66.2427ZM76.4501 16.204C75.5681 15.77 74.7701 15.546 74.0421 15.546C73.0341 15.546 72.4881 15.868 72.4881 16.414C72.4881 16.638 72.5721 16.82 72.7401 16.96C72.9221 17.1 73.3421 17.254 73.9161 17.38C73.9861 17.394 74.0561 17.408 74.1261 17.422C74.1821 17.45 74.2521 17.464 74.3081 17.464C75.1901 17.646 75.8341 17.926 76.2121 18.248C76.6041 18.598 76.8281 19.116 76.8281 19.774C76.8281 21.272 75.5681 22.182 73.6221 22.182C72.8381 22.182 71.9141 22.014 70.8501 21.664V19.34C71.9281 19.9 72.8661 20.18 73.6361 20.18C74.0981 20.18 74.4341 20.124 74.6441 20.012C74.8541 19.914 74.9801 19.746 74.9801 19.536C74.8681 19.354 74.7841 19.2 74.6861 19.088C74.6021 19.018 74.2381 18.906 73.5801 18.766L73.1601 18.668H73.1741C71.6341 18.36 70.9061 17.8 70.9061 16.526C70.9061 15 71.9701 14.174 73.9161 14.174C74.8121 14.174 75.6521 14.314 76.4501 14.636V16.204ZM85.9455 18.136H80.6255C80.6815 18.808 80.8915 19.284 81.1855 19.494C81.5775 19.732 82.2075 19.886 82.8935 19.942C83.3555 19.942 83.7475 19.928 84.1815 19.886C84.5735 19.858 85.0915 19.662 85.7075 19.34L85.7355 21.552C84.7555 21.972 83.7895 22.182 82.8235 22.182C81.6335 22.14 80.6815 21.776 79.9535 21.09C79.2395 20.39 78.8755 19.438 78.8755 18.234C78.9595 15.77 80.3315 14.174 82.6415 14.174C83.6775 14.216 84.4615 14.496 85.0075 15.014H84.9935C85.5395 15.532 85.8615 16.33 85.9455 17.408V18.136ZM84.3495 16.596C84.2515 16.358 84.0555 16.078 83.8455 15.826C83.5515 15.476 83.1455 15.294 82.6415 15.294C82.0535 15.294 81.5915 15.476 81.2555 15.826V15.812C80.9895 16.078 80.8215 16.344 80.7655 16.596H84.3495ZM88.9327 12.578H90.6827L90.6267 14.342H92.2647V15.77H90.6127L90.5427 18.626C90.5427 19.144 90.5987 19.452 90.7247 19.564C90.8227 19.676 91.0887 19.746 91.5087 19.746H92.9647V22H91.5087C89.5627 22 88.7927 21.328 88.7927 19.382L88.8627 15.77H87.9947V14.342H88.8627L88.9327 12.578ZM100.608 16.204C99.7263 15.77 98.9283 15.546 98.2003 15.546C97.1923 15.546 96.6463 15.868 96.6463 16.414C96.6463 16.638 96.7303 16.82 96.8983 16.96C97.0803 17.1 97.5003 17.254 98.0743 17.38C98.1443 17.394 98.2143 17.408 98.2843 17.422C98.3403 17.45 98.4103 17.464 98.4663 17.464C99.3483 17.646 99.9923 17.926 100.37 18.248C100.762 18.598 100.986 19.116 100.986 19.774C100.986 21.272 99.7263 22.182 97.7803 22.182C96.9963 22.182 96.0723 22.014 95.0083 21.664V19.34C96.0863 19.9 97.0243 20.18 97.7943 20.18C98.2563 20.18 98.5923 20.124 98.8023 20.012C99.0123 19.914 99.1383 19.746 99.1383 19.536C99.0263 19.354 98.9423 19.2 98.8443 19.088C98.7603 19.018 98.3963 18.906 97.7383 18.766L97.3183 18.668H97.3323C95.7923 18.36 95.0643 17.8 95.0643 16.526C95.0643 15 96.1283 14.174 98.0743 14.174C98.9703 14.174 99.8103 14.314 100.608 14.636V16.204Z" fill="white"/>
<path d="M34.28 48.36L32.838 44.09C32.726 44.454 32.6 44.804 32.488 45.154C32.376 45.504 32.264 45.854 32.152 46.19C32.026 46.54 31.914 46.89 31.788 47.254C31.676 47.618 31.55 47.982 31.424 48.36H34.28ZM28.022 52L32.054 41.794H33.636L37.668 52H35.19L34.826 50.418H30.85L30.36 52H28.022ZM46.6695 52H44.4575L44.7235 47.394C44.7235 46.218 44.3875 45.63 43.5195 45.63C42.2315 45.63 41.6575 46.372 41.6575 47.632L41.8675 52H39.7115L39.9215 44.286H41.6015V44.888C41.7975 44.762 41.9935 44.65 42.2035 44.524C42.6235 44.3 43.0995 44.174 43.6455 44.174C45.4375 44.174 46.3615 45.336 46.4735 47.422L46.6695 52ZM56.4492 44.342L53.2992 52.504C52.4452 54.45 51.7452 54.842 50.5692 54.842H49.2532V52.784H50.3312C50.5832 52.784 50.7792 52.714 50.9052 52.616C51.0732 52.476 51.2552 52.294 51.4372 52.042C51.5072 51.888 51.5912 51.734 51.6752 51.594C51.7452 51.454 51.8152 51.3 51.8992 51.146C51.6472 50.6 51.3812 50.054 51.1152 49.48C50.5832 48.332 50.0372 47.156 49.5052 46.008C49.2392 45.434 48.9732 44.888 48.7212 44.342H50.4992L52.8652 48.22L54.6712 44.342H56.4492ZM69.5654 46.204C68.6834 45.77 67.8854 45.546 67.1574 45.546C66.1494 45.546 65.6034 45.868 65.6034 46.414C65.6034 46.638 65.6874 46.82 65.8554 46.96C66.0374 47.1 66.4574 47.254 67.0314 47.38C67.1014 47.394 67.1714 47.408 67.2414 47.422C67.2974 47.45 67.3674 47.464 67.4234 47.464C68.3054 47.646 68.9494 47.926 69.3274 48.248C69.7194 48.598 69.9434 49.116 69.9434 49.774C69.9434 51.272 68.6834 52.182 66.7374 52.182C65.9534 52.182 65.0294 52.014 63.9654 51.664V49.34C65.0434 49.9 65.9814 50.18 66.7514 50.18C67.2134 50.18 67.5494 50.124 67.7594 50.012C67.9694 49.914 68.0954 49.746 68.0954 49.536C67.9834 49.354 67.8994 49.2 67.8014 49.088C67.7174 49.018 67.3534 48.906 66.6954 48.766L66.2754 48.668H66.2894C64.7494 48.36 64.0214 47.8 64.0214 46.526C64.0214 45 65.0854 44.174 67.0314 44.174C67.9274 44.174 68.7674 44.314 69.5654 44.636V46.204ZM71.9908 52L72.2568 41.556H73.9508L73.8808 46.736L75.9248 44.342H78.0808L75.1968 47.912C75.5188 48.234 75.8688 48.556 76.2188 48.906C76.5828 49.256 76.9468 49.62 77.3248 49.97C77.6888 50.32 78.0528 50.67 78.4168 51.02C78.7808 51.37 79.1168 51.692 79.4248 52H76.2468L73.9228 49.144L74.0908 52H71.9908ZM81.4794 52L81.5494 44.342H83.1034L83.1594 52H81.4794ZM81.4654 43.558L81.5494 41.556H83.0894L83.1734 43.558H81.4654ZM85.2251 52L85.3651 41.556H86.9891V50.04H87.7731V52H85.2251ZM89.8325 52L89.9725 41.556H91.5965V50.04H92.3805V52H89.8325ZM100.04 46.204C99.158 45.77 98.36 45.546 97.632 45.546C96.624 45.546 96.078 45.868 96.078 46.414C96.078 46.638 96.162 46.82 96.33 46.96C96.512 47.1 96.932 47.254 97.506 47.38C97.576 47.394 97.646 47.408 97.716 47.422C97.772 47.45 97.842 47.464 97.898 47.464C98.78 47.646 99.424 47.926 99.802 48.248C100.194 48.598 100.418 49.116 100.418 49.774C100.418 51.272 99.158 52.182 97.212 52.182C96.428 52.182 95.504 52.014 94.44 51.664V49.34C95.518 49.9 96.456 50.18 97.226 50.18C97.688 50.18 98.024 50.124 98.234 50.012C98.444 49.914 98.57 49.746 98.57 49.536C98.458 49.354 98.374 49.2 98.276 49.088C98.192 49.018 97.828 48.906 97.17 48.766L96.75 48.668H96.764C95.224 48.36 94.496 47.8 94.496 46.526C94.496 45 95.56 44.174 97.506 44.174C98.402 44.174 99.242 44.314 100.04 44.636V46.204Z" fill="#B48FF1"/>
<path d="M109.366 51.5C108.981 52.1667 108.019 52.1667 107.634 51.5L103.737 44.75C103.352 44.0833 103.833 43.25 104.603 43.25L112.397 43.25C113.167 43.25 113.648 44.0833 113.263 44.75L109.366 51.5Z" fill="#B48FF1"/>
</svg>
