<svg width="229" height="68" viewBox="0 0 229 68" fill="none" xmlns="http://www.w3.org/2000/svg">
<rect opacity="0.51" width="229" height="68" rx="16" fill="#50347D"/>
<path d="M105.784 14.062C104.552 13.488 103.614 13.208 102.83 13.208C101.57 13.208 100.856 13.684 100.856 14.538C100.856 14.888 100.954 15.154 101.15 15.308C101.374 15.504 101.822 15.658 102.494 15.784L103.292 15.938H103.278C105.378 16.344 106.358 17.338 106.358 19.074C106.358 21.118 105 22.196 102.382 22.196C101.444 22.196 100.31 21.958 99.064 21.496V18.794C100.352 19.522 101.444 19.9 102.382 19.9C103.082 19.9 103.6 19.76 103.978 19.494C104.314 19.256 104.468 19.046 104.468 18.836C104.468 18.654 104.342 18.458 104.118 18.234C103.866 18.024 103.376 17.828 102.802 17.702L102.004 17.548C99.946 17.156 99.022 16.26 99.022 14.65C99.022 12.76 100.45 11.612 102.676 11.612C103.614 11.612 104.65 11.808 105.784 12.186V14.062ZM112.615 18.346H111.803C110.991 18.346 110.473 18.43 110.235 18.598C110.011 18.752 109.913 18.99 109.899 19.34C109.955 19.564 110.067 19.718 110.235 19.774C110.501 19.844 110.837 19.886 111.229 19.886C112.265 19.886 112.615 19.718 112.615 18.36V18.346ZM114.953 22H113.259V21.412C112.713 21.916 112.013 22.182 111.061 22.182C110.249 22.182 109.619 21.958 109.129 21.496C108.639 21.034 108.401 20.418 108.401 19.662C108.401 17.884 109.549 16.974 111.873 16.974H113.259C113.203 16.162 112.573 15.63 111.481 15.546C110.697 15.546 109.857 15.812 108.933 16.302V14.748C109.927 14.37 110.823 14.174 111.621 14.174C113.847 14.174 114.953 15.322 114.953 17.66V22ZM117.001 22L117.141 11.556H118.765V20.04H119.549V22H117.001ZM125.822 18.346H125.01C124.198 18.346 123.68 18.43 123.442 18.598C123.218 18.752 123.12 18.99 123.106 19.34C123.162 19.564 123.274 19.718 123.442 19.774C123.708 19.844 124.044 19.886 124.436 19.886C125.472 19.886 125.822 19.718 125.822 18.36V18.346ZM128.16 22H126.466V21.412C125.92 21.916 125.22 22.182 124.268 22.182C123.456 22.182 122.826 21.958 122.336 21.496C121.846 21.034 121.608 20.418 121.608 19.662C121.608 17.884 122.756 16.974 125.08 16.974H126.466C126.41 16.162 125.78 15.63 124.688 15.546C123.904 15.546 123.064 15.812 122.14 16.302V14.748C123.134 14.37 124.03 14.174 124.828 14.174C127.054 14.174 128.16 15.322 128.16 17.66V22ZM134.856 16.274C134.562 16.106 134.366 16.022 134.198 15.966C134.03 15.924 133.876 15.924 133.722 15.924C133.148 15.924 132.742 16.12 132.504 16.484C132.238 16.904 132.098 17.464 132.098 18.164L132.238 22H130.208L130.558 14.412H132.098V14.916C132.154 14.874 132.224 14.832 132.294 14.804C132.364 14.762 132.42 14.72 132.49 14.678V14.692C132.938 14.426 133.456 14.3 134.072 14.3C134.24 14.3 134.436 14.328 134.842 14.412L134.856 16.274ZM144.621 14.342L141.471 22.504C140.617 24.45 139.917 24.842 138.741 24.842H137.425V22.784H138.503C138.755 22.784 138.951 22.714 139.077 22.616C139.245 22.476 139.427 22.294 139.609 22.042C139.679 21.888 139.763 21.734 139.847 21.594C139.917 21.454 139.987 21.3 140.071 21.146C139.819 20.6 139.553 20.054 139.287 19.48C138.755 18.332 138.209 17.156 137.677 16.008C137.411 15.434 137.145 14.888 136.893 14.342H138.671L141.037 18.22L142.843 14.342H144.621Z" fill="white"/>
<path d="M16.152 52.876L14.458 52.848L14.612 50.93C13.828 50.846 12.96 50.622 12.022 50.202L12.05 48.046C13.058 48.704 13.926 49.054 14.668 49.124C14.668 48.956 14.668 48.774 14.682 48.606C14.682 48.438 14.682 48.284 14.696 48.116C14.696 47.948 14.696 47.794 14.696 47.612C14.71 47.444 14.71 47.262 14.71 47.08C13.856 46.898 13.268 46.618 12.848 46.24C12.386 45.806 12.148 45.246 12.12 44.546C12.148 43.062 13.114 42.18 14.85 42.026L14.878 40.5L16.026 40.514L15.998 42.012C16.754 42.068 17.44 42.236 18.238 42.516L18.196 44.098C17.37 43.65 16.628 43.398 15.984 43.328C15.97 43.552 15.97 43.762 15.97 43.958C15.956 44.154 15.956 44.364 15.956 44.56C15.956 44.756 15.956 44.966 15.956 45.162C15.942 45.372 15.942 45.582 15.942 45.806C17.734 46.156 18.644 46.828 18.714 48.312C18.7 49.11 18.42 49.74 17.86 50.202C17.356 50.608 16.824 50.846 16.054 50.916L16.152 52.876ZM14.724 43.384C14.052 43.524 13.534 43.944 13.534 44.546C13.534 45.064 13.912 45.456 14.682 45.652L14.724 43.384ZM15.942 49.138C16.25 49.082 16.502 49.012 16.684 48.942C16.852 48.858 16.936 48.69 16.936 48.438C16.936 47.892 16.614 47.57 15.886 47.374L15.942 49.138ZM24.4123 45.722C23.4043 45.722 22.7883 46.436 22.7883 47.696C22.7883 48.368 23.3483 48.83 24.4123 48.83C25.4763 48.83 26.0363 48.368 26.0363 47.696C26.0363 46.436 25.4203 45.722 24.4123 45.722ZM27.2263 43.006C26.3863 42.6 25.6303 42.39 25.0143 42.39C23.6843 42.39 22.9003 43.23 22.6343 44.84C23.1523 44.406 23.7683 44.196 24.4963 44.196C25.5183 44.196 26.3303 44.504 26.9463 45.148C27.5483 45.778 27.8563 46.618 27.8563 47.696C27.8563 49.796 26.4843 51.182 24.4123 51.182C22.0183 51.182 20.7583 49.32 20.7583 45.988C20.7583 42.866 22.3963 40.794 24.9723 40.794C25.6443 40.794 26.3583 40.948 27.2263 41.256V43.006ZM30.3108 40.962H35.8828V42.432H31.8788V44.308C32.2708 44.238 32.5508 44.196 32.8728 44.196C35.1128 44.196 36.5828 45.554 36.5828 47.696C36.5828 49.894 35.1268 51.182 32.6768 51.182C31.8508 51.182 30.9408 51.028 29.9048 50.706V48.088C30.8988 48.634 31.7808 48.886 32.6488 48.886C33.3208 48.886 33.8388 48.718 34.1748 48.368C34.5388 48.046 34.7208 47.752 34.7208 47.5C34.7208 46.338 33.9648 45.778 32.6488 45.778C31.9908 45.778 31.2348 45.974 30.3108 46.394V40.962ZM38.6275 51L38.9075 40.794H40.7275L40.6155 44.546L44.5915 40.794H47.0275L41.9315 45.582L47.3355 51H43.4855L40.6435 46.968C40.6575 47.29 40.6855 47.626 40.6995 47.976C40.7415 48.662 40.7835 49.362 40.8115 50.034C40.8395 50.37 40.8535 50.692 40.8675 51H38.6275Z" fill="#B48FF1"/>
<path d="M168.152 52.876L166.458 52.848L166.612 50.93C165.828 50.846 164.96 50.622 164.022 50.202L164.05 48.046C165.058 48.704 165.926 49.054 166.668 49.124C166.668 48.956 166.668 48.774 166.682 48.606C166.682 48.438 166.682 48.284 166.696 48.116C166.696 47.948 166.696 47.794 166.696 47.612C166.71 47.444 166.71 47.262 166.71 47.08C165.856 46.898 165.268 46.618 164.848 46.24C164.386 45.806 164.148 45.246 164.12 44.546C164.148 43.062 165.114 42.18 166.85 42.026L166.878 40.5L168.026 40.514L167.998 42.012C168.754 42.068 169.44 42.236 170.238 42.516L170.196 44.098C169.37 43.65 168.628 43.398 167.984 43.328C167.97 43.552 167.97 43.762 167.97 43.958C167.956 44.154 167.956 44.364 167.956 44.56C167.956 44.756 167.956 44.966 167.956 45.162C167.942 45.372 167.942 45.582 167.942 45.806C169.734 46.156 170.644 46.828 170.714 48.312C170.7 49.11 170.42 49.74 169.86 50.202C169.356 50.608 168.824 50.846 168.054 50.916L168.152 52.876ZM166.724 43.384C166.052 43.524 165.534 43.944 165.534 44.546C165.534 45.064 165.912 45.456 166.682 45.652L166.724 43.384ZM167.942 49.138C168.25 49.082 168.502 49.012 168.684 48.942C168.852 48.858 168.936 48.69 168.936 48.438C168.936 47.892 168.614 47.57 167.886 47.374L167.942 49.138ZM172.94 51V48.704H175.054V42.712L172.758 43.16V41.466L175.278 40.962H176.832V48.704H178.946V51H172.94ZM181.395 40.962H186.967V42.432H182.963V44.308C183.355 44.238 183.635 44.196 183.957 44.196C186.197 44.196 187.667 45.554 187.667 47.696C187.667 49.894 186.211 51.182 183.761 51.182C182.935 51.182 182.025 51.028 180.989 50.706V48.088C181.983 48.634 182.865 48.886 183.733 48.886C184.405 48.886 184.923 48.718 185.259 48.368C185.623 48.046 185.805 47.752 185.805 47.5C185.805 46.338 185.049 45.778 183.733 45.778C183.075 45.778 182.319 45.974 181.395 46.394V40.962ZM193.323 41.816C192.161 41.816 191.587 42.894 191.587 45.064C191.587 46.24 191.727 47.066 191.993 47.612L191.979 47.598C192.217 48.074 192.623 48.312 193.197 48.312C193.757 48.312 194.191 48.018 194.499 47.458C194.807 46.898 194.989 46.072 195.073 45.05C195.073 42.894 194.499 41.816 193.323 41.816ZM193.323 40.794C195.633 40.794 196.809 42.614 196.809 46.002C196.711 49.362 195.493 51.182 193.197 51.182C190.887 51.182 189.711 49.376 189.711 45.988C189.767 44.294 190.089 43.006 190.691 42.124C191.293 41.256 192.175 40.794 193.323 40.794ZM193.267 46.464C193.841 46.464 193.981 45.778 193.981 45.26C193.981 44.28 193.841 43.678 193.267 43.678C192.623 43.678 192.539 44.462 192.539 45.26C192.539 45.778 192.679 46.464 193.267 46.464ZM198.858 51L199.138 40.794H200.958L200.846 44.546L204.822 40.794H207.258L202.162 45.582L207.566 51H203.716L200.874 46.968C200.888 47.29 200.916 47.626 200.93 47.976C200.972 48.662 201.014 49.362 201.042 50.034C201.07 50.37 201.084 50.692 201.098 51H198.858ZM213.174 42.292H214.756V45.848H218.312V47.444H214.756V51H213.174V47.444H209.618V45.848H213.174V42.292Z" fill="#B48FF1"/>
<path d="M156.111 44.2181H55.577C54.706 44.2181 54 44.9242 54 45.7951C54 46.6661 54.706 47.3721 55.577 47.3721H156.111C156.982 47.3721 157.688 46.6661 157.688 45.7951C157.688 44.9242 156.982 44.2181 156.111 44.2181Z" fill="#147087"/>
<path d="M137.859 44.2181H55.578C54.707 44.2181 54.001 44.9242 54.001 45.7951C54.001 46.6661 54.707 47.3721 55.578 47.3721H137.859C138.73 47.3721 139.436 46.6661 139.436 45.7951C139.436 44.9242 138.73 44.2181 137.859 44.2181Z" fill="#147087"/>
<path d="M68.6079 54.2158C73.3619 54.2158 77.2158 50.3619 77.2158 45.6079C77.2158 40.8539 73.3619 37 68.6079 37C63.8539 37 60 40.8539 60 45.6079C60 50.3619 63.8539 54.2158 68.6079 54.2158Z" fill="#593AFF"/>
<path d="M68.6079 53.4986C72.9657 53.4986 76.4985 49.9658 76.4985 45.608C76.4985 41.2501 72.9657 37.7174 68.6079 37.7174C64.25 37.7174 60.7173 41.2501 60.7173 45.608C60.7173 49.9658 64.25 53.4986 68.6079 53.4986Z" stroke="#00CCFF"/>
</svg>
