<svg width="231" height="68" viewBox="0 0 231 68" fill="none" xmlns="http://www.w3.org/2000/svg">
<rect opacity="0.51" width="231" height="68" rx="16" fill="#50347D"/>
<path d="M62.912 13.39V19.046H64.242C65.516 19.046 66.384 18.878 66.86 18.556C67.28 18.234 67.658 17.59 67.854 16.736C67.854 15.616 67.574 14.776 66.972 14.216C66.384 13.656 65.474 13.39 64.242 13.39H62.912ZM61.022 22V11.794H63.976C65.88 11.794 67.35 12.228 68.288 13.026C69.198 13.866 69.688 15.168 69.688 16.89C69.688 18.626 69.212 19.928 68.274 20.768C67.336 21.594 65.908 22 63.976 22H61.022ZM78.7971 18.136H73.4771C73.5331 18.808 73.7431 19.284 74.0371 19.494C74.4291 19.732 75.0591 19.886 75.7451 19.942C76.2071 19.942 76.5991 19.928 77.0331 19.886C77.4251 19.858 77.9431 19.662 78.5591 19.34L78.5871 21.552C77.6071 21.972 76.6411 22.182 75.6751 22.182C74.4851 22.14 73.5331 21.776 72.8051 21.09C72.0911 20.39 71.7271 19.438 71.7271 18.234C71.8111 15.77 73.1831 14.174 75.4931 14.174C76.5291 14.216 77.3131 14.496 77.8591 15.014H77.8451C78.3911 15.532 78.7131 16.33 78.7971 17.408V18.136ZM77.2011 16.596C77.1031 16.358 76.9071 16.078 76.6971 15.826C76.4031 15.476 75.9971 15.294 75.4931 15.294C74.9051 15.294 74.4431 15.476 74.1071 15.826V15.812C73.8411 16.078 73.6731 16.344 73.6171 16.596H77.2011ZM86.2362 14.608C86.5582 14.818 86.8242 15.098 87.0062 15.434C87.5102 14.692 88.1122 14.174 89.3442 14.174C90.1702 14.174 90.8142 14.468 91.2482 15.014C91.6962 15.574 91.9202 16.4 91.9202 17.436V17.422C91.9482 18.15 91.9622 18.92 91.9902 19.704C92.0182 20.502 92.0462 21.286 92.0602 22H89.8902L90.2402 17.268C90.2402 16.008 90.0022 15.518 89.2042 15.518C88.1682 15.518 87.5522 16.414 87.5522 17.716L87.4822 22H85.3262L85.8022 17.184C85.7882 16.008 85.4102 15.448 84.5702 15.448C84.0522 15.448 83.6322 15.658 83.3102 16.092C82.9742 16.526 82.7922 17.072 82.7922 17.702C82.8202 18.374 82.8342 19.116 82.8622 19.858C82.8902 20.586 82.9182 21.328 82.9322 22H80.8462L81.1122 14.342H82.8202L82.7782 14.86C83.2962 14.398 83.9122 14.174 84.7102 14.174C85.2842 14.174 85.8022 14.328 86.2362 14.608ZM98.3219 18.346H97.5099C96.6979 18.346 96.1799 18.43 95.9419 18.598C95.7179 18.752 95.6199 18.99 95.6059 19.34C95.6619 19.564 95.7739 19.718 95.9419 19.774C96.2079 19.844 96.5439 19.886 96.9359 19.886C97.9719 19.886 98.3219 19.718 98.3219 18.36V18.346ZM100.66 22H98.9659V21.412C98.4199 21.916 97.7199 22.182 96.7679 22.182C95.9559 22.182 95.3259 21.958 94.8359 21.496C94.3459 21.034 94.1079 20.418 94.1079 19.662C94.1079 17.884 95.2559 16.974 97.5799 16.974H98.9659C98.9099 16.162 98.2799 15.63 97.1879 15.546C96.4039 15.546 95.5639 15.812 94.6399 16.302V14.748C95.6339 14.37 96.5299 14.174 97.3279 14.174C99.5539 14.174 100.66 15.322 100.66 17.66V22ZM109.666 22H107.454L107.72 17.394C107.72 16.218 107.384 15.63 106.516 15.63C105.228 15.63 104.654 16.372 104.654 17.632L104.864 22H102.708L102.918 14.286H104.598V14.888C104.794 14.762 104.99 14.65 105.2 14.524C105.62 14.3 106.096 14.174 106.642 14.174C108.434 14.174 109.358 15.336 109.47 17.422L109.666 22ZM117.065 11.556H118.745L118.619 22H116.925V21.426C116.421 21.958 115.749 22.182 114.895 22.182C112.991 22.182 111.717 20.544 111.717 18.178C111.717 15.812 112.991 14.174 114.895 14.174C115.749 14.174 116.435 14.426 116.953 14.944L117.065 11.556ZM113.537 16.162C113.229 16.61 113.061 17.226 113.047 18.01C113.131 18.584 113.313 18.976 113.565 19.2C113.817 19.424 114.209 19.536 114.769 19.536C115.889 19.536 116.351 19.34 116.393 17.968C116.365 17.226 116.225 16.61 115.959 16.19C115.707 15.784 115.315 15.546 114.797 15.546C114.265 15.546 113.845 15.756 113.537 16.176V16.162ZM130.94 11.836V13.334L129.624 13.18C129.442 13.18 129.246 13.222 129.19 13.292C129.106 13.362 129.078 13.586 129.078 13.964C129.078 14.006 129.078 14.048 129.092 14.076C129.092 14.104 129.092 14.118 129.106 14.146C129.106 14.16 129.106 14.188 129.106 14.216C129.12 14.258 129.12 14.3 129.12 14.342H131.01V16.022H129.148C129.19 16.974 129.218 17.996 129.246 19.018C129.274 20.04 129.316 21.048 129.344 22H127.132L127.314 16.022H126.264V14.342H127.342L127.384 14.09C127.398 13.222 127.608 12.592 128.07 12.228C128.504 11.864 129.036 11.696 129.666 11.696L130.94 11.836ZM136.601 15.546C135.509 15.546 134.809 16.442 134.809 17.968C134.809 19.452 135.425 19.648 136.601 19.648C137.161 19.648 137.623 19.536 137.945 19.354C138.225 19.158 138.379 18.71 138.379 17.968C138.379 16.442 137.665 15.546 136.601 15.546ZM136.601 14.174C138.785 14.174 140.129 15.714 140.129 18.178C140.129 20.642 138.785 22.182 136.601 22.182C135.481 22.182 134.613 21.818 133.997 21.104C133.367 20.39 133.059 19.41 133.059 18.178C133.059 16.946 133.367 15.966 133.997 15.252C134.613 14.538 135.481 14.174 136.601 14.174ZM146.826 16.274C146.532 16.106 146.336 16.022 146.168 15.966C146 15.924 145.846 15.924 145.692 15.924C145.118 15.924 144.712 16.12 144.474 16.484C144.208 16.904 144.068 17.464 144.068 18.164L144.208 22H142.178L142.528 14.412H144.068V14.916C144.124 14.874 144.194 14.832 144.264 14.804C144.334 14.762 144.39 14.72 144.46 14.678V14.692C144.908 14.426 145.426 14.3 146.042 14.3C146.21 14.3 146.406 14.328 146.812 14.412L146.826 16.274ZM156.377 14.37L157.987 14.398L157.721 21.93C157.693 22.896 157.483 23.61 157.105 24.03C156.699 24.464 156.083 24.702 155.243 24.73L154.333 24.716L154.375 22.448H155.103C155.481 22.434 155.733 22.35 155.859 22.224C155.915 22.154 155.957 22.028 155.999 21.846C156.027 21.664 156.041 21.426 156.055 21.132L156.377 14.37ZM156.559 13.558L156.643 11.556H158.183L158.267 13.558H156.559ZM163.849 15.546C162.757 15.546 162.057 16.442 162.057 17.968C162.057 19.452 162.673 19.648 163.849 19.648C164.409 19.648 164.871 19.536 165.193 19.354C165.473 19.158 165.627 18.71 165.627 17.968C165.627 16.442 164.913 15.546 163.849 15.546ZM163.849 14.174C166.033 14.174 167.377 15.714 167.377 18.178C167.377 20.642 166.033 22.182 163.849 22.182C162.729 22.182 161.861 21.818 161.245 21.104C160.615 20.39 160.307 19.41 160.307 18.178C160.307 16.946 160.615 15.966 161.245 15.252C161.861 14.538 162.729 14.174 163.849 14.174ZM174.536 19.2C174.788 18.99 174.97 18.542 175.082 17.898C175.054 17.114 174.886 16.526 174.606 16.12C174.354 15.714 173.948 15.518 173.43 15.518C172.898 15.518 172.478 15.742 172.17 16.12C171.862 16.54 171.694 17.156 171.68 17.926C171.848 19.032 172.366 19.578 173.402 19.578C173.878 19.55 174.242 19.41 174.536 19.2ZM169.72 20.558L169.566 11.556H171.26L171.148 14.902C171.666 14.384 172.296 14.174 173.15 14.174C175.054 14.174 176.328 15.812 176.328 18.178C176.328 20.544 175.054 22.182 173.15 22.182C172.296 22.182 171.638 21.958 171.12 21.426L169.72 20.558Z" fill="white"/>
<path d="M12.022 51L12.288 40.99H14.332L18.112 47.92L18.294 40.794H20.016V51H17.706L13.884 43.79C13.94 44.994 13.996 46.198 14.052 47.416C14.108 48.648 14.164 49.838 14.22 51H12.022ZM25.5992 44.546C24.5072 44.546 23.8072 45.442 23.8072 46.968C23.8072 48.452 24.4232 48.648 25.5992 48.648C26.1592 48.648 26.6212 48.536 26.9432 48.354C27.2232 48.158 27.3772 47.71 27.3772 46.968C27.3772 45.442 26.6632 44.546 25.5992 44.546ZM25.5992 43.174C27.7832 43.174 29.1272 44.714 29.1272 47.178C29.1272 49.642 27.7832 51.182 25.5992 51.182C24.4792 51.182 23.6112 50.818 22.9952 50.104C22.3652 49.39 22.0572 48.41 22.0572 47.178C22.0572 45.946 22.3652 44.966 22.9952 44.252C23.6112 43.538 24.4792 43.174 25.5992 43.174ZM35.8243 45.274C35.5303 45.106 35.3343 45.022 35.1663 44.966C34.9983 44.924 34.8443 44.924 34.6903 44.924C34.1163 44.924 33.7103 45.12 33.4723 45.484C33.2063 45.904 33.0663 46.464 33.0663 47.164L33.2063 51H31.1763L31.5263 43.412H33.0663V43.916C33.1223 43.874 33.1923 43.832 33.2623 43.804C33.3323 43.762 33.3883 43.72 33.4583 43.678V43.692C33.9063 43.426 34.4243 43.3 35.0403 43.3C35.2083 43.3 35.4043 43.328 35.8103 43.412L35.8243 45.274ZM43.2518 43.608C43.5738 43.818 43.8398 44.098 44.0218 44.434C44.5258 43.692 45.1278 43.174 46.3598 43.174C47.1858 43.174 47.8298 43.468 48.2638 44.014C48.7118 44.574 48.9358 45.4 48.9358 46.436V46.422C48.9638 47.15 48.9778 47.92 49.0058 48.704C49.0338 49.502 49.0618 50.286 49.0758 51H46.9058L47.2558 46.268C47.2558 45.008 47.0178 44.518 46.2198 44.518C45.1838 44.518 44.5678 45.414 44.5678 46.716L44.4978 51H42.3418L42.8178 46.184C42.8038 45.008 42.4258 44.448 41.5858 44.448C41.0678 44.448 40.6478 44.658 40.3258 45.092C39.9898 45.526 39.8078 46.072 39.8078 46.702C39.8358 47.374 39.8498 48.116 39.8778 48.858C39.9058 49.586 39.9338 50.328 39.9478 51H37.8618L38.1278 43.342H39.8358L39.7938 43.86C40.3118 43.398 40.9278 43.174 41.7258 43.174C42.2998 43.174 42.8178 43.328 43.2518 43.608ZM55.3376 47.346H54.5256C53.7136 47.346 53.1956 47.43 52.9576 47.598C52.7336 47.752 52.6356 47.99 52.6216 48.34C52.6776 48.564 52.7896 48.718 52.9576 48.774C53.2236 48.844 53.5596 48.886 53.9516 48.886C54.9876 48.886 55.3376 48.718 55.3376 47.36V47.346ZM57.6756 51H55.9816V50.412C55.4356 50.916 54.7356 51.182 53.7836 51.182C52.9716 51.182 52.3416 50.958 51.8516 50.496C51.3616 50.034 51.1236 49.418 51.1236 48.662C51.1236 46.884 52.2716 45.974 54.5956 45.974H55.9816C55.9256 45.162 55.2956 44.63 54.2036 44.546C53.4196 44.546 52.5796 44.812 51.6556 45.302V43.748C52.6496 43.37 53.5456 43.174 54.3436 43.174C56.5696 43.174 57.6756 44.322 57.6756 46.66V51ZM59.7232 51L59.8632 40.556H61.4872V49.04H62.2712V51H59.7232Z" fill="#B48FF1"/>
<path d="M183.022 51L183.162 40.794H185.052V45.414H189.028V40.794H190.932L191.058 51H189.028V47.752H185.052V51H183.022ZM193.126 51L193.196 43.342H194.75L194.806 51H193.126ZM193.112 42.558L193.196 40.556H194.736L194.82 42.558H193.112ZM201.576 47.024C201.576 46.254 201.408 45.638 201.114 45.218C200.82 44.812 200.386 44.588 199.826 44.588C198.748 44.588 198.356 45.358 198.202 45.96C198.132 46.268 198.09 46.604 198.09 46.996C198.16 47.738 198.314 48.2 198.51 48.368C198.748 48.508 199.168 48.592 199.742 48.592C200.918 48.592 201.576 48.494 201.576 47.024ZM203.9 43.342L203.704 49.866C203.648 51.392 203.34 52.568 202.766 53.184C202.178 53.842 201.282 54.164 200.092 54.164C199.238 54.164 198.44 54.01 197.6 53.716V51.014C198.51 51.518 199.252 51.728 199.91 51.728C200.582 51.728 201.1 51.532 201.408 51.182C201.632 50.93 201.772 50.678 201.898 50.426C201.786 50.496 201.674 50.58 201.534 50.664C201.114 50.888 200.624 51 200.05 51C198.132 51 196.872 49.404 196.872 47.094C196.872 44.77 198.132 43.174 200.05 43.174C200.96 43.174 201.646 43.426 202.164 44C202.178 43.888 202.192 43.762 202.206 43.65C202.22 43.538 202.234 43.426 202.234 43.342H203.9ZM212.586 46.422L212.726 51H210.766L210.906 46.464C210.906 45.274 210.458 44.574 209.576 44.574C208.47 44.574 207.784 45.442 207.784 46.702C207.798 47.374 207.826 48.116 207.84 48.858C207.868 49.586 207.896 50.328 207.91 51H205.95L206.216 40.556H207.91L207.798 43.972C208.344 43.412 209.002 43.174 209.842 43.174C211.648 43.174 212.586 44.28 212.586 46.436V46.422Z" fill="#B48FF1"/>
<path d="M175.111 44.2181H74.577C73.706 44.2181 73 44.9242 73 45.7951C73 46.6661 73.706 47.3721 74.577 47.3721H175.111C175.982 47.3721 176.688 46.6661 176.688 45.7951C176.688 44.9242 175.982 44.2181 175.111 44.2181Z" fill="#147087"/>
<path d="M156.859 44.2181H74.578C73.707 44.2181 73.001 44.9242 73.001 45.7951C73.001 46.6661 73.707 47.3721 74.578 47.3721H156.859C157.73 47.3721 158.436 46.6661 158.436 45.7951C158.436 44.9242 157.73 44.2181 156.859 44.2181Z" fill="#147087"/>
<path d="M94.6079 54.2158C99.3619 54.2158 103.216 50.3619 103.216 45.6079C103.216 40.8539 99.3619 37 94.6079 37C89.8539 37 86 40.8539 86 45.6079C86 50.3619 89.8539 54.2158 94.6079 54.2158Z" fill="#593AFF"/>
<path d="M94.6079 53.4986C98.9657 53.4986 102.498 49.9658 102.498 45.608C102.498 41.2501 98.9657 37.7174 94.6079 37.7174C90.25 37.7174 86.7173 41.2501 86.7173 45.608C86.7173 49.9658 90.25 53.4986 94.6079 53.4986Z" stroke="#00CCFF"/>
</svg>
