<svg width="182" height="68" viewBox="0 0 182 68" fill="none" xmlns="http://www.w3.org/2000/svg">
<rect opacity="0.51" width="182" height="68" rx="16" fill="#50347D"/>
<path d="M32.559 14.846C32.559 15.952 32.139 16.764 31.397 17.212C31.859 17.562 32.265 18.164 32.685 18.976C32.909 19.41 33.175 19.956 33.455 20.502C33.721 21.034 34.001 21.566 34.211 22H31.747L30.711 19.354V19.368C30.123 18.15 29.703 17.912 28.779 17.912H28.065V22H25.979V11.794H29.199C30.263 11.794 31.089 12.046 31.663 12.55C32.251 13.054 32.559 13.824 32.559 14.846ZM27.939 12.998V16.05H29.339C30.221 16.05 31.117 15.448 31.117 14.846C31.117 13.39 30.207 12.998 29.339 12.998H27.939ZM43.3303 18.136H38.0103C38.0663 18.808 38.2763 19.284 38.5703 19.494C38.9623 19.732 39.5923 19.886 40.2783 19.942C40.7403 19.942 41.1323 19.928 41.5663 19.886C41.9583 19.858 42.4763 19.662 43.0923 19.34L43.1203 21.552C42.1403 21.972 41.1743 22.182 40.2083 22.182C39.0183 22.14 38.0663 21.776 37.3383 21.09C36.6243 20.39 36.2603 19.438 36.2603 18.234C36.3443 15.77 37.7163 14.174 40.0263 14.174C41.0623 14.216 41.8463 14.496 42.3923 15.014H42.3783C42.9243 15.532 43.2463 16.33 43.3303 17.408V18.136ZM41.7343 16.596C41.6363 16.358 41.4403 16.078 41.2303 15.826C40.9363 15.476 40.5303 15.294 40.0263 15.294C39.4383 15.294 38.9763 15.476 38.6403 15.826V15.812C38.3743 16.078 38.2063 16.344 38.1503 16.596H41.7343ZM45.3794 22L45.5194 11.556H47.1434V20.04H47.9274V22H45.3794ZM54.2008 18.346H53.3888C52.5768 18.346 52.0588 18.43 51.8208 18.598C51.5968 18.752 51.4988 18.99 51.4848 19.34C51.5408 19.564 51.6528 19.718 51.8208 19.774C52.0868 19.844 52.4228 19.886 52.8148 19.886C53.8508 19.886 54.2008 19.718 54.2008 18.36V18.346ZM56.5388 22H54.8448V21.412C54.2988 21.916 53.5988 22.182 52.6468 22.182C51.8348 22.182 51.2048 21.958 50.7148 21.496C50.2248 21.034 49.9868 20.418 49.9868 19.662C49.9868 17.884 51.1348 16.974 53.4588 16.974H54.8448C54.7888 16.162 54.1588 15.63 53.0668 15.546C52.2828 15.546 51.4428 15.812 50.5188 16.302V14.748C51.5128 14.37 52.4088 14.174 53.2068 14.174C55.4328 14.174 56.5388 15.322 56.5388 17.66V22ZM59.5245 12.578H61.2745L61.2185 14.342H62.8565V15.77H61.2045L61.1345 18.626C61.1345 19.144 61.1905 19.452 61.3165 19.564C61.4145 19.676 61.6805 19.746 62.1005 19.746H63.5565V22H62.1005C60.1545 22 59.3845 21.328 59.3845 19.382L59.4545 15.77H58.5865V14.342H59.4545L59.5245 12.578ZM72.6701 18.136H67.3501C67.4061 18.808 67.6161 19.284 67.9101 19.494C68.3021 19.732 68.9321 19.886 69.6181 19.942C70.0801 19.942 70.4721 19.928 70.9061 19.886C71.2981 19.858 71.8161 19.662 72.4321 19.34L72.4601 21.552C71.4801 21.972 70.5141 22.182 69.5481 22.182C68.3581 22.14 67.4061 21.776 66.6781 21.09C65.9641 20.39 65.6001 19.438 65.6001 18.234C65.6841 15.77 67.0561 14.174 69.3661 14.174C70.4021 14.216 71.1861 14.496 71.7321 15.014H71.7181C72.2641 15.532 72.5861 16.33 72.6701 17.408V18.136ZM71.0741 16.596C70.9761 16.358 70.7801 16.078 70.5701 15.826C70.2761 15.476 69.8701 15.294 69.3661 15.294C68.7781 15.294 68.3161 15.476 67.9801 15.826V15.812C67.7141 16.078 67.5461 16.344 67.4901 16.596H71.0741ZM80.0673 11.556H81.7473L81.6213 22H79.9273V21.426C79.4233 21.958 78.7513 22.182 77.8973 22.182C75.9933 22.182 74.7193 20.544 74.7193 18.178C74.7193 15.812 75.9933 14.174 77.8973 14.174C78.7513 14.174 79.4373 14.426 79.9553 14.944L80.0673 11.556ZM76.5393 16.162C76.2313 16.61 76.0633 17.226 76.0493 18.01C76.1333 18.584 76.3153 18.976 76.5673 19.2C76.8193 19.424 77.2113 19.536 77.7713 19.536C78.8913 19.536 79.3533 19.34 79.3953 17.968C79.3673 17.226 79.2273 16.61 78.9613 16.19C78.7093 15.784 78.3173 15.546 77.7993 15.546C77.2673 15.546 76.8473 15.756 76.5393 16.176V16.162ZM93.4801 18.346H92.6681C91.8561 18.346 91.3381 18.43 91.1001 18.598C90.8761 18.752 90.7781 18.99 90.7641 19.34C90.8201 19.564 90.9321 19.718 91.1001 19.774C91.3661 19.844 91.7021 19.886 92.0941 19.886C93.1301 19.886 93.4801 19.718 93.4801 18.36V18.346ZM95.8181 22H94.1241V21.412C93.5781 21.916 92.8781 22.182 91.9261 22.182C91.1141 22.182 90.4841 21.958 89.9941 21.496C89.5041 21.034 89.2661 20.418 89.2661 19.662C89.2661 17.884 90.4141 16.974 92.7381 16.974H94.1241C94.0681 16.162 93.4381 15.63 92.3461 15.546C91.5621 15.546 90.7221 15.812 89.7981 16.302V14.748C90.7921 14.37 91.6881 14.174 92.4861 14.174C94.7121 14.174 95.8181 15.322 95.8181 17.66V22ZM98.8038 12.578H100.554L100.498 14.342H102.136V15.77H100.484L100.414 18.626C100.414 19.144 100.47 19.452 100.596 19.564C100.694 19.676 100.96 19.746 101.38 19.746H102.836V22H101.38C99.4338 22 98.6638 21.328 98.6638 19.382L98.7338 15.77H97.8658V14.342H98.7338L98.8038 12.578ZM105.817 12.578H107.567L107.511 14.342H109.149V15.77H107.497L107.427 18.626C107.427 19.144 107.483 19.452 107.609 19.564C107.707 19.676 107.973 19.746 108.393 19.746H109.849V22H108.393C106.447 22 105.677 21.328 105.677 19.382L105.747 15.77H104.879V14.342H105.747L105.817 12.578ZM116.541 16.274C116.247 16.106 116.051 16.022 115.883 15.966C115.715 15.924 115.561 15.924 115.407 15.924C114.833 15.924 114.427 16.12 114.189 16.484C113.923 16.904 113.783 17.464 113.783 18.164L113.923 22H111.893L112.243 14.412H113.783V14.916C113.839 14.874 113.909 14.832 113.979 14.804C114.049 14.762 114.105 14.72 114.175 14.678V14.692C114.623 14.426 115.141 14.3 115.757 14.3C115.925 14.3 116.121 14.328 116.527 14.412L116.541 16.274ZM118.593 22L118.663 14.342H120.217L120.273 22H118.593ZM118.579 13.558L118.663 11.556H120.203L120.287 13.558H118.579ZM127.448 19.2C127.7 18.99 127.882 18.542 127.994 17.898C127.966 17.114 127.798 16.526 127.518 16.12C127.266 15.714 126.86 15.518 126.342 15.518C125.81 15.518 125.39 15.742 125.082 16.12C124.774 16.54 124.606 17.156 124.592 17.926C124.76 19.032 125.278 19.578 126.314 19.578C126.79 19.55 127.154 19.41 127.448 19.2ZM122.632 20.558L122.478 11.556H124.172L124.06 14.902C124.578 14.384 125.208 14.174 126.062 14.174C127.966 14.174 129.24 15.812 129.24 18.178C129.24 20.544 127.966 22.182 126.062 22.182C125.208 22.182 124.55 21.958 124.032 21.426L122.632 20.558ZM131.293 14.342H132.791V17.842C132.861 19.018 133.239 19.634 134.107 19.634C134.667 19.634 135.101 19.466 135.395 19.116C135.703 18.766 135.857 18.234 135.913 17.618L135.983 14.342H137.859L137.719 22H136.025L136.053 21.412C135.521 21.93 134.863 22.182 134.065 22.182C132.245 22.182 131.293 21.062 131.293 18.92V14.342ZM140.845 12.578H142.595L142.539 14.342H144.177V15.77H142.525L142.455 18.626C142.455 19.144 142.511 19.452 142.637 19.564C142.735 19.676 143.001 19.746 143.421 19.746H144.877V22H143.421C141.475 22 140.705 21.328 140.705 19.382L140.775 15.77H139.907V14.342H140.775L140.845 12.578ZM153.99 18.136H148.67C148.726 18.808 148.936 19.284 149.23 19.494C149.622 19.732 150.252 19.886 150.938 19.942C151.4 19.942 151.792 19.928 152.226 19.886C152.618 19.858 153.136 19.662 153.752 19.34L153.78 21.552C152.8 21.972 151.834 22.182 150.868 22.182C149.678 22.14 148.726 21.776 147.998 21.09C147.284 20.39 146.92 19.438 146.92 18.234C147.004 15.77 148.376 14.174 150.686 14.174C151.722 14.216 152.506 14.496 153.052 15.014H153.038C153.584 15.532 153.906 16.33 153.99 17.408V18.136ZM152.394 16.596C152.296 16.358 152.1 16.078 151.89 15.826C151.596 15.476 151.19 15.294 150.686 15.294C150.098 15.294 149.636 15.476 149.3 15.826V15.812C149.034 16.078 148.866 16.344 148.81 16.596H152.394ZM161.64 16.204C160.758 15.77 159.96 15.546 159.232 15.546C158.224 15.546 157.678 15.868 157.678 16.414C157.678 16.638 157.762 16.82 157.93 16.96C158.112 17.1 158.532 17.254 159.106 17.38C159.176 17.394 159.246 17.408 159.316 17.422C159.372 17.45 159.442 17.464 159.498 17.464C160.38 17.646 161.024 17.926 161.402 18.248C161.794 18.598 162.018 19.116 162.018 19.774C162.018 21.272 160.758 22.182 158.812 22.182C158.028 22.182 157.104 22.014 156.04 21.664V19.34C157.118 19.9 158.056 20.18 158.826 20.18C159.288 20.18 159.624 20.124 159.834 20.012C160.044 19.914 160.17 19.746 160.17 19.536C160.058 19.354 159.974 19.2 159.876 19.088C159.792 19.018 159.428 18.906 158.77 18.766L158.35 18.668H158.364C156.824 18.36 156.096 17.8 156.096 16.526C156.096 15 157.16 14.174 159.106 14.174C160.002 14.174 160.842 14.314 161.64 14.636V16.204Z" fill="white"/>
<path d="M12.856 47.366V49.564H14.704C15.362 49.564 15.838 49.466 16.132 49.298C16.384 49.13 16.51 48.808 16.51 48.304C16.51 48.164 16.384 47.982 16.104 47.744C15.81 47.492 15.334 47.366 14.704 47.366H12.856ZM12.856 43.194V45.798H14.536C15.628 45.798 16.174 45.392 16.174 44.594C16.174 43.768 15.684 43.194 14.536 43.194H12.856ZM11.022 52V41.794H14.312C15.404 41.794 16.244 42.032 16.818 42.48C17.392 42.942 17.686 43.6 17.686 44.44C17.686 45.434 17.364 46.106 16.706 46.47C17.966 46.932 18.54 47.828 18.54 49.032C18.54 50.936 17.056 52 14.76 52H11.022ZM20.6063 52L20.6763 44.342H22.2303L22.2863 52H20.6063ZM20.5923 43.558L20.6763 41.556H22.2163L22.3003 43.558H20.5923ZM29.0561 48.024C29.0561 47.254 28.8881 46.638 28.5941 46.218C28.3001 45.812 27.8661 45.588 27.3061 45.588C26.2281 45.588 25.8361 46.358 25.6821 46.96C25.6121 47.268 25.5701 47.604 25.5701 47.996C25.6401 48.738 25.7941 49.2 25.9901 49.368C26.2281 49.508 26.6481 49.592 27.2221 49.592C28.3981 49.592 29.0561 49.494 29.0561 48.024ZM31.3801 44.342L31.1841 50.866C31.1281 52.392 30.8201 53.568 30.2461 54.184C29.6581 54.842 28.7621 55.164 27.5721 55.164C26.7181 55.164 25.9201 55.01 25.0801 54.716V52.014C25.9901 52.518 26.7321 52.728 27.3901 52.728C28.0621 52.728 28.5801 52.532 28.8881 52.182C29.1121 51.93 29.2521 51.678 29.3781 51.426C29.2661 51.496 29.1541 51.58 29.0141 51.664C28.5941 51.888 28.1041 52 27.5301 52C25.6121 52 24.3521 50.404 24.3521 48.094C24.3521 45.77 25.6121 44.174 27.5301 44.174C28.4401 44.174 29.1261 44.426 29.6441 45C29.6581 44.888 29.6721 44.762 29.6861 44.65C29.7001 44.538 29.7141 44.426 29.7141 44.342H31.3801ZM41.195 42.872C41.167 43.418 41.153 43.922 41.139 44.412C41.111 44.916 41.097 45.42 41.083 45.994H42.581C43.729 45.994 44.373 45.434 44.373 44.426C44.373 43.432 43.729 42.872 42.581 42.872H41.195ZM38.899 52L39.319 41.794H42.455C44.821 41.794 46.011 42.872 46.011 44.944C46.011 45.994 45.703 46.792 45.101 47.366C44.499 47.94 43.631 48.234 42.455 48.234H41.125L40.999 52H38.899ZM48.0731 52L48.1431 44.342H49.6971L49.7531 52H48.0731ZM48.0591 43.558L48.1431 41.556H49.6831L49.7671 43.558H48.0591ZM57.9929 46.33C57.1249 45.854 56.3549 45.616 55.7249 45.616C54.3529 45.616 53.6529 46.568 53.6389 48.15C53.6949 48.668 53.8769 49.074 54.1429 49.27C54.4509 49.466 55.0529 49.606 55.6829 49.662H56.6909C56.9849 49.648 57.4049 49.508 57.9509 49.186L57.9929 51.636C57.1949 52 56.4249 52.182 55.5989 52.182C53.3029 52.182 51.8189 50.586 51.8189 48.178C51.8189 45.714 53.2889 44.174 55.6689 44.174C56.4249 44.174 57.1949 44.356 57.9929 44.706V46.33ZM60.9737 42.578H62.7237L62.6677 44.342H64.3057V45.77H62.6537L62.5837 48.626C62.5837 49.144 62.6397 49.452 62.7657 49.564C62.8637 49.676 63.1297 49.746 63.5497 49.746H65.0057V52H63.5497C61.6037 52 60.8337 51.328 60.8337 49.382L60.9037 45.77H60.0357V44.342H60.9037L60.9737 42.578ZM67.0493 44.342H68.5473V47.842C68.6173 49.018 68.9953 49.634 69.8633 49.634C70.4233 49.634 70.8573 49.466 71.1513 49.116C71.4593 48.766 71.6133 48.234 71.6693 47.618L71.7393 44.342H73.6153L73.4753 52H71.7813L71.8093 51.412C71.2773 51.93 70.6193 52.182 69.8213 52.182C68.0013 52.182 67.0493 51.062 67.0493 48.92V44.342ZM80.3106 46.274C80.0166 46.106 79.8206 46.022 79.6526 45.966C79.4846 45.924 79.3306 45.924 79.1766 45.924C78.6026 45.924 78.1966 46.12 77.9586 46.484C77.6926 46.904 77.5526 47.464 77.5526 48.164L77.6926 52H75.6626L76.0126 44.412H77.5526V44.916C77.6086 44.874 77.6786 44.832 77.7486 44.804C77.8186 44.762 77.8746 44.72 77.9446 44.678V44.692C78.3926 44.426 78.9106 44.3 79.5266 44.3C79.6946 44.3 79.8906 44.328 80.2966 44.412L80.3106 46.274ZM89.4182 48.136H84.0982C84.1542 48.808 84.3642 49.284 84.6582 49.494C85.0502 49.732 85.6802 49.886 86.3662 49.942C86.8282 49.942 87.2202 49.928 87.6542 49.886C88.0462 49.858 88.5642 49.662 89.1802 49.34L89.2082 51.552C88.2282 51.972 87.2622 52.182 86.2962 52.182C85.1062 52.14 84.1542 51.776 83.4262 51.09C82.7122 50.39 82.3482 49.438 82.3482 48.234C82.4322 45.77 83.8042 44.174 86.1142 44.174C87.1502 44.216 87.9342 44.496 88.4802 45.014H88.4662C89.0122 45.532 89.3342 46.33 89.4182 47.408V48.136ZM87.8222 46.596C87.7242 46.358 87.5282 46.078 87.3182 45.826C87.0242 45.476 86.6182 45.294 86.1142 45.294C85.5262 45.294 85.0642 45.476 84.7282 45.826V45.812C84.4622 46.078 84.2942 46.344 84.2382 46.596H87.8222ZM96.9361 43.418V41.794H105.658V43.432L102.228 43.292L102.48 52H100.114L100.366 43.292L96.9361 43.418ZM114.332 47.422L114.472 52H112.512L112.652 47.464C112.652 46.274 112.204 45.574 111.322 45.574C110.216 45.574 109.53 46.442 109.53 47.702C109.544 48.374 109.572 49.116 109.586 49.858C109.614 50.586 109.642 51.328 109.656 52H107.696L107.962 41.556H109.656L109.544 44.972C110.09 44.412 110.748 44.174 111.588 44.174C113.394 44.174 114.332 45.28 114.332 47.436V47.422ZM116.528 52L116.598 44.342H118.152L118.208 52H116.528ZM116.514 43.558L116.598 41.556H118.138L118.222 43.558H116.514ZM127.232 52H125.02L125.286 47.394C125.286 46.218 124.95 45.63 124.082 45.63C122.794 45.63 122.22 46.372 122.22 47.632L122.43 52H120.274L120.484 44.286H122.164V44.888C122.36 44.762 122.556 44.65 122.766 44.524C123.186 44.3 123.662 44.174 124.208 44.174C126 44.174 126.924 45.336 127.036 47.422L127.232 52ZM129.284 52L129.55 41.556H131.244L131.174 46.736L133.218 44.342H135.374L132.49 47.912C132.812 48.234 133.162 48.556 133.512 48.906C133.876 49.256 134.24 49.62 134.618 49.97C134.982 50.32 135.346 50.67 135.71 51.02C136.074 51.37 136.41 51.692 136.718 52H133.54L131.216 49.144L131.384 52H129.284ZM145.828 48.136H140.508C140.564 48.808 140.774 49.284 141.068 49.494C141.46 49.732 142.09 49.886 142.776 49.942C143.238 49.942 143.63 49.928 144.064 49.886C144.456 49.858 144.974 49.662 145.59 49.34L145.618 51.552C144.638 51.972 143.672 52.182 142.706 52.182C141.516 52.14 140.564 51.776 139.836 51.09C139.122 50.39 138.758 49.438 138.758 48.234C138.842 45.77 140.214 44.174 142.524 44.174C143.56 44.216 144.344 44.496 144.89 45.014H144.876C145.422 45.532 145.744 46.33 145.828 47.408V48.136ZM144.232 46.596C144.134 46.358 143.938 46.078 143.728 45.826C143.434 45.476 143.028 45.294 142.524 45.294C141.936 45.294 141.474 45.476 141.138 45.826V45.812C140.872 46.078 140.704 46.344 140.648 46.596H144.232ZM152.525 46.274C152.231 46.106 152.035 46.022 151.867 45.966C151.699 45.924 151.545 45.924 151.391 45.924C150.817 45.924 150.411 46.12 150.173 46.484C149.907 46.904 149.767 47.464 149.767 48.164L149.907 52H147.877L148.227 44.412H149.767V44.916C149.823 44.874 149.893 44.832 149.963 44.804C150.033 44.762 150.089 44.72 150.159 44.678V44.692C150.607 44.426 151.125 44.3 151.741 44.3C151.909 44.3 152.105 44.328 152.511 44.412L152.525 46.274Z" fill="#B48FF1"/>
<path d="M165.366 51.5C164.981 52.1667 164.019 52.1667 163.634 51.5L159.737 44.75C159.352 44.0833 159.833 43.25 160.603 43.25L168.397 43.25C169.167 43.25 169.648 44.0833 169.263 44.75L165.366 51.5Z" fill="#B48FF1"/>
</svg>
