<svg xmlns="http://www.w3.org/2000/svg" xmlns:xlink="http://www.w3.org/1999/xlink" width="274.979" height="176.07" viewBox="0 0 274.979 176.07"><defs><linearGradient id="a" x1="0.789" y1="0.898" x2="0.154" y2="0.124" gradientUnits="objectBoundingBox"><stop offset="0" stop-color="#3b018c"/><stop offset="1" stop-color="#ac3eb4"/></linearGradient></defs><g transform="translate(-358.752 -359.623)"><path d="M441.04,400.8v2.9h-.876v-2.9l-3.358-5.493h.947l2.879,4.712,2.878-4.712h.888Z" fill="#fdffeb"/><path d="M444.246,400.553a3.209,3.209,0,1,1,3.214,3.214A3.1,3.1,0,0,1,444.246,400.553Zm5.553,0a2.348,2.348,0,1,0-2.339,2.458A2.3,2.3,0,0,0,449.8,400.553Z" fill="#fdffeb"/><path d="M458.09,397.4v6.309h-.816v-1.151a2.509,2.509,0,0,1-2.266,1.211,2.444,2.444,0,0,1-2.663-2.71V397.4h.852v3.575a1.765,1.765,0,0,0,1.9,2.026,2.051,2.051,0,0,0,2.146-2.291V397.4Z" fill="#fdffeb"/><path d="M469.382,394.808v8.9h-.816v-1.248a2.733,2.733,0,0,1-2.435,1.308,3.209,3.209,0,0,1,0-6.416,2.754,2.754,0,0,1,2.4,1.247v-3.79Zm-.84,5.745a2.347,2.347,0,1,0-2.338,2.458A2.307,2.307,0,0,0,468.542,400.553Z" fill="#fdffeb"/><path d="M471.569,395.407a.615.615,0,0,1,.623-.6.6.6,0,0,1,.624.588.624.624,0,0,1-1.247.011Zm.192,1.991h.851v6.309h-.851Z" fill="#fdffeb"/><path d="M480.746,394.808v8.9h-.816v-1.248a2.733,2.733,0,0,1-2.435,1.308,3.209,3.209,0,0,1,0-6.416,2.757,2.757,0,0,1,2.4,1.247v-3.79Zm-.84,5.745a2.347,2.347,0,1,0-2.339,2.458A2.307,2.307,0,0,0,479.906,400.553Z" fill="#fdffeb"/><path d="M485.393,402.987l.383-.672a3.813,3.813,0,0,0,2.244.708c1.2,0,1.69-.408,1.69-1.031,0-1.643-4.09-.348-4.09-2.843,0-1.031.888-1.8,2.495-1.8a4.274,4.274,0,0,1,2.231.587l-.371.683a3.234,3.234,0,0,0-1.86-.539c-1.139,0-1.643.443-1.643,1.043,0,1.7,4.09.42,4.09,2.843,0,1.092-.959,1.8-2.6,1.8A4.21,4.21,0,0,1,485.393,402.987Z" fill="#fdffeb"/><path d="M497.629,400.816h-5.276a2.334,2.334,0,0,0,2.482,2.195,2.488,2.488,0,0,0,1.931-.827l.479.551a3.334,3.334,0,0,1-5.744-2.182,3.038,3.038,0,0,1,3.082-3.2,3.006,3.006,0,0,1,3.059,3.2C497.642,400.624,497.629,400.721,497.629,400.816Zm-5.276-.635h4.473a2.241,2.241,0,0,0-4.473,0Z" fill="#fdffeb"/><path d="M504.877,400.816H499.6a2.334,2.334,0,0,0,2.482,2.195,2.488,2.488,0,0,0,1.931-.827l.479.551a3.334,3.334,0,0,1-5.744-2.182,3.038,3.038,0,0,1,3.082-3.2,3.006,3.006,0,0,1,3.059,3.2C504.89,400.624,504.877,400.721,504.877,400.816Zm-5.276-.635h4.473a2.241,2.241,0,0,0-4.473,0Z" fill="#fdffeb"/><path d="M517.043,400.049v3.658h-.852v-3.574c0-1.331-.671-2.015-1.81-2.015a2.027,2.027,0,0,0-2.111,2.278v3.311h-.852v-3.574c0-1.331-.672-2.015-1.823-2.015a2.033,2.033,0,0,0-2.111,2.278v3.311h-.851V397.4h.815v1.152a2.55,2.55,0,0,1,2.315-1.2,2.265,2.265,0,0,1,2.243,1.331,2.746,2.746,0,0,1,2.494-1.331A2.381,2.381,0,0,1,517.043,400.049Z" fill="#fdffeb"/><path d="M525.831,403.323a2.028,2.028,0,0,1-1.331.444,1.672,1.672,0,0,1-1.848-1.835v-3.814h-1.127v-.72h1.127v-1.379h.852V397.4h1.919v.72H523.5v3.766a1.01,1.01,0,0,0,1.092,1.151,1.409,1.409,0,0,0,.935-.324Z" fill="#fdffeb"/><path d="M526.517,400.553a3.208,3.208,0,1,1,3.213,3.214A3.1,3.1,0,0,1,526.517,400.553Zm5.552,0a2.347,2.347,0,1,0-2.339,2.458A2.3,2.3,0,0,0,532.069,400.553Z" fill="#fdffeb"/><path d="M537.185,400.553a3.1,3.1,0,0,1,3.25-3.2,2.756,2.756,0,0,1,2.47,1.247l-.635.431a2.147,2.147,0,0,0-1.835-.935,2.46,2.46,0,0,0,0,4.917,2.134,2.134,0,0,0,1.835-.923l.635.432a2.782,2.782,0,0,1-2.47,1.247A3.114,3.114,0,0,1,537.185,400.553Z" fill="#fdffeb"/><path d="M543.833,400.553a3.208,3.208,0,1,1,3.214,3.214A3.1,3.1,0,0,1,543.833,400.553Zm5.553,0a2.348,2.348,0,1,0-2.339,2.458A2.3,2.3,0,0,0,549.386,400.553Z" fill="#fdffeb"/><path d="M562.4,400.049v3.658h-.851v-3.574c0-1.331-.672-2.015-1.811-2.015a2.027,2.027,0,0,0-2.111,2.278v3.311h-.852v-3.574c0-1.331-.672-2.015-1.823-2.015a2.032,2.032,0,0,0-2.11,2.278v3.311h-.852V397.4h.816v1.152a2.548,2.548,0,0,1,2.314-1.2,2.265,2.265,0,0,1,2.243,1.331,2.747,2.747,0,0,1,2.494-1.331A2.38,2.38,0,0,1,562.4,400.049Z" fill="#fdffeb"/><path d="M570.241,400.816h-5.277a2.334,2.334,0,0,0,2.482,2.195,2.489,2.489,0,0,0,1.931-.827l.48.551a3.335,3.335,0,0,1-5.745-2.182,3.038,3.038,0,0,1,3.082-3.2,3.005,3.005,0,0,1,3.059,3.2C570.253,400.624,570.241,400.721,570.241,400.816Zm-5.277-.635h4.474a2.242,2.242,0,0,0-4.474,0Z" fill="#fdffeb"/><path d="M580.824,397.4v6.309h-.815v-1.151a2.51,2.51,0,0,1-2.267,1.211,2.444,2.444,0,0,1-2.663-2.71V397.4h.852v3.575A1.766,1.766,0,0,0,577.826,403a2.051,2.051,0,0,0,2.147-2.291V397.4Z" fill="#fdffeb"/><path d="M589.608,400.553a3.055,3.055,0,0,1-3.142,3.214,2.756,2.756,0,0,1-2.4-1.247v3.513h-.851V397.4h.815v1.248a2.748,2.748,0,0,1,2.435-1.295A3.051,3.051,0,0,1,589.608,400.553Zm-.851,0a2.353,2.353,0,1,0-2.351,2.458A2.323,2.323,0,0,0,588.757,400.553Z" fill="#fdffeb"/><path d="M603.754,397.4l-2.387,6.309h-.8l-1.991-5.169-1.99,5.169h-.8L593.4,397.4h.816l1.979,5.362,2.027-5.362h.731l2.016,5.362,2-5.362Z" fill="#fdffeb"/><path d="M604.851,395.407a.615.615,0,0,1,.624-.6.605.605,0,0,1,.624.588.624.624,0,0,1-1.248.011Zm.192,1.991h.852v6.309h-.852Z" fill="#fdffeb"/><path d="M611.593,403.323a2.028,2.028,0,0,1-1.331.444,1.672,1.672,0,0,1-1.848-1.835v-3.814h-1.127v-.72h1.127v-1.379h.852V397.4h1.919v.72h-1.919v3.766a1.01,1.01,0,0,0,1.091,1.151,1.41,1.41,0,0,0,.936-.324Z" fill="#fdffeb"/><path d="M618.947,400.049v3.658H618.1v-3.574a1.762,1.762,0,0,0-1.9-2.015,2.068,2.068,0,0,0-2.207,2.278v3.311h-.851v-8.9h.851V398.5a2.667,2.667,0,0,1,2.362-1.151A2.414,2.414,0,0,1,618.947,400.049Z" fill="#fdffeb"/><path d="M437.209,417.723a2.03,2.03,0,0,1-1.331.444,1.671,1.671,0,0,1-1.847-1.835v-3.814H432.9v-.72h1.127v-1.379h.851V411.8H436.8v.72h-1.919v3.765a1.011,1.011,0,0,0,1.092,1.152,1.407,1.407,0,0,0,.935-.324Z" fill="#fdffeb"/><path d="M444.564,414.448v3.658h-.852v-3.574a1.761,1.761,0,0,0-1.9-2.014,2.068,2.068,0,0,0-2.206,2.279v3.309h-.852v-8.9h.852V412.9a2.667,2.667,0,0,1,2.362-1.151A2.415,2.415,0,0,1,444.564,414.448Z" fill="#fdffeb"/><path d="M452.4,415.216h-5.277a2.336,2.336,0,0,0,2.482,2.2,2.491,2.491,0,0,0,1.932-.827l.479.551a3.334,3.334,0,0,1-5.744-2.183,3.038,3.038,0,0,1,3.082-3.2,3.006,3.006,0,0,1,3.058,3.2C452.412,415.024,452.4,415.12,452.4,415.216Zm-5.277-.635H451.6a2.241,2.241,0,0,0-4.474,0Z" fill="#fdffeb"/><path d="M463.691,414.952a3.062,3.062,0,0,1-3.142,3.215,2.731,2.731,0,0,1-2.434-1.308v1.247H457.3v-8.9h.852V413a2.755,2.755,0,0,1,2.4-1.247A3.051,3.051,0,0,1,463.691,414.952Zm-.851,0a2.353,2.353,0,1,0-2.351,2.459A2.316,2.316,0,0,0,462.84,414.952Z" fill="#fdffeb"/><path d="M470.928,415.216h-5.277a2.335,2.335,0,0,0,2.482,2.2,2.488,2.488,0,0,0,1.931-.827l.48.551a3.335,3.335,0,0,1-5.745-2.183,3.038,3.038,0,0,1,3.082-3.2,3.007,3.007,0,0,1,3.059,3.2C470.94,415.024,470.928,415.12,470.928,415.216Zm-5.277-.635h4.474a2.241,2.241,0,0,0-4.474,0Z" fill="#fdffeb"/><path d="M471.808,417.387l.383-.671a3.816,3.816,0,0,0,2.243.707c1.2,0,1.691-.407,1.691-1.031,0-1.644-4.09-.348-4.09-2.843,0-1.031.888-1.8,2.495-1.8a4.286,4.286,0,0,1,2.231.588l-.372.683a3.24,3.24,0,0,0-1.859-.54c-1.139,0-1.643.445-1.643,1.044,0,1.7,4.09.42,4.09,2.842,0,1.092-.96,1.8-2.6,1.8A4.21,4.21,0,0,1,471.808,417.387Z" fill="#fdffeb"/><path d="M481.873,417.723a2.033,2.033,0,0,1-1.331.444,1.672,1.672,0,0,1-1.848-1.835v-3.814h-1.127v-.72h1.127v-1.379h.852V411.8h1.919v.72h-1.919v3.765a1.011,1.011,0,0,0,1.092,1.152,1.409,1.409,0,0,0,.935-.324Z" fill="#fdffeb"/><path d="M492.96,414.952a3.056,3.056,0,0,1-3.143,3.215,2.753,2.753,0,0,1-2.4-1.248v3.515h-.852V411.8h.816v1.248a2.745,2.745,0,0,1,2.434-1.3A3.053,3.053,0,0,1,492.96,414.952Zm-.852,0a2.353,2.353,0,1,0-2.351,2.459A2.323,2.323,0,0,0,492.108,414.952Z" fill="#fdffeb"/><path d="M494.067,414.952a3.208,3.208,0,1,1,3.214,3.215A3.1,3.1,0,0,1,494.067,414.952Zm5.553,0a2.347,2.347,0,1,0-2.339,2.459A2.3,2.3,0,0,0,499.62,414.952Z" fill="#fdffeb"/><path d="M501.352,417.387l.383-.671a3.814,3.814,0,0,0,2.243.707c1.2,0,1.691-.407,1.691-1.031,0-1.644-4.09-.348-4.09-2.843,0-1.031.888-1.8,2.494-1.8a4.287,4.287,0,0,1,2.232.588l-.372.683a3.241,3.241,0,0,0-1.86-.54c-1.138,0-1.642.445-1.642,1.044,0,1.7,4.09.42,4.09,2.842,0,1.092-.96,1.8-2.6,1.8A4.208,4.208,0,0,1,501.352,417.387Z" fill="#fdffeb"/><path d="M507.22,417.387l.384-.671a3.813,3.813,0,0,0,2.242.707c1.2,0,1.691-.407,1.691-1.031,0-1.644-4.09-.348-4.09-2.843,0-1.031.888-1.8,2.495-1.8a4.28,4.28,0,0,1,2.231.588l-.372.683a3.24,3.24,0,0,0-1.859-.54c-1.139,0-1.643.445-1.643,1.044,0,1.7,4.09.42,4.09,2.842,0,1.092-.959,1.8-2.6,1.8A4.21,4.21,0,0,1,507.22,417.387Z" fill="#fdffeb"/><path d="M513.772,409.808a.614.614,0,0,1,.624-.6.606.606,0,0,1,.624.587.624.624,0,0,1-1.248.013Zm.192,1.99h.851v6.308h-.851Z" fill="#fdffeb"/><path d="M523.584,414.952a3.063,3.063,0,0,1-3.143,3.215,2.731,2.731,0,0,1-2.434-1.308v1.247h-.816v-8.9h.852V413a2.755,2.755,0,0,1,2.4-1.247A3.053,3.053,0,0,1,523.584,414.952Zm-.852,0a2.353,2.353,0,1,0-2.35,2.459A2.316,2.316,0,0,0,522.732,414.952Z" fill="#fdffeb"/><path d="M525.327,409.208h.852v8.9h-.852Z" fill="#fdffeb"/><path d="M534.048,415.216h-5.277a2.335,2.335,0,0,0,2.482,2.2,2.489,2.489,0,0,0,1.931-.827l.48.551a3.335,3.335,0,0,1-5.745-2.183,3.038,3.038,0,0,1,3.082-3.2,3.007,3.007,0,0,1,3.059,3.2C534.06,415.024,534.048,415.12,534.048,415.216Zm-5.277-.635h4.473a2.241,2.241,0,0,0-4.473,0Z" fill="#fdffeb"/><path d="M543.707,414.2v3.909h-.815v-.983a2.368,2.368,0,0,1-2.171,1.044c-1.427,0-2.3-.744-2.3-1.835,0-.972.624-1.787,2.436-1.787h2v-.384c0-1.08-.612-1.667-1.787-1.667a3.214,3.214,0,0,0-2.1.743l-.384-.635a4,4,0,0,1,2.567-.852A2.24,2.24,0,0,1,543.707,414.2Zm-.851,2.015v-1.031h-1.979c-1.224,0-1.619.479-1.619,1.127,0,.731.588,1.187,1.6,1.187A2.017,2.017,0,0,0,542.856,416.212Z" fill="#fdffeb"/><path d="M551.831,414.448v3.658h-.851v-3.574a1.761,1.761,0,0,0-1.895-2.014,2.068,2.068,0,0,0-2.207,2.279v3.309h-.852V411.8h.816v1.164a2.65,2.65,0,0,1,2.4-1.212A2.415,2.415,0,0,1,551.831,414.448Z" fill="#fdffeb"/><path d="M553.274,417.387l.384-.671a3.818,3.818,0,0,0,2.243.707c1.2,0,1.692-.407,1.692-1.031,0-1.644-4.09-.348-4.09-2.843,0-1.031.887-1.8,2.494-1.8a4.283,4.283,0,0,1,2.231.588l-.372.683a3.238,3.238,0,0,0-1.859-.54c-1.14,0-1.642.445-1.642,1.044,0,1.7,4.089.42,4.089,2.842,0,1.092-.96,1.8-2.6,1.8A4.217,4.217,0,0,1,553.274,417.387Z" fill="#fdffeb"/><path d="M569.157,411.8l-2.386,6.308h-.8l-1.991-5.168-1.991,5.168h-.8l-2.375-6.308h.815l1.98,5.361,2.026-5.361h.731l2.016,5.361,2-5.361Z" fill="#fdffeb"/><path d="M575.759,415.216h-5.278a2.336,2.336,0,0,0,2.483,2.2,2.49,2.49,0,0,0,1.931-.827l.48.551a3.335,3.335,0,0,1-5.745-2.183,3.038,3.038,0,0,1,3.082-3.2,3.007,3.007,0,0,1,3.059,3.2C575.771,415.024,575.759,415.12,575.759,415.216Zm-5.278-.635h4.474a2.241,2.241,0,0,0-4.474,0Z" fill="#fdffeb"/><path d="M580.691,411.75v.828c-.071,0-.143-.013-.2-.013a2.042,2.042,0,0,0-2.123,2.328v3.213h-.851V411.8h.815v1.235A2.379,2.379,0,0,1,580.691,411.75Z" fill="#fdffeb"/><path d="M584.833,414.952a3.208,3.208,0,1,1,3.214,3.215A3.1,3.1,0,0,1,584.833,414.952Zm5.553,0a2.348,2.348,0,1,0-2.339,2.459A2.3,2.3,0,0,0,590.386,414.952Z" fill="#fdffeb"/><path d="M598.8,414.448v3.658h-.852v-3.574a1.76,1.76,0,0,0-1.894-2.014,2.068,2.068,0,0,0-2.207,2.279v3.309h-.852V411.8h.816v1.164a2.65,2.65,0,0,1,2.4-1.212A2.415,2.415,0,0,1,598.8,414.448Z" fill="#fdffeb"/><path d="M614.671,414.448v3.658h-.852v-3.574c0-1.331-.672-2.014-1.81-2.014A2.028,2.028,0,0,0,609.9,414.8v3.309h-.851v-3.574c0-1.331-.672-2.014-1.823-2.014a2.033,2.033,0,0,0-2.111,2.279v3.309h-.851V411.8h.815v1.151a2.553,2.553,0,0,1,2.315-1.2,2.266,2.266,0,0,1,2.243,1.331,2.748,2.748,0,0,1,2.494-1.331A2.382,2.382,0,0,1,614.671,414.448Z" fill="#fdffeb"/><path d="M616.381,414.952a3.208,3.208,0,1,1,3.214,3.215A3.1,3.1,0,0,1,616.381,414.952Zm5.553,0a2.348,2.348,0,1,0-2.339,2.459A2.3,2.3,0,0,0,621.934,414.952Z" fill="#fdffeb"/><path d="M623.665,417.387l.384-.671a3.816,3.816,0,0,0,2.243.707c1.2,0,1.691-.407,1.691-1.031,0-1.644-4.089-.348-4.089-2.843,0-1.031.886-1.8,2.494-1.8a4.279,4.279,0,0,1,2.23.588l-.371.683a3.242,3.242,0,0,0-1.859-.54c-1.14,0-1.643.445-1.643,1.044,0,1.7,4.09.42,4.09,2.842,0,1.092-.96,1.8-2.6,1.8A4.214,4.214,0,0,1,623.665,417.387Z" fill="#fdffeb"/><path d="M633.731,417.723a2.03,2.03,0,0,1-1.331.444,1.671,1.671,0,0,1-1.847-1.835v-3.814h-1.127v-.72h1.127v-1.379h.851V411.8h1.919v.72H631.4v3.765a1.011,1.011,0,0,0,1.092,1.152,1.412,1.412,0,0,0,.936-.324Z" fill="#fdffeb"/><path d="M422.422,429.353a3.209,3.209,0,1,1,3.215,3.214A3.1,3.1,0,0,1,422.422,429.353Zm5.553,0a2.347,2.347,0,1,0-2.338,2.459A2.3,2.3,0,0,0,427.975,429.353Z" fill="#fdffeb"/><path d="M429.946,429.353a3.106,3.106,0,0,1,3.25-3.2,2.755,2.755,0,0,1,2.471,1.247l-.636.433a2.142,2.142,0,0,0-1.835-.935,2.46,2.46,0,0,0,0,4.917,2.134,2.134,0,0,0,1.835-.924l.636.431a2.777,2.777,0,0,1-2.471,1.248A3.115,3.115,0,0,1,429.946,429.353Z" fill="#fdffeb"/><path d="M436.594,429.353a3.106,3.106,0,0,1,3.25-3.2,2.755,2.755,0,0,1,2.471,1.247l-.636.433a2.142,2.142,0,0,0-1.835-.935,2.46,2.46,0,0,0,0,4.917,2.134,2.134,0,0,0,1.835-.924l.636.431a2.778,2.778,0,0,1-2.471,1.248A3.115,3.115,0,0,1,436.594,429.353Z" fill="#fdffeb"/><path d="M448.747,428.6v3.909h-.815v-.984a2.369,2.369,0,0,1-2.171,1.044c-1.427,0-2.3-.744-2.3-1.835,0-.971.624-1.787,2.435-1.787h2v-.383c0-1.081-.612-1.667-1.788-1.667a3.209,3.209,0,0,0-2.1.743l-.384-.636a4,4,0,0,1,2.566-.852A2.241,2.241,0,0,1,448.747,428.6Zm-.851,2.014v-1.031h-1.979c-1.224,0-1.62.48-1.62,1.127,0,.731.588,1.188,1.6,1.188A2.02,2.02,0,0,0,447.9,430.612Z" fill="#fdffeb"/><path d="M450.19,431.787l.384-.671a3.809,3.809,0,0,0,2.243.707c1.2,0,1.691-.407,1.691-1.031,0-1.644-4.09-.348-4.09-2.843,0-1.031.888-1.8,2.495-1.8a4.283,4.283,0,0,1,2.231.588l-.372.684a3.232,3.232,0,0,0-1.859-.54c-1.14,0-1.643.444-1.643,1.044,0,1.7,4.089.42,4.089,2.842,0,1.091-.959,1.8-2.6,1.8A4.214,4.214,0,0,1,450.19,431.787Z" fill="#fdffeb"/><path d="M456.742,424.208a.615.615,0,0,1,.624-.6.6.6,0,0,1,.623.587.624.624,0,0,1-1.247.013Zm.192,1.99h.852v6.309h-.852Z" fill="#fdffeb"/><path d="M459.526,429.353a3.209,3.209,0,1,1,3.215,3.214A3.1,3.1,0,0,1,459.526,429.353Zm5.553,0a2.347,2.347,0,1,0-2.338,2.459A2.3,2.3,0,0,0,465.079,429.353Z" fill="#fdffeb"/><path d="M473.491,428.849v3.658h-.852v-3.574a1.762,1.762,0,0,0-1.9-2.015,2.068,2.068,0,0,0-2.206,2.279v3.31h-.852V426.2h.815v1.164a2.654,2.654,0,0,1,2.4-1.212A2.416,2.416,0,0,1,473.491,428.849Z" fill="#fdffeb"/><path d="M474.935,431.787l.383-.671a3.807,3.807,0,0,0,2.243.707c1.2,0,1.691-.407,1.691-1.031,0-1.644-4.09-.348-4.09-2.843,0-1.031.888-1.8,2.494-1.8a4.287,4.287,0,0,1,2.232.588l-.372.684a3.233,3.233,0,0,0-1.86-.54c-1.138,0-1.642.444-1.642,1.044,0,1.7,4.09.42,4.09,2.842,0,1.091-.96,1.8-2.6,1.8A4.208,4.208,0,0,1,474.935,431.787Z" fill="#fdffeb"/><path d="M490.123,426.2l-3.154,7.065c-.528,1.235-1.2,1.631-2.1,1.631a2.158,2.158,0,0,1-1.535-.576l.4-.635a1.579,1.579,0,0,0,1.152.479c.563,0,.947-.264,1.307-1.056l.276-.611-2.818-6.3h.887l2.375,5.362,2.374-5.362Z" fill="#fdffeb"/><path d="M490.511,429.353a3.208,3.208,0,1,1,3.214,3.214A3.1,3.1,0,0,1,490.511,429.353Zm5.552,0a2.347,2.347,0,1,0-2.338,2.459A2.3,2.3,0,0,0,496.063,429.353Z" fill="#fdffeb"/><path d="M504.355,426.2v6.309h-.816v-1.152a2.51,2.51,0,0,1-2.267,1.212,2.444,2.444,0,0,1-2.663-2.711V426.2h.852v3.574a1.766,1.766,0,0,0,1.895,2.028,2.051,2.051,0,0,0,2.147-2.291V426.2Z" fill="#fdffeb"/><path d="M519.148,426.2l-2.386,6.309h-.8l-1.991-5.169-1.99,5.169h-.8L508.8,426.2h.815l1.98,5.362,2.026-5.362h.732l2.015,5.362,2-5.362Z" fill="#fdffeb"/><path d="M525.751,429.616h-5.277a2.335,2.335,0,0,0,2.482,2.2,2.489,2.489,0,0,0,1.931-.828l.48.551a3.335,3.335,0,0,1-5.745-2.182,3.039,3.039,0,0,1,3.082-3.2,3.007,3.007,0,0,1,3.059,3.2C525.763,429.425,525.751,429.521,525.751,429.616Zm-5.277-.635h4.473a2.241,2.241,0,0,0-4.473,0Z" fill="#fdffeb"/><path d="M530.684,426.15v.829c-.072,0-.144-.013-.2-.013a2.041,2.041,0,0,0-2.123,2.327v3.214h-.851V426.2h.815v1.236A2.381,2.381,0,0,1,530.684,426.15Z" fill="#fdffeb"/><path d="M537.654,429.616h-5.277a2.335,2.335,0,0,0,2.482,2.2,2.488,2.488,0,0,0,1.931-.828l.481.551a3.336,3.336,0,0,1-5.746-2.182,3.039,3.039,0,0,1,3.082-3.2,3.007,3.007,0,0,1,3.059,3.2C537.666,429.425,537.654,429.521,537.654,429.616Zm-5.277-.635h4.474a2.242,2.242,0,0,0-4.474,0Z" fill="#fdffeb"/><path d="M541.917,429.353a3.106,3.106,0,0,1,3.25-3.2,2.758,2.758,0,0,1,2.471,1.247l-.636.433a2.144,2.144,0,0,0-1.835-.935,2.46,2.46,0,0,0,0,4.917,2.137,2.137,0,0,0,1.835-.924l.636.431a2.78,2.78,0,0,1-2.471,1.248A3.115,3.115,0,0,1,541.917,429.353Z" fill="#fdffeb"/><path d="M548.565,429.353a3.208,3.208,0,1,1,3.214,3.214A3.1,3.1,0,0,1,548.565,429.353Zm5.553,0a2.347,2.347,0,1,0-2.339,2.459A2.3,2.3,0,0,0,554.118,429.353Z" fill="#fdffeb"/><path d="M562.53,428.849v3.658h-.851v-3.574a1.762,1.762,0,0,0-1.9-2.015,2.069,2.069,0,0,0-2.207,2.279v3.31h-.851V426.2h.815v1.164a2.653,2.653,0,0,1,2.4-1.212A2.415,2.415,0,0,1,562.53,428.849Z" fill="#fdffeb"/><path d="M565.821,425.455v.743h1.943v.72h-1.919v5.589h-.852v-5.589h-1.127v-.72h1.127v-.779a1.738,1.738,0,0,1,1.907-1.871,2,2,0,0,1,1.259.395l-.287.636a1.447,1.447,0,0,0-.935-.311C566.205,424.268,565.821,424.676,565.821,425.455Z" fill="#fdffeb"/><path d="M573.055,426.15v.829c-.072,0-.144-.013-.2-.013a2.041,2.041,0,0,0-2.123,2.327v3.214h-.852V426.2h.815v1.236A2.381,2.381,0,0,1,573.055,426.15Z" fill="#fdffeb"/><path d="M573.9,429.353a3.208,3.208,0,1,1,3.213,3.214A3.1,3.1,0,0,1,573.9,429.353Zm5.552,0a2.347,2.347,0,1,0-2.339,2.459A2.3,2.3,0,0,0,579.449,429.353Z" fill="#fdffeb"/><path d="M587.861,428.849v3.658h-.851v-3.574a1.762,1.762,0,0,0-1.9-2.015,2.069,2.069,0,0,0-2.207,2.279v3.31h-.851V426.2h.815v1.164a2.654,2.654,0,0,1,2.4-1.212A2.415,2.415,0,0,1,587.861,428.849Z" fill="#fdffeb"/><path d="M593.5,432.123a2.028,2.028,0,0,1-1.331.444,1.671,1.671,0,0,1-1.848-1.835v-3.814H589.2v-.72h1.127v-1.379h.852V426.2h1.919v.72h-1.919v3.766a1.01,1.01,0,0,0,1.092,1.151,1.408,1.408,0,0,0,.935-.323Z" fill="#fdffeb"/><path d="M600.318,429.616h-5.277a2.336,2.336,0,0,0,2.482,2.2,2.488,2.488,0,0,0,1.931-.828l.481.551a3.336,3.336,0,0,1-5.746-2.182,3.039,3.039,0,0,1,3.083-3.2,3.007,3.007,0,0,1,3.058,3.2C600.33,429.425,600.318,429.521,600.318,429.616Zm-5.277-.635h4.474a2.242,2.242,0,0,0-4.474,0Z" fill="#fdffeb"/><path d="M607.83,423.608v8.9h-.815V431.26a2.735,2.735,0,0,1-2.435,1.307,3.209,3.209,0,0,1,0-6.417,2.758,2.758,0,0,1,2.4,1.247v-3.789Zm-.84,5.745a2.347,2.347,0,1,0-2.339,2.459A2.307,2.307,0,0,0,606.99,429.353Z" fill="#fdffeb"/><path d="M409.415,440.6l-2.387,6.308h-.8l-1.991-5.169-1.99,5.169h-.8l-2.375-6.308h.816l1.979,5.361,2.027-5.361h.731l2.015,5.361,2-5.361Z" fill="#fdffeb"/><path d="M410.512,438.607a.615.615,0,0,1,.623-.6.6.6,0,0,1,.624.588.624.624,0,0,1-1.247.011Zm.192,1.992h.851v6.308H410.7Z" fill="#fdffeb"/><path d="M417.254,446.523a2.029,2.029,0,0,1-1.332.444,1.671,1.671,0,0,1-1.847-1.835v-3.814h-1.127V440.6h1.127v-1.38h.852v1.38h1.919v.719h-1.919v3.766a1.01,1.01,0,0,0,1.092,1.151,1.409,1.409,0,0,0,.935-.324Z" fill="#fdffeb"/><path d="M424.608,443.249v3.658h-.851v-3.574a1.762,1.762,0,0,0-1.895-2.015,2.068,2.068,0,0,0-2.207,2.279v3.31H418.8v-8.9h.851V441.7a2.667,2.667,0,0,1,2.363-1.151A2.414,2.414,0,0,1,424.608,443.249Z" fill="#fdffeb"/><path d="M434.833,443v3.91h-.815v-.983a2.371,2.371,0,0,1-2.171,1.043c-1.428,0-2.3-.743-2.3-1.835,0-.972.623-1.787,2.435-1.787h2v-.384c0-1.079-.611-1.667-1.787-1.667a3.21,3.21,0,0,0-2.1.744l-.384-.636a4,4,0,0,1,2.566-.851A2.24,2.24,0,0,1,434.833,443Zm-.852,2.015V443.98H432c-1.223,0-1.619.48-1.619,1.128,0,.732.588,1.187,1.6,1.187A2.016,2.016,0,0,0,433.981,445.012Z" fill="#fdffeb"/><path d="M446.688,443.753a3.055,3.055,0,0,1-3.142,3.214,2.758,2.758,0,0,1-2.4-1.247v3.513H440.3V440.6h.815v1.247a2.747,2.747,0,0,1,2.435-1.3A3.051,3.051,0,0,1,446.688,443.753Zm-.851,0a2.353,2.353,0,1,0-2.351,2.458A2.323,2.323,0,0,0,445.837,443.753Z" fill="#fdffeb"/><path d="M451.61,440.551v.827c-.072,0-.144-.012-.2-.012a2.04,2.04,0,0,0-2.123,2.326v3.215h-.851V440.6h.815v1.235A2.378,2.378,0,0,1,451.61,440.551Z" fill="#fdffeb"/><path d="M452.452,443.753a3.209,3.209,0,1,1,3.215,3.214A3.1,3.1,0,0,1,452.452,443.753Zm5.553,0a2.348,2.348,0,1,0-2.338,2.458A2.3,2.3,0,0,0,458.005,443.753Z" fill="#fdffeb"/><path d="M467,443.753a3.062,3.062,0,0,1-3.142,3.214,2.733,2.733,0,0,1-2.435-1.308v1.248h-.815v-8.9h.851v3.79a2.755,2.755,0,0,1,2.4-1.247A3.051,3.051,0,0,1,467,443.753Zm-.851,0a2.353,2.353,0,1,0-2.351,2.458A2.317,2.317,0,0,0,466.153,443.753Z" fill="#fdffeb"/><path d="M468.748,438.008h.851v8.9h-.851Z" fill="#fdffeb"/><path d="M477.468,444.017h-5.277a2.335,2.335,0,0,0,2.483,2.194,2.487,2.487,0,0,0,1.931-.827l.479.552a3.335,3.335,0,0,1-5.744-2.183,3.038,3.038,0,0,1,3.082-3.2,3.005,3.005,0,0,1,3.058,3.2C477.48,443.824,477.468,443.921,477.468,444.017Zm-5.277-.636h4.474a2.242,2.242,0,0,0-4.474,0Z" fill="#fdffeb"/><path d="M489.634,443.249v3.658h-.852v-3.574c0-1.331-.672-2.015-1.811-2.015a2.028,2.028,0,0,0-2.111,2.279v3.31h-.851v-3.574c0-1.331-.672-2.015-1.823-2.015a2.033,2.033,0,0,0-2.111,2.279v3.31h-.851V440.6h.815v1.151a2.549,2.549,0,0,1,2.315-1.2,2.266,2.266,0,0,1,2.243,1.331,2.744,2.744,0,0,1,2.494-1.331A2.381,2.381,0,0,1,489.634,443.249Z" fill="#fdffeb"/><path d="M492.687,446.308a1.958,1.958,0,0,1-.168.695l-.5,1.655h-.577l.409-1.739a.607.607,0,0,1-.433-.611.636.636,0,1,1,1.272,0Z" fill="#fdffeb"/><path d="M502.4,443v3.91h-.815v-.983a2.37,2.37,0,0,1-2.171,1.043c-1.427,0-2.3-.743-2.3-1.835,0-.972.624-1.787,2.435-1.787h2v-.384c0-1.079-.612-1.667-1.787-1.667a3.213,3.213,0,0,0-2.1.744l-.384-.636a4.006,4.006,0,0,1,2.567-.851A2.24,2.24,0,0,1,502.4,443Zm-.851,2.015V443.98h-1.979c-1.223,0-1.619.48-1.619,1.128,0,.732.588,1.187,1.6,1.187A2.017,2.017,0,0,0,501.553,445.012Z" fill="#fdffeb"/><path d="M510.528,443.249v3.658h-.851v-3.574a1.762,1.762,0,0,0-1.895-2.015,2.068,2.068,0,0,0-2.207,2.279v3.31h-.851V440.6h.815v1.163a2.649,2.649,0,0,1,2.4-1.211A2.414,2.414,0,0,1,510.528,443.249Z" fill="#fdffeb"/><path d="M518.628,438.008v8.9h-.815v-1.248a2.734,2.734,0,0,1-2.435,1.308,3.209,3.209,0,0,1,0-6.416,2.754,2.754,0,0,1,2.4,1.247v-3.79Zm-.84,5.745a2.347,2.347,0,1,0-2.339,2.458A2.307,2.307,0,0,0,517.788,443.753Z" fill="#fdffeb"/><path d="M527.473,446.523a2.028,2.028,0,0,1-1.331.444,1.672,1.672,0,0,1-1.848-1.835v-3.814h-1.127V440.6h1.127v-1.38h.852v1.38h1.918v.719h-1.918v3.766a1.01,1.01,0,0,0,1.091,1.151,1.41,1.41,0,0,0,.936-.324Z" fill="#fdffeb"/><path d="M534.827,443.249v3.658h-.851v-3.574a1.762,1.762,0,0,0-1.9-2.015,2.068,2.068,0,0,0-2.207,2.279v3.31h-.852v-8.9h.852V441.7a2.667,2.667,0,0,1,2.362-1.151A2.414,2.414,0,0,1,534.827,443.249Z" fill="#fdffeb"/><path d="M536.954,438.607a.615.615,0,0,1,.624-.6.6.6,0,0,1,.624.588.624.624,0,0,1-1.248.011Zm.193,1.992H538v6.308h-.851Z" fill="#fdffeb"/><path d="M539.5,446.188l.384-.672a3.816,3.816,0,0,0,2.243.708c1.2,0,1.691-.409,1.691-1.032,0-1.643-4.089-.348-4.089-2.842,0-1.032.886-1.8,2.494-1.8a4.27,4.27,0,0,1,2.23.587l-.371.683a3.241,3.241,0,0,0-1.859-.539c-1.14,0-1.643.444-1.643,1.043,0,1.7,4.09.42,4.09,2.843,0,1.092-.96,1.8-2.6,1.8A4.221,4.221,0,0,1,539.5,446.188Z" fill="#fdffeb"/><path d="M551.725,443.74l-1.488,1.368v1.8h-.851v-8.9h.851v6.033L554,440.6h1.056l-2.7,2.578,2.951,3.73h-1.044Z" fill="#fdffeb"/><path d="M556.31,438.607a.615.615,0,0,1,.624-.6.605.605,0,0,1,.624.588.624.624,0,0,1-1.248.011Zm.192,1.992h.852v6.308H556.5Z" fill="#fdffeb"/><path d="M565.534,443.249v3.658h-.851v-3.574a1.762,1.762,0,0,0-1.895-2.015,2.068,2.068,0,0,0-2.207,2.279v3.31h-.851V440.6h.815v1.163a2.651,2.651,0,0,1,2.4-1.211A2.414,2.414,0,0,1,565.534,443.249Z" fill="#fdffeb"/><path d="M573.634,438.008v8.9h-.816v-1.248a2.731,2.731,0,0,1-2.434,1.308,3.209,3.209,0,0,1,0-6.416,2.754,2.754,0,0,1,2.4,1.247v-3.79Zm-.84,5.745a2.347,2.347,0,1,0-2.339,2.458A2.307,2.307,0,0,0,572.794,443.753Z" fill="#fdffeb"/><path d="M578.521,443.753a3.208,3.208,0,1,1,3.213,3.214A3.1,3.1,0,0,1,578.521,443.753Zm5.552,0a2.347,2.347,0,1,0-2.339,2.458A2.3,2.3,0,0,0,584.073,443.753Z" fill="#fdffeb"/><path d="M587.652,439.854v.745h1.943v.719h-1.919v5.589h-.852v-5.589H585.7V440.6h1.127v-.78a1.737,1.737,0,0,1,1.907-1.871,2,2,0,0,1,1.259.4l-.287.635a1.442,1.442,0,0,0-.935-.311C588.036,438.668,587.652,439.075,587.652,439.854Z" fill="#fdffeb"/><path d="M600.285,443.753a3.055,3.055,0,0,1-3.142,3.214,2.756,2.756,0,0,1-2.4-1.247v3.513h-.851V440.6h.815v1.247a2.748,2.748,0,0,1,2.435-1.3A3.052,3.052,0,0,1,600.285,443.753Zm-.851,0a2.353,2.353,0,1,0-2.351,2.458A2.323,2.323,0,0,0,599.434,443.753Z" fill="#fdffeb"/><path d="M605.206,440.551v.827c-.071,0-.143-.012-.2-.012a2.04,2.04,0,0,0-2.123,2.326v3.215h-.852V440.6h.816v1.235A2.377,2.377,0,0,1,605.206,440.551Z" fill="#fdffeb"/><path d="M606.049,443.753a3.208,3.208,0,1,1,3.214,3.214A3.1,3.1,0,0,1,606.049,443.753Zm5.553,0a2.348,2.348,0,1,0-2.339,2.458A2.3,2.3,0,0,0,611.6,443.753Z" fill="#fdffeb"/><path d="M620.6,443.753a3.063,3.063,0,0,1-3.143,3.214,2.734,2.734,0,0,1-2.435-1.308v1.248h-.815v-8.9h.852v3.79a2.751,2.751,0,0,1,2.4-1.247A3.052,3.052,0,0,1,620.6,443.753Zm-.852,0a2.353,2.353,0,1,0-2.351,2.458A2.317,2.317,0,0,0,619.75,443.753Z" fill="#fdffeb"/><path d="M621.877,443.285h3.143v.743h-3.143Z" fill="#fdffeb"/><path d="M400.156,452.408h.851v8.9h-.851Z" fill="#fdffeb"/><path d="M408.876,458.416H403.6a2.334,2.334,0,0,0,2.482,2.2,2.488,2.488,0,0,0,1.931-.827l.48.551a3.335,3.335,0,0,1-5.745-2.183,3.038,3.038,0,0,1,3.082-3.2,3.007,3.007,0,0,1,3.059,3.2C408.889,458.225,408.876,458.32,408.876,458.416Zm-5.276-.635h4.473a2.241,2.241,0,0,0-4.473,0Z" fill="#fdffeb"/><path d="M421.042,457.648v3.659h-.852v-3.575c0-1.331-.671-2.014-1.811-2.014a2.027,2.027,0,0,0-2.11,2.279v3.31h-.852v-3.575c0-1.331-.671-2.014-1.823-2.014A2.034,2.034,0,0,0,411.483,458v3.31h-.851V455h.815v1.151a2.555,2.555,0,0,1,2.315-1.2,2.269,2.269,0,0,1,2.243,1.331,2.747,2.747,0,0,1,2.495-1.331A2.381,2.381,0,0,1,421.042,457.648Z" fill="#fdffeb"/><path d="M425.632,460.587l.384-.671a3.809,3.809,0,0,0,2.243.707c1.2,0,1.691-.407,1.691-1.031,0-1.644-4.09-.348-4.09-2.843,0-1.031.888-1.8,2.5-1.8a4.279,4.279,0,0,1,2.23.588l-.371.684a3.234,3.234,0,0,0-1.859-.54c-1.14,0-1.644.444-1.644,1.044,0,1.7,4.09.42,4.09,2.841,0,1.092-.959,1.8-2.6,1.8A4.214,4.214,0,0,1,425.632,460.587Z" fill="#fdffeb"/><path d="M431.74,458.152a3.209,3.209,0,1,1,3.215,3.215A3.1,3.1,0,0,1,431.74,458.152Zm5.553,0a2.347,2.347,0,1,0-2.338,2.459A2.3,2.3,0,0,0,437.293,458.152Z" fill="#fdffeb"/><path d="M439.9,452.408h.851v8.9H439.9Z" fill="#fdffeb"/><path d="M448.429,455l-2.806,6.309h-.876L441.953,455h.887l2.363,5.373L447.589,455Z" fill="#fdffeb"/><path d="M449.44,453.008a.615.615,0,0,1,.623-.6.6.6,0,0,1,.624.587.624.624,0,0,1-1.247.013Zm.192,1.99h.851v6.309h-.851Z" fill="#fdffeb"/><path d="M458.665,457.648v3.659h-.852v-3.575a1.761,1.761,0,0,0-1.895-2.014A2.069,2.069,0,0,0,453.711,458v3.31h-.851V455h.815v1.164a2.653,2.653,0,0,1,2.4-1.212A2.415,2.415,0,0,1,458.665,457.648Z" fill="#fdffeb"/><path d="M466.849,455v5.541c0,2.171-1.068,3.154-3.155,3.154a4.4,4.4,0,0,1-2.938-.971l.432-.648a3.751,3.751,0,0,0,2.482.864c1.6,0,2.327-.732,2.327-2.291v-.8a2.84,2.84,0,0,1-2.459,1.223,3.06,3.06,0,1,1,0-6.117,2.847,2.847,0,0,1,2.495,1.26V455Zm-.828,3a2.394,2.394,0,1,0-2.4,2.315A2.256,2.256,0,0,0,466.021,458Z" fill="#fdffeb"/><path d="M471.508,460.587l.384-.671a3.809,3.809,0,0,0,2.243.707c1.2,0,1.69-.407,1.69-1.031,0-1.644-4.089-.348-4.089-2.843,0-1.031.888-1.8,2.494-1.8a4.28,4.28,0,0,1,2.231.588l-.371.684a3.236,3.236,0,0,0-1.86-.54c-1.139,0-1.643.444-1.643,1.044,0,1.7,4.09.42,4.09,2.841,0,1.092-.959,1.8-2.6,1.8A4.214,4.214,0,0,1,471.508,460.587Z" fill="#fdffeb"/><path d="M480.59,458.141l-1.486,1.367v1.8h-.852v-8.9h.852v6.032L482.869,455h1.056l-2.7,2.579,2.951,3.73h-1.044Z" fill="#fdffeb"/><path d="M485.176,453.008a.615.615,0,0,1,.624-.6.6.6,0,0,1,.623.587.624.624,0,0,1-1.247.013Zm.192,1.99h.852v6.309h-.852Z" fill="#fdffeb"/><path d="M488.6,452.408h.851v8.9H488.6Z" fill="#fdffeb"/><path d="M491.824,452.408h.852v8.9h-.852Z" fill="#fdffeb"/><path d="M498,453.008a.615.615,0,0,1,.624-.6.6.6,0,0,1,.623.587.624.624,0,0,1-1.247.013ZM498.2,455h.852v6.309H498.2Z" fill="#fdffeb"/><path d="M500.549,460.587l.384-.671a3.8,3.8,0,0,0,2.242.707c1.2,0,1.691-.407,1.691-1.031,0-1.644-4.09-.348-4.09-2.843,0-1.031.888-1.8,2.495-1.8a4.283,4.283,0,0,1,2.231.588l-.372.684a3.232,3.232,0,0,0-1.859-.54c-1.139,0-1.643.444-1.643,1.044,0,1.7,4.09.42,4.09,2.841,0,1.092-.96,1.8-2.6,1.8A4.208,4.208,0,0,1,500.549,460.587Z" fill="#fdffeb"/><path d="M515.2,457.4v3.91h-.816v-.984a2.368,2.368,0,0,1-2.171,1.044c-1.427,0-2.3-.744-2.3-1.835,0-.971.624-1.787,2.436-1.787h2v-.384c0-1.08-.613-1.667-1.787-1.667a3.208,3.208,0,0,0-2.1.744l-.384-.636a4.008,4.008,0,0,1,2.568-.852A2.241,2.241,0,0,1,515.2,457.4Zm-.851,2.015v-1.031h-1.98c-1.223,0-1.619.479-1.619,1.127,0,.731.588,1.187,1.6,1.187A2.019,2.019,0,0,0,514.346,459.412Z" fill="#fdffeb"/><path d="M523.32,457.648v3.659h-.851v-3.575a1.761,1.761,0,0,0-1.9-2.014A2.069,2.069,0,0,0,518.367,458v3.31h-.851V455h.815v1.164a2.654,2.654,0,0,1,2.4-1.212A2.415,2.415,0,0,1,523.32,457.648Z" fill="#fdffeb"/><path d="M534.276,458.416H529a2.336,2.336,0,0,0,2.482,2.2,2.487,2.487,0,0,0,1.931-.827l.481.551a3.336,3.336,0,0,1-5.746-2.183,3.039,3.039,0,0,1,3.083-3.2,3.006,3.006,0,0,1,3.058,3.2C534.288,458.225,534.276,458.32,534.276,458.416ZM529,457.781h4.474a2.242,2.242,0,0,0-4.474,0Z" fill="#fdffeb"/><path d="M541.836,457.648v3.659h-.852v-3.575a1.76,1.76,0,0,0-1.894-2.014A2.068,2.068,0,0,0,536.883,458v3.31h-.852V455h.816v1.164a2.652,2.652,0,0,1,2.4-1.212A2.415,2.415,0,0,1,541.836,457.648Z" fill="#fdffeb"/><path d="M549.336,455l-2.807,6.309h-.875L542.859,455h.888l2.362,5.373L548.5,455Z" fill="#fdffeb"/><path d="M550.347,453.008a.615.615,0,0,1,.624-.6.606.606,0,0,1,.624.587.624.624,0,0,1-1.248.013Zm.192,1.99h.852v6.309h-.852Z" fill="#fdffeb"/><path d="M558.529,457.4v3.91h-.816v-.984a2.368,2.368,0,0,1-2.171,1.044c-1.427,0-2.3-.744-2.3-1.835,0-.971.624-1.787,2.436-1.787h2v-.384c0-1.08-.613-1.667-1.787-1.667a3.208,3.208,0,0,0-2.1.744l-.384-.636a4.008,4.008,0,0,1,2.568-.852A2.241,2.241,0,0,1,558.529,457.4Zm-.851,2.015v-1.031H555.7c-1.223,0-1.619.479-1.619,1.127,0,.731.588,1.187,1.6,1.187A2.019,2.019,0,0,0,557.678,459.412Z" fill="#fdffeb"/><path d="M567.24,458.152a3.062,3.062,0,0,1-3.142,3.215,2.735,2.735,0,0,1-2.435-1.307v1.247h-.815v-8.9h.851V456.2a2.757,2.757,0,0,1,2.4-1.247A3.052,3.052,0,0,1,567.24,458.152Zm-.851,0a2.353,2.353,0,1,0-2.351,2.459A2.317,2.317,0,0,0,566.389,458.152Z" fill="#fdffeb"/><path d="M568.982,452.408h.852v8.9h-.852Z" fill="#fdffeb"/><path d="M577.7,458.416h-5.277a2.334,2.334,0,0,0,2.482,2.2,2.489,2.489,0,0,0,1.931-.827l.48.551a3.335,3.335,0,0,1-5.745-2.183,3.038,3.038,0,0,1,3.082-3.2,3.007,3.007,0,0,1,3.059,3.2C577.716,458.225,577.7,458.32,577.7,458.416Zm-5.277-.635H576.9a2.241,2.241,0,0,0-4.473,0Z" fill="#fdffeb"/><path d="M585.924,460.923a2.028,2.028,0,0,1-1.331.444,1.672,1.672,0,0,1-1.848-1.835v-3.814h-1.127V455h1.127v-1.379h.852V455h1.919v.72H583.6v3.765a1.01,1.01,0,0,0,1.091,1.152,1.415,1.415,0,0,0,.936-.323Z" fill="#fdffeb"/><path d="M592.236,457.4v3.91h-.816v-.984a2.368,2.368,0,0,1-2.171,1.044c-1.427,0-2.3-.744-2.3-1.835,0-.971.624-1.787,2.436-1.787h2v-.384c0-1.08-.613-1.667-1.787-1.667a3.208,3.208,0,0,0-2.1.744l-.384-.636a4.008,4.008,0,0,1,2.568-.852A2.241,2.241,0,0,1,592.236,457.4Zm-.851,2.015v-1.031h-1.98c-1.223,0-1.619.479-1.619,1.127,0,.731.588,1.187,1.6,1.187A2.019,2.019,0,0,0,591.385,459.412Z" fill="#fdffeb"/><path d="M594.555,452.408h.851v8.9h-.851Z" fill="#fdffeb"/><path d="M603.274,458.416H598a2.336,2.336,0,0,0,2.483,2.2,2.486,2.486,0,0,0,1.93-.827l.481.551a3.335,3.335,0,0,1-5.745-2.183,3.038,3.038,0,0,1,3.082-3.2,3.006,3.006,0,0,1,3.058,3.2C603.286,458.225,603.274,458.32,603.274,458.416ZM598,457.781h4.474a2.242,2.242,0,0,0-4.474,0Z" fill="#fdffeb"/><path d="M610.834,457.648v3.659h-.852v-3.575a1.76,1.76,0,0,0-1.894-2.014A2.068,2.068,0,0,0,605.881,458v3.31h-.852V455h.816v1.164a2.652,2.652,0,0,1,2.4-1.212A2.415,2.415,0,0,1,610.834,457.648Z" fill="#fdffeb"/><path d="M616.477,460.923a2.028,2.028,0,0,1-1.331.444,1.672,1.672,0,0,1-1.848-1.835v-3.814h-1.127V455H613.3v-1.379h.851V455h1.919v.72h-1.919v3.765a1.01,1.01,0,0,0,1.092,1.152,1.414,1.414,0,0,0,.936-.323Z" fill="#fdffeb"/><path d="M624.492,460.923a2.028,2.028,0,0,1-1.331.444,1.672,1.672,0,0,1-1.848-1.835v-3.814h-1.126V455h1.126v-1.379h.852V455h1.919v.72h-1.919v3.765a1.01,1.01,0,0,0,1.092,1.152,1.412,1.412,0,0,0,.935-.323Z" fill="#fdffeb"/><path d="M625.178,458.152a3.208,3.208,0,1,1,3.214,3.215A3.1,3.1,0,0,1,625.178,458.152Zm5.552,0a2.347,2.347,0,1,0-2.338,2.459A2.3,2.3,0,0,0,630.73,458.152Z" fill="#fdffeb"/><path d="M406.548,472.553a3.055,3.055,0,0,1-3.142,3.214,2.757,2.757,0,0,1-2.4-1.247v3.513h-.851V469.4h.815v1.248a2.747,2.747,0,0,1,2.435-1.295A3.051,3.051,0,0,1,406.548,472.553Zm-.851,0a2.353,2.353,0,1,0-2.351,2.458A2.323,2.323,0,0,0,405.7,472.553Z" fill="#fdffeb"/><path d="M407.656,472.553a3.208,3.208,0,1,1,3.214,3.214A3.1,3.1,0,0,1,407.656,472.553Zm5.553,0a2.348,2.348,0,1,0-2.339,2.458A2.3,2.3,0,0,0,413.209,472.553Z" fill="#fdffeb"/><path d="M414.94,474.987l.384-.672a3.806,3.806,0,0,0,2.242.708c1.2,0,1.691-.408,1.691-1.031,0-1.643-4.09-.348-4.09-2.843,0-1.031.888-1.8,2.495-1.8a4.274,4.274,0,0,1,2.231.587l-.371.683a3.234,3.234,0,0,0-1.86-.539c-1.139,0-1.643.443-1.643,1.043,0,1.7,4.09.42,4.09,2.843,0,1.092-.96,1.8-2.6,1.8A4.213,4.213,0,0,1,414.94,474.987Z" fill="#fdffeb"/><path d="M420.808,474.987l.384-.672a3.807,3.807,0,0,0,2.243.708c1.2,0,1.691-.408,1.691-1.031,0-1.643-4.09-.348-4.09-2.843,0-1.031.887-1.8,2.494-1.8a4.273,4.273,0,0,1,2.231.587l-.371.683a3.234,3.234,0,0,0-1.86-.539c-1.139,0-1.643.443-1.643,1.043,0,1.7,4.09.42,4.09,2.843,0,1.092-.959,1.8-2.6,1.8A4.214,4.214,0,0,1,420.808,474.987Z" fill="#fdffeb"/><path d="M433.044,472.816h-5.276a2.334,2.334,0,0,0,2.482,2.195,2.488,2.488,0,0,0,1.931-.827l.48.551a3.335,3.335,0,0,1-5.745-2.182,3.038,3.038,0,0,1,3.082-3.2,3.006,3.006,0,0,1,3.059,3.2C433.057,472.624,433.044,472.721,433.044,472.816Zm-5.276-.635h4.473a2.241,2.241,0,0,0-4.473,0Z" fill="#fdffeb"/><path d="M433.924,474.987l.384-.672a3.809,3.809,0,0,0,2.243.708c1.2,0,1.691-.408,1.691-1.031,0-1.643-4.09-.348-4.09-2.843,0-1.031.888-1.8,2.495-1.8a4.27,4.27,0,0,1,2.23.587l-.371.683a3.233,3.233,0,0,0-1.859-.539c-1.14,0-1.644.443-1.644,1.043,0,1.7,4.09.42,4.09,2.843,0,1.092-.959,1.8-2.6,1.8A4.214,4.214,0,0,1,433.924,474.987Z" fill="#fdffeb"/><path d="M439.792,474.987l.384-.672a3.809,3.809,0,0,0,2.243.708c1.2,0,1.691-.408,1.691-1.031,0-1.643-4.09-.348-4.09-2.843,0-1.031.888-1.8,2.5-1.8a4.274,4.274,0,0,1,2.231.587l-.372.683a3.231,3.231,0,0,0-1.859-.539c-1.139,0-1.643.443-1.643,1.043,0,1.7,4.089.42,4.089,2.843,0,1.092-.959,1.8-2.6,1.8A4.214,4.214,0,0,1,439.792,474.987Z" fill="#fdffeb"/><path d="M445.984,475.107a.635.635,0,0,1,.636-.648.645.645,0,0,1,.648.648.656.656,0,0,1-.648.66A.646.646,0,0,1,445.984,475.107Z" fill="#fdffeb"/><path d="M452.4,467.312h3.418c2.686,0,4.5,1.726,4.5,4.2s-1.811,4.2-4.5,4.2H452.4Zm3.37,7.627a3.438,3.438,0,1,0,0-6.86h-2.482v6.86Z" fill="#fdffeb"/><path d="M461.5,472.553a3.209,3.209,0,1,1,3.214,3.214A3.1,3.1,0,0,1,461.5,472.553Zm5.553,0a2.348,2.348,0,1,0-2.339,2.458A2.3,2.3,0,0,0,467.053,472.553Z" fill="#fdffeb"/><path d="M469.468,467.407a.615.615,0,0,1,.623-.6.6.6,0,0,1,.624.588.624.624,0,0,1-1.247.011Zm.192,1.991h.851v6.309h-.851Z" fill="#fdffeb"/><path d="M478.692,472.049v3.658h-.851v-3.574a1.762,1.762,0,0,0-1.9-2.015,2.068,2.068,0,0,0-2.206,2.278v3.311h-.851V469.4h.815v1.164a2.65,2.65,0,0,1,2.4-1.211A2.414,2.414,0,0,1,478.692,472.049Z" fill="#fdffeb"/><path d="M486.876,469.4v5.541c0,2.171-1.067,3.155-3.154,3.155a4.4,4.4,0,0,1-2.939-.972l.432-.647a3.759,3.759,0,0,0,2.483.863c1.6,0,2.326-.732,2.326-2.291v-.8a2.836,2.836,0,0,1-2.459,1.224,3.06,3.06,0,1,1,0-6.116,2.849,2.849,0,0,1,2.5,1.258V469.4Zm-.827,3a2.394,2.394,0,1,0-2.4,2.315A2.256,2.256,0,0,0,486.049,472.4Z" fill="#fdffeb"/><path d="M495.733,475.323a2.026,2.026,0,0,1-1.331.444,1.671,1.671,0,0,1-1.847-1.835v-3.814h-1.127v-.72h1.127v-1.379h.851V469.4h1.919v.72h-1.919v3.766a1.01,1.01,0,0,0,1.092,1.151,1.412,1.412,0,0,0,.936-.324Z" fill="#fdffeb"/><path d="M503.088,472.049v3.658h-.852v-3.574a1.761,1.761,0,0,0-1.894-2.015,2.068,2.068,0,0,0-2.207,2.278v3.311h-.852v-8.9h.852V470.5a2.667,2.667,0,0,1,2.362-1.151A2.414,2.414,0,0,1,503.088,472.049Z" fill="#fdffeb"/><path d="M505.216,467.407a.614.614,0,0,1,.623-.6.6.6,0,0,1,.624.588.624.624,0,0,1-1.247.011Zm.191,1.991h.852v6.309h-.852Z" fill="#fdffeb"/><path d="M514.44,472.049v3.658h-.851v-3.574a1.761,1.761,0,0,0-1.895-2.015,2.068,2.068,0,0,0-2.207,2.278v3.311h-.851V469.4h.815v1.164a2.651,2.651,0,0,1,2.4-1.211A2.414,2.414,0,0,1,514.44,472.049Z" fill="#fdffeb"/><path d="M522.624,469.4v5.541c0,2.171-1.067,3.155-3.154,3.155a4.4,4.4,0,0,1-2.939-.972l.432-.647a3.76,3.76,0,0,0,2.482.863c1.6,0,2.327-.732,2.327-2.291v-.8a2.839,2.839,0,0,1-2.459,1.224,3.06,3.06,0,1,1,0-6.116,2.85,2.85,0,0,1,2.5,1.258V469.4Zm-.828,3a2.394,2.394,0,1,0-2.4,2.315A2.255,2.255,0,0,0,521.8,472.4Z" fill="#fdffeb"/><path d="M524.139,474.987l.383-.672a3.813,3.813,0,0,0,2.244.708c1.2,0,1.691-.408,1.691-1.031,0-1.643-4.09-.348-4.09-2.843,0-1.031.887-1.8,2.494-1.8a4.273,4.273,0,0,1,2.231.587l-.371.683a3.234,3.234,0,0,0-1.86-.539c-1.139,0-1.642.443-1.642,1.043,0,1.7,4.09.42,4.09,2.843,0,1.092-.96,1.8-2.6,1.8A4.21,4.21,0,0,1,524.139,474.987Z" fill="#fdffeb"/><path d="M537.2,469.351v.827c-.071,0-.143-.012-.2-.012a2.04,2.04,0,0,0-2.123,2.326v3.215h-.852V469.4h.816v1.236A2.377,2.377,0,0,1,537.2,469.351Z" fill="#fdffeb"/><path d="M538.55,467.407a.615.615,0,0,1,.624-.6.6.6,0,0,1,.624.588.624.624,0,0,1-1.248.011Zm.192,1.991h.852v6.309h-.852Z" fill="#fdffeb"/><path d="M547.811,469.4v5.541c0,2.171-1.068,3.155-3.155,3.155a4.4,4.4,0,0,1-2.938-.972l.431-.647a3.759,3.759,0,0,0,2.483.863c1.6,0,2.327-.732,2.327-2.291v-.8a2.84,2.84,0,0,1-2.459,1.224,3.06,3.06,0,1,1,0-6.116,2.847,2.847,0,0,1,2.495,1.258V469.4Zm-.829,3a2.394,2.394,0,1,0-2.4,2.315A2.254,2.254,0,0,0,546.982,472.4Z" fill="#fdffeb"/><path d="M556.006,472.049v3.658h-.852v-3.574a1.761,1.761,0,0,0-1.894-2.015,2.068,2.068,0,0,0-2.207,2.278v3.311H550.2v-8.9h.852V470.5a2.667,2.667,0,0,1,2.362-1.151A2.414,2.414,0,0,1,556.006,472.049Z" fill="#fdffeb"/><path d="M561.647,475.323a2.024,2.024,0,0,1-1.331.444,1.671,1.671,0,0,1-1.847-1.835v-3.814h-1.127v-.72h1.127v-1.379h.851V469.4h1.919v.72H559.32v3.766a1.01,1.01,0,0,0,1.092,1.151,1.412,1.412,0,0,0,.936-.324Z" fill="#fdffeb"/><path d="M568.392,466.748a2,2,0,0,1,1.258.4l-.287.635a1.442,1.442,0,0,0-.935-.311c-.732,0-1.115.407-1.115,1.186v.744h1.942v.72h-1.919v5.589h-.852v-5.589h-1.127v-.72h1.127v-.779A1.737,1.737,0,0,1,568.392,466.748Zm4.029.648a.624.624,0,1,1-.623-.588A.6.6,0,0,1,572.421,467.4Zm-1.055,2h.852v6.309h-.852Z" fill="#fdffeb"/><path d="M577.774,469.351v.827c-.071,0-.143-.012-.2-.012a2.04,2.04,0,0,0-2.123,2.326v3.215H574.6V469.4h.815v1.236A2.378,2.378,0,0,1,577.774,469.351Z" fill="#fdffeb"/><path d="M578.484,474.987l.384-.672a3.812,3.812,0,0,0,2.243.708c1.2,0,1.692-.408,1.692-1.031,0-1.643-4.09-.348-4.09-2.843,0-1.031.887-1.8,2.494-1.8a4.276,4.276,0,0,1,2.231.587l-.372.683a3.229,3.229,0,0,0-1.859-.539c-1.14,0-1.643.443-1.643,1.043,0,1.7,4.09.42,4.09,2.843,0,1.092-.96,1.8-2.6,1.8A4.216,4.216,0,0,1,578.484,474.987Z" fill="#fdffeb"/><path d="M588.551,475.323a2.028,2.028,0,0,1-1.331.444,1.672,1.672,0,0,1-1.848-1.835v-3.814h-1.127v-.72h1.127v-1.379h.852V469.4h1.919v.72h-1.919v3.766a1.01,1.01,0,0,0,1.091,1.151,1.41,1.41,0,0,0,.936-.324Z" fill="#fdffeb"/><path d="M596.566,475.323a2.026,2.026,0,0,1-1.331.444,1.671,1.671,0,0,1-1.847-1.835v-3.814h-1.127v-.72h1.127v-1.379h.851V469.4h1.919v.72h-1.919v3.766a1.01,1.01,0,0,0,1.092,1.151,1.412,1.412,0,0,0,.936-.324Z" fill="#fdffeb"/><path d="M597.924,467.407a.615.615,0,0,1,.624-.6.6.6,0,0,1,.624.588.624.624,0,0,1-1.248.011Zm.192,1.991h.852v6.309h-.852Z" fill="#fdffeb"/><path d="M611.754,472.049v3.658H610.9v-3.574c0-1.331-.672-2.015-1.81-2.015a2.027,2.027,0,0,0-2.112,2.278v3.311h-.851v-3.574c0-1.331-.672-2.015-1.823-2.015A2.033,2.033,0,0,0,602.2,472.4v3.311h-.851V469.4h.815v1.152a2.55,2.55,0,0,1,2.315-1.2,2.265,2.265,0,0,1,2.243,1.331,2.746,2.746,0,0,1,2.494-1.331A2.381,2.381,0,0,1,611.754,472.049Z" fill="#fdffeb"/><path d="M619.592,472.816h-5.278a2.335,2.335,0,0,0,2.483,2.195,2.49,2.49,0,0,0,1.931-.827l.48.551a3.335,3.335,0,0,1-5.745-2.182,3.038,3.038,0,0,1,3.082-3.2,3.006,3.006,0,0,1,3.059,3.2C619.6,472.624,619.592,472.721,619.592,472.816Zm-5.278-.635h4.474a2.242,2.242,0,0,0-4.474,0Z" fill="#fdffeb"/><path d="M624.3,467.407a.615.615,0,0,1,.624-.6.6.6,0,0,1,.624.588.624.624,0,0,1-1.248.011Zm.192,1.991h.852v6.309h-.852Z" fill="#fdffeb"/><path d="M626.842,474.987l.384-.672a3.809,3.809,0,0,0,2.243.708c1.2,0,1.691-.408,1.691-1.031,0-1.643-4.09-.348-4.09-2.843,0-1.031.887-1.8,2.494-1.8a4.271,4.271,0,0,1,2.231.587l-.371.683a3.234,3.234,0,0,0-1.86-.539c-1.139,0-1.642.443-1.642,1.043,0,1.7,4.09.42,4.09,2.843,0,1.092-.96,1.8-2.6,1.8A4.21,4.21,0,0,1,626.842,474.987Z" fill="#fdffeb"/><path d="M404.917,486.2v3.909H404.1v-.983a2.369,2.369,0,0,1-2.171,1.044c-1.428,0-2.3-.744-2.3-1.835,0-.972.623-1.787,2.435-1.787h2v-.384c0-1.08-.611-1.667-1.787-1.667a3.209,3.209,0,0,0-2.1.743l-.384-.635a4,4,0,0,1,2.566-.852A2.241,2.241,0,0,1,404.917,486.2Zm-.852,2.015v-1.031h-1.979c-1.223,0-1.619.479-1.619,1.127,0,.731.588,1.187,1.6,1.187A2.017,2.017,0,0,0,404.065,488.212Z" fill="#fdffeb"/><path d="M409.744,486.952a3.1,3.1,0,0,1,3.25-3.2A2.756,2.756,0,0,1,415.465,485l-.636.433a2.144,2.144,0,0,0-1.835-.936,2.46,2.46,0,0,0,0,4.917,2.133,2.133,0,0,0,1.835-.924l.636.432a2.781,2.781,0,0,1-2.471,1.248A3.115,3.115,0,0,1,409.744,486.952Z" fill="#fdffeb"/><path d="M420.314,483.75v.828c-.072,0-.144-.013-.2-.013a2.042,2.042,0,0,0-2.123,2.328v3.213h-.851V483.8h.815v1.235A2.38,2.38,0,0,1,420.314,483.75Z" fill="#fdffeb"/><path d="M421.66,481.808a.614.614,0,0,1,.623-.6.6.6,0,0,1,.624.587.624.624,0,0,1-1.247.013Zm.192,1.99h.851v6.308h-.851Z" fill="#fdffeb"/><path d="M428.4,489.723a2.032,2.032,0,0,1-1.331.444,1.671,1.671,0,0,1-1.847-1.835v-3.814H424.1v-.72h1.127v-1.379h.851V483.8h1.919v.72h-1.919v3.765a1.011,1.011,0,0,0,1.092,1.152,1.407,1.407,0,0,0,.935-.324Z" fill="#fdffeb"/><path d="M429.76,481.808a.614.614,0,0,1,.624-.6.6.6,0,0,1,.623.587.624.624,0,0,1-1.247.013Zm.192,1.99h.852v6.308h-.852Z" fill="#fdffeb"/><path d="M432.544,486.952a3.1,3.1,0,0,1,3.25-3.2A2.758,2.758,0,0,1,438.265,485l-.636.433a2.144,2.144,0,0,0-1.835-.936,2.46,2.46,0,0,0,0,4.917,2.133,2.133,0,0,0,1.835-.924l.636.432a2.782,2.782,0,0,1-2.471,1.248A3.115,3.115,0,0,1,432.544,486.952Z" fill="#fdffeb"/><path d="M444.7,486.2v3.909h-.816v-.983a2.367,2.367,0,0,1-2.171,1.044c-1.427,0-2.3-.744-2.3-1.835,0-.972.623-1.787,2.434-1.787h2v-.384c0-1.08-.612-1.667-1.787-1.667a3.214,3.214,0,0,0-2.1.743l-.383-.635a4,4,0,0,1,2.566-.852A2.241,2.241,0,0,1,444.7,486.2Zm-.852,2.015v-1.031h-1.979c-1.223,0-1.619.479-1.619,1.127,0,.731.588,1.187,1.6,1.187A2.019,2.019,0,0,0,443.845,488.212Z" fill="#fdffeb"/><path d="M447.016,481.208h.851v8.9h-.851Z" fill="#fdffeb"/><path d="M450.244,481.208h.852v8.9h-.852Z" fill="#fdffeb"/><path d="M458.772,483.8l-3.154,7.064c-.527,1.236-1.2,1.631-2.1,1.631a2.159,2.159,0,0,1-1.536-.575l.4-.636a1.576,1.576,0,0,0,1.151.48c.564,0,.948-.264,1.308-1.056l.276-.611-2.819-6.3h.888l2.375,5.361,2.374-5.361Z" fill="#fdffeb"/><path d="M462.928,481.808a.614.614,0,0,1,.624-.6.6.6,0,0,1,.623.587.624.624,0,0,1-1.247.013Zm.192,1.99h.852v6.308h-.852Z" fill="#fdffeb"/><path d="M476.758,486.448v3.658h-.852v-3.574c0-1.331-.672-2.014-1.811-2.014a2.028,2.028,0,0,0-2.111,2.279v3.309h-.851v-3.574c0-1.331-.672-2.014-1.823-2.014A2.033,2.033,0,0,0,467.2,486.8v3.309h-.851V483.8h.815v1.151a2.552,2.552,0,0,1,2.315-1.2,2.267,2.267,0,0,1,2.243,1.331,2.746,2.746,0,0,1,2.494-1.331A2.382,2.382,0,0,1,476.758,486.448Z" fill="#fdffeb"/><path d="M485.473,486.952a3.056,3.056,0,0,1-3.143,3.215,2.752,2.752,0,0,1-2.4-1.248v3.515h-.852V483.8h.816v1.248a2.745,2.745,0,0,1,2.434-1.3A3.053,3.053,0,0,1,485.473,486.952Zm-.852,0a2.353,2.353,0,1,0-2.351,2.459A2.323,2.323,0,0,0,484.621,486.952Z" fill="#fdffeb"/><path d="M486.58,486.952a3.208,3.208,0,1,1,3.214,3.215A3.1,3.1,0,0,1,486.58,486.952Zm5.553,0a2.348,2.348,0,1,0-2.339,2.459A2.3,2.3,0,0,0,492.133,486.952Z" fill="#fdffeb"/><path d="M497.917,483.75v.828c-.072,0-.144-.013-.2-.013a2.041,2.041,0,0,0-2.122,2.328v3.213h-.852V483.8h.816v1.235A2.378,2.378,0,0,1,497.917,483.75Z" fill="#fdffeb"/><path d="M503.054,489.723a2.034,2.034,0,0,1-1.332.444,1.671,1.671,0,0,1-1.847-1.835v-3.814h-1.127v-.72h1.127v-1.379h.852V483.8h1.919v.72h-1.919v3.765a1.01,1.01,0,0,0,1.091,1.152,1.405,1.405,0,0,0,.935-.324Z" fill="#fdffeb"/><path d="M509.365,486.2v3.909h-.816v-.983a2.368,2.368,0,0,1-2.171,1.044c-1.427,0-2.3-.744-2.3-1.835,0-.972.624-1.787,2.435-1.787h2v-.384c0-1.08-.613-1.667-1.788-1.667a3.212,3.212,0,0,0-2.1.743l-.384-.635a4,4,0,0,1,2.567-.852A2.241,2.241,0,0,1,509.365,486.2Zm-.851,2.015v-1.031h-1.98c-1.223,0-1.619.479-1.619,1.127,0,.731.588,1.187,1.6,1.187A2.02,2.02,0,0,0,508.514,488.212Z" fill="#fdffeb"/><path d="M517.488,486.448v3.658h-.851v-3.574a1.761,1.761,0,0,0-1.9-2.014,2.068,2.068,0,0,0-2.207,2.279v3.309h-.851V483.8h.815v1.164a2.651,2.651,0,0,1,2.4-1.212A2.415,2.415,0,0,1,517.488,486.448Z" fill="#fdffeb"/><path d="M523.13,489.723a2.033,2.033,0,0,1-1.331.444,1.672,1.672,0,0,1-1.848-1.835v-3.814h-1.127v-.72h1.127v-1.379h.852V483.8h1.919v.72H520.8v3.765a1.011,1.011,0,0,0,1.092,1.152,1.409,1.409,0,0,0,.935-.324Z" fill="#fdffeb"/><path d="M526.947,489.387l.384-.671a3.819,3.819,0,0,0,2.243.707c1.2,0,1.692-.407,1.692-1.031,0-1.644-4.09-.348-4.09-2.843,0-1.031.887-1.8,2.494-1.8a4.279,4.279,0,0,1,2.23.588l-.371.683a3.24,3.24,0,0,0-1.859-.54c-1.14,0-1.643.445-1.643,1.044,0,1.7,4.09.42,4.09,2.842,0,1.092-.96,1.8-2.6,1.8A4.216,4.216,0,0,1,526.947,489.387Z" fill="#fdffeb"/><path d="M536.03,486.94l-1.487,1.368v1.8h-.852v-8.9h.852v6.032l3.766-3.442h1.055l-2.7,2.579,2.95,3.729h-1.044Z" fill="#fdffeb"/><path d="M540.615,481.808a.615.615,0,0,1,.624-.6.6.6,0,0,1,.624.587.624.624,0,0,1-1.248.013Zm.193,1.99h.851v6.308h-.851Z" fill="#fdffeb"/><path d="M544.035,481.208h.852v8.9h-.852Z" fill="#fdffeb"/><path d="M547.263,481.208h.851v8.9h-.851Z" fill="#fdffeb"/><path d="M554.6,483.055v.743h1.943v.72h-1.919v5.588h-.852v-5.588H552.65v-.72h1.127v-.779a1.739,1.739,0,0,1,1.908-1.872,1.994,1.994,0,0,1,1.258.4l-.287.636a1.448,1.448,0,0,0-.935-.312C554.989,481.867,554.6,482.275,554.6,483.055Z" fill="#fdffeb"/><path d="M556.957,486.952a3.208,3.208,0,1,1,3.214,3.215A3.1,3.1,0,0,1,556.957,486.952Zm5.553,0a2.348,2.348,0,1,0-2.339,2.459A2.3,2.3,0,0,0,562.51,486.952Z" fill="#fdffeb"/><path d="M568.295,483.75v.828c-.071,0-.144-.013-.2-.013a2.041,2.041,0,0,0-2.123,2.328v3.213h-.852V483.8h.816v1.235A2.378,2.378,0,0,1,568.295,483.75Z" fill="#fdffeb"/><path d="M577.834,486.2v3.909h-.816v-.983a2.368,2.368,0,0,1-2.171,1.044c-1.427,0-2.3-.744-2.3-1.835,0-.972.624-1.787,2.436-1.787h2v-.384c0-1.08-.612-1.667-1.787-1.667a3.21,3.21,0,0,0-2.1.743l-.384-.635a4.005,4.005,0,0,1,2.567-.852A2.241,2.241,0,0,1,577.834,486.2Zm-.852,2.015v-1.031H575c-1.224,0-1.619.479-1.619,1.127,0,.731.588,1.187,1.6,1.187A2.018,2.018,0,0,0,576.982,488.212Z" fill="#fdffeb"/><path d="M593.706,486.448v3.658h-.851v-3.574c0-1.331-.672-2.014-1.811-2.014a2.027,2.027,0,0,0-2.111,2.279v3.309h-.852v-3.574c0-1.331-.672-2.014-1.823-2.014a2.033,2.033,0,0,0-2.111,2.279v3.309H583.3V483.8h.815v1.151a2.553,2.553,0,0,1,2.315-1.2,2.267,2.267,0,0,1,2.243,1.331,2.748,2.748,0,0,1,2.494-1.331A2.381,2.381,0,0,1,593.706,486.448Z" fill="#fdffeb"/><path d="M595.835,481.808a.614.614,0,0,1,.624-.6.6.6,0,0,1,.624.587.624.624,0,0,1-1.248.013Zm.192,1.99h.852v6.308h-.852Z" fill="#fdffeb"/><path d="M598.379,489.387l.384-.671a3.816,3.816,0,0,0,2.243.707c1.2,0,1.691-.407,1.691-1.031,0-1.644-4.09-.348-4.09-2.843,0-1.031.887-1.8,2.495-1.8a4.279,4.279,0,0,1,2.23.588l-.371.683a3.242,3.242,0,0,0-1.859-.54c-1.14,0-1.643.445-1.643,1.044,0,1.7,4.09.42,4.09,2.842,0,1.092-.96,1.8-2.6,1.8A4.212,4.212,0,0,1,598.379,489.387Z" fill="#fdffeb"/><path d="M604.247,489.387l.384-.671a3.816,3.816,0,0,0,2.243.707c1.2,0,1.691-.407,1.691-1.031,0-1.644-4.089-.348-4.089-2.843,0-1.031.886-1.8,2.494-1.8a4.279,4.279,0,0,1,2.23.588l-.371.683a3.242,3.242,0,0,0-1.859-.54c-1.14,0-1.643.445-1.643,1.044,0,1.7,4.09.42,4.09,2.842,0,1.092-.96,1.8-2.6,1.8A4.216,4.216,0,0,1,604.247,489.387Z" fill="#fdffeb"/><path d="M610.8,481.808a.614.614,0,0,1,.624-.6.6.6,0,0,1,.624.587.624.624,0,0,1-1.248.013Zm.192,1.99h.852v6.308h-.852Z" fill="#fdffeb"/><path d="M613.583,486.952a3.208,3.208,0,1,1,3.214,3.215A3.1,3.1,0,0,1,613.583,486.952Zm5.553,0a2.348,2.348,0,1,0-2.339,2.459A2.3,2.3,0,0,0,619.136,486.952Z" fill="#fdffeb"/><path d="M627.548,486.448v3.658H626.7v-3.574a1.76,1.76,0,0,0-1.894-2.014,2.068,2.068,0,0,0-2.207,2.279v3.309h-.852V483.8h.816v1.164a2.65,2.65,0,0,1,2.4-1.212A2.415,2.415,0,0,1,627.548,486.448Z" fill="#fdffeb"/><path d="M399.28,503.787l.384-.671a3.807,3.807,0,0,0,2.243.707c1.2,0,1.691-.407,1.691-1.031,0-1.644-4.09-.348-4.09-2.843,0-1.031.888-1.8,2.494-1.8a4.28,4.28,0,0,1,2.231.588l-.372.684a3.23,3.23,0,0,0-1.859-.54c-1.139,0-1.643.444-1.643,1.044,0,1.7,4.09.42,4.09,2.842,0,1.091-.959,1.8-2.6,1.8A4.214,4.214,0,0,1,399.28,503.787Z" fill="#fdffeb"/><path d="M411.709,498.2v6.309h-.816v-1.152a2.509,2.509,0,0,1-2.267,1.212,2.443,2.443,0,0,1-2.662-2.711V498.2h.851v3.574a1.766,1.766,0,0,0,1.895,2.028,2.051,2.051,0,0,0,2.147-2.291V498.2Z" fill="#fdffeb"/><path d="M413.464,501.353a3.106,3.106,0,0,1,3.25-3.2,2.758,2.758,0,0,1,2.471,1.247l-.636.433a2.143,2.143,0,0,0-1.835-.935,2.46,2.46,0,0,0,0,4.917,2.136,2.136,0,0,0,1.835-.924l.636.431a2.78,2.78,0,0,1-2.471,1.248A3.115,3.115,0,0,1,413.464,501.353Z" fill="#fdffeb"/><path d="M426.564,500.849v3.658h-.851v-3.574a1.762,1.762,0,0,0-1.9-2.015,2.069,2.069,0,0,0-2.207,2.279v3.31h-.851v-8.9h.851V499.3a2.666,2.666,0,0,1,2.363-1.152A2.415,2.415,0,0,1,426.564,500.849Z" fill="#fdffeb"/><path d="M436.789,500.6v3.909h-.816v-.984a2.368,2.368,0,0,1-2.171,1.044c-1.427,0-2.3-.744-2.3-1.835,0-.971.623-1.787,2.434-1.787h2v-.383c0-1.081-.612-1.667-1.787-1.667a3.212,3.212,0,0,0-2.1.743l-.384-.636a4,4,0,0,1,2.567-.852A2.242,2.242,0,0,1,436.789,500.6Zm-.852,2.014v-1.031h-1.979c-1.223,0-1.619.48-1.619,1.127,0,.731.588,1.188,1.6,1.188A2.019,2.019,0,0,0,435.937,502.612Z" fill="#fdffeb"/><path d="M438.232,503.787l.384-.671a3.806,3.806,0,0,0,2.242.707c1.2,0,1.691-.407,1.691-1.031,0-1.644-4.09-.348-4.09-2.843,0-1.031.888-1.8,2.495-1.8a4.283,4.283,0,0,1,2.231.588l-.372.684a3.23,3.23,0,0,0-1.859-.54c-1.139,0-1.643.444-1.643,1.044,0,1.7,4.09.42,4.09,2.842,0,1.091-.96,1.8-2.6,1.8A4.213,4.213,0,0,1,438.232,503.787Z" fill="#fdffeb"/><path d="M451.442,504.123a2.026,2.026,0,0,1-1.331.444,1.67,1.67,0,0,1-1.847-1.835v-3.814h-1.127v-.72h1.127v-1.379h.851V498.2h1.919v.72h-1.919v3.766a1.01,1.01,0,0,0,1.092,1.151,1.406,1.406,0,0,0,.935-.323Z" fill="#fdffeb"/><path d="M458.8,500.849v3.658h-.852v-3.574a1.761,1.761,0,0,0-1.9-2.015,2.068,2.068,0,0,0-2.206,2.279v3.31h-.852v-8.9h.852V499.3a2.665,2.665,0,0,1,2.362-1.152A2.416,2.416,0,0,1,458.8,500.849Z" fill="#fdffeb"/><path d="M460.924,496.208a.615.615,0,0,1,.624-.6.6.6,0,0,1,.623.587.624.624,0,0,1-1.247.013Zm.192,1.99h.852v6.309h-.852Z" fill="#fdffeb"/><path d="M463.468,503.787l.384-.671a3.807,3.807,0,0,0,2.243.707c1.2,0,1.691-.407,1.691-1.031,0-1.644-4.09-.348-4.09-2.843,0-1.031.888-1.8,2.494-1.8a4.28,4.28,0,0,1,2.231.588l-.371.684a3.235,3.235,0,0,0-1.86-.54c-1.139,0-1.643.444-1.643,1.044,0,1.7,4.09.42,4.09,2.842,0,1.091-.959,1.8-2.6,1.8A4.214,4.214,0,0,1,463.468,503.787Z" fill="#fdffeb"/><path d="M472.721,501.353a3.208,3.208,0,1,1,3.214,3.214A3.1,3.1,0,0,1,472.721,501.353Zm5.552,0a2.347,2.347,0,1,0-2.338,2.459A2.3,2.3,0,0,0,478.273,501.353Z" fill="#fdffeb"/><path d="M486.685,500.849v3.658h-.852v-3.574a1.762,1.762,0,0,0-1.9-2.015,2.069,2.069,0,0,0-2.207,2.279v3.31h-.851V498.2h.815v1.164a2.652,2.652,0,0,1,2.4-1.212A2.416,2.416,0,0,1,486.685,500.849Z" fill="#fdffeb"/><path d="M494.521,501.616h-5.277a2.336,2.336,0,0,0,2.483,2.2,2.487,2.487,0,0,0,1.93-.828l.48.551a3.334,3.334,0,0,1-5.744-2.182,3.038,3.038,0,0,1,3.082-3.2,3.007,3.007,0,0,1,3.058,3.2C494.533,501.425,494.521,501.521,494.521,501.616Zm-5.277-.635h4.474a2.242,2.242,0,0,0-4.474,0Z" fill="#fdffeb"/><path d="M497.008,503.907a1.953,1.953,0,0,1-.168.7l-.5,1.655h-.575l.407-1.738a.609.609,0,0,1-.432-.613.636.636,0,1,1,1.272,0Z" fill="#fdffeb"/><path d="M506.726,500.6v3.909h-.816v-.984a2.369,2.369,0,0,1-2.171,1.044c-1.427,0-2.3-.744-2.3-1.835,0-.971.623-1.787,2.434-1.787h2v-.383c0-1.081-.612-1.667-1.787-1.667a3.214,3.214,0,0,0-2.1.743l-.383-.636a4,4,0,0,1,2.566-.852A2.242,2.242,0,0,1,506.726,500.6Zm-.852,2.014v-1.031h-1.979c-1.223,0-1.62.48-1.62,1.127,0,.731.588,1.188,1.6,1.188A2.02,2.02,0,0,0,505.874,502.612Z" fill="#fdffeb"/><path d="M514.849,500.849v3.658H514v-3.574a1.761,1.761,0,0,0-1.894-2.015A2.068,2.068,0,0,0,509.9,501.2v3.31h-.852V498.2h.815v1.164a2.654,2.654,0,0,1,2.4-1.212A2.416,2.416,0,0,1,514.849,500.849Z" fill="#fdffeb"/><path d="M522.949,495.608v8.9h-.815V503.26a2.735,2.735,0,0,1-2.435,1.307,3.209,3.209,0,0,1,0-6.417,2.758,2.758,0,0,1,2.4,1.247v-3.789Zm-.84,5.745a2.347,2.347,0,1,0-2.338,2.459A2.306,2.306,0,0,0,522.109,501.353Z" fill="#fdffeb"/><path d="M531.794,504.123a2.028,2.028,0,0,1-1.331.444,1.671,1.671,0,0,1-1.848-1.835v-3.814h-1.127v-.72h1.127v-1.379h.852V498.2h1.919v.72h-1.919v3.766a1.01,1.01,0,0,0,1.092,1.151,1.408,1.408,0,0,0,.935-.323Z" fill="#fdffeb"/><path d="M539.148,500.849v3.658H538.3v-3.574a1.761,1.761,0,0,0-1.9-2.015A2.069,2.069,0,0,0,534.2,501.2v3.31h-.851v-8.9h.851V499.3a2.666,2.666,0,0,1,2.363-1.152A2.415,2.415,0,0,1,539.148,500.849Z" fill="#fdffeb"/><path d="M546.229,500.6v3.909h-.816v-.984a2.368,2.368,0,0,1-2.171,1.044c-1.427,0-2.3-.744-2.3-1.835,0-.971.624-1.787,2.436-1.787h2v-.383c0-1.081-.612-1.667-1.787-1.667a3.217,3.217,0,0,0-2.1.743l-.384-.636a4.008,4.008,0,0,1,2.568-.852A2.241,2.241,0,0,1,546.229,500.6Zm-.851,2.014v-1.031H543.4c-1.223,0-1.619.48-1.619,1.127,0,.731.588,1.188,1.6,1.188A2.02,2.02,0,0,0,545.378,502.612Z" fill="#fdffeb"/><path d="M551.87,504.123a2.028,2.028,0,0,1-1.331.444,1.672,1.672,0,0,1-1.848-1.835v-3.814h-1.127v-.72h1.127v-1.379h.852V498.2h1.919v.72h-1.919v3.766a1.01,1.01,0,0,0,1.092,1.151,1.408,1.408,0,0,0,.935-.323Z" fill="#fdffeb"/><path d="M555.688,503.787l.383-.671a3.812,3.812,0,0,0,2.243.707c1.2,0,1.692-.407,1.692-1.031,0-1.644-4.09-.348-4.09-2.843,0-1.031.887-1.8,2.494-1.8a4.283,4.283,0,0,1,2.231.588l-.371.684a3.235,3.235,0,0,0-1.86-.54c-1.139,0-1.642.444-1.642,1.044,0,1.7,4.089.42,4.089,2.842,0,1.091-.96,1.8-2.6,1.8A4.21,4.21,0,0,1,555.688,503.787Z" fill="#fdffeb"/><path d="M564.771,501.341l-1.488,1.367v1.8h-.851v-8.9h.851v6.033l3.766-3.443H568.1l-2.7,2.579,2.95,3.73h-1.043Z" fill="#fdffeb"/><path d="M569.355,496.208a.616.616,0,0,1,.625-.6.606.606,0,0,1,.624.587.625.625,0,0,1-1.249.013Zm.193,1.99h.851v6.309h-.851Z" fill="#fdffeb"/><path d="M572.775,495.608h.852v8.9h-.852Z" fill="#fdffeb"/><path d="M576,495.608h.852v8.9H576Z" fill="#fdffeb"/><path d="M591.633,498.2l-2.387,6.309h-.8l-1.991-5.169-1.99,5.169h-.8l-2.375-6.309h.816l1.979,5.362L586.1,498.2h.731l2.016,5.362,2-5.362Z" fill="#fdffeb"/><path d="M597.49,500.6v3.909h-.815v-.984a2.368,2.368,0,0,1-2.171,1.044c-1.427,0-2.3-.744-2.3-1.835,0-.971.624-1.787,2.436-1.787h2v-.383c0-1.081-.613-1.667-1.787-1.667a3.217,3.217,0,0,0-2.1.743l-.384-.636a4.006,4.006,0,0,1,2.568-.852A2.241,2.241,0,0,1,597.49,500.6Zm-.85,2.014v-1.031h-1.98c-1.223,0-1.619.48-1.619,1.127,0,.731.588,1.188,1.6,1.188A2.02,2.02,0,0,0,596.64,502.612Z" fill="#fdffeb"/><path d="M598.934,503.787l.383-.671a3.812,3.812,0,0,0,2.244.707c1.2,0,1.691-.407,1.691-1.031,0-1.644-4.09-.348-4.09-2.843,0-1.031.887-1.8,2.494-1.8a4.283,4.283,0,0,1,2.231.588l-.371.684a3.235,3.235,0,0,0-1.86-.54c-1.139,0-1.642.444-1.642,1.044,0,1.7,4.09.42,4.09,2.842,0,1.091-.96,1.8-2.6,1.8A4.21,4.21,0,0,1,598.934,503.787Z" fill="#fdffeb"/><path d="M401.127,511.854v.745h1.943v.719h-1.919v5.589H400.3v-5.589h-1.127V512.6H400.3v-.78a1.737,1.737,0,0,1,1.908-1.871,2,2,0,0,1,1.259.4l-.288.635a1.442,1.442,0,0,0-.935-.311C401.511,510.668,401.127,511.075,401.127,511.854Z" fill="#fdffeb"/><path d="M408.362,512.551v.827c-.072,0-.144-.012-.2-.012a2.04,2.04,0,0,0-2.123,2.326v3.215h-.851V512.6H406v1.235A2.378,2.378,0,0,1,408.362,512.551Z" fill="#fdffeb"/><path d="M415.333,516.017h-5.277a2.334,2.334,0,0,0,2.482,2.194,2.485,2.485,0,0,0,1.931-.827l.48.552a3.336,3.336,0,0,1-5.745-2.183,3.038,3.038,0,0,1,3.082-3.2,3.005,3.005,0,0,1,3.059,3.2C415.345,515.824,415.333,515.921,415.333,516.017Zm-5.277-.636h4.473a2.241,2.241,0,0,0-4.473,0Z" fill="#fdffeb"/><path d="M422.845,512.6v8.634h-.852V517.72a2.757,2.757,0,0,1-2.4,1.247,3.209,3.209,0,0,1,0-6.416,2.747,2.747,0,0,1,2.435,1.295V512.6Zm-.84,3.154a2.348,2.348,0,1,0-2.338,2.458A2.313,2.313,0,0,0,422.005,515.753Z" fill="#fdffeb"/><path d="M430.908,512.6v6.308h-.815v-1.151a2.51,2.51,0,0,1-2.267,1.211,2.443,2.443,0,0,1-2.662-2.71V512.6h.851v3.574a1.765,1.765,0,0,0,1.895,2.026,2.051,2.051,0,0,0,2.147-2.291V512.6Z" fill="#fdffeb"/><path d="M438.792,516.017h-5.277A2.335,2.335,0,0,0,436,518.211a2.487,2.487,0,0,0,1.931-.827l.479.552a3.335,3.335,0,0,1-5.744-2.183,3.038,3.038,0,0,1,3.082-3.2,3.005,3.005,0,0,1,3.058,3.2C438.8,515.824,438.792,515.921,438.792,516.017Zm-5.277-.636h4.474a2.242,2.242,0,0,0-4.474,0Z" fill="#fdffeb"/><path d="M446.352,515.249v3.658H445.5v-3.574a1.762,1.762,0,0,0-1.9-2.015A2.068,2.068,0,0,0,441.4,515.6v3.31h-.852V512.6h.816v1.163a2.648,2.648,0,0,1,2.4-1.211A2.415,2.415,0,0,1,446.352,515.249Z" fill="#fdffeb"/><path d="M451.993,518.523a2.024,2.024,0,0,1-1.331.444,1.671,1.671,0,0,1-1.847-1.835v-3.814h-1.127V512.6h1.127v-1.38h.852v1.38h1.918v.719h-1.918v3.766a1.01,1.01,0,0,0,1.091,1.151,1.405,1.405,0,0,0,.935-.324Z" fill="#fdffeb"/><path d="M453.543,510.008h.852v8.9h-.852Z" fill="#fdffeb"/><path d="M462.072,512.6l-3.154,7.063c-.527,1.235-1.2,1.632-2.1,1.632a2.158,2.158,0,0,1-1.535-.576l.4-.636a1.572,1.572,0,0,0,1.151.481c.564,0,.948-.265,1.308-1.056l.276-.612-2.819-6.3h.887l2.375,5.361,2.375-5.361Z" fill="#fdffeb"/><path d="M472.224,515.249v3.658h-.851v-3.574a1.762,1.762,0,0,0-1.895-2.015,2.068,2.068,0,0,0-2.207,2.279v3.31h-.852V512.6h.816v1.163a2.648,2.648,0,0,1,2.4-1.211A2.415,2.415,0,0,1,472.224,515.249Z" fill="#fdffeb"/><path d="M473.932,515.753a3.208,3.208,0,1,1,3.214,3.214A3.1,3.1,0,0,1,473.932,515.753Zm5.552,0a2.347,2.347,0,1,0-2.338,2.458A2.3,2.3,0,0,0,479.484,515.753Z" fill="#fdffeb"/><path d="M485.413,518.523a2.028,2.028,0,0,1-1.331.444,1.672,1.672,0,0,1-1.848-1.835v-3.814h-1.127V512.6h1.127v-1.38h.852v1.38h1.919v.719h-1.919v3.766a1.01,1.01,0,0,0,1.092,1.151,1.409,1.409,0,0,0,.935-.324Z" fill="#fdffeb"/><path d="M486.772,510.607a.614.614,0,0,1,.623-.6.605.605,0,0,1,.624.588.624.624,0,0,1-1.247.011Zm.191,1.992h.851v6.308h-.851Z" fill="#fdffeb"/><path d="M489.556,515.753a3.1,3.1,0,0,1,3.25-3.2,2.756,2.756,0,0,1,2.47,1.247l-.635.431a2.147,2.147,0,0,0-1.835-.935,2.46,2.46,0,0,0,0,4.917,2.134,2.134,0,0,0,1.835-.923l.635.432a2.782,2.782,0,0,1-2.47,1.247A3.114,3.114,0,0,1,489.556,515.753Z" fill="#fdffeb"/><path d="M502.332,516.017h-5.277a2.334,2.334,0,0,0,2.482,2.194,2.489,2.489,0,0,0,1.932-.827l.479.552a3.336,3.336,0,0,1-5.745-2.183,3.038,3.038,0,0,1,3.082-3.2,3.005,3.005,0,0,1,3.059,3.2C502.344,515.824,502.332,515.921,502.332,516.017Zm-5.277-.636h4.473a2.241,2.241,0,0,0-4.473,0Z" fill="#fdffeb"/><path d="M508.668,515v3.91h-.815v-.983a2.37,2.37,0,0,1-2.171,1.043c-1.427,0-2.3-.743-2.3-1.835,0-.972.624-1.787,2.434-1.787h2v-.384c0-1.079-.612-1.667-1.788-1.667a3.21,3.21,0,0,0-2.1.744l-.384-.636a4,4,0,0,1,2.566-.851A2.24,2.24,0,0,1,508.668,515Zm-.851,2.015V515.98h-1.979c-1.224,0-1.619.48-1.619,1.128,0,.732.588,1.187,1.594,1.187A2.019,2.019,0,0,0,507.817,517.012Z" fill="#fdffeb"/><path d="M517.38,515.753a3.063,3.063,0,0,1-3.143,3.214,2.731,2.731,0,0,1-2.434-1.308v1.248h-.816v-8.9h.852v3.79a2.753,2.753,0,0,1,2.4-1.247A3.052,3.052,0,0,1,517.38,515.753Zm-.852,0a2.353,2.353,0,1,0-2.35,2.458A2.316,2.316,0,0,0,516.528,515.753Z" fill="#fdffeb"/><path d="M519.123,510.008h.852v8.9h-.852Z" fill="#fdffeb"/><path d="M527.844,516.017h-5.278a2.335,2.335,0,0,0,2.483,2.194,2.487,2.487,0,0,0,1.931-.827l.48.552a3.336,3.336,0,0,1-5.745-2.183,3.038,3.038,0,0,1,3.082-3.2,3.005,3.005,0,0,1,3.058,3.2C527.855,515.824,527.844,515.921,527.844,516.017Zm-5.278-.636h4.474a2.242,2.242,0,0,0-4.474,0Z" fill="#fdffeb"/><path d="M532.55,510.607a.615.615,0,0,1,.624-.6.6.6,0,0,1,.624.588.624.624,0,0,1-1.248.011Zm.192,1.992h.852v6.308h-.852Z" fill="#fdffeb"/><path d="M541.774,515.249v3.658h-.851v-3.574a1.761,1.761,0,0,0-1.895-2.015,2.068,2.068,0,0,0-2.207,2.279v3.31h-.851V512.6h.815v1.163a2.651,2.651,0,0,1,2.4-1.211A2.414,2.414,0,0,1,541.774,515.249Z" fill="#fdffeb"/><path d="M550.56,518.523a2.028,2.028,0,0,1-1.331.444,1.672,1.672,0,0,1-1.848-1.835v-3.814h-1.127V512.6h1.127v-1.38h.851v1.38h1.919v.719h-1.919v3.766a1.01,1.01,0,0,0,1.092,1.151,1.41,1.41,0,0,0,.936-.324Z" fill="#fdffeb"/><path d="M557.914,515.249v3.658h-.851v-3.574a1.762,1.762,0,0,0-1.895-2.015,2.068,2.068,0,0,0-2.207,2.279v3.31h-.852v-8.9h.852V513.7a2.667,2.667,0,0,1,2.362-1.151A2.415,2.415,0,0,1,557.914,515.249Z" fill="#fdffeb"/><path d="M565.751,516.017h-5.277a2.334,2.334,0,0,0,2.482,2.194,2.485,2.485,0,0,0,1.931-.827l.48.552a3.336,3.336,0,0,1-5.745-2.183,3.038,3.038,0,0,1,3.082-3.2,3.005,3.005,0,0,1,3.059,3.2C565.763,515.824,565.751,515.921,565.751,516.017Zm-5.277-.636h4.473a2.241,2.241,0,0,0-4.473,0Z" fill="#fdffeb"/><path d="M576.406,510.008v8.9h-.815v-1.248a2.734,2.734,0,0,1-2.435,1.308,3.209,3.209,0,0,1,0-6.416,2.755,2.755,0,0,1,2.4,1.247v-3.79Zm-.84,5.745a2.347,2.347,0,1,0-2.338,2.458A2.306,2.306,0,0,0,575.566,515.753Z" fill="#fdffeb"/><path d="M584.278,516.017H579a2.335,2.335,0,0,0,2.482,2.194,2.484,2.484,0,0,0,1.931-.827l.481.552a3.336,3.336,0,0,1-5.746-2.183,3.038,3.038,0,0,1,3.082-3.2,3.005,3.005,0,0,1,3.059,3.2C584.29,515.824,584.278,515.921,584.278,516.017ZM579,515.381h4.474a2.242,2.242,0,0,0-4.474,0Z" fill="#fdffeb"/><path d="M585.4,515.753a3.105,3.105,0,0,1,3.25-3.2,2.756,2.756,0,0,1,2.471,1.247l-.636.431a2.144,2.144,0,0,0-1.835-.935,2.46,2.46,0,0,0,0,4.917,2.131,2.131,0,0,0,1.835-.923l.636.432a2.782,2.782,0,0,1-2.471,1.247A3.115,3.115,0,0,1,585.4,515.753Z" fill="#fdffeb"/><path d="M592.6,510.607a.615.615,0,0,1,.624-.6.605.605,0,0,1,.624.588.624.624,0,0,1-1.248.011Zm.192,1.992h.852v6.308h-.852Z" fill="#fdffeb"/><path d="M595.141,518.188l.383-.672a3.82,3.82,0,0,0,2.244.708c1.2,0,1.691-.409,1.691-1.032,0-1.643-4.09-.348-4.09-2.842,0-1.032.887-1.8,2.494-1.8a4.274,4.274,0,0,1,2.231.587l-.371.683a3.242,3.242,0,0,0-1.86-.539c-1.139,0-1.642.444-1.642,1.043,0,1.7,4.09.42,4.09,2.843,0,1.092-.96,1.8-2.6,1.8A4.217,4.217,0,0,1,595.141,518.188Z" fill="#fdffeb"/><path d="M601.692,510.607a.615.615,0,0,1,.624-.6.6.6,0,0,1,.624.588.624.624,0,0,1-1.248.011Zm.193,1.992h.851v6.308h-.851Z" fill="#fdffeb"/><path d="M604.477,515.753a3.208,3.208,0,1,1,3.213,3.214A3.1,3.1,0,0,1,604.477,515.753Zm5.552,0a2.347,2.347,0,1,0-2.339,2.458A2.3,2.3,0,0,0,610.029,515.753Z" fill="#fdffeb"/><path d="M618.441,515.249v3.658h-.851v-3.574a1.761,1.761,0,0,0-1.9-2.015,2.068,2.068,0,0,0-2.207,2.279v3.31h-.851V512.6h.815v1.163a2.651,2.651,0,0,1,2.4-1.211A2.414,2.414,0,0,1,618.441,515.249Z" fill="#fdffeb"/><path d="M619.885,518.188l.384-.672a3.814,3.814,0,0,0,2.243.708c1.2,0,1.691-.409,1.691-1.032,0-1.643-4.09-.348-4.09-2.842,0-1.032.887-1.8,2.494-1.8a4.271,4.271,0,0,1,2.231.587l-.371.683a3.242,3.242,0,0,0-1.86-.539c-1.139,0-1.642.444-1.642,1.043,0,1.7,4.09.42,4.09,2.843,0,1.092-.96,1.8-2.6,1.8A4.217,4.217,0,0,1,619.885,518.188Z" fill="#fdffeb"/><path d="M405.457,527l-3.155,7.065c-.527,1.235-1.2,1.63-2.1,1.63a2.159,2.159,0,0,1-1.536-.575l.4-.636a1.576,1.576,0,0,0,1.152.48c.563,0,.947-.264,1.307-1.056l.276-.611L398.98,527h.888l2.375,5.361L404.617,527Z" fill="#fdffeb"/><path d="M405.844,530.152a3.208,3.208,0,1,1,3.214,3.215A3.1,3.1,0,0,1,405.844,530.152Zm5.553,0a2.348,2.348,0,1,0-2.339,2.459A2.3,2.3,0,0,0,411.4,530.152Z" fill="#fdffeb"/><path d="M419.688,527v6.309h-.815v-1.152a2.51,2.51,0,0,1-2.267,1.212,2.444,2.444,0,0,1-2.663-2.711V527h.852v3.574a1.766,1.766,0,0,0,1.895,2.028,2.051,2.051,0,0,0,2.146-2.291V527Z" fill="#fdffeb"/><path d="M435.633,529.648v3.659h-.851v-3.575c0-1.331-.672-2.014-1.811-2.014A2.028,2.028,0,0,0,430.86,530v3.31h-.852v-3.575c0-1.331-.671-2.014-1.822-2.014A2.033,2.033,0,0,0,426.075,530v3.31h-.852V527h.816v1.151a2.553,2.553,0,0,1,2.315-1.2,2.267,2.267,0,0,1,2.242,1.331,2.748,2.748,0,0,1,2.495-1.331A2.381,2.381,0,0,1,435.633,529.648Z" fill="#fdffeb"/><path d="M442.716,529.4v3.91H441.9v-.984a2.369,2.369,0,0,1-2.171,1.044c-1.427,0-2.3-.744-2.3-1.835,0-.971.624-1.787,2.435-1.787h2v-.384c0-1.08-.612-1.667-1.787-1.667a3.207,3.207,0,0,0-2.1.744l-.384-.636a4,4,0,0,1,2.567-.852A2.241,2.241,0,0,1,442.716,529.4Zm-.851,2.015v-1.031h-1.979c-1.223,0-1.619.479-1.619,1.127,0,.731.588,1.187,1.6,1.187A2.019,2.019,0,0,0,441.865,531.412Z" fill="#fdffeb"/><path d="M450.816,524.408v8.9H450V532.06a2.735,2.735,0,0,1-2.435,1.307,3.209,3.209,0,0,1,0-6.417,2.758,2.758,0,0,1,2.4,1.247v-3.789Zm-.839,5.744a2.348,2.348,0,1,0-2.339,2.459A2.308,2.308,0,0,0,449.977,530.152Z" fill="#fdffeb"/><path d="M458.688,530.416h-5.277a2.336,2.336,0,0,0,2.483,2.2,2.49,2.49,0,0,0,1.931-.827l.479.551a3.334,3.334,0,0,1-5.744-2.183,3.038,3.038,0,0,1,3.082-3.2,3.006,3.006,0,0,1,3.058,3.2C458.7,530.225,458.688,530.32,458.688,530.416Zm-5.277-.635h4.474a2.242,2.242,0,0,0-4.474,0Z" fill="#fdffeb"/><path d="M459.892,532.707a.634.634,0,0,1,.635-.647.644.644,0,0,1,.648.647.656.656,0,0,1-.648.66A.645.645,0,0,1,459.892,532.707Z" fill="#fdffeb"/><g transform="translate(441.64 429.994) rotate(180)"><g transform="translate(12.516)" fill="url(#a)"><path d="M 35.18596267700195 69.37203979492188 C 30.57044219970703 69.37203979492188 26.0935230255127 68.46830749511719 21.87955284118652 66.68594360351562 C 17.8088321685791 64.96417236328125 14.15274238586426 62.49908828735352 11.01284313201904 59.35918807983398 C 7.872932910919189 56.21928024291992 5.407862663269043 52.56317901611328 3.686092615127563 48.49245071411133 C 1.903732657432556 44.27848052978516 1.00000262260437 39.80154037475586 1.00000262260437 35.18601989746094 C 1.00000262260437 30.57049942016602 1.903732657432556 26.09355926513672 3.686092615127563 21.87958908081055 C 5.407862663269043 17.80886077880859 7.872932910919189 14.15275955200195 11.01284313201904 11.01284980773926 C 14.15274238586426 7.872950077056885 17.8088321685791 5.407869815826416 21.87955284118652 3.686100006103516 C 26.0935230255127 1.903729915618896 30.57044219970703 0.9999998807907104 35.18596267700195 0.9999998807907104 C 39.80148315429688 0.9999998807907104 44.27840423583984 1.903729915618896 48.49238204956055 3.686100006103516 C 52.56310272216797 5.407869815826416 56.21919250488281 7.872950077056885 59.35909271240234 11.01284980773926 C 62.49899291992188 14.15275955200195 64.96406555175781 17.80886077880859 66.68582916259766 21.87958908081055 C 68.46819305419922 26.09355926513672 69.37192535400391 30.57049942016602 69.37192535400391 35.18601989746094 C 69.37192535400391 39.80154037475586 68.46819305419922 44.27848052978516 66.68582916259766 48.49245071411133 C 64.96406555175781 52.56317901611328 62.49899291992188 56.21928024291992 59.35909271240234 59.35918807983398 C 56.21919250488281 62.49908828735352 52.56310272216797 64.96417236328125 48.49238204956055 66.68594360351562 C 44.27840423583984 68.46830749511719 39.80148315429688 69.37203979492188 35.18596267700195 69.37203979492188 Z" stroke="none"/><path d="M 35.18596267700195 68.37203979492188 C 39.66691970825195 68.37203979492188 44.01278305053711 67.49488830566406 48.10282897949219 65.76493835449219 C 52.05435180664062 64.09358978271484 55.60359573364258 61.70047378540039 58.65198516845703 58.6520881652832 C 61.70037460327148 55.60368728637695 64.09348297119141 52.0544319152832 65.76483154296875 48.10290908813477 C 67.49477386474609 44.01285171508789 68.37193298339844 39.66698837280273 68.37193298339844 35.18601989746094 C 68.37193298339844 30.70505332946777 67.49477386474609 26.35918617248535 65.76483154296875 22.26913070678711 C 64.09348297119141 18.31760787963867 61.70037460327148 14.76835346221924 58.65198516845703 11.7199535369873 C 55.60359573364258 8.671564102172852 52.05435180664062 6.278453350067139 48.10282897949219 4.607097625732422 C 44.01278305053711 2.877153158187866 39.66691970825195 1.999997615814209 35.18596267700195 1.999997615814209 C 30.70500755310059 1.999997615814209 26.35915184020996 2.877153158187866 22.26910781860352 4.607097625732422 C 18.31758499145508 6.278453350067139 14.76832962036133 8.671564102172852 11.71994018554688 11.7199535369873 C 8.671551704406738 14.76835346221924 6.278451442718506 18.31760787963867 4.607096195220947 22.26914215087891 C 2.877151489257812 26.35918617248535 1.999996066093445 30.70505332946777 1.999996066093445 35.18601989746094 C 1.999996066093445 39.66698837280273 2.877151489257812 44.01285171508789 4.607096195220947 48.10289764404297 C 6.278451442718506 52.0544319152832 8.671551704406738 55.60368728637695 11.71994018554688 58.6520881652832 C 14.76832962036133 61.70047378540039 18.31758499145508 64.09358978271484 22.26910781860352 65.76493835449219 C 26.35915184020996 67.49488830566406 30.70500755310059 68.37203979492188 35.18596267700195 68.37203979492188 M 35.18596267700195 70.37203979492188 C 15.7532958984375 70.37203979492188 -3.989664492110023e-06 54.61872100830078 -3.989664492110023e-06 35.18601989746094 C -3.989664492110023e-06 15.75331974029541 15.7532958984375 -2.324761226191185e-06 35.18596267700195 -2.324761226191185e-06 C 54.6186408996582 -2.324761226191185e-06 70.37193298339844 15.75331974029541 70.37193298339844 35.18601989746094 C 70.37193298339844 54.61872100830078 54.6186408996582 70.37203979492188 35.18596267700195 70.37203979492188 Z" stroke="none" fill="#a800b0"/></g><g transform="translate(28.585 13.75)"><path d="M25.272,27.092l-4.177,4.177a.657.657,0,0,1-1.117-.37,2.627,2.627,0,1,0-2.973,2.973.657.657,0,0,1,.37,1.117L13.2,39.166a.657.657,0,0,1-.929,0L8.642,35.54a3.941,3.941,0,1,1-4.826-4.824L.192,27.092a.657.657,0,0,1,0-.929l3.625-3.63a3.941,3.941,0,0,1-.478-7.45L1.806,10.66a3.284,3.284,0,0,1,.113-2.895L4.225,2.313a.526.526,0,0,1,.03-.061A2.005,2.005,0,0,0,4.5,1.287V.657a.657.657,0,1,1,1.314,0v.631a3.325,3.325,0,0,1-.394,1.566L3.113,8.3a.592.592,0,0,1-.032.066,1.994,1.994,0,0,0-.058,1.8L4.63,14.8c.069,0,.137-.01.206-.01A3.934,3.934,0,0,1,8.64,17.7L9.754,16.6V9.852a.657.657,0,0,1,1.314,0v9.2a1.97,1.97,0,0,0,3.941,0V11.093a5.944,5.944,0,0,1,.624-2.644l.24-.482a4.615,4.615,0,0,0,0-4.112l-.657-1.314a1.98,1.98,0,0,1-.208-.881v-1a.657.657,0,1,1,1.314,0v1a.669.669,0,0,0,.066.294l.657,1.314a5.935,5.935,0,0,1,0,5.287l-.24.482a4.621,4.621,0,0,0-.451,1.507A4.584,4.584,0,0,1,19.606,9.2a1.97,1.97,0,0,1,1.97,1.97V14.91a3.937,3.937,0,0,1,.072,7.625l3.624,3.63a.657.657,0,0,1,0,.927ZM19.606,10.509a3.288,3.288,0,0,0-3.284,3.284v3.415l.5.5a3.93,3.93,0,0,1,3.439-2.9V11.166A.657.657,0,0,0,19.606,10.509ZM19.7,22.442a.657.657,0,0,1,.56-1.117,2.627,2.627,0,1,0-2.233-2.233.657.657,0,0,1-1.117.56l-.588-.589a3.284,3.284,0,0,1-6.568-.014v-.6l-1.2,1.2a.657.657,0,0,1-1.117-.56A2.627,2.627,0,1,0,5.2,21.33a.657.657,0,0,1,.56,1.117L1.585,26.628,5.765,30.8a.657.657,0,0,1-.56,1.117A2.627,2.627,0,0,0,2.98,36.377a2.693,2.693,0,0,0,3.715,0,2.627,2.627,0,0,0,.741-2.225.657.657,0,0,1,1.117-.56l4.183,4.179,2.943-2.944a3.941,3.941,0,1,1,5.255-5.255l2.944-2.943Z" transform="translate(6.667)" fill="#fffcd6"/><path d="M4.6,0H.657a.657.657,0,1,0,0,1.314H4.6A.657.657,0,1,0,4.6,0Z" transform="translate(34.155 25.616)" fill="#fffcd6"/><path d="M.657,0A.657.657,0,0,0,.328,1.226L3.744,3.2A.657.657,0,1,0,4.4,2.058L.985.088A.652.652,0,0,0,.657,0Z" transform="translate(33.445 33.169)" fill="#fffcd6"/><path d="M4.072,0a.651.651,0,0,0-.328.088L.329,2.058A.657.657,0,1,0,.985,3.2L4.4,1.226A.657.657,0,0,0,4.072,0Z" transform="translate(33.441 16.092)" fill="#fffcd6"/><path d="M4.6,0H.657a.657.657,0,1,0,0,1.314H4.6A.657.657,0,0,0,4.6,0Z" transform="translate(0 25.616)" fill="#fffcd6"/><path d="M4.072,0a.652.652,0,0,0-.328.088L.329,2.058A.657.657,0,1,0,.985,3.2L4.4,1.226A.657.657,0,0,0,4.072,0Z" transform="translate(1.235 33.169)" fill="#fffcd6"/><path d="M.657,0A.657.657,0,0,0,.328,1.226L3.744,3.2A.657.657,0,1,0,4.4,2.058L.985.088A.651.651,0,0,0,.657,0Z" transform="translate(1.239 16.092)" fill="#fffcd6"/></g></g><g transform="translate(442.5 359.988)"><path d="M6.936,4.428H1.491V17.021H4.4V13.55H6.936a7.684,7.684,0,0,0,2.272-.316,4.961,4.961,0,0,0,1.721-.907,3.949,3.949,0,0,0,1.091-1.433A4.609,4.609,0,0,0,12.4,9a4.652,4.652,0,0,0-.381-1.906,3.955,3.955,0,0,0-1.091-1.439,4.95,4.95,0,0,0-1.721-.909A7.675,7.675,0,0,0,6.936,4.428Zm-.162,6.747H4.4V6.8H6.775a4.188,4.188,0,0,1,1.169.148,2.274,2.274,0,0,1,.837.43,1.775,1.775,0,0,1,.5.69A2.412,2.412,0,0,1,9.453,9a2.365,2.365,0,0,1-.168.917,1.768,1.768,0,0,1-.5.684,2.285,2.285,0,0,1-.837.428A4.2,4.2,0,0,1,6.775,11.175ZM16.949,8.62V7.342H14.27v9.681h2.8V12.453a3.605,3.605,0,0,1,.184-1.2,2.184,2.184,0,0,1,.521-.841,2.13,2.13,0,0,1,.811-.493,3.229,3.229,0,0,1,1.054-.161c.054,0,.106,0,.157,0l.151.008.155.012.167.013V7.2a5.85,5.85,0,0,0-1.053.091,4.306,4.306,0,0,0-.913.269A3.4,3.4,0,0,0,17.548,8,3.089,3.089,0,0,0,16.949,8.62Zm9.514,8.549A6.067,6.067,0,0,0,28.59,16.8a5.011,5.011,0,0,0,1.68-1.03,4.645,4.645,0,0,0,1.1-1.577,5.288,5.288,0,0,0,0-4.019A4.645,4.645,0,0,0,30.27,8.6a5.011,5.011,0,0,0-1.68-1.03,6.322,6.322,0,0,0-4.256,0A5.044,5.044,0,0,0,22.648,8.6a4.653,4.653,0,0,0-1.109,1.577,5.253,5.253,0,0,0,0,4.018,4.654,4.654,0,0,0,1.109,1.577A5.045,5.045,0,0,0,24.334,16.8,6.09,6.09,0,0,0,26.463,17.169Zm0-2.3a2.606,2.606,0,0,1-.98-.184,2.272,2.272,0,0,1-.787-.53,2.426,2.426,0,0,1-.524-.843,3.417,3.417,0,0,1,0-2.25,2.426,2.426,0,0,1,.524-.843,2.272,2.272,0,0,1,.787-.53,2.7,2.7,0,0,1,1.957,0,2.243,2.243,0,0,1,.781.53,2.421,2.421,0,0,1,.518.843,3.466,3.466,0,0,1,0,2.251,2.421,2.421,0,0,1-.518.843,2.243,2.243,0,0,1-.781.53A2.585,2.585,0,0,1,26.463,14.865ZM39.364,7.2a5.012,5.012,0,0,0-.863.072,3.947,3.947,0,0,0-.777.217,3.392,3.392,0,0,0-1.276.882v-4.7H33.642V17.026h2.681V15.91a3.244,3.244,0,0,0,.589.554,3.375,3.375,0,0,0,.709.394,4.028,4.028,0,0,0,.82.235,5.246,5.246,0,0,0,.923.078,5.142,5.142,0,0,0,1.9-.351,4.5,4.5,0,0,0,1.531-1,4.578,4.578,0,0,0,1.021-1.572,5.913,5.913,0,0,0,0-4.126A4.579,4.579,0,0,0,42.8,8.549a4.5,4.5,0,0,0-1.531-1A5.142,5.142,0,0,0,39.364,7.2Zm-.486,7.67a2.587,2.587,0,0,1-.977-.184,2.244,2.244,0,0,1-.782-.53,2.422,2.422,0,0,1-.519-.844,3.466,3.466,0,0,1,0-2.251,2.422,2.422,0,0,1,.519-.844,2.244,2.244,0,0,1,.782-.53,2.693,2.693,0,0,1,1.955,0,2.244,2.244,0,0,1,.782.53,2.422,2.422,0,0,1,.519.844,3.466,3.466,0,0,1,0,2.251,2.422,2.422,0,0,1-.519.844,2.244,2.244,0,0,1-.782.53A2.587,2.587,0,0,1,38.878,14.866Zm7.182,2.161h2.809V3.666H46.061Zm14.912-4.807a5.555,5.555,0,0,0-.388-2.1,4.537,4.537,0,0,0-1.067-1.581,4.679,4.679,0,0,0-1.6-1,5.865,5.865,0,0,0-4.042.025A4.931,4.931,0,0,0,52.237,8.6a4.709,4.709,0,0,0-1.084,1.579,5.144,5.144,0,0,0-.392,2,5.069,5.069,0,0,0,.393,2,4.573,4.573,0,0,0,1.115,1.58,5.1,5.1,0,0,0,1.744,1.04,6.723,6.723,0,0,0,2.277.375,7.263,7.263,0,0,0,1.235-.1,5.5,5.5,0,0,0,1.082-.3,4.5,4.5,0,0,0,.923-.49,4.18,4.18,0,0,0,.759-.678l-1.5-1.621a3.725,3.725,0,0,1-.517.412,3.063,3.063,0,0,1-.564.292,3.216,3.216,0,0,1-.632.174,4.233,4.233,0,0,1-.719.058,3.7,3.7,0,0,1-1.018-.134,2.7,2.7,0,0,1-.821-.386,2.286,2.286,0,0,1-.595-.612,2.437,2.437,0,0,1-.34-.813h7.331c0-.059.01-.122.016-.187s.012-.132.018-.2.011-.132.014-.2S60.973,12.275,60.973,12.221Zm-5.026-2.9a2.639,2.639,0,0,1,.876.143,2.2,2.2,0,0,1,1.224,1.042,2.614,2.614,0,0,1,.278.832H53.551a2.622,2.622,0,0,1,.278-.839,2.187,2.187,0,0,1,.514-.635,2.223,2.223,0,0,1,.717-.4A2.73,2.73,0,0,1,55.947,9.321ZM75.263,7.194A5.074,5.074,0,0,0,74.21,7.3a4.552,4.552,0,0,0-.952.313,4.142,4.142,0,0,0-.824.5,3.863,3.863,0,0,0-.668.666,3.288,3.288,0,0,0-1.345-1.191,3.8,3.8,0,0,0-.873-.3,4.681,4.681,0,0,0-.972-.1,4.916,4.916,0,0,0-.9.081,4.162,4.162,0,0,0-.82.239,3.643,3.643,0,0,0-.722.395,3.406,3.406,0,0,0-.605.547V7.339H62.846V17.03h2.811V12.167a3.7,3.7,0,0,1,.157-1.126,2.151,2.151,0,0,1,.44-.792,1.785,1.785,0,0,1,.673-.468,2.3,2.3,0,0,1,.857-.154,2.071,2.071,0,0,1,.781.137,1.445,1.445,0,0,1,.577.419,1.9,1.9,0,0,1,.357.713,3.788,3.788,0,0,1,.122,1.019v5.117h2.812V12.167a3.687,3.687,0,0,1,.158-1.127,2.142,2.142,0,0,1,.442-.792,1.793,1.793,0,0,1,.678-.468,2.348,2.348,0,0,1,.867-.154,2.019,2.019,0,0,1,.766.137,1.478,1.478,0,0,1,.579.419,1.919,1.919,0,0,1,.366.713,3.666,3.666,0,0,1,.128,1.019v5.117h2.812v-5.55a5.73,5.73,0,0,0-.3-1.917,3.523,3.523,0,0,0-.823-1.336,3.341,3.341,0,0,0-1.255-.782A4.737,4.737,0,0,0,75.263,7.194ZM91.2,17.25a8.2,8.2,0,0,0,2.359-.314,4.9,4.9,0,0,0,1.673-.85,3.54,3.54,0,0,0,1-1.246,3.487,3.487,0,0,0,.33-1.5,2.931,2.931,0,0,0-1.147-2.464A6.873,6.873,0,0,0,92.891,9.8c-.918-.234-1.836-.4-2.524-.645S89.22,8.567,89.22,7.986a1.2,1.2,0,0,1,.131-.56,1.26,1.26,0,0,1,.419-.459,2.234,2.234,0,0,1,.744-.31,4.782,4.782,0,0,1,1.105-.114,6.1,6.1,0,0,1,.854.061,6.783,6.783,0,0,1,.876.184,7.5,7.5,0,0,1,.886.309,8.26,8.26,0,0,1,.884.436l.9-2.217a6.148,6.148,0,0,0-.957-.486,7.961,7.961,0,0,0-1.08-.349,9.428,9.428,0,0,0-1.158-.211,10.055,10.055,0,0,0-1.19-.071,8.147,8.147,0,0,0-2.346.313,4.821,4.821,0,0,0-1.661.848,3.515,3.515,0,0,0-.988,1.25,3.575,3.575,0,0,0-.327,1.519,2.979,2.979,0,0,0,1.147,2.492,6.84,6.84,0,0,0,2.524,1.092c.918.238,1.835.4,2.524.656s1.147.595,1.147,1.185a1.07,1.07,0,0,1-.137.538,1.213,1.213,0,0,1-.431.428,2.4,2.4,0,0,1-.756.283,5.356,5.356,0,0,1-1.111.1,6.989,6.989,0,0,1-1.141-.1,7.78,7.78,0,0,1-1.112-.271,7.518,7.518,0,0,1-1.027-.416,6.15,6.15,0,0,1-.887-.533l-.992,2.2a5.333,5.333,0,0,0,.993.593,8.392,8.392,0,0,0,1.245.461,10.468,10.468,0,0,0,1.411.3A10.654,10.654,0,0,0,91.2,17.25Zm11.783-.07a6.1,6.1,0,0,0,2.134-.369,5.029,5.029,0,0,0,1.686-1.032,4.652,4.652,0,0,0,1.107-1.58,5.288,5.288,0,0,0,0-4.025,4.653,4.653,0,0,0-1.107-1.58,5.03,5.03,0,0,0-1.686-1.032,6.353,6.353,0,0,0-4.271,0,5.062,5.062,0,0,0-1.692,1.032,4.661,4.661,0,0,0-1.113,1.58,5.254,5.254,0,0,0,0,4.025,4.661,4.661,0,0,0,1.113,1.58,5.063,5.063,0,0,0,1.692,1.032A6.119,6.119,0,0,0,102.987,17.18Zm0-2.308a2.619,2.619,0,0,1-.983-.184,2.28,2.28,0,0,1-.79-.53,2.429,2.429,0,0,1-.526-.845,3.417,3.417,0,0,1,0-2.254,2.429,2.429,0,0,1,.526-.845,2.28,2.28,0,0,1,.79-.53,2.711,2.711,0,0,1,1.963,0,2.25,2.25,0,0,1,.784.53,2.425,2.425,0,0,1,.52.845,3.466,3.466,0,0,1,0,2.254,2.425,2.425,0,0,1-.52.845,2.25,2.25,0,0,1-.784.53A2.6,2.6,0,0,1,102.987,14.872Zm7.2,2.165h2.817V3.657h-2.817Zm12.37-9.7-2.782,6.6-2.691-6.6h-2.907l4.081,9.7h2.908l4.1-9.7Zm13.118,4.888a5.556,5.556,0,0,0-.389-2.1,4.544,4.544,0,0,0-1.07-1.584,4.7,4.7,0,0,0-1.606-1,5.893,5.893,0,0,0-4.056.025A4.948,4.948,0,0,0,126.913,8.6a4.716,4.716,0,0,0-1.088,1.581,5.145,5.145,0,0,0-.394,2.006,5.071,5.071,0,0,0,.394,2,4.581,4.581,0,0,0,1.119,1.582,5.123,5.123,0,0,0,1.749,1.041,6.755,6.755,0,0,0,2.285.375,7.3,7.3,0,0,0,1.239-.1,5.52,5.52,0,0,0,1.085-.3,4.518,4.518,0,0,0,.926-.491,4.191,4.191,0,0,0,.762-.679l-1.5-1.624a3.736,3.736,0,0,1-.518.413,3.075,3.075,0,0,1-.566.293,3.23,3.23,0,0,1-.634.174,4.254,4.254,0,0,1-.722.058,3.722,3.722,0,0,1-1.022-.135,2.714,2.714,0,0,1-.824-.387,2.291,2.291,0,0,1-.6-.613,2.439,2.439,0,0,1-.341-.814h7.355c0-.059.01-.122.016-.187s.012-.132.018-.2.011-.132.014-.2S135.678,12.277,135.678,12.223Zm-5.042-2.9a2.651,2.651,0,0,1,.878.143,2.208,2.208,0,0,1,1.228,1.044,2.615,2.615,0,0,1,.279.833h-4.789a2.623,2.623,0,0,1,.279-.841,2.191,2.191,0,0,1,.516-.636,2.232,2.232,0,0,1,.719-.4A2.743,2.743,0,0,1,130.635,9.319Zm9.615-.7V7.334h-2.693v9.707h2.82V12.458a3.606,3.606,0,0,1,.185-1.207,2.189,2.189,0,0,1,.524-.843,2.142,2.142,0,0,1,.816-.495,3.254,3.254,0,0,1,1.06-.162c.054,0,.106,0,.157,0l.152.008.156.012.168.013v-2.6a5.9,5.9,0,0,0-1.059.091,4.338,4.338,0,0,0-.918.27,3.425,3.425,0,0,0-.766.446A3.1,3.1,0,0,0,140.251,8.615Z" fill="#fffcd6"/></g></g></svg>