<svg xmlns="http://www.w3.org/2000/svg" xmlns:xlink="http://www.w3.org/1999/xlink" width="272.187" height="130.766" viewBox="0 0 272.187 130.766"><defs><linearGradient id="a" x1="0.789" y1="0.898" x2="0.154" y2="0.124" gradientUnits="objectBoundingBox"><stop offset="0" stop-color="#3b018c"/><stop offset="1" stop-color="#ac3eb4"/></linearGradient></defs><g transform="translate(82.888 70.531) rotate(180)"><g transform="translate(12.516)" fill="url(#a)"><path d="M 35.18596267700195 69.37203979492188 C 30.57044219970703 69.37203979492188 26.0935230255127 68.46830749511719 21.87955284118652 66.68594360351562 C 17.8088321685791 64.96417236328125 14.15274238586426 62.49908828735352 11.01284313201904 59.35918807983398 C 7.872932910919189 56.21928024291992 5.407862663269043 52.56317901611328 3.686092615127563 48.49245071411133 C 1.903732657432556 44.27848052978516 1.00000262260437 39.80154037475586 1.00000262260437 35.18601989746094 C 1.00000262260437 30.57049942016602 1.903732657432556 26.09355926513672 3.686092615127563 21.87958908081055 C 5.407862663269043 17.80886077880859 7.872932910919189 14.15275955200195 11.01284313201904 11.01284980773926 C 14.15274238586426 7.872950077056885 17.8088321685791 5.407869815826416 21.87955284118652 3.686100006103516 C 26.0935230255127 1.903729915618896 30.57044219970703 0.9999998807907104 35.18596267700195 0.9999998807907104 C 39.80148315429688 0.9999998807907104 44.27840423583984 1.903729915618896 48.49238204956055 3.686100006103516 C 52.56310272216797 5.407869815826416 56.21919250488281 7.872950077056885 59.35909271240234 11.01284980773926 C 62.49899291992188 14.15275955200195 64.96406555175781 17.80886077880859 66.68582916259766 21.87958908081055 C 68.46819305419922 26.09355926513672 69.37192535400391 30.57049942016602 69.37192535400391 35.18601989746094 C 69.37192535400391 39.80154037475586 68.46819305419922 44.27848052978516 66.68582916259766 48.49245071411133 C 64.96406555175781 52.56317901611328 62.49899291992188 56.21928024291992 59.35909271240234 59.35918807983398 C 56.21919250488281 62.49908828735352 52.56310272216797 64.96417236328125 48.49238204956055 66.68594360351562 C 44.27840423583984 68.46830749511719 39.80148315429688 69.37203979492188 35.18596267700195 69.37203979492188 Z" stroke="none"/><path d="M 35.18596267700195 68.37203979492188 C 39.66691970825195 68.37203979492188 44.01278305053711 67.49488830566406 48.10282897949219 65.76493835449219 C 52.05435180664062 64.09358978271484 55.60359573364258 61.70047378540039 58.65198516845703 58.6520881652832 C 61.70037460327148 55.60368728637695 64.09348297119141 52.0544319152832 65.76483154296875 48.10290908813477 C 67.49477386474609 44.01285171508789 68.37193298339844 39.66698837280273 68.37193298339844 35.18601989746094 C 68.37193298339844 30.70505332946777 67.49477386474609 26.35918617248535 65.76483154296875 22.26913070678711 C 64.09348297119141 18.31760787963867 61.70037460327148 14.76835346221924 58.65198516845703 11.7199535369873 C 55.60359573364258 8.671564102172852 52.05435180664062 6.278453350067139 48.10282897949219 4.607097625732422 C 44.01278305053711 2.877153158187866 39.66691970825195 1.999997615814209 35.18596267700195 1.999997615814209 C 30.70500755310059 1.999997615814209 26.35915184020996 2.877153158187866 22.26910781860352 4.607097625732422 C 18.31758499145508 6.278453350067139 14.76832962036133 8.671564102172852 11.71994018554688 11.7199535369873 C 8.671551704406738 14.76835346221924 6.278451442718506 18.31760787963867 4.607096195220947 22.26914215087891 C 2.877151489257812 26.35918617248535 1.999996066093445 30.70505332946777 1.999996066093445 35.18601989746094 C 1.999996066093445 39.66698837280273 2.877151489257812 44.01285171508789 4.607096195220947 48.10289764404297 C 6.278451442718506 52.0544319152832 8.671551704406738 55.60368728637695 11.71994018554688 58.6520881652832 C 14.76832962036133 61.70047378540039 18.31758499145508 64.09358978271484 22.26910781860352 65.76493835449219 C 26.35915184020996 67.49488830566406 30.70500755310059 68.37203979492188 35.18596267700195 68.37203979492188 M 35.18596267700195 70.37203979492188 C 15.7532958984375 70.37203979492188 -3.989664492110023e-06 54.61872100830078 -3.989664492110023e-06 35.18601989746094 C -3.989664492110023e-06 15.75331974029541 15.7532958984375 -2.324761226191185e-06 35.18596267700195 -2.324761226191185e-06 C 54.6186408996582 -2.324761226191185e-06 70.37193298339844 15.75331974029541 70.37193298339844 35.18601989746094 C 70.37193298339844 54.61872100830078 54.6186408996582 70.37203979492188 35.18596267700195 70.37203979492188 Z" stroke="none" fill="#a800b0"/></g><g transform="translate(66.229 53.406) rotate(-180)"><path d="M148.35,384.748a.537.537,0,1,0-.806.711l1.735,1.965v5.646a.537.537,0,0,0,1.074,0v-5.849a.538.538,0,0,0-.134-.355Z" transform="translate(-136.851 -357.154)" fill="#fffcd6"/><path d="M75.428,217.919a5.6,5.6,0,0,1-.848-6.15l.726-1.505a.537.537,0,0,0-.968-.467l-.726,1.505a6.671,6.671,0,0,0,1.01,7.328l2.245,2.543a.537.537,0,0,0,.806-.711Z" transform="translate(-67.721 -194.622)" fill="#fffcd6"/><path d="M124.323,95.594a2.564,2.564,0,0,0-1.782.719,2.569,2.569,0,0,0-4.1-.654,2.57,2.57,0,0,0-4.068-.607,2.573,2.573,0,0,0-4.84,1.217v2.252a3.648,3.648,0,0,0-3.179,1.61.537.537,0,0,0,.891.6,2.58,2.58,0,0,1,3.369-.829l6.448,3.461a1.028,1.028,0,0,1,0,1.811l-.846.455a4.211,4.211,0,0,1-3.867.06l-1.955-.974a.537.537,0,0,0-.48.962l1.955.974a5.287,5.287,0,0,0,4.856-.075l.064-.035,1.072,1.29a3.3,3.3,0,0,1,.759,2.1v3.094a.537.537,0,0,0,1.075,0v-3.094a4.374,4.374,0,0,0-1.007-2.789l-.94-1.131a2.1,2.1,0,0,0,.727-2.643,2.566,2.566,0,0,0,3.606-.051,2.57,2.57,0,0,0,3.385,1.048v1.281a.537.537,0,0,0,1.074,0v-2.28a2.557,2.557,0,0,0,.358-1.307v-3.9A2.576,2.576,0,0,0,124.323,95.594ZM110.607,98.73v-2.46a1.5,1.5,0,0,1,3,0v4.021l-2.484-1.333A3.739,3.739,0,0,0,110.607,98.73Zm4.072,2.137V96.884a1.5,1.5,0,0,1,3,0v4.629a1.5,1.5,0,0,1-.25.828Zm5.571,2.145a1.5,1.5,0,0,1-1.5-1.5V97.486a1.5,1.5,0,0,1,3,0v4.028A1.5,1.5,0,0,1,120.251,103.012Zm4.072.55a1.5,1.5,0,0,1-1.5-1.5v-3.9a1.5,1.5,0,0,1,3,0v3.9A1.5,1.5,0,0,1,124.323,103.562Z" transform="translate(-98.65 -87.119)" fill="#fffcd6"/><path d="M353.892,285.042a.537.537,0,0,0-.537.537v4.869a4.545,4.545,0,0,1-.623,2.3l-.814,1.391a1.327,1.327,0,0,0-.182.67v5.871a.537.537,0,0,0,1.075,0V294.8a.251.251,0,0,1,.034-.127l.814-1.391a5.621,5.621,0,0,0,.77-2.838v-4.869A.537.537,0,0,0,353.892,285.042Z" transform="translate(-326.54 -264.759)" fill="#fffcd6"/><path d="M337.183,7.032a.537.537,0,0,0,.742-.161L340.6,2.709a.537.537,0,1,0-.9-.581L337.022,6.29A.537.537,0,0,0,337.183,7.032Z" transform="translate(-312.801 -1.881)" fill="#fffcd6"/><path d="M414.729,13.24a.537.537,0,0,0,.754-.091l5.956-7.592a.537.537,0,1,0-.845-.663l-5.956,7.592A.537.537,0,0,0,414.729,13.24Z" transform="translate(-384.83 -4.487)" fill="#fffcd6"/><path d="M466.967,198.07l-2.39,1.329a.537.537,0,1,0,.522.939l2.39-1.329a.537.537,0,0,0-.522-.939Z" transform="translate(-431.042 -183.954)" fill="#fffcd6"/><path d="M467.432,318.267l-2.317-1.4a.537.537,0,1,0-.555.92l2.317,1.4a.537.537,0,1,0,.555-.92Z" transform="translate(-431.041 -294.234)" fill="#fffcd6"/><path d="M406.132,384.463a.537.537,0,0,0-.817.7l.861,1.008a.537.537,0,1,0,.817-.7Z" transform="translate(-376.161 -356.884)" fill="#fffcd6"/><path d="M439.553,423.578a.537.537,0,0,0-.817.7l3,3.51a.537.537,0,1,0,.817-.7Z" transform="translate(-407.188 -393.197)" fill="#fffcd6"/><path d="M277.868,17.056a.537.537,0,0,0,.679-.34l.593-1.784a.537.537,0,0,0-1.02-.339l-.593,1.784A.537.537,0,0,0,277.868,17.056Z" transform="translate(-257.622 -13.341)" fill="#fffcd6"/><path d="M126.1,6.871a.537.537,0,1,0,.9-.581l-2.679-4.162a.537.537,0,1,0-.9.581Z" transform="translate(-114.498 -1.881)" fill="#fffcd6"/><path d="M6.216,12.223a.537.537,0,1,0,.841-.669L.958,3.89a.537.537,0,1,0-.841.669Z" transform="translate(-0.001 -3.558)" fill="#fffcd6"/><path d="M2.821,200.344a.537.537,0,1,0,.5-.951L.787,198.064a.537.537,0,1,0-.5.951Z" transform="translate(0 -183.954)" fill="#fffcd6"/><path d="M6.329,317.052a.537.537,0,0,0-.738-.182l-2.317,1.4a.537.537,0,1,0,.555.92l2.317-1.4A.537.537,0,0,0,6.329,317.052Z" transform="translate(-2.798 -294.235)" fill="#fffcd6"/><path d="M84.2,384.4a.537.537,0,0,0-.757.06l-.861,1.008a.537.537,0,1,0,.817.7l.861-1.008A.537.537,0,0,0,84.2,384.4Z" transform="translate(-76.55 -356.884)" fill="#fffcd6"/><path d="M23.076,423.519a.537.537,0,0,0-.757.059l-3,3.51a.537.537,0,0,0,.817.7l3-3.51A.537.537,0,0,0,23.076,423.519Z" transform="translate(-17.816 -393.197)" fill="#fffcd6"/><path d="M212.5,16.716a.537.537,0,0,0,1.02-.339l-.593-1.784a.537.537,0,0,0-1.02.339Z" transform="translate(-196.703 -13.341)" fill="#fffcd6"/></g><g transform="translate(433.942 435.934) rotate(-180)"><path d="M439.965,406.8v2.9h-.876v-2.9l-3.358-5.493h.948l2.878,4.712,2.879-4.712h.887Z" fill="#fdffeb"/><path d="M443.171,406.553a3.208,3.208,0,1,1,3.214,3.214A3.1,3.1,0,0,1,443.171,406.553Zm5.553,0a2.348,2.348,0,1,0-2.339,2.458A2.3,2.3,0,0,0,448.724,406.553Z" fill="#fdffeb"/><path d="M457.016,403.4v6.309H456.2v-1.151a2.51,2.51,0,0,1-2.266,1.211,2.444,2.444,0,0,1-2.663-2.71V403.4h.852v3.575a1.765,1.765,0,0,0,1.9,2.026,2.051,2.051,0,0,0,2.146-2.291V403.4Z" fill="#fdffeb"/><path d="M462.584,403.351v.827c-.072,0-.144-.012-.2-.012a2.04,2.04,0,0,0-2.122,2.326v3.215h-.852V403.4h.816v1.236A2.377,2.377,0,0,1,462.584,403.351Z" fill="#fdffeb"/><path d="M473.167,406.049v3.658h-.852v-3.574a1.761,1.761,0,0,0-1.895-2.015,2.067,2.067,0,0,0-2.206,2.278v3.311h-.852v-8.9h.852V404.5a2.667,2.667,0,0,1,2.362-1.151A2.414,2.414,0,0,1,473.167,406.049Z" fill="#fdffeb"/><path d="M475.294,401.407a.615.615,0,0,1,.624-.6.6.6,0,0,1,.623.588.624.624,0,0,1-1.247.011Zm.192,1.991h.852v6.309h-.852Z" fill="#fdffeb"/><path d="M484.556,403.4v5.541c0,2.171-1.068,3.155-3.155,3.155a4.4,4.4,0,0,1-2.938-.972l.432-.647a3.754,3.754,0,0,0,2.482.863c1.595,0,2.327-.732,2.327-2.291v-.8a2.84,2.84,0,0,1-2.459,1.224,3.06,3.06,0,1,1,0-6.116,2.845,2.845,0,0,1,2.494,1.258V403.4Zm-.828,3a2.394,2.394,0,1,0-2.4,2.315A2.255,2.255,0,0,0,483.728,406.4Z" fill="#fdffeb"/><path d="M492.751,406.049v3.658H491.9v-3.574A1.762,1.762,0,0,0,490,404.118,2.067,2.067,0,0,0,487.8,406.4v3.311h-.852v-8.9h.852V404.5a2.667,2.667,0,0,1,2.362-1.151A2.414,2.414,0,0,1,492.751,406.049Z" fill="#fdffeb"/><path d="M503.972,403.4v8.635h-.852V408.52a2.756,2.756,0,0,1-2.4,1.247,3.209,3.209,0,0,1,0-6.416,2.744,2.744,0,0,1,2.434,1.295V403.4Zm-.84,3.155a2.348,2.348,0,1,0-2.339,2.458A2.314,2.314,0,0,0,503.132,406.553Z" fill="#fdffeb"/><path d="M512.035,403.4v6.309h-.815v-1.151a2.51,2.51,0,0,1-2.267,1.211,2.444,2.444,0,0,1-2.663-2.71V403.4h.852v3.575A1.766,1.766,0,0,0,509.037,409a2.052,2.052,0,0,0,2.147-2.291V403.4Z" fill="#fdffeb"/><path d="M519.188,405.8v3.91h-.816v-.983a2.37,2.37,0,0,1-2.171,1.043c-1.427,0-2.3-.744-2.3-1.835,0-.972.624-1.787,2.436-1.787h2v-.384c0-1.079-.612-1.667-1.787-1.667a3.217,3.217,0,0,0-2.1.744l-.384-.636a4.007,4.007,0,0,1,2.568-.851A2.24,2.24,0,0,1,519.188,405.8Zm-.851,2.015V406.78h-1.98c-1.223,0-1.619.48-1.619,1.128,0,.732.588,1.187,1.6,1.187A2.018,2.018,0,0,0,518.337,407.812Z" fill="#fdffeb"/><path d="M521.507,400.808h.851v8.9h-.851Z" fill="#fdffeb"/><path d="M524.542,401.407a.615.615,0,0,1,.624-.6.6.6,0,0,1,.624.588.624.624,0,0,1-1.248.011Zm.192,1.991h.852v6.309h-.852Z" fill="#fdffeb"/><path d="M531.284,409.323a2.028,2.028,0,0,1-1.331.444,1.672,1.672,0,0,1-1.848-1.835v-3.814h-1.126v-.72H528.1v-1.379h.852V403.4h1.919v.72h-1.919v3.766a1.011,1.011,0,0,0,1.092,1.151,1.407,1.407,0,0,0,.935-.324Z" fill="#fdffeb"/><path d="M538.015,403.4l-3.155,7.064c-.527,1.235-1.2,1.632-2.1,1.632a2.16,2.16,0,0,1-1.535-.576l.4-.636a1.577,1.577,0,0,0,1.151.48c.564,0,.948-.264,1.308-1.055l.275-.613-2.818-6.3h.888l2.375,5.362,2.374-5.362Z" fill="#fdffeb"/><path d="M541.485,408.987l.384-.672a3.812,3.812,0,0,0,2.243.708c1.2,0,1.692-.408,1.692-1.031,0-1.643-4.09-.348-4.09-2.843,0-1.031.887-1.8,2.494-1.8a4.27,4.27,0,0,1,2.23.587l-.371.683a3.231,3.231,0,0,0-1.859-.539c-1.14,0-1.643.443-1.643,1.043,0,1.7,4.09.42,4.09,2.843,0,1.092-.96,1.8-2.6,1.8A4.217,4.217,0,0,1,541.485,408.987Z" fill="#fdffeb"/><path d="M553.723,406.816h-5.278a2.335,2.335,0,0,0,2.483,2.195,2.486,2.486,0,0,0,1.93-.827l.481.551a3.335,3.335,0,0,1-5.745-2.182,3.038,3.038,0,0,1,3.082-3.2,3.005,3.005,0,0,1,3.058,3.2C553.734,406.624,553.723,406.721,553.723,406.816Zm-5.278-.635h4.474a2.242,2.242,0,0,0-4.474,0Z" fill="#fdffeb"/><path d="M555.478,400.808h.851v8.9h-.851Z" fill="#fdffeb"/><path d="M559.677,402.654v.744h1.942v.72H559.7v5.589h-.851v-5.589h-1.127v-.72h1.127v-.779a1.737,1.737,0,0,1,1.907-1.871,2,2,0,0,1,1.259.4l-.287.635a1.447,1.447,0,0,0-.936-.311C560.061,401.468,559.677,401.875,559.677,402.654Z" fill="#fdffeb"/><path d="M562.186,406.085h3.142v.743h-3.142Z" fill="#fdffeb"/><path d="M577.647,406.049v3.658H576.8v-3.574c0-1.331-.672-2.015-1.811-2.015a2.027,2.027,0,0,0-2.111,2.278v3.311h-.852v-3.574c0-1.331-.671-2.015-1.823-2.015a2.032,2.032,0,0,0-2.11,2.278v3.311h-.852V403.4h.816v1.152a2.55,2.55,0,0,1,2.314-1.2,2.264,2.264,0,0,1,2.243,1.331,2.747,2.747,0,0,1,2.495-1.331A2.38,2.38,0,0,1,577.647,406.049Z" fill="#fdffeb"/><path d="M584.73,405.8v3.91h-.816v-.983a2.37,2.37,0,0,1-2.171,1.043c-1.427,0-2.3-.744-2.3-1.835,0-.972.624-1.787,2.436-1.787h2v-.384c0-1.079-.612-1.667-1.787-1.667a3.213,3.213,0,0,0-2.1.744l-.384-.636a4.007,4.007,0,0,1,2.568-.851A2.24,2.24,0,0,1,584.73,405.8Zm-.851,2.015V406.78H581.9c-1.223,0-1.619.48-1.619,1.128,0,.732.588,1.187,1.6,1.187A2.018,2.018,0,0,0,583.879,407.812Z" fill="#fdffeb"/><path d="M592.854,406.049v3.658H592v-3.574a1.761,1.761,0,0,0-1.9-2.015A2.068,2.068,0,0,0,587.9,406.4v3.311h-.851V403.4h.815v1.164a2.651,2.651,0,0,1,2.4-1.211A2.414,2.414,0,0,1,592.854,406.049Z" fill="#fdffeb"/><path d="M599.934,405.8v3.91h-.816v-.983a2.37,2.37,0,0,1-2.171,1.043c-1.426,0-2.3-.744-2.3-1.835,0-.972.624-1.787,2.435-1.787h2v-.384c0-1.079-.612-1.667-1.787-1.667a3.217,3.217,0,0,0-2.1.744l-.383-.636a4,4,0,0,1,2.567-.851A2.24,2.24,0,0,1,599.934,405.8Zm-.851,2.015V406.78H597.1c-1.224,0-1.62.48-1.62,1.128,0,.732.588,1.187,1.6,1.187A2.018,2.018,0,0,0,599.083,407.812Z" fill="#fdffeb"/><path d="M608.118,403.4v5.541c0,2.171-1.067,3.155-3.154,3.155a4.4,4.4,0,0,1-2.939-.972l.432-.647a3.76,3.76,0,0,0,2.482.863c1.6,0,2.328-.732,2.328-2.291v-.8a2.841,2.841,0,0,1-2.459,1.224,3.06,3.06,0,1,1,0-6.116,2.85,2.85,0,0,1,2.495,1.258V403.4Zm-.828,3a2.394,2.394,0,1,0-2.4,2.315A2.255,2.255,0,0,0,607.29,406.4Z" fill="#fdffeb"/><path d="M616,406.816h-5.277a2.334,2.334,0,0,0,2.482,2.195,2.488,2.488,0,0,0,1.931-.827l.48.551a3.335,3.335,0,0,1-5.745-2.182,3.038,3.038,0,0,1,3.082-3.2,3.006,3.006,0,0,1,3.059,3.2C616.014,406.624,616,406.721,616,406.816Zm-5.277-.635H615.2a2.241,2.241,0,0,0-4.473,0Z" fill="#fdffeb"/><path d="M617.289,406.085h3.143v.743h-3.143Z" fill="#fdffeb"/><path d="M440.851,420.448v3.658H440v-3.574c0-1.331-.672-2.014-1.812-2.014a2.027,2.027,0,0,0-2.11,2.279v3.309h-.852v-3.574c0-1.331-.671-2.014-1.823-2.014a2.033,2.033,0,0,0-2.111,2.279v3.309h-.851V417.8h.815v1.151a2.553,2.553,0,0,1,2.315-1.2,2.267,2.267,0,0,1,2.243,1.331,2.748,2.748,0,0,1,2.495-1.331A2.381,2.381,0,0,1,440.851,420.448Z" fill="#fdffeb"/><path d="M448.689,421.216h-5.276a2.334,2.334,0,0,0,2.482,2.2,2.488,2.488,0,0,0,1.931-.827l.48.551a3.335,3.335,0,0,1-5.745-2.183,3.038,3.038,0,0,1,3.082-3.2,3.007,3.007,0,0,1,3.059,3.2C448.7,421.024,448.689,421.12,448.689,421.216Zm-5.276-.635h4.473a2.241,2.241,0,0,0-4.473,0Z" fill="#fdffeb"/><path d="M456.25,420.448v3.658H455.4v-3.574a1.761,1.761,0,0,0-1.9-2.014A2.068,2.068,0,0,0,451.3,420.8v3.309h-.851V417.8h.815v1.164a2.651,2.651,0,0,1,2.4-1.212A2.415,2.415,0,0,1,456.25,420.448Z" fill="#fdffeb"/><path d="M461.891,423.723a2.033,2.033,0,0,1-1.331.444,1.672,1.672,0,0,1-1.848-1.835v-3.814h-1.127v-.72h1.127v-1.379h.852V417.8h1.919v.72h-1.919v3.765a1.011,1.011,0,0,0,1.092,1.152,1.409,1.409,0,0,0,.935-.324Z" fill="#fdffeb"/><path d="M465.709,423.387l.384-.671a3.816,3.816,0,0,0,2.243.707c1.2,0,1.691-.407,1.691-1.031,0-1.644-4.09-.348-4.09-2.843,0-1.031.888-1.8,2.495-1.8a4.283,4.283,0,0,1,2.231.588l-.372.683a3.24,3.24,0,0,0-1.859-.54c-1.14,0-1.643.445-1.643,1.044,0,1.7,4.089.42,4.089,2.842,0,1.092-.959,1.8-2.6,1.8A4.214,4.214,0,0,1,465.709,423.387Z" fill="#fdffeb"/><path d="M474.792,420.94l-1.487,1.368v1.8h-.852v-8.9h.852v6.032l3.765-3.442h1.056l-2.7,2.579,2.951,3.729h-1.044Z" fill="#fdffeb"/><path d="M479.377,415.808a.614.614,0,0,1,.624-.6.6.6,0,0,1,.623.587.624.624,0,0,1-1.247.013Zm.192,1.99h.852v6.308h-.852Z" fill="#fdffeb"/><path d="M482.8,415.208h.851v8.9H482.8Z" fill="#fdffeb"/><path d="M486.025,415.208h.852v8.9h-.852Z" fill="#fdffeb"/><path d="M488.378,423.387l.384-.671a3.811,3.811,0,0,0,2.242.707c1.2,0,1.691-.407,1.691-1.031,0-1.644-4.09-.348-4.09-2.843,0-1.031.888-1.8,2.495-1.8a4.283,4.283,0,0,1,2.231.588l-.372.683a3.24,3.24,0,0,0-1.859-.54c-1.139,0-1.643.445-1.643,1.044,0,1.7,4.09.42,4.09,2.842,0,1.092-.96,1.8-2.6,1.8A4.21,4.21,0,0,1,488.378,423.387Z" fill="#fdffeb"/><path d="M508.676,420.448v3.658h-.852v-3.574c0-1.331-.672-2.014-1.811-2.014A2.028,2.028,0,0,0,503.9,420.8v3.309h-.851v-3.574c0-1.331-.672-2.014-1.823-2.014a2.033,2.033,0,0,0-2.111,2.279v3.309h-.851V417.8h.815v1.151a2.551,2.551,0,0,1,2.315-1.2,2.268,2.268,0,0,1,2.243,1.331,2.745,2.745,0,0,1,2.494-1.331A2.382,2.382,0,0,1,508.676,420.448Z" fill="#fdffeb"/><path d="M516.515,421.216h-5.278a2.336,2.336,0,0,0,2.483,2.2,2.486,2.486,0,0,0,1.93-.827l.481.551a3.335,3.335,0,0,1-5.745-2.183,3.038,3.038,0,0,1,3.082-3.2,3.006,3.006,0,0,1,3.058,3.2C516.526,421.024,516.515,421.12,516.515,421.216Zm-5.278-.635h4.474a2.241,2.241,0,0,0-4.474,0Z" fill="#fdffeb"/><path d="M522.852,420.2v3.909h-.817v-.983a2.368,2.368,0,0,1-2.171,1.044c-1.426,0-2.3-.744-2.3-1.835,0-.972.624-1.787,2.435-1.787h2v-.384c0-1.08-.612-1.667-1.787-1.667a3.215,3.215,0,0,0-2.1.743l-.383-.635a4,4,0,0,1,2.567-.852A2.241,2.241,0,0,1,522.852,420.2ZM522,422.212v-1.031h-1.979c-1.224,0-1.62.479-1.62,1.127,0,.731.588,1.187,1.6,1.187A2.019,2.019,0,0,0,522,422.212Z" fill="#fdffeb"/><path d="M530.975,420.448v3.658h-.852v-3.574a1.76,1.76,0,0,0-1.894-2.014,2.068,2.068,0,0,0-2.207,2.279v3.309h-.852V417.8h.815v1.164a2.652,2.652,0,0,1,2.4-1.212A2.415,2.415,0,0,1,530.975,420.448Z" fill="#fdffeb"/><path d="M532.418,423.387l.384-.671a3.816,3.816,0,0,0,2.243.707c1.2,0,1.691-.407,1.691-1.031,0-1.644-4.089-.348-4.089-2.843,0-1.031.886-1.8,2.494-1.8a4.279,4.279,0,0,1,2.23.588l-.371.683a3.242,3.242,0,0,0-1.859-.54c-1.14,0-1.643.445-1.643,1.044,0,1.7,4.09.42,4.09,2.842,0,1.092-.96,1.8-2.6,1.8A4.212,4.212,0,0,1,532.418,423.387Z" fill="#fdffeb"/><path d="M545.628,423.723a2.033,2.033,0,0,1-1.331.444,1.672,1.672,0,0,1-1.848-1.835v-3.814h-1.127v-.72h1.127v-1.379h.852V417.8h1.919v.72H543.3v3.765a1.011,1.011,0,0,0,1.092,1.152,1.409,1.409,0,0,0,.935-.324Z" fill="#fdffeb"/><path d="M552.982,420.448v3.658h-.851v-3.574a1.761,1.761,0,0,0-1.895-2.014,2.068,2.068,0,0,0-2.207,2.279v3.309h-.851v-8.9h.851V418.9a2.667,2.667,0,0,1,2.363-1.151A2.415,2.415,0,0,1,552.982,420.448Z" fill="#fdffeb"/><path d="M560.063,420.2v3.909h-.816v-.983a2.368,2.368,0,0,1-2.171,1.044c-1.427,0-2.3-.744-2.3-1.835,0-.972.624-1.787,2.436-1.787h2v-.384c0-1.08-.612-1.667-1.787-1.667a3.217,3.217,0,0,0-2.1.743l-.384-.635a4.008,4.008,0,0,1,2.568-.852A2.24,2.24,0,0,1,560.063,420.2Zm-.851,2.015v-1.031h-1.98c-1.223,0-1.619.479-1.619,1.127,0,.731.588,1.187,1.6,1.187A2.019,2.019,0,0,0,559.212,422.212Z" fill="#fdffeb"/><path d="M565.7,423.723a2.033,2.033,0,0,1-1.331.444,1.672,1.672,0,0,1-1.848-1.835v-3.814H561.4v-.72h1.127v-1.379h.852V417.8H565.3v.72h-1.919v3.765a1.011,1.011,0,0,0,1.092,1.152,1.409,1.409,0,0,0,.935-.324Z" fill="#fdffeb"/><path d="M575.7,417.8l-3.154,7.064c-.527,1.236-1.2,1.631-2.1,1.631a2.157,2.157,0,0,1-1.535-.575l.4-.636a1.576,1.576,0,0,0,1.151.48c.564,0,.947-.264,1.308-1.056l.275-.611-2.818-6.3h.887l2.375,5.361,2.374-5.361Z" fill="#fdffeb"/><path d="M576.085,420.952a3.208,3.208,0,1,1,3.214,3.215A3.1,3.1,0,0,1,576.085,420.952Zm5.553,0a2.348,2.348,0,1,0-2.339,2.459A2.3,2.3,0,0,0,581.638,420.952Z" fill="#fdffeb"/><path d="M589.93,417.8v6.308h-.816v-1.151a2.507,2.507,0,0,1-2.266,1.212,2.443,2.443,0,0,1-2.663-2.711V417.8h.851v3.574a1.766,1.766,0,0,0,1.9,2.027,2.051,2.051,0,0,0,2.146-2.291V417.8Z" fill="#fdffeb"/><path d="M604.724,417.8l-2.387,6.308h-.8l-1.991-5.168-1.99,5.168h-.8l-2.375-6.308h.815l1.98,5.361,2.026-5.361h.732l2.015,5.361,2-5.361Z" fill="#fdffeb"/><path d="M611.326,421.216h-5.277a2.335,2.335,0,0,0,2.482,2.2,2.488,2.488,0,0,0,1.931-.827l.48.551a3.335,3.335,0,0,1-5.745-2.183,3.038,3.038,0,0,1,3.082-3.2,3.007,3.007,0,0,1,3.059,3.2C611.338,421.024,611.326,421.12,611.326,421.216Zm-5.277-.635h4.473a2.241,2.241,0,0,0-4.473,0Z" fill="#fdffeb"/><path d="M616.259,417.75v.828c-.071,0-.144-.013-.2-.013a2.041,2.041,0,0,0-2.123,2.328v3.213h-.852V417.8h.816v1.235A2.378,2.378,0,0,1,616.259,417.75Z" fill="#fdffeb"/><path d="M623.23,421.216h-5.278a2.336,2.336,0,0,0,2.483,2.2,2.486,2.486,0,0,0,1.93-.827l.481.551a3.335,3.335,0,0,1-5.745-2.183,3.038,3.038,0,0,1,3.082-3.2,3.006,3.006,0,0,1,3.058,3.2C623.241,421.024,623.23,421.12,623.23,421.216Zm-5.278-.635h4.474a2.241,2.241,0,0,0-4.474,0Z" fill="#fdffeb"/><path d="M419.262,434.6v3.909h-.816v-.984a2.367,2.367,0,0,1-2.171,1.044c-1.427,0-2.3-.744-2.3-1.835,0-.971.623-1.787,2.434-1.787h2v-.383c0-1.081-.612-1.667-1.787-1.667a3.214,3.214,0,0,0-2.1.743l-.383-.636a4,4,0,0,1,2.566-.852A2.242,2.242,0,0,1,419.262,434.6Zm-.852,2.014v-1.031h-1.979c-1.223,0-1.619.48-1.619,1.127,0,.731.588,1.188,1.6,1.188A2.019,2.019,0,0,0,418.41,436.612Z" fill="#fdffeb"/><path d="M427.973,435.353a3.061,3.061,0,0,1-3.142,3.214,2.734,2.734,0,0,1-2.435-1.307v1.247h-.815v-8.9h.851V433.4a2.755,2.755,0,0,1,2.4-1.247A3.052,3.052,0,0,1,427.973,435.353Zm-.851,0a2.353,2.353,0,1,0-2.351,2.459A2.316,2.316,0,0,0,427.122,435.353Z" fill="#fdffeb"/><path d="M429.716,429.608h.852v8.9h-.852Z" fill="#fdffeb"/><path d="M438.437,435.616H433.16a2.336,2.336,0,0,0,2.483,2.2,2.491,2.491,0,0,0,1.931-.828l.479.551a3.334,3.334,0,0,1-5.744-2.182,3.038,3.038,0,0,1,3.082-3.2,3.007,3.007,0,0,1,3.058,3.2C438.449,435.425,438.437,435.521,438.437,435.616Zm-5.277-.635h4.474a2.242,2.242,0,0,0-4.474,0Z" fill="#fdffeb"/><path d="M446.658,438.123a2.024,2.024,0,0,1-1.331.444,1.671,1.671,0,0,1-1.847-1.835v-3.814h-1.127v-.72h1.127v-1.379h.852V432.2h1.919v.72h-1.919v3.766a1.009,1.009,0,0,0,1.091,1.151,1.4,1.4,0,0,0,.935-.323Z" fill="#fdffeb"/><path d="M447.345,435.353a3.208,3.208,0,1,1,3.214,3.214A3.1,3.1,0,0,1,447.345,435.353Zm5.552,0a2.347,2.347,0,1,0-2.338,2.459A2.3,2.3,0,0,0,452.9,435.353Z" fill="#fdffeb"/><path d="M467.907,432.2l-2.386,6.309h-.8l-1.991-5.169-1.991,5.169h-.8l-2.375-6.309h.816l1.979,5.362,2.026-5.362h.732l2.015,5.362,2-5.362Z" fill="#fdffeb"/><path d="M468.381,435.353a3.208,3.208,0,1,1,3.214,3.214A3.1,3.1,0,0,1,468.381,435.353Zm5.553,0a2.348,2.348,0,1,0-2.339,2.459A2.3,2.3,0,0,0,473.934,435.353Z" fill="#fdffeb"/><path d="M479.718,432.15v.829c-.072,0-.144-.013-.2-.013a2.04,2.04,0,0,0-2.122,2.327v3.214h-.852V432.2h.815v1.236A2.381,2.381,0,0,1,479.718,432.15Z" fill="#fdffeb"/><path d="M483.6,435.341l-1.488,1.367v1.8h-.851v-8.9h.851v6.033l3.766-3.443h1.056l-2.7,2.579,2.951,3.73h-1.043Z" fill="#fdffeb"/><path d="M496.373,434.6v3.909h-.815v-.984a2.368,2.368,0,0,1-2.171,1.044c-1.427,0-2.3-.744-2.3-1.835,0-.971.624-1.787,2.435-1.787h2v-.383c0-1.081-.612-1.667-1.788-1.667a3.209,3.209,0,0,0-2.1.743l-.384-.636a4,4,0,0,1,2.566-.852A2.241,2.241,0,0,1,496.373,434.6Zm-.851,2.014v-1.031h-1.979c-1.224,0-1.619.48-1.619,1.127,0,.731.588,1.188,1.6,1.188A2.019,2.019,0,0,0,495.522,436.612Z" fill="#fdffeb"/><path d="M498.692,429.608h.852v8.9h-.852Z" fill="#fdffeb"/><path d="M501.284,435.353a3.209,3.209,0,1,1,3.215,3.214A3.1,3.1,0,0,1,501.284,435.353Zm5.553,0a2.348,2.348,0,1,0-2.338,2.459A2.3,2.3,0,0,0,506.837,435.353Z" fill="#fdffeb"/><path d="M515.249,434.849v3.658H514.4v-3.574a1.761,1.761,0,0,0-1.894-2.015A2.068,2.068,0,0,0,510.3,435.2v3.31h-.852V432.2h.816v1.164a2.652,2.652,0,0,1,2.4-1.212A2.416,2.416,0,0,1,515.249,434.849Z" fill="#fdffeb"/><path d="M523.086,435.616h-5.277a2.335,2.335,0,0,0,2.482,2.2,2.489,2.489,0,0,0,1.931-.828l.48.551a3.335,3.335,0,0,1-5.745-2.182,3.039,3.039,0,0,1,3.082-3.2,3.007,3.007,0,0,1,3.059,3.2C523.1,435.425,523.086,435.521,523.086,435.616Zm-5.277-.635h4.473a2.241,2.241,0,0,0-4.473,0Z" fill="#fdffeb"/><path d="M532.746,434.6v3.909h-.816v-.984a2.368,2.368,0,0,1-2.171,1.044c-1.427,0-2.3-.744-2.3-1.835,0-.971.624-1.787,2.436-1.787h2v-.383c0-1.081-.613-1.667-1.788-1.667a3.21,3.21,0,0,0-2.1.743l-.384-.636a4,4,0,0,1,2.567-.852A2.242,2.242,0,0,1,532.746,434.6Zm-.851,2.014v-1.031h-1.98c-1.224,0-1.619.48-1.619,1.127,0,.731.588,1.188,1.6,1.188A2.02,2.02,0,0,0,531.9,436.612Z" fill="#fdffeb"/><path d="M540.869,434.849v3.658h-.851v-3.574a1.762,1.762,0,0,0-1.9-2.015,2.069,2.069,0,0,0-2.207,2.279v3.31h-.852V432.2h.816v1.164a2.653,2.653,0,0,1,2.4-1.212A2.416,2.416,0,0,1,540.869,434.849Z" fill="#fdffeb"/><path d="M548.969,429.608v8.9h-.816V437.26a2.732,2.732,0,0,1-2.434,1.307,3.209,3.209,0,0,1,0-6.417,2.755,2.755,0,0,1,2.4,1.247v-3.789Zm-.84,5.745a2.348,2.348,0,1,0-2.339,2.459A2.307,2.307,0,0,0,548.129,435.353Z" fill="#fdffeb"/><path d="M560.176,432.2v6.309h-.816v-1.152a2.506,2.506,0,0,1-2.266,1.212,2.443,2.443,0,0,1-2.663-2.711V432.2h.851v3.574a1.767,1.767,0,0,0,1.9,2.028,2.051,2.051,0,0,0,2.146-2.291V432.2Z" fill="#fdffeb"/><path d="M568.372,434.849v3.658h-.851v-3.574a1.762,1.762,0,0,0-1.9-2.015,2.069,2.069,0,0,0-2.207,2.279v3.31h-.852V432.2h.816v1.164a2.652,2.652,0,0,1,2.4-1.212A2.416,2.416,0,0,1,568.372,434.849Z" fill="#fdffeb"/><path d="M569.815,437.787l.384-.671a3.812,3.812,0,0,0,2.243.707c1.2,0,1.692-.407,1.692-1.031,0-1.644-4.09-.348-4.09-2.843,0-1.031.887-1.8,2.494-1.8a4.283,4.283,0,0,1,2.231.588l-.372.684a3.23,3.23,0,0,0-1.859-.54c-1.14,0-1.642.444-1.642,1.044,0,1.7,4.089.42,4.089,2.842,0,1.091-.96,1.8-2.6,1.8A4.217,4.217,0,0,1,569.815,437.787Z" fill="#fdffeb"/><path d="M582.244,432.2v6.309h-.815v-1.152a2.509,2.509,0,0,1-2.267,1.212,2.444,2.444,0,0,1-2.663-2.711V432.2h.852v3.574a1.766,1.766,0,0,0,1.895,2.028,2.052,2.052,0,0,0,2.147-2.291V432.2Z" fill="#fdffeb"/><path d="M591.028,435.353a3.055,3.055,0,0,1-3.142,3.214,2.753,2.753,0,0,1-2.4-1.248v3.515h-.851V432.2h.815v1.248a2.749,2.749,0,0,1,2.435-1.3A3.052,3.052,0,0,1,591.028,435.353Zm-.851,0a2.353,2.353,0,1,0-2.351,2.459A2.323,2.323,0,0,0,590.177,435.353Z" fill="#fdffeb"/><path d="M598.265,435.616h-5.278a2.336,2.336,0,0,0,2.483,2.2,2.487,2.487,0,0,0,1.93-.828l.481.551a3.335,3.335,0,0,1-5.745-2.182,3.038,3.038,0,0,1,3.082-3.2,3.007,3.007,0,0,1,3.058,3.2C598.276,435.425,598.265,435.521,598.265,435.616Zm-5.278-.635h4.474a2.242,2.242,0,0,0-4.474,0Z" fill="#fdffeb"/><path d="M603.2,432.15v.829c-.071,0-.143-.013-.2-.013a2.041,2.041,0,0,0-2.123,2.327v3.214h-.851V432.2h.815v1.236A2.379,2.379,0,0,1,603.2,432.15Z" fill="#fdffeb"/><path d="M604.363,434.885h3.143v.744h-3.143Z" fill="#fdffeb"/><path d="M405.457,446.6l-2.807,6.308h-.875L398.98,446.6h.888l2.362,5.373,2.387-5.373Z" fill="#fdffeb"/><path d="M406.468,444.607a.615.615,0,0,1,.623-.6.6.6,0,0,1,.624.588.624.624,0,0,1-1.247.011Zm.192,1.992h.851v6.308h-.851Z" fill="#fdffeb"/><path d="M409.012,452.188l.384-.672a3.814,3.814,0,0,0,2.243.708c1.2,0,1.691-.409,1.691-1.032,0-1.643-4.09-.348-4.09-2.842,0-1.032.887-1.8,2.494-1.8a4.271,4.271,0,0,1,2.231.587l-.371.683a3.242,3.242,0,0,0-1.86-.539c-1.139,0-1.643.444-1.643,1.043,0,1.7,4.09.42,4.09,2.843,0,1.092-.959,1.8-2.6,1.8A4.22,4.22,0,0,1,409.012,452.188Z" fill="#fdffeb"/><path d="M421.249,450.017h-5.277a2.334,2.334,0,0,0,2.482,2.194,2.485,2.485,0,0,0,1.931-.827l.48.552a3.336,3.336,0,0,1-5.745-2.183,3.038,3.038,0,0,1,3.082-3.2,3.005,3.005,0,0,1,3.059,3.2C421.261,449.824,421.249,449.921,421.249,450.017Zm-5.277-.636h4.473a2.241,2.241,0,0,0-4.473,0Z" fill="#fdffeb"/><path d="M428.761,444.008v8.9h-.816v-1.248a2.733,2.733,0,0,1-2.435,1.308,3.209,3.209,0,0,1,0-6.416,2.754,2.754,0,0,1,2.4,1.247v-3.79Zm-.84,5.745a2.348,2.348,0,1,0-2.338,2.458A2.307,2.307,0,0,0,427.921,449.753Z" fill="#fdffeb"/><path d="M431.871,452.308a1.958,1.958,0,0,1-.168.695l-.5,1.655h-.575l.408-1.739a.606.606,0,0,1-.432-.611.636.636,0,1,1,1.271,0Z" fill="#fdffeb"/><path d="M436.192,449.753a3.1,3.1,0,0,1,3.25-3.2,2.758,2.758,0,0,1,2.471,1.247l-.636.431a2.146,2.146,0,0,0-1.835-.935,2.46,2.46,0,0,0,0,4.917,2.132,2.132,0,0,0,1.835-.923l.636.432a2.783,2.783,0,0,1-2.471,1.247A3.115,3.115,0,0,1,436.192,449.753Z" fill="#fdffeb"/><path d="M442.84,449.753a3.208,3.208,0,1,1,3.214,3.214A3.1,3.1,0,0,1,442.84,449.753Zm5.553,0a2.348,2.348,0,1,0-2.339,2.458A2.3,2.3,0,0,0,448.393,449.753Z" fill="#fdffeb"/><path d="M456.8,449.249v3.658h-.851v-3.574a1.762,1.762,0,0,0-1.895-2.015,2.068,2.068,0,0,0-2.207,2.279v3.31H451V446.6h.815v1.163a2.65,2.65,0,0,1,2.4-1.211A2.414,2.414,0,0,1,456.8,449.249Z" fill="#fdffeb"/><path d="M461.174,443.948a2,2,0,0,1,1.26.4l-.288.635a1.443,1.443,0,0,0-.936-.311c-.731,0-1.115.407-1.115,1.186v.745h1.943v.719h-1.919v5.589h-.852v-5.589H458.14V446.6h1.127v-.78A1.737,1.737,0,0,1,461.174,443.948Zm4.03.648a.624.624,0,1,1-.623-.588A.6.6,0,0,1,465.2,444.6Zm-1.056,2H465v6.308h-.852Z" fill="#fdffeb"/><path d="M473.136,444.008v8.9h-.816v-1.248a2.731,2.731,0,0,1-2.434,1.308,3.209,3.209,0,0,1,0-6.416,2.754,2.754,0,0,1,2.4,1.247v-3.79Zm-.84,5.745a2.347,2.347,0,1,0-2.338,2.458A2.307,2.307,0,0,0,472.3,449.753Z" fill="#fdffeb"/><path d="M481.008,450.017H475.73a2.335,2.335,0,0,0,2.483,2.194,2.49,2.49,0,0,0,1.932-.827l.479.552a3.336,3.336,0,0,1-5.745-2.183,3.038,3.038,0,0,1,3.082-3.2,3.006,3.006,0,0,1,3.059,3.2C481.02,449.824,481.008,449.921,481.008,450.017Zm-5.278-.636H480.2a2.242,2.242,0,0,0-4.474,0Z" fill="#fdffeb"/><path d="M488.567,449.249v3.658h-.851v-3.574a1.761,1.761,0,0,0-1.895-2.015,2.068,2.068,0,0,0-2.207,2.279v3.31h-.851V446.6h.815v1.163a2.651,2.651,0,0,1,2.4-1.211A2.414,2.414,0,0,1,488.567,449.249Z" fill="#fdffeb"/><path d="M494.209,452.523a2.028,2.028,0,0,1-1.331.444,1.672,1.672,0,0,1-1.848-1.835v-3.814H489.9V446.6h1.127v-1.38h.852v1.38H493.8v.719h-1.919v3.766a1.01,1.01,0,0,0,1.092,1.151,1.409,1.409,0,0,0,.935-.324Z" fill="#fdffeb"/><path d="M498.711,444.607a.615.615,0,0,1,.624-.6.6.6,0,0,1,.623.588.624.624,0,0,1-1.247.011Zm.192,1.992h.852v6.308H498.9Z" fill="#fdffeb"/><path d="M507.936,449.249v3.658h-.852v-3.574a1.761,1.761,0,0,0-1.9-2.015,2.068,2.068,0,0,0-2.207,2.279v3.31h-.851V446.6h.815v1.163a2.651,2.651,0,0,1,2.4-1.211A2.415,2.415,0,0,1,507.936,449.249Z" fill="#fdffeb"/><path d="M518.7,446.6l-3.154,7.063c-.527,1.235-1.2,1.632-2.1,1.632a2.158,2.158,0,0,1-1.535-.576l.4-.636a1.573,1.573,0,0,0,1.151.481c.563,0,.947-.265,1.308-1.056l.275-.612-2.818-6.3h.887l2.375,5.361,2.374-5.361Z" fill="#fdffeb"/><path d="M519.087,449.753a3.208,3.208,0,1,1,3.214,3.214A3.1,3.1,0,0,1,519.087,449.753Zm5.553,0a2.348,2.348,0,1,0-2.339,2.458A2.3,2.3,0,0,0,524.64,449.753Z" fill="#fdffeb"/><path d="M532.932,446.6v6.308h-.816v-1.151a2.509,2.509,0,0,1-2.266,1.211,2.444,2.444,0,0,1-2.663-2.71V446.6h.851v3.574a1.765,1.765,0,0,0,1.9,2.026,2.051,2.051,0,0,0,2.146-2.291V446.6Z" fill="#fdffeb"/><path d="M538.5,446.551v.827c-.071,0-.144-.012-.2-.012a2.04,2.04,0,0,0-2.123,2.326v3.215h-.852V446.6h.816v1.235A2.377,2.377,0,0,1,538.5,446.551Z" fill="#fdffeb"/><path d="M542.643,449.753a3.208,3.208,0,1,1,3.213,3.214A3.1,3.1,0,0,1,542.643,449.753Zm5.552,0a2.347,2.347,0,1,0-2.339,2.458A2.3,2.3,0,0,0,548.2,449.753Z" fill="#fdffeb"/><path d="M559.882,446.6l-2.387,6.308h-.8l-1.991-5.169-1.99,5.169h-.8l-2.375-6.308h.816l1.979,5.361,2.027-5.361h.731l2.016,5.361,2-5.361Z" fill="#fdffeb"/><path d="M566.976,449.249v3.658h-.852v-3.574a1.761,1.761,0,0,0-1.894-2.015,2.069,2.069,0,0,0-2.208,2.279v3.31h-.851V446.6h.815v1.163a2.651,2.651,0,0,1,2.4-1.211A2.415,2.415,0,0,1,566.976,449.249Z" fill="#fdffeb"/><path d="M577.2,449v3.91h-.815v-.983a2.37,2.37,0,0,1-2.171,1.043c-1.427,0-2.3-.743-2.3-1.835,0-.972.624-1.787,2.436-1.787h2v-.384c0-1.079-.613-1.667-1.787-1.667a3.217,3.217,0,0,0-2.1.744l-.384-.636a4.005,4.005,0,0,1,2.568-.851A2.24,2.24,0,0,1,577.2,449Zm-.85,2.015V449.98h-1.98c-1.223,0-1.619.48-1.619,1.128,0,.732.588,1.187,1.6,1.187A2.018,2.018,0,0,0,576.349,451.012Z" fill="#fdffeb"/><path d="M585.911,449.753a3.062,3.062,0,0,1-3.142,3.214,2.734,2.734,0,0,1-2.435-1.308v1.248h-.815v-8.9h.851v3.79a2.753,2.753,0,0,1,2.4-1.247A3.052,3.052,0,0,1,585.911,449.753Zm-.851,0a2.353,2.353,0,1,0-2.351,2.458A2.317,2.317,0,0,0,585.06,449.753Z" fill="#fdffeb"/><path d="M587.462,444.607a.615.615,0,0,1,.624-.6.6.6,0,0,1,.624.588.624.624,0,0,1-1.248.011Zm.192,1.992h.852v6.308h-.852Z" fill="#fdffeb"/><path d="M590.882,444.008h.851v8.9h-.851Z" fill="#fdffeb"/><path d="M593.917,444.607a.615.615,0,0,1,.624-.6.6.6,0,0,1,.624.588.624.624,0,0,1-1.248.011Zm.192,1.992h.852v6.308h-.852Z" fill="#fdffeb"/><path d="M600.659,452.523a2.028,2.028,0,0,1-1.331.444,1.672,1.672,0,0,1-1.848-1.835v-3.814h-1.126V446.6h1.126v-1.38h.852v1.38h1.919v.719h-1.919v3.766a1.011,1.011,0,0,0,1.092,1.151,1.407,1.407,0,0,0,.935-.324Z" fill="#fdffeb"/><path d="M607.39,446.6l-3.155,7.063c-.527,1.235-1.2,1.632-2.1,1.632a2.156,2.156,0,0,1-1.535-.576l.4-.636a1.574,1.574,0,0,0,1.151.481c.564,0,.948-.265,1.308-1.056l.275-.612-2.818-6.3h.888l2.375,5.361,2.374-5.361Z" fill="#fdffeb"/><path d="M615.059,452.523a2.028,2.028,0,0,1-1.331.444,1.672,1.672,0,0,1-1.848-1.835v-3.814h-1.127V446.6h1.127v-1.38h.851v1.38h1.919v.719h-1.919v3.766a1.01,1.01,0,0,0,1.092,1.151,1.41,1.41,0,0,0,.936-.324Z" fill="#fdffeb"/><path d="M615.745,449.753a3.208,3.208,0,1,1,3.214,3.214A3.1,3.1,0,0,1,615.745,449.753Zm5.553,0a2.348,2.348,0,1,0-2.339,2.458A2.3,2.3,0,0,0,621.3,449.753Z" fill="#fdffeb"/><path d="M410.566,463.648v3.659h-.852v-3.575c0-1.331-.671-2.014-1.811-2.014A2.028,2.028,0,0,0,405.792,464v3.31h-.851v-3.575c0-1.331-.671-2.014-1.823-2.014A2.033,2.033,0,0,0,401.007,464v3.31h-.851V461h.815v1.151a2.554,2.554,0,0,1,2.315-1.2,2.269,2.269,0,0,1,2.243,1.331,2.747,2.747,0,0,1,2.494-1.331A2.381,2.381,0,0,1,410.566,463.648Z" fill="#fdffeb"/><path d="M417.649,463.4v3.91h-.815v-.984a2.369,2.369,0,0,1-2.171,1.044c-1.428,0-2.3-.744-2.3-1.835,0-.971.623-1.787,2.434-1.787h2v-.384c0-1.08-.611-1.667-1.787-1.667a3.2,3.2,0,0,0-2.1.744l-.384-.636a4,4,0,0,1,2.566-.852A2.241,2.241,0,0,1,417.649,463.4Zm-.852,2.015v-1.031h-1.979c-1.223,0-1.619.479-1.619,1.127,0,.731.588,1.187,1.6,1.187A2.019,2.019,0,0,0,416.8,465.412Z" fill="#fdffeb"/><path d="M425.772,463.648v3.659h-.851v-3.575a1.761,1.761,0,0,0-1.895-2.014A2.069,2.069,0,0,0,420.819,464v3.31h-.851V461h.815v1.164a2.653,2.653,0,0,1,2.4-1.212A2.415,2.415,0,0,1,425.772,463.648Z" fill="#fdffeb"/><path d="M432.853,463.4v3.91h-.815v-.984a2.369,2.369,0,0,1-2.171,1.044c-1.428,0-2.3-.744-2.3-1.835,0-.971.624-1.787,2.435-1.787h2v-.384c0-1.08-.611-1.667-1.787-1.667a3.2,3.2,0,0,0-2.1.744l-.384-.636a4,4,0,0,1,2.566-.852A2.241,2.241,0,0,1,432.853,463.4ZM432,465.412v-1.031h-1.979c-1.223,0-1.619.479-1.619,1.127,0,.731.588,1.187,1.6,1.187A2.017,2.017,0,0,0,432,465.412Z" fill="#fdffeb"/><path d="M441.037,461v5.541c0,2.171-1.068,3.154-3.155,3.154a4.4,4.4,0,0,1-2.938-.971l.432-.648a3.751,3.751,0,0,0,2.482.864c1.6,0,2.327-.732,2.327-2.291v-.8a2.84,2.84,0,0,1-2.459,1.223,3.06,3.06,0,1,1,0-6.117,2.847,2.847,0,0,1,2.495,1.26V461Zm-.828,3a2.394,2.394,0,1,0-2.4,2.315A2.256,2.256,0,0,0,440.209,464Z" fill="#fdffeb"/><path d="M448.92,464.416h-5.276a2.334,2.334,0,0,0,2.482,2.2,2.488,2.488,0,0,0,1.931-.827l.48.551a3.335,3.335,0,0,1-5.745-2.183,3.038,3.038,0,0,1,3.082-3.2,3.007,3.007,0,0,1,3.059,3.2C448.933,464.225,448.92,464.32,448.92,464.416Zm-5.276-.635h4.473a2.241,2.241,0,0,0-4.473,0Z" fill="#fdffeb"/><path d="M459.121,461l-3.155,7.065c-.527,1.235-1.2,1.63-2.1,1.63a2.155,2.155,0,0,1-1.535-.575l.4-.636a1.572,1.572,0,0,0,1.151.48c.563,0,.947-.264,1.307-1.056l.276-.611-2.818-6.3h.887l2.375,5.361L458.281,461Z" fill="#fdffeb"/><path d="M459.508,464.152a3.208,3.208,0,1,1,3.214,3.215A3.1,3.1,0,0,1,459.508,464.152Zm5.553,0a2.348,2.348,0,1,0-2.339,2.459A2.3,2.3,0,0,0,465.061,464.152Z" fill="#fdffeb"/><path d="M473.353,461v6.309h-.816v-1.152a2.509,2.509,0,0,1-2.266,1.212,2.443,2.443,0,0,1-2.663-2.711V461h.851v3.574a1.767,1.767,0,0,0,1.9,2.028,2.051,2.051,0,0,0,2.146-2.291V461Z" fill="#fdffeb"/><path d="M478.921,460.95v.828c-.072,0-.144-.012-.2-.012a2.04,2.04,0,0,0-2.122,2.327v3.214h-.852V461h.816v1.235A2.38,2.38,0,0,1,478.921,460.95Z" fill="#fdffeb"/><path d="M487.022,466.923a2.03,2.03,0,0,1-1.333.444,1.671,1.671,0,0,1-1.846-1.835v-3.814h-1.127V461h1.127v-1.379h.851V461h1.919v.72h-1.919v3.765a1.01,1.01,0,0,0,1.092,1.152,1.412,1.412,0,0,0,.935-.323Z" fill="#fdffeb"/><path d="M488.379,459.008a.615.615,0,0,1,.624-.6.6.6,0,0,1,.623.587.624.624,0,0,1-1.247.013Zm.192,1.99h.852v6.309h-.852Z" fill="#fdffeb"/><path d="M502.21,463.648v3.659h-.852v-3.575c0-1.331-.671-2.014-1.811-2.014a2.027,2.027,0,0,0-2.11,2.279v3.31h-.852v-3.575c0-1.331-.672-2.014-1.823-2.014A2.034,2.034,0,0,0,492.651,464v3.31H491.8V461h.815v1.151a2.554,2.554,0,0,1,2.315-1.2,2.269,2.269,0,0,1,2.243,1.331,2.745,2.745,0,0,1,2.494-1.331A2.382,2.382,0,0,1,502.21,463.648Z" fill="#fdffeb"/><path d="M510.049,464.416h-5.277a2.334,2.334,0,0,0,2.482,2.2,2.488,2.488,0,0,0,1.931-.827l.48.551a3.335,3.335,0,0,1-5.745-2.183,3.038,3.038,0,0,1,3.082-3.2,3.007,3.007,0,0,1,3.059,3.2C510.061,464.225,510.049,464.32,510.049,464.416Zm-5.277-.635h4.473a2.241,2.241,0,0,0-4.473,0Z" fill="#fdffeb"/><path d="M512.535,466.707a1.949,1.949,0,0,1-.168.7l-.5,1.656h-.575l.407-1.739a.606.606,0,0,1-.431-.612.636.636,0,1,1,1.271,0Z" fill="#fdffeb"/><path d="M527.9,463.648v3.659h-.851v-3.575c0-1.331-.672-2.014-1.811-2.014A2.028,2.028,0,0,0,523.128,464v3.31h-.852v-3.575c0-1.331-.671-2.014-1.823-2.014a2.033,2.033,0,0,0-2.11,2.279v3.31h-.852V461h.816v1.151a2.552,2.552,0,0,1,2.314-1.2,2.268,2.268,0,0,1,2.243,1.331,2.749,2.749,0,0,1,2.494-1.331A2.381,2.381,0,0,1,527.9,463.648Z" fill="#fdffeb"/><path d="M534.984,463.4v3.91h-.816v-.984A2.368,2.368,0,0,1,532,467.367c-1.427,0-2.3-.744-2.3-1.835,0-.971.624-1.787,2.436-1.787h2v-.384c0-1.08-.612-1.667-1.787-1.667a3.208,3.208,0,0,0-2.1.744l-.384-.636a4.008,4.008,0,0,1,2.568-.852A2.241,2.241,0,0,1,534.984,463.4Zm-.851,2.015v-1.031h-1.98c-1.223,0-1.619.479-1.619,1.127,0,.731.588,1.187,1.6,1.187A2.019,2.019,0,0,0,534.133,465.412Z" fill="#fdffeb"/><path d="M543.107,463.648v3.659h-.851v-3.575a1.761,1.761,0,0,0-1.895-2.014A2.069,2.069,0,0,0,538.154,464v3.31H537.3V461h.815v1.164a2.654,2.654,0,0,1,2.4-1.212A2.415,2.415,0,0,1,543.107,463.648Z" fill="#fdffeb"/><path d="M550.188,463.4v3.91h-.816v-.984a2.368,2.368,0,0,1-2.171,1.044c-1.427,0-2.3-.744-2.3-1.835,0-.971.624-1.787,2.436-1.787h2v-.384c0-1.08-.612-1.667-1.787-1.667a3.212,3.212,0,0,0-2.1.744l-.384-.636a4.008,4.008,0,0,1,2.568-.852A2.241,2.241,0,0,1,550.188,463.4Zm-.851,2.015v-1.031h-1.98c-1.223,0-1.619.479-1.619,1.127,0,.731.588,1.187,1.6,1.187A2.019,2.019,0,0,0,549.337,465.412Z" fill="#fdffeb"/><path d="M558.371,461v5.541c0,2.171-1.067,3.154-3.154,3.154a4.4,4.4,0,0,1-2.939-.971l.432-.648a3.753,3.753,0,0,0,2.482.864c1.6,0,2.328-.732,2.328-2.291v-.8a2.843,2.843,0,0,1-2.459,1.223,3.06,3.06,0,1,1,0-6.117,2.849,2.849,0,0,1,2.5,1.26V461Zm-.828,3a2.394,2.394,0,1,0-2.4,2.315A2.255,2.255,0,0,0,557.543,464Z" fill="#fdffeb"/><path d="M566.255,464.416h-5.277a2.334,2.334,0,0,0,2.482,2.2,2.488,2.488,0,0,0,1.931-.827l.48.551a3.335,3.335,0,0,1-5.745-2.183,3.038,3.038,0,0,1,3.082-3.2,3.007,3.007,0,0,1,3.059,3.2C566.267,464.225,566.255,464.32,566.255,464.416Zm-5.277-.635h4.473a2.241,2.241,0,0,0-4.473,0Z" fill="#fdffeb"/><path d="M576.454,461l-3.154,7.065c-.528,1.235-1.2,1.63-2.1,1.63a2.157,2.157,0,0,1-1.535-.575l.4-.636a1.576,1.576,0,0,0,1.151.48c.563,0,.947-.264,1.308-1.056l.275-.611-2.818-6.3h.887l2.375,5.361L575.614,461Z" fill="#fdffeb"/><path d="M576.842,464.152a3.208,3.208,0,1,1,3.214,3.215A3.1,3.1,0,0,1,576.842,464.152Zm5.553,0a2.348,2.348,0,1,0-2.339,2.459A2.3,2.3,0,0,0,582.4,464.152Z" fill="#fdffeb"/><path d="M590.687,461v6.309h-.816v-1.152a2.509,2.509,0,0,1-2.266,1.212,2.444,2.444,0,0,1-2.664-2.711V461h.852v3.574a1.766,1.766,0,0,0,1.895,2.028,2.051,2.051,0,0,0,2.147-2.291V461Z" fill="#fdffeb"/><path d="M596.256,460.95v.828c-.071,0-.144-.012-.2-.012a2.04,2.04,0,0,0-2.123,2.327v3.214h-.852V461h.816v1.235A2.38,2.38,0,0,1,596.256,460.95Z" fill="#fdffeb"/><path d="M399.28,480.987l.384-.672a3.807,3.807,0,0,0,2.243.708c1.2,0,1.691-.408,1.691-1.031,0-1.643-4.09-.348-4.09-2.843,0-1.031.888-1.8,2.494-1.8a4.271,4.271,0,0,1,2.231.587l-.372.683a3.229,3.229,0,0,0-1.859-.539c-1.139,0-1.643.443-1.643,1.043,0,1.7,4.09.42,4.09,2.843,0,1.092-.959,1.8-2.6,1.8A4.214,4.214,0,0,1,399.28,480.987Z" fill="#fdffeb"/><path d="M409.346,481.323a2.028,2.028,0,0,1-1.331.444,1.672,1.672,0,0,1-1.848-1.835v-3.814h-1.126v-.72h1.126v-1.379h.852V475.4h1.919v.72h-1.919v3.766a1.01,1.01,0,0,0,1.092,1.151,1.407,1.407,0,0,0,.935-.324Z" fill="#fdffeb"/><path d="M414.074,475.351v.827c-.072,0-.144-.012-.2-.012a2.04,2.04,0,0,0-2.122,2.326v3.215H410.9V475.4h.815v1.236A2.379,2.379,0,0,1,414.074,475.351Z" fill="#fdffeb"/><path d="M421.045,478.816h-5.277a2.335,2.335,0,0,0,2.483,2.195,2.49,2.49,0,0,0,1.931-.827l.479.551a3.334,3.334,0,0,1-5.744-2.182,3.038,3.038,0,0,1,3.082-3.2,3.005,3.005,0,0,1,3.058,3.2C421.057,478.624,421.045,478.721,421.045,478.816Zm-5.277-.635h4.474a2.242,2.242,0,0,0-4.474,0Z" fill="#fdffeb"/><path d="M421.925,480.987l.384-.672a3.806,3.806,0,0,0,2.242.708c1.2,0,1.691-.408,1.691-1.031,0-1.643-4.09-.348-4.09-2.843,0-1.031.888-1.8,2.495-1.8a4.273,4.273,0,0,1,2.231.587l-.372.683a3.229,3.229,0,0,0-1.859-.539c-1.139,0-1.643.443-1.643,1.043,0,1.7,4.09.42,4.09,2.843,0,1.092-.96,1.8-2.6,1.8A4.21,4.21,0,0,1,421.925,480.987Z" fill="#fdffeb"/><path d="M427.793,480.987l.384-.672a3.806,3.806,0,0,0,2.242.708c1.2,0,1.691-.408,1.691-1.031,0-1.643-4.089-.348-4.089-2.843,0-1.031.887-1.8,2.494-1.8a4.274,4.274,0,0,1,2.231.587l-.372.683a3.229,3.229,0,0,0-1.859-.539c-1.139,0-1.643.443-1.643,1.043,0,1.7,4.09.42,4.09,2.843,0,1.092-.96,1.8-2.6,1.8A4.213,4.213,0,0,1,427.793,480.987Z" fill="#fdffeb"/><path d="M435.268,481.107a1.958,1.958,0,0,1-.168.7l-.5,1.655h-.576l.408-1.739a.608.608,0,0,1-.432-.612.636.636,0,1,1,1.271,0Z" fill="#fdffeb"/><path d="M444.986,477.8v3.91h-.816v-.983a2.368,2.368,0,0,1-2.17,1.043c-1.428,0-2.3-.744-2.3-1.835,0-.972.623-1.787,2.434-1.787h2v-.384c0-1.079-.612-1.667-1.787-1.667a3.21,3.21,0,0,0-2.1.744l-.384-.636a4,4,0,0,1,2.566-.851A2.24,2.24,0,0,1,444.986,477.8Zm-.852,2.015V478.78h-1.979c-1.223,0-1.619.48-1.619,1.128,0,.732.588,1.187,1.6,1.187A2.017,2.017,0,0,0,444.134,479.812Z" fill="#fdffeb"/><path d="M453.109,478.049v3.658h-.851v-3.574a1.762,1.762,0,0,0-1.895-2.015,2.068,2.068,0,0,0-2.207,2.278v3.311H447.3V475.4h.815v1.164a2.65,2.65,0,0,1,2.4-1.211A2.414,2.414,0,0,1,453.109,478.049Z" fill="#fdffeb"/><path d="M461.209,472.808v8.9h-.815v-1.248a2.734,2.734,0,0,1-2.435,1.308,3.209,3.209,0,0,1,0-6.416,2.754,2.754,0,0,1,2.4,1.247v-3.79Zm-.839,5.745a2.348,2.348,0,1,0-2.339,2.458A2.307,2.307,0,0,0,460.37,478.553Z" fill="#fdffeb"/><path d="M472.417,475.4v6.309H471.6v-1.151a2.511,2.511,0,0,1-2.267,1.211,2.444,2.444,0,0,1-2.663-2.71V475.4h.852v3.575a1.765,1.765,0,0,0,1.9,2.026,2.051,2.051,0,0,0,2.146-2.291V475.4Z" fill="#fdffeb"/><path d="M474.808,472.808h.852v8.9h-.852Z" fill="#fdffeb"/><path d="M481.382,481.323a2.028,2.028,0,0,1-1.331.444,1.672,1.672,0,0,1-1.848-1.835v-3.814h-1.127v-.72H478.2v-1.379h.852V475.4h1.919v.72h-1.919v3.766a1.01,1.01,0,0,0,1.092,1.151,1.409,1.409,0,0,0,.935-.324Z" fill="#fdffeb"/><path d="M482.74,473.407a.615.615,0,0,1,.623-.6.6.6,0,0,1,.624.588.624.624,0,0,1-1.247.011Zm.192,1.991h.851v6.309h-.851Z" fill="#fdffeb"/><path d="M496.57,478.049v3.658h-.851v-3.574c0-1.331-.672-2.015-1.812-2.015a2.027,2.027,0,0,0-2.11,2.278v3.311h-.852v-3.574c0-1.331-.672-2.015-1.823-2.015a2.032,2.032,0,0,0-2.11,2.278v3.311h-.852V475.4h.816v1.152a2.547,2.547,0,0,1,2.314-1.2,2.266,2.266,0,0,1,2.243,1.331,2.745,2.745,0,0,1,2.494-1.331A2.38,2.38,0,0,1,496.57,478.049Z" fill="#fdffeb"/><path d="M503.653,477.8v3.91h-.815v-.983a2.371,2.371,0,0,1-2.171,1.043c-1.428,0-2.3-.744-2.3-1.835,0-.972.623-1.787,2.435-1.787h2v-.384c0-1.079-.613-1.667-1.787-1.667a3.213,3.213,0,0,0-2.1.744l-.384-.636a4.006,4.006,0,0,1,2.567-.851A2.24,2.24,0,0,1,503.653,477.8Zm-.851,2.015V478.78h-1.98c-1.222,0-1.619.48-1.619,1.128,0,.732.588,1.187,1.6,1.187A2.018,2.018,0,0,0,502.8,479.812Z" fill="#fdffeb"/><path d="M509.294,481.323a2.026,2.026,0,0,1-1.331.444,1.672,1.672,0,0,1-1.848-1.835v-3.814h-1.127v-.72h1.127v-1.379h.852V475.4h1.92v.72h-1.92v3.766a1.01,1.01,0,0,0,1.092,1.151,1.407,1.407,0,0,0,.935-.324Z" fill="#fdffeb"/><path d="M516.109,478.816h-5.277a2.335,2.335,0,0,0,2.482,2.195,2.487,2.487,0,0,0,1.931-.827l.481.551a3.336,3.336,0,0,1-5.746-2.182,3.039,3.039,0,0,1,3.083-3.2,3.005,3.005,0,0,1,3.058,3.2C516.121,478.624,516.109,478.721,516.109,478.816Zm-5.277-.635h4.474a2.242,2.242,0,0,0-4.474,0Z" fill="#fdffeb"/><path d="M517.864,472.808h.852v8.9h-.852Z" fill="#fdffeb"/><path d="M526.393,475.4l-3.155,7.064c-.527,1.235-1.2,1.632-2.1,1.632a2.16,2.16,0,0,1-1.535-.576l.4-.636a1.577,1.577,0,0,0,1.151.48c.564,0,.948-.264,1.308-1.055l.275-.613-2.818-6.3h.888l2.375,5.362,2.374-5.362Z" fill="#fdffeb"/><path d="M537.132,478.553a3.055,3.055,0,0,1-3.143,3.214,2.754,2.754,0,0,1-2.4-1.247v3.513h-.852V475.4h.816v1.248a2.745,2.745,0,0,1,2.434-1.295A3.052,3.052,0,0,1,537.132,478.553Zm-.852,0a2.353,2.353,0,1,0-2.35,2.458A2.323,2.323,0,0,0,536.28,478.553Z" fill="#fdffeb"/><path d="M542.053,475.351v.827c-.072,0-.144-.012-.2-.012a2.04,2.04,0,0,0-2.123,2.326v3.215h-.852V475.4h.815v1.236A2.379,2.379,0,0,1,542.053,475.351Z" fill="#fdffeb"/><path d="M542.9,478.553a3.208,3.208,0,1,1,3.213,3.214A3.1,3.1,0,0,1,542.9,478.553Zm5.552,0a2.347,2.347,0,1,0-2.339,2.458A2.3,2.3,0,0,0,548.448,478.553Z" fill="#fdffeb"/><path d="M556.813,472.808v8.9H556v-1.248a2.733,2.733,0,0,1-2.434,1.308,3.209,3.209,0,0,1,0-6.416,2.754,2.754,0,0,1,2.4,1.247v-3.79Zm-.84,5.745a2.348,2.348,0,1,0-2.339,2.458A2.307,2.307,0,0,0,555.973,478.553Z" fill="#fdffeb"/><path d="M564.876,475.4v6.309h-.815v-1.151a2.511,2.511,0,0,1-2.267,1.211,2.444,2.444,0,0,1-2.663-2.71V475.4h.851v3.575a1.766,1.766,0,0,0,1.9,2.026,2.051,2.051,0,0,0,2.146-2.291V475.4Z" fill="#fdffeb"/><path d="M566.632,478.553a3.1,3.1,0,0,1,3.25-3.2,2.758,2.758,0,0,1,2.471,1.247l-.636.431a2.147,2.147,0,0,0-1.835-.935,2.46,2.46,0,0,0,0,4.917,2.134,2.134,0,0,0,1.835-.923l.636.432a2.783,2.783,0,0,1-2.471,1.247A3.114,3.114,0,0,1,566.632,478.553Z" fill="#fdffeb"/><path d="M579.408,478.816h-5.277a2.334,2.334,0,0,0,2.482,2.195,2.488,2.488,0,0,0,1.931-.827l.48.551a3.335,3.335,0,0,1-5.745-2.182,3.038,3.038,0,0,1,3.082-3.2,3.005,3.005,0,0,1,3.059,3.2C579.42,478.624,579.408,478.721,579.408,478.816Zm-5.277-.635H578.6a2.242,2.242,0,0,0-4.474,0Z" fill="#fdffeb"/><path d="M593.565,475.4l-2.386,6.309h-.8l-1.991-5.169-1.99,5.169h-.8l-2.375-6.309h.815l1.98,5.362,2.026-5.362h.732l2.015,5.362,2-5.362Z" fill="#fdffeb"/><path d="M600.659,478.049v3.658h-.851v-3.574a1.762,1.762,0,0,0-1.895-2.015,2.068,2.068,0,0,0-2.207,2.278v3.311h-.851v-8.9h.851V476.5a2.667,2.667,0,0,1,2.362-1.151A2.414,2.414,0,0,1,600.659,478.049Z" fill="#fdffeb"/><path d="M607.74,477.8v3.91h-.816v-.983a2.37,2.37,0,0,1-2.171,1.043c-1.427,0-2.3-.744-2.3-1.835,0-.972.624-1.787,2.436-1.787h2v-.384c0-1.079-.613-1.667-1.787-1.667a3.213,3.213,0,0,0-2.1.744l-.384-.636a4.005,4.005,0,0,1,2.568-.851A2.24,2.24,0,0,1,607.74,477.8Zm-.851,2.015V478.78h-1.98c-1.223,0-1.619.48-1.619,1.128,0,.732.588,1.187,1.6,1.187A2.018,2.018,0,0,0,606.889,479.812Z" fill="#fdffeb"/><path d="M613.381,481.323a2.028,2.028,0,0,1-1.331.444,1.672,1.672,0,0,1-1.848-1.835v-3.814h-1.127v-.72H610.2v-1.379h.852V475.4h1.919v.72h-1.919v3.766a1.01,1.01,0,0,0,1.092,1.151,1.409,1.409,0,0,0,.935-.324Z" fill="#fdffeb"/><path d="M409.415,489.8l-2.387,6.308h-.8l-1.991-5.168-1.99,5.168h-.8l-2.375-6.308h.816l1.979,5.361,2.027-5.361h.731l2.015,5.361,2-5.361Z" fill="#fdffeb"/><path d="M415.273,492.2v3.909h-.815v-.983a2.369,2.369,0,0,1-2.171,1.044c-1.428,0-2.3-.744-2.3-1.835,0-.972.623-1.787,2.434-1.787h2v-.384c0-1.08-.611-1.667-1.787-1.667a3.209,3.209,0,0,0-2.1.743l-.384-.635a4,4,0,0,1,2.566-.852A2.241,2.241,0,0,1,415.273,492.2Zm-.852,2.015v-1.031h-1.979c-1.223,0-1.619.479-1.619,1.127,0,.731.588,1.187,1.6,1.187A2.019,2.019,0,0,0,414.421,494.212Z" fill="#fdffeb"/><path d="M416.716,495.387l.384-.671a3.816,3.816,0,0,0,2.243.707c1.2,0,1.691-.407,1.691-1.031,0-1.644-4.09-.348-4.09-2.843,0-1.031.888-1.8,2.494-1.8a4.28,4.28,0,0,1,2.231.588l-.371.683a3.243,3.243,0,0,0-1.86-.54c-1.139,0-1.643.445-1.643,1.044,0,1.7,4.09.42,4.09,2.842,0,1.092-.959,1.8-2.6,1.8A4.214,4.214,0,0,1,416.716,495.387Z" fill="#fdffeb"/><path d="M432.409,492.448v3.658h-.852v-3.574a1.761,1.761,0,0,0-1.9-2.014,2.068,2.068,0,0,0-2.206,2.279v3.309H426.6V489.8h.815v1.164a2.652,2.652,0,0,1,2.4-1.212A2.415,2.415,0,0,1,432.409,492.448Z" fill="#fdffeb"/><path d="M440.245,493.216h-5.277a2.335,2.335,0,0,0,2.482,2.2,2.489,2.489,0,0,0,1.931-.827l.48.551a3.335,3.335,0,0,1-5.745-2.183,3.038,3.038,0,0,1,3.082-3.2,3.007,3.007,0,0,1,3.059,3.2C440.257,493.024,440.245,493.12,440.245,493.216Zm-5.277-.635h4.473a2.241,2.241,0,0,0-4.473,0Z" fill="#fdffeb"/><path d="M447.493,493.216h-5.277a2.335,2.335,0,0,0,2.482,2.2,2.488,2.488,0,0,0,1.931-.827l.48.551a3.335,3.335,0,0,1-5.745-2.183,3.038,3.038,0,0,1,3.082-3.2,3.007,3.007,0,0,1,3.059,3.2C447.505,493.024,447.493,493.12,447.493,493.216Zm-5.277-.635h4.473a2.241,2.241,0,0,0-4.473,0Z" fill="#fdffeb"/><path d="M455.005,487.208v8.9h-.816v-1.247a2.733,2.733,0,0,1-2.435,1.308,3.209,3.209,0,0,1,0-6.417,2.755,2.755,0,0,1,2.4,1.247v-3.789Zm-.84,5.744a2.347,2.347,0,1,0-2.338,2.459A2.307,2.307,0,0,0,454.165,492.952Z" fill="#fdffeb"/><path d="M462.876,493.216H457.6a2.334,2.334,0,0,0,2.482,2.2,2.488,2.488,0,0,0,1.931-.827l.48.551a3.335,3.335,0,0,1-5.745-2.183,3.038,3.038,0,0,1,3.082-3.2,3.007,3.007,0,0,1,3.059,3.2C462.889,493.024,462.876,493.12,462.876,493.216Zm-5.276-.635h4.473a2.241,2.241,0,0,0-4.473,0Z" fill="#fdffeb"/><path d="M470.389,487.208v8.9h-.816v-1.247a2.733,2.733,0,0,1-2.435,1.308,3.209,3.209,0,0,1,0-6.417,2.756,2.756,0,0,1,2.4,1.247v-3.789Zm-.84,5.744a2.348,2.348,0,1,0-2.339,2.459A2.307,2.307,0,0,0,469.549,492.952Z" fill="#fdffeb"/><path d="M472.216,495.507a.635.635,0,0,1,.636-.648.645.645,0,0,1,.647.648.655.655,0,0,1-.647.66A.645.645,0,0,1,472.216,495.507Z" fill="#fdffeb"/><g transform="translate(438.228 365.402)"><path d="M5.625,17.233a8.153,8.153,0,0,0,2.351-.314,4.874,4.874,0,0,0,1.667-.849,3.532,3.532,0,0,0,.993-1.243,3.486,3.486,0,0,0,.329-1.5A2.928,2.928,0,0,0,9.82,10.869,6.841,6.841,0,0,0,7.3,9.793c-.914-.234-1.829-.4-2.514-.644S3.648,8.566,3.648,7.985a1.2,1.2,0,0,1,.131-.559A1.256,1.256,0,0,1,4.2,6.969a2.223,2.223,0,0,1,.741-.309,4.756,4.756,0,0,1,1.1-.114,6.068,6.068,0,0,1,.851.061,6.745,6.745,0,0,1,.873.184,7.467,7.467,0,0,1,.883.309,8.223,8.223,0,0,1,.881.435l.9-2.213a6.121,6.121,0,0,0-.953-.485,7.92,7.92,0,0,0-1.076-.349,9.377,9.377,0,0,0-1.153-.21,10,10,0,0,0-1.185-.07,8.1,8.1,0,0,0-2.337.312,4.8,4.8,0,0,0-1.655.847A3.508,3.508,0,0,0,1.08,6.614,3.575,3.575,0,0,0,.755,8.129,2.975,2.975,0,0,0,1.9,10.617a6.808,6.808,0,0,0,2.514,1.09c.914.237,1.829.4,2.514.655s1.143.593,1.143,1.183a1.07,1.07,0,0,1-.136.537,1.21,1.21,0,0,1-.43.428,2.386,2.386,0,0,1-.753.282,5.326,5.326,0,0,1-1.107.1,6.951,6.951,0,0,1-1.136-.1,7.739,7.739,0,0,1-1.108-.27,7.482,7.482,0,0,1-1.023-.415,6.125,6.125,0,0,1-.884-.532L.5,15.775a5.311,5.311,0,0,0,.99.592,8.35,8.35,0,0,0,1.241.461,10.412,10.412,0,0,0,1.406.3A10.6,10.6,0,0,0,5.625,17.233Zm16.612-5.019a5.555,5.555,0,0,0-.387-2.1,4.533,4.533,0,0,0-1.065-1.58,4.671,4.671,0,0,0-1.6-1,5.851,5.851,0,0,0-4.036.025A4.922,4.922,0,0,0,13.516,8.6a4.7,4.7,0,0,0-1.083,1.578,5.144,5.144,0,0,0-.392,2,5.069,5.069,0,0,0,.392,1.993,4.569,4.569,0,0,0,1.113,1.578,5.094,5.094,0,0,0,1.741,1.039,6.706,6.706,0,0,0,2.273.374,7.245,7.245,0,0,0,1.233-.1,5.482,5.482,0,0,0,1.08-.3,4.493,4.493,0,0,0,.921-.49,4.174,4.174,0,0,0,.758-.677l-1.493-1.62a3.718,3.718,0,0,1-.516.412,3.057,3.057,0,0,1-.563.292,3.208,3.208,0,0,1-.63.174,4.223,4.223,0,0,1-.718.058,3.7,3.7,0,0,1-1.017-.134,2.7,2.7,0,0,1-.82-.386,2.283,2.283,0,0,1-.594-.612,2.436,2.436,0,0,1-.339-.812h7.319c0-.058.01-.121.016-.186s.012-.132.018-.2.011-.132.014-.195S22.237,12.268,22.237,12.214Zm-5.017-2.9a2.632,2.632,0,0,1,.874.143A2.2,2.2,0,0,1,19.316,10.5a2.614,2.614,0,0,1,.277.831H14.828a2.621,2.621,0,0,1,.278-.839,2.184,2.184,0,0,1,.514-.635,2.219,2.219,0,0,1,.716-.4A2.723,2.723,0,0,1,17.219,9.316Zm6.888,7.7h2.806V3.664H24.107ZM32.6,7.138a2.091,2.091,0,0,1,.083-.622,1.122,1.122,0,0,1,.245-.438,1,1,0,0,1,.4-.259,1.618,1.618,0,0,1,.549-.085,2.16,2.16,0,0,1,.316.023,2.037,2.037,0,0,1,.3.067,1.9,1.9,0,0,1,.274.107,1.752,1.752,0,0,1,.245.145l.738-2.034a2.284,2.284,0,0,0-.443-.233,3.538,3.538,0,0,0-.526-.163A4.844,4.844,0,0,0,34.2,3.55a5.688,5.688,0,0,0-.6-.031,4.71,4.71,0,0,0-1.6.256A3.183,3.183,0,0,0,30.83,4.5a3.085,3.085,0,0,0-.721,1.136,4.263,4.263,0,0,0-.246,1.481v.432H28.37v2.16h1.493V17.02H32.67V9.712h2.411V7.552H32.6Zm3.347,5.941h5.093V10.828H35.945Zm21.713,3.946L57.622,4.416h-2.4L50.58,12.251,45.863,4.418H43.451v12.6h2.736v-7.4l3.691,6.069h1.315L54.9,9.459l.018,7.564Zm6.7-9.835a8.812,8.812,0,0,0-1.157.077,8.328,8.328,0,0,0-1.115.225,6.993,6.993,0,0,0-1.024.367,5.284,5.284,0,0,0-.884.5l1.009,1.963a3.592,3.592,0,0,1,.588-.376,4.541,4.541,0,0,1,.686-.283,5.035,5.035,0,0,1,.747-.179,4.892,4.892,0,0,1,.771-.062,3.424,3.424,0,0,1,.988.129,1.84,1.84,0,0,1,.7.374,1.521,1.521,0,0,1,.413.6,2.229,2.229,0,0,1,.136.808H63.982a7.543,7.543,0,0,0-1.9.212,3.619,3.619,0,0,0-1.292.6,2.37,2.37,0,0,0-.738.917,2.828,2.828,0,0,0-.235,1.175,2.78,2.78,0,0,0,.247,1.165,2.671,2.671,0,0,0,.713.931,3.352,3.352,0,0,0,1.138.617,4.943,4.943,0,0,0,1.524.223,5.291,5.291,0,0,0,.989-.087,3.584,3.584,0,0,0,.827-.257,2.669,2.669,0,0,0,.658-.423,2.415,2.415,0,0,0,.482-.583v1.207h2.631V11.495a5.344,5.344,0,0,0-.314-1.912A3.376,3.376,0,0,0,67.8,8.241a3.848,3.848,0,0,0-1.466-.792A6.843,6.843,0,0,0,64.36,7.189Zm-.216,8.088a2.464,2.464,0,0,1-.666-.084,1.5,1.5,0,0,1-.5-.238,1.047,1.047,0,0,1-.313-.37,1.063,1.063,0,0,1-.108-.479,1.124,1.124,0,0,1,.085-.451.89.89,0,0,1,.286-.36,1.456,1.456,0,0,1,.533-.238,3.444,3.444,0,0,1,.825-.086h1.928v.991a1.961,1.961,0,0,1-.329.578,1.884,1.884,0,0,1-.478.411,2.179,2.179,0,0,1-.592.245A2.725,2.725,0,0,1,64.144,15.278ZM77.463,7.188a5.31,5.31,0,0,0-.95.083,4.52,4.52,0,0,0-.864.246,3.938,3.938,0,0,0-.759.4,3.6,3.6,0,0,0-.636.55V7.333H71.568v9.693H74.38V12.234a3.583,3.583,0,0,1,.173-1.161,2.179,2.179,0,0,1,.482-.814,1.963,1.963,0,0,1,.736-.48,2.652,2.652,0,0,1,.934-.157,2.337,2.337,0,0,1,.832.137,1.552,1.552,0,0,1,.617.419,1.863,1.863,0,0,1,.384.713,3.533,3.533,0,0,1,.132,1.019v5.118h2.813v-5.55a5.558,5.558,0,0,0-.306-1.917,3.546,3.546,0,0,0-.845-1.336,3.446,3.446,0,0,0-1.275-.782A4.779,4.779,0,0,0,77.463,7.188Zm10.477,0a8.826,8.826,0,0,0-1.159.077,8.34,8.34,0,0,0-1.116.225,7,7,0,0,0-1.025.367,5.29,5.29,0,0,0-.884.5l1.01,1.964a3.6,3.6,0,0,1,.589-.376,4.546,4.546,0,0,1,.687-.284,5.042,5.042,0,0,1,.748-.179,4.9,4.9,0,0,1,.772-.062,3.429,3.429,0,0,1,.989.129,1.842,1.842,0,0,1,.7.374,1.522,1.522,0,0,1,.414.6,2.229,2.229,0,0,1,.136.808H87.561a7.554,7.554,0,0,0-1.9.213,3.624,3.624,0,0,0-1.293.6,2.371,2.371,0,0,0-.739.917,2.828,2.828,0,0,0-.235,1.176,2.781,2.781,0,0,0,.247,1.166,2.673,2.673,0,0,0,.713.931,3.356,3.356,0,0,0,1.14.617,4.951,4.951,0,0,0,1.525.224,5.3,5.3,0,0,0,.99-.087,3.589,3.589,0,0,0,.827-.258A2.671,2.671,0,0,0,89.5,16.4a2.417,2.417,0,0,0,.483-.584v1.208h2.634V11.5A5.344,5.344,0,0,0,92.3,9.583a3.378,3.378,0,0,0-.913-1.343,3.853,3.853,0,0,0-1.467-.792A6.853,6.853,0,0,0,87.94,7.188Zm-.216,8.092a2.468,2.468,0,0,1-.666-.084,1.5,1.5,0,0,1-.5-.238,1.048,1.048,0,0,1-.313-.37,1.063,1.063,0,0,1-.108-.48,1.124,1.124,0,0,1,.085-.451.89.89,0,0,1,.287-.36,1.458,1.458,0,0,1,.533-.238,3.449,3.449,0,0,1,.826-.086H89.8v.991a1.961,1.961,0,0,1-.329.578,1.885,1.885,0,0,1-.478.411,2.182,2.182,0,0,1-.593.245A2.729,2.729,0,0,1,87.723,15.28Zm14.885-7.949V8.575a3.427,3.427,0,0,0-.624-.612,3.526,3.526,0,0,0-.752-.433,4.151,4.151,0,0,0-.867-.257,5.313,5.313,0,0,0-.969-.085,5.377,5.377,0,0,0-1.893.334,4.654,4.654,0,0,0-1.542.948,4.36,4.36,0,0,0-1.038,1.478,5.068,5.068,0,0,0,0,3.852,4.361,4.361,0,0,0,1.038,1.479,4.654,4.654,0,0,0,1.542.948,5.537,5.537,0,0,0,2.8.26,4.276,4.276,0,0,0,.822-.225,3.637,3.637,0,0,0,.724-.377,3.429,3.429,0,0,0,.614-.531v.415a3.585,3.585,0,0,1-.166,1.152,2.022,2.022,0,0,1-.515.829,2.2,2.2,0,0,1-.887.5,4.345,4.345,0,0,1-1.283.168,5.934,5.934,0,0,1-.944-.078,6.4,6.4,0,0,1-.926-.222,5.685,5.685,0,0,1-.848-.347,4.151,4.151,0,0,1-.711-.453l-1.119,2.019a5.071,5.071,0,0,0,.965.581,7.192,7.192,0,0,0,1.153.417,9.359,9.359,0,0,0,1.285.252,10.9,10.9,0,0,0,1.361.085,7.794,7.794,0,0,0,2.329-.315,4.377,4.377,0,0,0,1.71-.964,4.1,4.1,0,0,0,1.053-1.641,6.941,6.941,0,0,0,.359-2.344V7.331Zm-2.653,6.923a3.012,3.012,0,0,1-1.025-.172,2.407,2.407,0,0,1-.811-.484,2.182,2.182,0,0,1-.534-.751,2.556,2.556,0,0,1,0-1.945,2.182,2.182,0,0,1,.534-.751,2.407,2.407,0,0,1,.811-.484,3.138,3.138,0,0,1,2.047,0,2.373,2.373,0,0,1,.805.484,2.173,2.173,0,0,1,.528.751,2.591,2.591,0,0,1,0,1.945,2.173,2.173,0,0,1-.528.751,2.373,2.373,0,0,1-.805.484A2.988,2.988,0,0,1,99.955,14.254Zm17.457-2.037a5.556,5.556,0,0,0-.389-2.1,4.542,4.542,0,0,0-1.069-1.583,4.692,4.692,0,0,0-1.6-1,5.887,5.887,0,0,0-4.052.025,4.944,4.944,0,0,0-1.642,1.037,4.715,4.715,0,0,0-1.087,1.581,5.145,5.145,0,0,0-.393,2.005,5.07,5.07,0,0,0,.394,2,4.579,4.579,0,0,0,1.118,1.582,5.118,5.118,0,0,0,1.748,1.041,6.747,6.747,0,0,0,2.283.375,7.29,7.29,0,0,0,1.238-.1,5.514,5.514,0,0,0,1.084-.3,4.514,4.514,0,0,0,.925-.491,4.188,4.188,0,0,0,.761-.679l-1.5-1.623a3.733,3.733,0,0,1-.518.413,3.072,3.072,0,0,1-.565.293,3.227,3.227,0,0,1-.633.174,4.25,4.25,0,0,1-.721.058,3.718,3.718,0,0,1-1.021-.134,2.711,2.711,0,0,1-.823-.386,2.29,2.29,0,0,1-.6-.613,2.439,2.439,0,0,1-.34-.814h7.349c0-.059.01-.122.016-.187s.012-.132.018-.2.011-.132.014-.2S117.412,12.271,117.412,12.217Zm-5.038-2.9a2.648,2.648,0,0,1,.878.143,2.207,2.207,0,0,1,1.227,1.044,2.616,2.616,0,0,1,.278.833h-4.785a2.623,2.623,0,0,1,.279-.84,2.19,2.19,0,0,1,.516-.636,2.229,2.229,0,0,1,.719-.4A2.74,2.74,0,0,1,112.374,9.314Z" fill="#fffcd6"/></g></g></g></svg>