<svg xmlns="http://www.w3.org/2000/svg" width="53" height="51" viewBox="0 0 53 51"><g transform="translate(-483.73 -166.497)"><rect width="53" height="51" rx="25.5" transform="translate(483.73 166.497)" fill="#fff"/><g transform="translate(500.061 181)"><g transform="translate(0 12.105)"><path d="M116.5,234.667a9.847,9.847,0,0,0-9.835,9.835.757.757,0,1,0,1.513,0,8.322,8.322,0,0,1,16.644,0,.757.757,0,1,0,1.513,0A9.847,9.847,0,0,0,116.5,234.667Z" transform="translate(-106.666 -234.667)" fill="#3b018c"/></g><g transform="translate(4.539 0)"><path d="M175.962,64a5.3,5.3,0,1,0,5.3,5.3A5.3,5.3,0,0,0,175.962,64Zm0,9.079a3.783,3.783,0,1,1,3.783-3.783A3.788,3.788,0,0,1,175.962,73.079Z" transform="translate(-170.666 -64)" fill="#3b018c"/></g></g><g transform="translate(489.73 172.497)" fill="none" stroke="#3b018c" stroke-width="2"><rect width="40" height="39" rx="19.5" stroke="none"/><rect x="1" y="1" width="38" height="37" rx="18.5" fill="none"/></g></g></svg>